<?xml version="1.0" encoding="utf-8" standalone="no"?>
<!DOCTYPE svg PUBLIC "-//W3C//DTD SVG 1.1//EN"
  "http://www.w3.org/Graphics/SVG/1.1/DTD/svg11.dtd">
<svg xmlns:xlink="http://www.w3.org/1999/xlink" width="425.19685pt" height="283.464567pt" viewBox="0 0 425.19685 283.464567" xmlns="http://www.w3.org/2000/svg" version="1.1">
 <metadata>
  <rdf:RDF xmlns:dc="http://purl.org/dc/elements/1.1/" xmlns:cc="http://creativecommons.org/ns#" xmlns:rdf="http://www.w3.org/1999/02/22-rdf-syntax-ns#">
   <cc:Work>
    <dc:type rdf:resource="http://purl.org/dc/dcmitype/StillImage"/>
    <dc:date>2026-05-21T17:46:27.398454</dc:date>
    <dc:format>image/svg+xml</dc:format>
    <dc:creator>
     <cc:Agent>
      <dc:title>Matplotlib v3.10.0, https://matplotlib.org/</dc:title>
     </cc:Agent>
    </dc:creator>
   </cc:Work>
  </rdf:RDF>
 </metadata>
 <defs>
  <style type="text/css">*{stroke-linejoin: round; stroke-linecap: butt}</style>
 </defs>
 <g id="figure_1">
  <g id="patch_1">
   <path d="M 0 283.464567 
L 425.19685 283.464567 
L 425.19685 0 
L 0 0 
L 0 283.464567 
z
" style="fill: none; opacity: 0"/>
  </g>
  <g id="axes_1">
   <g id="patch_2">
    <path d="M 46.771654 221.102362 
L 403.937008 221.102362 
L 403.937008 22.677165 
L 46.771654 22.677165 
L 46.771654 221.102362 
z
" style="fill: none; opacity: 0"/>
   </g>
   <g id="matplotlib.axis_1">
    <g id="xtick_1">
     <g id="line2d_1">
      <path d="M 85.289486 221.102362 
L 85.289486 22.677165 
" clip-path="url(#pfb92d5013b)" style="fill: none; stroke: #d0d0d0; stroke-opacity: 0.65; stroke-width: 1.2; stroke-linecap: square"/>
     </g>
     <g id="line2d_2">
      <defs>
       <path id="md8a43a0d5d" d="M 0 0 
L 0 6 
" style="stroke: #000000; stroke-width: 1.5"/>
      </defs>
      <g>
       <use xlink:href="#md8a43a0d5d" x="85.289486" y="221.102362" style="stroke: #000000; stroke-width: 1.5"/>
      </g>
     </g>
     <g id="text_1">
      <text style="font-size: 15px; font-family: 'Tahoma'" transform="translate(0.788153 274.853949) rotate(-22)">Trees 2–10 m</text>
     </g>
    </g>
    <g id="xtick_2">
     <g id="line2d_3">
      <path d="M 155.321908 221.102362 
L 155.321908 22.677165 
" clip-path="url(#pfb92d5013b)" style="fill: none; stroke: #d0d0d0; stroke-opacity: 0.65; stroke-width: 1.2; stroke-linecap: square"/>
     </g>
     <g id="line2d_4">
      <g>
       <use xlink:href="#md8a43a0d5d" x="155.321908" y="221.102362" style="stroke: #000000; stroke-width: 1.5"/>
      </g>
     </g>
     <g id="text_2">
      <text style="font-size: 15px; font-family: 'Tahoma'" transform="translate(63.227809 277.921626) rotate(-22)">Trees 10–15 m</text>
     </g>
    </g>
    <g id="xtick_3">
     <g id="line2d_5">
      <path d="M 225.354331 221.102362 
L 225.354331 22.677165 
" clip-path="url(#pfb92d5013b)" style="fill: none; stroke: #d0d0d0; stroke-opacity: 0.65; stroke-width: 1.2; stroke-linecap: square"/>
     </g>
     <g id="line2d_6">
      <g>
       <use xlink:href="#md8a43a0d5d" x="225.354331" y="221.102362" style="stroke: #000000; stroke-width: 1.5"/>
      </g>
     </g>
     <g id="text_3">
      <text style="font-size: 15px; font-family: 'Tahoma'" transform="translate(145.920637 272.80649) rotate(-22)">Trees &gt;15 m</text>
     </g>
    </g>
    <g id="xtick_4">
     <g id="line2d_7">
      <path d="M 295.386753 221.102362 
L 295.386753 22.677165 
" clip-path="url(#pfb92d5013b)" style="fill: none; stroke: #d0d0d0; stroke-opacity: 0.65; stroke-width: 1.2; stroke-linecap: square"/>
     </g>
     <g id="line2d_8">
      <g>
       <use xlink:href="#md8a43a0d5d" x="295.386753" y="221.102362" style="stroke: #000000; stroke-width: 1.5"/>
      </g>
     </g>
     <g id="text_4">
      <text style="font-size: 15px; font-family: 'Tahoma'" transform="translate(259.427842 255.241538) rotate(-22)">Fields</text>
     </g>
    </g>
    <g id="xtick_5">
     <g id="line2d_9">
      <path d="M 365.419176 221.102362 
L 365.419176 22.677165 
" clip-path="url(#pfb92d5013b)" style="fill: none; stroke: #d0d0d0; stroke-opacity: 0.65; stroke-width: 1.2; stroke-linecap: square"/>
     </g>
     <g id="line2d_10">
      <g>
       <use xlink:href="#md8a43a0d5d" x="365.419176" y="221.102362" style="stroke: #000000; stroke-width: 1.5"/>
      </g>
     </g>
     <g id="text_5">
      <text style="font-size: 15px; font-family: 'Tahoma'" transform="translate(299.287521 267.420057) rotate(-22)">Other veg.</text>
     </g>
    </g>
   </g>
   <g id="matplotlib.axis_2">
    <g id="ytick_1">
     <g id="line2d_11">
      <path d="M 46.771654 221.102362 
L 403.937008 221.102362 
" clip-path="url(#pfb92d5013b)" style="fill: none; stroke: #d0d0d0; stroke-opacity: 0.65; stroke-width: 1.2; stroke-linecap: square"/>
     </g>
     <g id="line2d_12">
      <defs>
       <path id="m7dc0c0720c" d="M 0 0 
L -6 0 
" style="stroke: #000000; stroke-width: 1.5"/>
      </defs>
      <g>
       <use xlink:href="#m7dc0c0720c" x="46.771654" y="221.102362" style="stroke: #000000; stroke-width: 1.5"/>
      </g>
     </g>
     <g id="text_6">
      <text style="font-size: 15px; font-family: 'Tahoma'; text-anchor: end" x="37.271654" y="226.80119" transform="rotate(-0 37.271654 226.80119)">+0</text>
     </g>
    </g>
    <g id="ytick_2">
     <g id="line2d_13">
      <path d="M 46.771654 179.561269 
L 403.937008 179.561269 
" clip-path="url(#pfb92d5013b)" style="fill: none; stroke: #d0d0d0; stroke-opacity: 0.65; stroke-width: 1.2; stroke-linecap: square"/>
     </g>
     <g id="line2d_14">
      <g>
       <use xlink:href="#m7dc0c0720c" x="46.771654" y="179.561269" style="stroke: #000000; stroke-width: 1.5"/>
      </g>
     </g>
     <g id="text_7">
      <text style="font-size: 15px; font-family: 'Tahoma'; text-anchor: end" x="37.271654" y="185.260097" transform="rotate(-0 37.271654 185.260097)">+2</text>
     </g>
    </g>
    <g id="ytick_3">
     <g id="line2d_15">
      <path d="M 46.771654 138.020175 
L 403.937008 138.020175 
" clip-path="url(#pfb92d5013b)" style="fill: none; stroke: #d0d0d0; stroke-opacity: 0.65; stroke-width: 1.2; stroke-linecap: square"/>
     </g>
     <g id="line2d_16">
      <g>
       <use xlink:href="#m7dc0c0720c" x="46.771654" y="138.020175" style="stroke: #000000; stroke-width: 1.5"/>
      </g>
     </g>
     <g id="text_8">
      <text style="font-size: 15px; font-family: 'Tahoma'; text-anchor: end" x="37.271654" y="143.719004" transform="rotate(-0 37.271654 143.719004)">+4</text>
     </g>
    </g>
    <g id="ytick_4">
     <g id="line2d_17">
      <path d="M 46.771654 96.479082 
L 403.937008 96.479082 
" clip-path="url(#pfb92d5013b)" style="fill: none; stroke: #d0d0d0; stroke-opacity: 0.65; stroke-width: 1.2; stroke-linecap: square"/>
     </g>
     <g id="line2d_18">
      <g>
       <use xlink:href="#m7dc0c0720c" x="46.771654" y="96.479082" style="stroke: #000000; stroke-width: 1.5"/>
      </g>
     </g>
     <g id="text_9">
      <text style="font-size: 15px; font-family: 'Tahoma'; text-anchor: end" x="37.271654" y="102.17791" transform="rotate(-0 37.271654 102.17791)">+6</text>
     </g>
    </g>
    <g id="ytick_5">
     <g id="line2d_19">
      <path d="M 46.771654 54.937989 
L 403.937008 54.937989 
" clip-path="url(#pfb92d5013b)" style="fill: none; stroke: #d0d0d0; stroke-opacity: 0.65; stroke-width: 1.2; stroke-linecap: square"/>
     </g>
     <g id="line2d_20">
      <g>
       <use xlink:href="#m7dc0c0720c" x="46.771654" y="54.937989" style="stroke: #000000; stroke-width: 1.5"/>
      </g>
     </g>
     <g id="text_10">
      <text style="font-size: 15px; font-family: 'Tahoma'; text-anchor: end" x="37.271654" y="60.636817" transform="rotate(-0 37.271654 60.636817)">+8</text>
     </g>
    </g>
    <g id="text_11">
     <text style="font-size: 18px; font-family: 'Tahoma'; text-anchor: middle" x="10.547591" y="121.889764" transform="rotate(-90 10.547591 121.889764)">Heatwave Δ T (°C)</text>
    </g>
   </g>
   <g id="patch_3">
    <path d="M 53.774896 237.718823 
L 396.933766 237.718823 
L 396.933766 198.80862 
L 53.774896 198.80862 
z
" clip-path="url(#pfb92d5013b)" style="fill: #e8bcc4; opacity: 0.26; stroke: #bb5566; stroke-width: 0.8; stroke-linejoin: miter"/>
   </g>
   <g id="line2d_21">
    <path d="M 46.771654 221.102362 
L 403.937008 221.102362 
" clip-path="url(#pfb92d5013b)" style="fill: none; stroke: #000000; stroke-opacity: 0.45; stroke-width: 0.9; stroke-linecap: square"/>
   </g>
   <g id="patch_4">
    <path d="M 53.774896 148.890106 
L 396.933766 148.890106 
L 396.933766 86.232256 
L 53.774896 86.232256 
z
" clip-path="url(#pfb92d5013b)" style="fill: #bbccee; opacity: 0.28; stroke: #004488; stroke-width: 0.8; stroke-linejoin: miter"/>
   </g>
   <g id="patch_5">
    <path d="M 46.771654 221.102362 
L 46.771654 22.677165 
" style="fill: none; stroke: #000000; stroke-width: 1.5; stroke-linejoin: miter; stroke-linecap: square"/>
   </g>
   <g id="patch_6">
    <path d="M 46.771654 221.102362 
L 403.937008 221.102362 
" style="fill: none; stroke: #000000; stroke-width: 1.5; stroke-linejoin: miter; stroke-linecap: square"/>
   </g>
   <g id="FillBetweenPolyCollection_1">
    <defs>
     <path id="m88a7746447" d="M 86.729285 -51.907708 
L 83.849686 -51.907708 
L 83.168899 -52.279759 
L 82.451258 -52.65181 
L 81.73782 -53.023862 
L 81.037219 -53.395913 
L 80.340668 -53.767964 
L 79.630426 -54.140015 
L 78.880324 -54.512067 
L 78.06189 -54.884118 
L 77.153287 -55.256169 
L 76.140306 -55.62822 
L 75.013923 -56.000272 
L 73.775325 -56.372323 
L 72.444285 -56.744374 
L 71.058533 -57.116425 
L 69.663918 -57.488477 
L 68.303545 -57.860528 
L 67.006277 -58.232579 
L 65.774564 -58.60463 
L 64.585599 -58.976682 
L 63.415723 -59.348733 
L 62.269581 -59.720784 
L 61.185128 -60.092835 
L 60.212866 -60.464887 
L 59.395654 -60.836938 
L 58.764943 -61.208989 
L 58.338037 -61.58104 
L 58.102029 -61.953092 
L 58.00424 -62.325143 
L 57.976841 -62.697194 
L 57.985753 -63.069246 
L 58.057194 -63.441297 
L 58.245282 -63.813348 
L 58.56406 -64.185399 
L 58.957913 -64.557451 
L 59.350673 -64.929502 
L 59.721549 -65.301553 
L 60.121696 -65.673604 
L 60.616773 -66.045656 
L 61.226347 -66.417707 
L 61.920037 -66.789758 
L 62.651453 -67.161809 
L 63.3844 -67.533861 
L 64.106506 -67.905912 
L 64.83809 -68.277963 
L 65.618512 -68.650014 
L 66.467431 -69.022066 
L 67.362923 -69.394117 
L 68.264606 -69.766168 
L 69.149325 -70.138219 
L 70.01539 -70.510271 
L 70.862179 -70.882322 
L 71.681855 -71.254373 
L 72.471142 -71.626424 
L 73.236579 -71.998476 
L 73.977634 -72.370527 
L 74.670299 -72.742578 
L 75.279511 -73.114629 
L 75.790311 -73.486681 
L 76.224967 -73.858732 
L 76.633956 -74.230783 
L 77.070851 -74.602834 
L 77.564159 -74.974886 
L 78.100423 -75.346937 
L 78.631243 -75.718988 
L 79.102106 -76.091039 
L 79.48361 -76.463091 
L 79.783211 -76.835142 
L 80.031305 -77.207193 
L 80.255395 -77.579244 
L 80.463625 -77.951296 
L 80.649288 -78.323347 
L 80.807898 -78.695398 
L 80.947675 -79.067449 
L 81.086357 -79.439501 
L 81.243323 -79.811552 
L 81.432196 -80.183603 
L 81.650935 -80.555654 
L 81.875245 -80.927706 
L 82.069444 -81.299757 
L 82.212542 -81.671808 
L 82.3148 -82.04386 
L 82.406349 -82.415911 
L 82.510062 -82.787962 
L 82.627187 -83.160013 
L 82.746971 -83.532065 
L 82.863653 -83.904116 
L 82.979972 -84.276167 
L 83.098067 -84.648218 
L 83.21411 -85.02027 
L 83.322716 -85.392321 
L 83.421608 -85.764372 
L 83.510241 -86.136423 
L 83.588384 -86.508475 
L 83.661109 -86.880526 
L 83.745697 -87.252577 
L 83.870051 -87.624628 
L 84.05851 -87.99668 
L 84.312152 -88.368731 
L 84.598797 -88.740782 
L 85.980174 -88.740782 
L 85.980174 -88.740782 
L 86.26682 -88.368731 
L 86.520462 -87.99668 
L 86.70892 -87.624628 
L 86.833275 -87.252577 
L 86.917862 -86.880526 
L 86.990588 -86.508475 
L 87.068731 -86.136423 
L 87.157364 -85.764372 
L 87.256256 -85.392321 
L 87.364862 -85.02027 
L 87.480905 -84.648218 
L 87.599 -84.276167 
L 87.715319 -83.904116 
L 87.832001 -83.532065 
L 87.951785 -83.160013 
L 88.068909 -82.787962 
L 88.172622 -82.415911 
L 88.264172 -82.04386 
L 88.36643 -81.671808 
L 88.509528 -81.299757 
L 88.703727 -80.927706 
L 88.928037 -80.555654 
L 89.146776 -80.183603 
L 89.335649 -79.811552 
L 89.492614 -79.439501 
L 89.631297 -79.067449 
L 89.771073 -78.695398 
L 89.929684 -78.323347 
L 90.115346 -77.951296 
L 90.323577 -77.579244 
L 90.547667 -77.207193 
L 90.795761 -76.835142 
L 91.095362 -76.463091 
L 91.476866 -76.091039 
L 91.947728 -75.718988 
L 92.478549 -75.346937 
L 93.014812 -74.974886 
L 93.508121 -74.602834 
L 93.945016 -74.230783 
L 94.354005 -73.858732 
L 94.788661 -73.486681 
L 95.299461 -73.114629 
L 95.908673 -72.742578 
L 96.601338 -72.370527 
L 97.342393 -71.998476 
L 98.10783 -71.626424 
L 98.897117 -71.254373 
L 99.716792 -70.882322 
L 100.563582 -70.510271 
L 101.429647 -70.138219 
L 102.314366 -69.766168 
L 103.216049 -69.394117 
L 104.111541 -69.022066 
L 104.96046 -68.650014 
L 105.740881 -68.277963 
L 106.472466 -67.905912 
L 107.194571 -67.533861 
L 107.927519 -67.161809 
L 108.658934 -66.789758 
L 109.352625 -66.417707 
L 109.962198 -66.045656 
L 110.457276 -65.673604 
L 110.857423 -65.301553 
L 111.228299 -64.929502 
L 111.621058 -64.557451 
L 112.014912 -64.185399 
L 112.33369 -63.813348 
L 112.521778 -63.441297 
L 112.593219 -63.069246 
L 112.602131 -62.697194 
L 112.574732 -62.325143 
L 112.476943 -61.953092 
L 112.240935 -61.58104 
L 111.814029 -61.208989 
L 111.183318 -60.836938 
L 110.366105 -60.464887 
L 109.393844 -60.092835 
L 108.30939 -59.720784 
L 107.163248 -59.348733 
L 105.993373 -58.976682 
L 104.804408 -58.60463 
L 103.572694 -58.232579 
L 102.275427 -57.860528 
L 100.915054 -57.488477 
L 99.520439 -57.116425 
L 98.134687 -56.744374 
L 96.803646 -56.372323 
L 95.565049 -56.000272 
L 94.438666 -55.62822 
L 93.425685 -55.256169 
L 92.517082 -54.884118 
L 91.698648 -54.512067 
L 90.948546 -54.140015 
L 90.238304 -53.767964 
L 89.541753 -53.395913 
L 88.841152 -53.023862 
L 88.127714 -52.65181 
L 87.410073 -52.279759 
L 86.729285 -51.907708 
z
" style="stroke: #bb5566; stroke-width: 1.05"/>
    </defs>
    <g clip-path="url(#pfb92d5013b)">
     <use xlink:href="#m88a7746447" x="0" y="283.464567" style="fill: #e8bcc4; stroke: #bb5566; stroke-width: 1.05"/>
    </g>
   </g>
   <g id="FillBetweenPolyCollection_2">
    <defs>
     <path id="m16102a00b6" d="M 156.550125 -53.846284 
L 154.093692 -53.846284 
L 153.560629 -54.191061 
L 153.029976 -54.535837 
L 152.540256 -54.880614 
L 152.08617 -55.225391 
L 151.626632 -55.570168 
L 151.10694 -55.914945 
L 150.483541 -56.259722 
L 149.741487 -56.604498 
L 148.895062 -56.949275 
L 147.970652 -57.294052 
L 146.986323 -57.638829 
L 145.947096 -57.983606 
L 144.857915 -58.328383 
L 143.735501 -58.67316 
L 142.601215 -59.017936 
L 141.459756 -59.362713 
L 140.286359 -59.70749 
L 139.039121 -60.052267 
L 137.692839 -60.397044 
L 136.27315 -60.741821 
L 134.861908 -61.086597 
L 133.558733 -61.431374 
L 132.422105 -61.776151 
L 131.439843 -62.120928 
L 130.55795 -62.465705 
L 129.744233 -62.810482 
L 129.028147 -63.155259 
L 128.478421 -63.500035 
L 128.142338 -63.844812 
L 128.009264 -64.189589 
L 128.028868 -64.534366 
L 128.152541 -64.879143 
L 128.352534 -65.22392 
L 128.614414 -65.568696 
L 128.929739 -65.913473 
L 129.300497 -66.25825 
L 129.739325 -66.603027 
L 130.253287 -66.947804 
L 130.825642 -67.292581 
L 131.418445 -67.637357 
L 131.995386 -67.982134 
L 132.543069 -68.326911 
L 133.076578 -68.671688 
L 133.629444 -69.016465 
L 134.230728 -69.361242 
L 134.881787 -69.706019 
L 135.556646 -70.050795 
L 136.228422 -70.395572 
L 136.890868 -70.740349 
L 137.554258 -71.085126 
L 138.231719 -71.429903 
L 138.935415 -71.77468 
L 139.677826 -72.119456 
L 140.469259 -72.464233 
L 141.313794 -72.80901 
L 142.204562 -73.153787 
L 143.117028 -73.498564 
L 144.008501 -73.843341 
L 144.832368 -74.188117 
L 145.559506 -74.532894 
L 146.190475 -74.877671 
L 146.750006 -75.222448 
L 147.268678 -75.567225 
L 147.765888 -75.912002 
L 148.245128 -76.256779 
L 148.697839 -76.601555 
L 149.106373 -76.946332 
L 149.447448 -77.291109 
L 149.701649 -77.635886 
L 149.863776 -77.980663 
L 149.944909 -78.32544 
L 149.967337 -78.670216 
L 149.959827 -79.014993 
L 149.954761 -79.35977 
L 149.98196 -79.704547 
L 150.057094 -80.049324 
L 150.172858 -80.394101 
L 150.304935 -80.738877 
L 150.432951 -81.083654 
L 150.558738 -81.428431 
L 150.702656 -81.773208 
L 150.88091 -82.117985 
L 151.088428 -82.462762 
L 151.304716 -82.807539 
L 151.513931 -83.152315 
L 151.717883 -83.497092 
L 151.931196 -83.841869 
L 152.164755 -84.186646 
L 152.412735 -84.531423 
L 152.655216 -84.8762 
L 152.874323 -85.220976 
L 153.068276 -85.565753 
L 153.25021 -85.91053 
L 153.435769 -86.255307 
L 153.634567 -86.600084 
L 153.852376 -86.944861 
L 154.095142 -87.289637 
L 154.363446 -87.634414 
L 154.641057 -87.979191 
L 156.00276 -87.979191 
L 156.00276 -87.979191 
L 156.28037 -87.634414 
L 156.548675 -87.289637 
L 156.791441 -86.944861 
L 157.009249 -86.600084 
L 157.208048 -86.255307 
L 157.393607 -85.91053 
L 157.57554 -85.565753 
L 157.769494 -85.220976 
L 157.988601 -84.8762 
L 158.231081 -84.531423 
L 158.479061 -84.186646 
L 158.712621 -83.841869 
L 158.925933 -83.497092 
L 159.129886 -83.152315 
L 159.339101 -82.807539 
L 159.555389 -82.462762 
L 159.762906 -82.117985 
L 159.941161 -81.773208 
L 160.085079 -81.428431 
L 160.210865 -81.083654 
L 160.338881 -80.738877 
L 160.470959 -80.394101 
L 160.586723 -80.049324 
L 160.661857 -79.704547 
L 160.689056 -79.35977 
L 160.68399 -79.014993 
L 160.676479 -78.670216 
L 160.698908 -78.32544 
L 160.78004 -77.980663 
L 160.942168 -77.635886 
L 161.196369 -77.291109 
L 161.537443 -76.946332 
L 161.945978 -76.601555 
L 162.398688 -76.256779 
L 162.877929 -75.912002 
L 163.375138 -75.567225 
L 163.893811 -75.222448 
L 164.453342 -74.877671 
L 165.08431 -74.532894 
L 165.811448 -74.188117 
L 166.635315 -73.843341 
L 167.526789 -73.498564 
L 168.439254 -73.153787 
L 169.330022 -72.80901 
L 170.174558 -72.464233 
L 170.965991 -72.119456 
L 171.708402 -71.77468 
L 172.412097 -71.429903 
L 173.089559 -71.085126 
L 173.752949 -70.740349 
L 174.415394 -70.395572 
L 175.08717 -70.050795 
L 175.76203 -69.706019 
L 176.413088 -69.361242 
L 177.014372 -69.016465 
L 177.567239 -68.671688 
L 178.100748 -68.326911 
L 178.648431 -67.982134 
L 179.225371 -67.637357 
L 179.818175 -67.292581 
L 180.39053 -66.947804 
L 180.904492 -66.603027 
L 181.34332 -66.25825 
L 181.714077 -65.913473 
L 182.029403 -65.568696 
L 182.291283 -65.22392 
L 182.491275 -64.879143 
L 182.614949 -64.534366 
L 182.634553 -64.189589 
L 182.501478 -63.844812 
L 182.165396 -63.500035 
L 181.61567 -63.155259 
L 180.899583 -62.810482 
L 180.085867 -62.465705 
L 179.203974 -62.120928 
L 178.221711 -61.776151 
L 177.085083 -61.431374 
L 175.781909 -61.086597 
L 174.370667 -60.741821 
L 172.950978 -60.397044 
L 171.604695 -60.052267 
L 170.357458 -59.70749 
L 169.184061 -59.362713 
L 168.042602 -59.017936 
L 166.908316 -58.67316 
L 165.785901 -58.328383 
L 164.696721 -57.983606 
L 163.657493 -57.638829 
L 162.673165 -57.294052 
L 161.748755 -56.949275 
L 160.90233 -56.604498 
L 160.160275 -56.259722 
L 159.536877 -55.914945 
L 159.017185 -55.570168 
L 158.557646 -55.225391 
L 158.10356 -54.880614 
L 157.613841 -54.535837 
L 157.083188 -54.191061 
L 156.550125 -53.846284 
z
" style="stroke: #bb5566; stroke-width: 1.05"/>
    </defs>
    <g clip-path="url(#pfb92d5013b)">
     <use xlink:href="#m16102a00b6" x="0" y="283.464567" style="fill: #e8bcc4; stroke: #bb5566; stroke-width: 1.05"/>
    </g>
   </g>
   <g id="FillBetweenPolyCollection_3">
    <defs>
     <path id="m0505361e45" d="M 226.082871 -59.038934 
L 224.625791 -59.038934 
L 224.31154 -59.294194 
L 224.021022 -59.549455 
L 223.774645 -59.804716 
L 223.561569 -60.059977 
L 223.364379 -60.315237 
L 223.176147 -60.570498 
L 222.994615 -60.825759 
L 222.810112 -61.08102 
L 222.605188 -61.336281 
L 222.363533 -61.591541 
L 222.076113 -61.846802 
L 221.740909 -62.102063 
L 221.360574 -62.357324 
L 220.939857 -62.612584 
L 220.482312 -62.867845 
L 219.987696 -63.123106 
L 219.450374 -63.378367 
L 218.858857 -63.633627 
L 218.200094 -63.888888 
L 217.467756 -64.144149 
L 216.664674 -64.39941 
L 215.796297 -64.654671 
L 214.867416 -64.909931 
L 213.890556 -65.165192 
L 212.894846 -65.420453 
L 211.918342 -65.675714 
L 210.986016 -65.930974 
L 210.097885 -66.186235 
L 209.242969 -66.441496 
L 208.419091 -66.696757 
L 207.629052 -66.952017 
L 206.861635 -67.207278 
L 206.09201 -67.462539 
L 205.303929 -67.7178 
L 204.500256 -67.97306 
L 203.690672 -68.228321 
L 202.882549 -68.483582 
L 202.089739 -68.738843 
L 201.341482 -68.994104 
L 200.672897 -69.249364 
L 200.103872 -69.504625 
L 199.626468 -69.759886 
L 199.210987 -70.015147 
L 198.82803 -70.270407 
L 198.476443 -70.525668 
L 198.195421 -70.780929 
L 198.041686 -71.03619 
L 198.0503 -71.29145 
L 198.222304 -71.546711 
L 198.545733 -71.801972 
L 199.014822 -72.057233 
L 199.627859 -72.312494 
L 200.373762 -72.567754 
L 201.21658 -72.823015 
L 202.089853 -73.078276 
L 202.923379 -73.333537 
L 203.695135 -73.588797 
L 204.452036 -73.844058 
L 205.263928 -74.099319 
L 206.15806 -74.35458 
L 207.103211 -74.60984 
L 208.041018 -74.865101 
L 208.917321 -75.120362 
L 209.702851 -75.375623 
L 210.41542 -75.630883 
L 211.123734 -75.886144 
L 211.907975 -76.141405 
L 212.800774 -76.396666 
L 213.75997 -76.651927 
L 214.696265 -76.907187 
L 215.53238 -77.162448 
L 216.245359 -77.417709 
L 216.860429 -77.67297 
L 217.411484 -77.92823 
L 217.910358 -78.183491 
L 218.346991 -78.438752 
L 218.708633 -78.694013 
L 218.997467 -78.949273 
L 219.23588 -79.204534 
L 219.457093 -79.459795 
L 219.687918 -79.715056 
L 219.938614 -79.970317 
L 220.206767 -80.225577 
L 220.484919 -80.480838 
L 220.761742 -80.736099 
L 221.022631 -80.99136 
L 221.257674 -81.24662 
L 221.469217 -81.501881 
L 221.66766 -81.757142 
L 221.861451 -82.012403 
L 222.055344 -82.267663 
L 222.2564 -82.522924 
L 222.475536 -82.778185 
L 222.721507 -83.033446 
L 222.997597 -83.288707 
L 223.30702 -83.543967 
L 223.656425 -83.799228 
L 224.044263 -84.054489 
L 224.442675 -84.30975 
L 226.265986 -84.30975 
L 226.265986 -84.30975 
L 226.664398 -84.054489 
L 227.052236 -83.799228 
L 227.401641 -83.543967 
L 227.711064 -83.288707 
L 227.987154 -83.033446 
L 228.233126 -82.778185 
L 228.452261 -82.522924 
L 228.653318 -82.267663 
L 228.847211 -82.012403 
L 229.041001 -81.757142 
L 229.239444 -81.501881 
L 229.450987 -81.24662 
L 229.68603 -80.99136 
L 229.946919 -80.736099 
L 230.223743 -80.480838 
L 230.501894 -80.225577 
L 230.770048 -79.970317 
L 231.020743 -79.715056 
L 231.251569 -79.459795 
L 231.472781 -79.204534 
L 231.711194 -78.949273 
L 232.000029 -78.694013 
L 232.36167 -78.438752 
L 232.798304 -78.183491 
L 233.297178 -77.92823 
L 233.848232 -77.67297 
L 234.463303 -77.417709 
L 235.176281 -77.162448 
L 236.012396 -76.907187 
L 236.948692 -76.651927 
L 237.907888 -76.396666 
L 238.800686 -76.141405 
L 239.584927 -75.886144 
L 240.293242 -75.630883 
L 241.00581 -75.375623 
L 241.791341 -75.120362 
L 242.667644 -74.865101 
L 243.60545 -74.60984 
L 244.550602 -74.35458 
L 245.444734 -74.099319 
L 246.256625 -73.844058 
L 247.013526 -73.588797 
L 247.785282 -73.333537 
L 248.618808 -73.078276 
L 249.492081 -72.823015 
L 250.3349 -72.567754 
L 251.080802 -72.312494 
L 251.69384 -72.057233 
L 252.162928 -71.801972 
L 252.486358 -71.546711 
L 252.658361 -71.29145 
L 252.666975 -71.03619 
L 252.513241 -70.780929 
L 252.232218 -70.525668 
L 251.880631 -70.270407 
L 251.497675 -70.015147 
L 251.082194 -69.759886 
L 250.604789 -69.504625 
L 250.035764 -69.249364 
L 249.367179 -68.994104 
L 248.618923 -68.738843 
L 247.826113 -68.483582 
L 247.017989 -68.228321 
L 246.208406 -67.97306 
L 245.404732 -67.7178 
L 244.616651 -67.462539 
L 243.847026 -67.207278 
L 243.07961 -66.952017 
L 242.28957 -66.696757 
L 241.465693 -66.441496 
L 240.610776 -66.186235 
L 239.722645 -65.930974 
L 238.79032 -65.675714 
L 237.813815 -65.420453 
L 236.818105 -65.165192 
L 235.841246 -64.909931 
L 234.912364 -64.654671 
L 234.043987 -64.39941 
L 233.240905 -64.144149 
L 232.508567 -63.888888 
L 231.849804 -63.633627 
L 231.258287 -63.378367 
L 230.720966 -63.123106 
L 230.22635 -62.867845 
L 229.768804 -62.612584 
L 229.348087 -62.357324 
L 228.967753 -62.102063 
L 228.632548 -61.846802 
L 228.345129 -61.591541 
L 228.103474 -61.336281 
L 227.898549 -61.08102 
L 227.714047 -60.825759 
L 227.532514 -60.570498 
L 227.344282 -60.315237 
L 227.147093 -60.059977 
L 226.934017 -59.804716 
L 226.687639 -59.549455 
L 226.397122 -59.294194 
L 226.082871 -59.038934 
z
" style="stroke: #bb5566; stroke-width: 1.05"/>
    </defs>
    <g clip-path="url(#pfb92d5013b)">
     <use xlink:href="#m0505361e45" x="0" y="283.464567" style="fill: #e8bcc4; stroke: #bb5566; stroke-width: 1.05"/>
    </g>
   </g>
   <g id="FillBetweenPolyCollection_4">
    <defs>
     <path id="m46518979d8" d="M 296.428966 -50.66146 
L 294.34454 -50.66146 
L 293.918034 -50.836995 
L 293.546098 -51.012531 
L 293.260535 -51.188067 
L 293.058246 -51.363603 
L 292.925016 -51.539138 
L 292.843556 -51.714674 
L 292.791212 -51.89021 
L 292.74099 -52.065746 
L 292.665714 -52.241281 
L 292.541872 -52.416817 
L 292.352154 -52.592353 
L 292.086639 -52.767889 
L 291.742465 -52.943424 
L 291.320459 -53.11896 
L 290.818121 -53.294496 
L 290.223221 -53.470032 
L 289.51686 -53.645567 
L 288.687353 -53.821103 
L 287.736961 -53.996639 
L 286.667472 -54.172175 
L 285.462561 -54.34771 
L 284.09184 -54.523246 
L 282.532033 -54.698782 
L 280.787075 -54.874318 
L 278.900202 -55.049853 
L 276.95243 -55.225389 
L 275.041914 -55.400925 
L 273.256027 -55.576461 
L 271.65642 -55.751996 
L 270.286748 -55.927532 
L 269.194727 -56.103068 
L 268.440667 -56.278604 
L 268.074108 -56.454139 
L 268.097626 -56.629675 
L 268.448396 -56.805211 
L 269.013775 -56.980747 
L 269.677942 -57.156282 
L 270.365176 -57.331818 
L 271.049393 -57.507354 
L 271.745435 -57.68289 
L 272.490617 -57.858425 
L 273.300661 -58.033961 
L 274.134911 -58.209497 
L 274.924964 -58.385033 
L 275.634792 -58.560568 
L 276.28002 -58.736104 
L 276.904507 -58.91164 
L 277.559477 -59.087176 
L 278.296147 -59.262711 
L 279.149316 -59.438247 
L 280.107448 -59.613783 
L 281.100825 -59.789319 
L 282.036323 -59.964854 
L 282.8568 -60.14039 
L 283.567653 -60.315926 
L 284.207275 -60.491462 
L 284.799119 -60.666997 
L 285.331077 -60.842533 
L 285.770417 -61.018069 
L 286.094989 -61.193604 
L 286.313012 -61.36914 
L 286.454964 -61.544676 
L 286.552661 -61.720212 
L 286.631773 -61.895747 
L 286.716318 -62.071283 
L 286.827501 -62.246819 
L 286.979642 -62.422355 
L 287.185459 -62.59789 
L 287.46167 -62.773426 
L 287.822088 -62.948962 
L 288.266736 -63.124498 
L 288.776304 -63.300033 
L 289.310697 -63.475569 
L 289.817442 -63.651105 
L 290.255082 -63.826641 
L 290.615367 -64.002176 
L 290.920523 -64.177712 
L 291.19885 -64.353248 
L 291.469124 -64.528784 
L 291.746495 -64.704319 
L 292.047566 -64.879855 
L 292.381242 -65.055391 
L 292.741332 -65.230927 
L 293.110633 -65.406462 
L 293.465857 -65.581998 
L 293.779793 -65.757534 
L 294.029541 -65.93307 
L 294.208829 -66.108605 
L 294.330557 -66.284141 
L 294.415998 -66.459677 
L 294.482697 -66.635213 
L 294.541383 -66.810748 
L 294.598841 -66.986284 
L 294.65865 -67.16182 
L 294.7201 -67.337356 
L 294.782152 -67.512891 
L 294.850974 -67.688427 
L 294.938773 -67.863963 
L 295.049652 -68.039499 
L 295.723854 -68.039499 
L 295.723854 -68.039499 
L 295.834733 -67.863963 
L 295.922532 -67.688427 
L 295.991355 -67.512891 
L 296.053406 -67.337356 
L 296.114856 -67.16182 
L 296.174666 -66.986284 
L 296.232123 -66.810748 
L 296.290809 -66.635213 
L 296.357509 -66.459677 
L 296.442949 -66.284141 
L 296.564677 -66.108605 
L 296.743965 -65.93307 
L 296.993713 -65.757534 
L 297.307649 -65.581998 
L 297.662873 -65.406462 
L 298.032175 -65.230927 
L 298.392265 -65.055391 
L 298.72594 -64.879855 
L 299.027012 -64.704319 
L 299.304382 -64.528784 
L 299.574656 -64.353248 
L 299.852983 -64.177712 
L 300.158139 -64.002176 
L 300.518424 -63.826641 
L 300.956065 -63.651105 
L 301.462809 -63.475569 
L 301.997202 -63.300033 
L 302.50677 -63.124498 
L 302.951418 -62.948962 
L 303.311836 -62.773426 
L 303.588048 -62.59789 
L 303.793865 -62.422355 
L 303.946005 -62.246819 
L 304.057188 -62.071283 
L 304.141733 -61.895747 
L 304.220845 -61.720212 
L 304.318542 -61.544676 
L 304.460495 -61.36914 
L 304.678518 -61.193604 
L 305.003089 -61.018069 
L 305.44243 -60.842533 
L 305.974387 -60.666997 
L 306.566231 -60.491462 
L 307.205853 -60.315926 
L 307.916706 -60.14039 
L 308.737183 -59.964854 
L 309.672682 -59.789319 
L 310.666058 -59.613783 
L 311.624191 -59.438247 
L 312.47736 -59.262711 
L 313.21403 -59.087176 
L 313.868999 -58.91164 
L 314.493486 -58.736104 
L 315.138714 -58.560568 
L 315.848543 -58.385033 
L 316.638596 -58.209497 
L 317.472845 -58.033961 
L 318.282889 -57.858425 
L 319.028072 -57.68289 
L 319.724113 -57.507354 
L 320.40833 -57.331818 
L 321.095564 -57.156282 
L 321.759732 -56.980747 
L 322.32511 -56.805211 
L 322.67588 -56.629675 
L 322.699398 -56.454139 
L 322.33284 -56.278604 
L 321.578779 -56.103068 
L 320.486758 -55.927532 
L 319.117086 -55.751996 
L 317.517479 -55.576461 
L 315.731592 -55.400925 
L 313.821076 -55.225389 
L 311.873304 -55.049853 
L 309.986431 -54.874318 
L 308.241473 -54.698782 
L 306.681667 -54.523246 
L 305.310945 -54.34771 
L 304.106034 -54.172175 
L 303.036545 -53.996639 
L 302.086154 -53.821103 
L 301.256646 -53.645567 
L 300.550285 -53.470032 
L 299.955385 -53.294496 
L 299.453048 -53.11896 
L 299.031041 -52.943424 
L 298.686867 -52.767889 
L 298.421352 -52.592353 
L 298.231635 -52.416817 
L 298.107792 -52.241281 
L 298.032516 -52.065746 
L 297.982295 -51.89021 
L 297.929951 -51.714674 
L 297.84849 -51.539138 
L 297.715261 -51.363603 
L 297.512971 -51.188067 
L 297.227408 -51.012531 
L 296.855473 -50.836995 
L 296.428966 -50.66146 
z
" style="stroke: #bb5566; stroke-width: 1.05"/>
    </defs>
    <g clip-path="url(#pfb92d5013b)">
     <use xlink:href="#m46518979d8" x="0" y="283.464567" style="fill: #e8bcc4; stroke: #bb5566; stroke-width: 1.05"/>
    </g>
   </g>
   <g id="FillBetweenPolyCollection_5">
    <defs>
     <path id="m501458b58f" d="M 366.878943 -50.315263 
L 363.959408 -50.315263 
L 363.273624 -50.605491 
L 362.556416 -50.895719 
L 361.832508 -51.185948 
L 361.085793 -51.476176 
L 360.290325 -51.766404 
L 359.436962 -52.056633 
L 358.537007 -52.346861 
L 357.603594 -52.637089 
L 356.625603 -52.927317 
L 355.557542 -53.217546 
L 354.337085 -53.507774 
L 352.917541 -53.798002 
L 351.294983 -54.088231 
L 349.517713 -54.378459 
L 347.671676 -54.668687 
L 345.848746 -54.958915 
L 344.123337 -55.249144 
L 342.553078 -55.539372 
L 341.186925 -55.8296 
L 340.060534 -56.119829 
L 339.18828 -56.410057 
L 338.570616 -56.700285 
L 338.20902 -56.990513 
L 338.106531 -57.280742 
L 338.254984 -57.57097 
L 338.628502 -57.861198 
L 339.190568 -58.151426 
L 339.907559 -58.441655 
L 340.755395 -58.731883 
L 341.706231 -59.022111 
L 342.709577 -59.31234 
L 343.703168 -59.602568 
L 344.648144 -59.892796 
L 345.540005 -60.183024 
L 346.384047 -60.473253 
L 347.178066 -60.763481 
L 347.919059 -61.053709 
L 348.603258 -61.343938 
L 349.216314 -61.634166 
L 349.745371 -61.924394 
L 350.205852 -62.214622 
L 350.644545 -62.504851 
L 351.114455 -62.795079 
L 351.644268 -63.085307 
L 352.2198 -63.375536 
L 352.790767 -63.665764 
L 353.303492 -63.955992 
L 353.735388 -64.24622 
L 354.105542 -64.536449 
L 354.458793 -64.826677 
L 354.837369 -65.116905 
L 355.257296 -65.407134 
L 355.703332 -65.697362 
L 356.14353 -65.98759 
L 356.551821 -66.277818 
L 356.925421 -66.568047 
L 357.286252 -66.858275 
L 357.664098 -67.148503 
L 358.077415 -67.438732 
L 358.527499 -67.72896 
L 359.000035 -68.019188 
L 359.467792 -68.309416 
L 359.902851 -68.599645 
L 360.294766 -68.889873 
L 360.655096 -69.180101 
L 361.002736 -69.47033 
L 361.344331 -69.760558 
L 361.668003 -70.050786 
L 361.95799 -70.341014 
L 362.212884 -70.631243 
L 362.441425 -70.921471 
L 362.643137 -71.211699 
L 362.806866 -71.501928 
L 362.930544 -71.792156 
L 363.030091 -72.082384 
L 363.125019 -72.372612 
L 363.224798 -72.662841 
L 363.331657 -72.953069 
L 363.446917 -73.243297 
L 363.569533 -73.533526 
L 363.693351 -73.823754 
L 363.810303 -74.113982 
L 363.915971 -74.40421 
L 364.010852 -74.694439 
L 364.096547 -74.984667 
L 364.172045 -75.274895 
L 364.235096 -75.565124 
L 364.287085 -75.855352 
L 364.334522 -76.14558 
L 364.384812 -76.435808 
L 364.441666 -76.726037 
L 364.504411 -77.016265 
L 364.569985 -77.306493 
L 364.635561 -77.596722 
L 364.70145 -77.88695 
L 364.773704 -78.177178 
L 364.863072 -78.467406 
L 364.976472 -78.757635 
L 365.105936 -79.047863 
L 365.732415 -79.047863 
L 365.732415 -79.047863 
L 365.861879 -78.757635 
L 365.975279 -78.467406 
L 366.064647 -78.177178 
L 366.136901 -77.88695 
L 366.20279 -77.596722 
L 366.268366 -77.306493 
L 366.33394 -77.016265 
L 366.396685 -76.726037 
L 366.453539 -76.435808 
L 366.503829 -76.14558 
L 366.551266 -75.855352 
L 366.603255 -75.565124 
L 366.666306 -75.274895 
L 366.741804 -74.984667 
L 366.827499 -74.694439 
L 366.92238 -74.40421 
L 367.028048 -74.113982 
L 367.145 -73.823754 
L 367.268818 -73.533526 
L 367.391434 -73.243297 
L 367.506694 -72.953069 
L 367.613553 -72.662841 
L 367.713332 -72.372612 
L 367.80826 -72.082384 
L 367.907807 -71.792156 
L 368.031485 -71.501928 
L 368.195215 -71.211699 
L 368.396927 -70.921471 
L 368.625467 -70.631243 
L 368.880361 -70.341014 
L 369.170348 -70.050786 
L 369.49402 -69.760558 
L 369.835615 -69.47033 
L 370.183256 -69.180101 
L 370.543585 -68.889873 
L 370.9355 -68.599645 
L 371.370559 -68.309416 
L 371.838316 -68.019188 
L 372.310852 -67.72896 
L 372.760936 -67.438732 
L 373.174254 -67.148503 
L 373.552099 -66.858275 
L 373.91293 -66.568047 
L 374.28653 -66.277818 
L 374.694821 -65.98759 
L 375.135019 -65.697362 
L 375.581055 -65.407134 
L 376.000982 -65.116905 
L 376.379558 -64.826677 
L 376.732809 -64.536449 
L 377.102963 -64.24622 
L 377.534859 -63.955992 
L 378.047584 -63.665764 
L 378.618551 -63.375536 
L 379.194083 -63.085307 
L 379.723896 -62.795079 
L 380.193806 -62.504851 
L 380.632499 -62.214622 
L 381.09298 -61.924394 
L 381.622037 -61.634166 
L 382.235093 -61.343938 
L 382.919292 -61.053709 
L 383.660285 -60.763481 
L 384.454304 -60.473253 
L 385.298346 -60.183024 
L 386.190207 -59.892796 
L 387.135183 -59.602568 
L 388.128774 -59.31234 
L 389.13212 -59.022111 
L 390.082957 -58.731883 
L 390.930792 -58.441655 
L 391.647783 -58.151426 
L 392.209849 -57.861198 
L 392.583367 -57.57097 
L 392.73182 -57.280742 
L 392.629331 -56.990513 
L 392.267735 -56.700285 
L 391.650071 -56.410057 
L 390.777817 -56.119829 
L 389.651427 -55.8296 
L 388.285273 -55.539372 
L 386.715014 -55.249144 
L 384.989605 -54.958915 
L 383.166675 -54.668687 
L 381.320638 -54.378459 
L 379.543368 -54.088231 
L 377.92081 -53.798002 
L 376.501266 -53.507774 
L 375.280809 -53.217546 
L 374.212748 -52.927317 
L 373.234757 -52.637089 
L 372.301344 -52.346861 
L 371.401389 -52.056633 
L 370.548027 -51.766404 
L 369.752559 -51.476176 
L 369.005843 -51.185948 
L 368.281935 -50.895719 
L 367.564727 -50.605491 
L 366.878943 -50.315263 
z
" style="stroke: #bb5566; stroke-width: 1.05"/>
    </defs>
    <g clip-path="url(#pfb92d5013b)">
     <use xlink:href="#m501458b58f" x="0" y="283.464567" style="fill: #e8bcc4; stroke: #bb5566; stroke-width: 1.05"/>
    </g>
   </g>
   <g id="FillBetweenPolyCollection_6">
    <defs>
     <path id="meefa8eef89" d="M 86.120892 -148.767676 
L 84.45808 -148.767676 
L 84.047881 -149.465622 
L 83.621148 -150.163568 
L 83.191269 -150.861514 
L 82.737912 -151.55946 
L 82.228241 -152.257407 
L 81.638015 -152.955353 
L 80.95888 -153.653299 
L 80.191595 -154.351245 
L 79.33786 -155.049191 
L 78.403011 -155.747137 
L 77.403247 -156.445083 
L 76.362713 -157.14303 
L 75.30234 -157.840976 
L 74.237535 -158.538922 
L 73.187581 -159.236868 
L 72.175143 -159.934814 
L 71.20927 -160.63276 
L 70.282726 -161.330706 
L 69.396592 -162.028653 
L 68.574827 -162.726599 
L 67.849262 -163.424545 
L 67.244008 -164.122491 
L 66.770125 -164.820437 
L 66.416214 -165.518383 
L 66.148446 -166.21633 
L 65.934936 -166.914276 
L 65.770874 -167.612222 
L 65.680408 -168.310168 
L 65.699176 -169.008114 
L 65.851347 -169.70606 
L 66.137846 -170.404006 
L 66.544104 -171.101953 
L 67.05443 -171.799899 
L 67.660995 -172.497845 
L 68.366293 -173.195791 
L 69.174435 -173.893737 
L 70.073771 -174.591683 
L 71.028678 -175.28963 
L 71.991551 -175.987576 
L 72.923754 -176.685522 
L 73.806543 -177.383468 
L 74.637093 -178.081414 
L 75.419478 -178.77936 
L 76.159546 -179.477306 
L 76.862874 -180.175253 
L 77.532529 -180.873199 
L 78.168247 -181.571145 
L 78.767502 -182.269091 
L 79.32697 -182.967037 
L 79.844783 -183.664983 
L 80.322727 -184.362929 
L 80.765942 -185.060876 
L 81.178387 -185.758822 
L 81.556985 -186.456768 
L 81.893455 -187.154714 
L 82.184783 -187.85266 
L 82.437907 -188.550606 
L 82.660088 -189.248553 
L 82.848034 -189.946499 
L 82.992846 -190.644445 
L 83.096582 -191.342391 
L 83.178203 -192.040337 
L 83.259604 -192.738283 
L 83.34967 -193.436229 
L 83.444785 -194.134176 
L 83.539401 -194.832122 
L 83.630043 -195.530068 
L 83.711888 -196.228014 
L 83.778386 -196.92596 
L 83.824651 -197.623906 
L 83.848661 -198.321852 
L 83.853133 -199.019799 
L 83.849895 -199.717745 
L 83.85627 -200.415691 
L 83.880994 -201.113637 
L 83.916603 -201.811583 
L 83.94889 -202.509529 
L 83.970837 -203.207476 
L 83.98534 -203.905422 
L 83.998467 -204.603368 
L 84.014448 -205.301314 
L 84.035521 -205.99926 
L 84.061602 -206.697206 
L 84.088879 -207.395152 
L 84.111804 -208.093099 
L 84.128543 -208.791045 
L 84.14396 -209.488991 
L 84.165818 -210.186937 
L 84.196487 -210.884883 
L 84.228269 -211.582829 
L 84.249585 -212.280776 
L 84.257903 -212.978722 
L 84.26532 -213.676668 
L 84.290009 -214.374614 
L 84.343772 -215.07256 
L 84.4299 -215.770506 
L 84.550028 -216.468452 
L 84.70414 -217.166399 
L 84.878897 -217.864345 
L 85.700075 -217.864345 
L 85.700075 -217.864345 
L 85.874832 -217.166399 
L 86.028944 -216.468452 
L 86.149072 -215.770506 
L 86.2352 -215.07256 
L 86.288963 -214.374614 
L 86.313651 -213.676668 
L 86.321069 -212.978722 
L 86.329387 -212.280776 
L 86.350703 -211.582829 
L 86.382485 -210.884883 
L 86.413154 -210.186937 
L 86.435012 -209.488991 
L 86.450429 -208.791045 
L 86.467168 -208.093099 
L 86.490093 -207.395152 
L 86.51737 -206.697206 
L 86.543451 -205.99926 
L 86.564524 -205.301314 
L 86.580505 -204.603368 
L 86.593632 -203.905422 
L 86.608135 -203.207476 
L 86.630081 -202.509529 
L 86.662369 -201.811583 
L 86.697978 -201.113637 
L 86.722701 -200.415691 
L 86.729076 -199.717745 
L 86.725838 -199.019799 
L 86.730311 -198.321852 
L 86.754321 -197.623906 
L 86.800586 -196.92596 
L 86.867083 -196.228014 
L 86.948929 -195.530068 
L 87.039571 -194.832122 
L 87.134186 -194.134176 
L 87.229302 -193.436229 
L 87.319367 -192.738283 
L 87.400769 -192.040337 
L 87.48239 -191.342391 
L 87.586125 -190.644445 
L 87.730938 -189.946499 
L 87.918884 -189.248553 
L 88.141064 -188.550606 
L 88.394189 -187.85266 
L 88.685516 -187.154714 
L 89.021987 -186.456768 
L 89.400585 -185.758822 
L 89.81303 -185.060876 
L 90.256245 -184.362929 
L 90.734189 -183.664983 
L 91.252002 -182.967037 
L 91.81147 -182.269091 
L 92.410725 -181.571145 
L 93.046443 -180.873199 
L 93.716098 -180.175253 
L 94.419425 -179.477306 
L 95.159494 -178.77936 
L 95.941879 -178.081414 
L 96.772429 -177.383468 
L 97.655218 -176.685522 
L 98.587421 -175.987576 
L 99.550293 -175.28963 
L 100.505201 -174.591683 
L 101.404537 -173.893737 
L 102.212679 -173.195791 
L 102.917977 -172.497845 
L 103.524542 -171.799899 
L 104.034868 -171.101953 
L 104.441125 -170.404006 
L 104.727624 -169.70606 
L 104.879796 -169.008114 
L 104.898564 -168.310168 
L 104.808098 -167.612222 
L 104.644036 -166.914276 
L 104.430526 -166.21633 
L 104.162758 -165.518383 
L 103.808847 -164.820437 
L 103.334963 -164.122491 
L 102.72971 -163.424545 
L 102.004145 -162.726599 
L 101.182379 -162.028653 
L 100.296245 -161.330706 
L 99.369702 -160.63276 
L 98.403828 -159.934814 
L 97.39139 -159.236868 
L 96.341437 -158.538922 
L 95.276632 -157.840976 
L 94.216259 -157.14303 
L 93.175724 -156.445083 
L 92.17596 -155.747137 
L 91.241112 -155.049191 
L 90.387376 -154.351245 
L 89.620092 -153.653299 
L 88.940957 -152.955353 
L 88.350731 -152.257407 
L 87.84106 -151.55946 
L 87.387703 -150.861514 
L 86.957824 -150.163568 
L 86.531091 -149.465622 
L 86.120892 -148.767676 
z
" style="stroke: #004488; stroke-width: 1.1"/>
    </defs>
    <g clip-path="url(#pfb92d5013b)">
     <use xlink:href="#meefa8eef89" x="0" y="283.464567" style="fill: #bbccee; stroke: #004488; stroke-width: 1.1"/>
    </g>
   </g>
   <g id="FillBetweenPolyCollection_7">
    <defs>
     <path id="m16c153d5a6" d="M 156.08184 -151.606303 
L 154.561976 -151.606303 
L 154.159676 -152.22872 
L 153.698701 -152.851138 
L 153.159339 -153.473555 
L 152.498297 -154.095973 
L 151.684829 -154.71839 
L 150.71808 -155.340807 
L 149.616588 -155.963225 
L 148.402989 -156.585642 
L 147.097264 -157.20806 
L 145.714045 -157.830477 
L 144.270063 -158.452895 
L 142.806634 -159.075312 
L 141.399783 -159.697729 
L 140.131166 -160.320147 
L 139.039649 -160.942564 
L 138.104049 -161.564982 
L 137.285599 -162.187399 
L 136.592031 -162.809817 
L 136.082994 -163.432234 
L 135.800643 -164.054651 
L 135.71283 -164.677069 
L 135.739955 -165.299486 
L 135.82165 -165.921904 
L 135.943942 -166.544321 
L 136.121624 -167.166739 
L 136.377508 -167.789156 
L 136.730812 -168.411573 
L 137.184681 -169.033991 
L 137.721797 -169.656408 
L 138.319762 -170.278826 
L 138.970975 -170.901243 
L 139.685108 -171.523661 
L 140.474114 -172.146078 
L 141.333298 -172.768495 
L 142.231528 -173.390913 
L 143.121918 -174.01333 
L 143.967524 -174.635748 
L 144.756822 -175.258165 
L 145.498196 -175.880583 
L 146.207356 -176.503 
L 146.897548 -177.125417 
L 147.571889 -177.747835 
L 148.221197 -178.370252 
L 148.832365 -178.99267 
L 149.399863 -179.615087 
L 149.924209 -180.237505 
L 150.398136 -180.859922 
L 150.802725 -181.482339 
L 151.123854 -182.104757 
L 151.369169 -182.727174 
L 151.56273 -183.349592 
L 151.724104 -183.972009 
L 151.859921 -184.594427 
L 151.975933 -185.216844 
L 152.086267 -185.839261 
L 152.204913 -186.461679 
L 152.335059 -187.084096 
L 152.471039 -187.706514 
L 152.605506 -188.328931 
L 152.733522 -188.951349 
L 152.854686 -189.573766 
L 152.972112 -190.196183 
L 153.088459 -190.818601 
L 153.204999 -191.441018 
L 153.323769 -192.063436 
L 153.446271 -192.685853 
L 153.569 -193.308271 
L 153.683749 -193.930688 
L 153.784148 -194.553106 
L 153.869335 -195.175523 
L 153.94028 -195.79794 
L 153.996032 -196.420358 
L 154.035235 -197.042775 
L 154.059068 -197.665193 
L 154.072215 -198.28761 
L 154.082421 -198.910028 
L 154.098444 -199.532445 
L 154.126273 -200.154862 
L 154.165727 -200.77728 
L 154.209944 -201.399697 
L 154.249237 -202.022115 
L 154.278092 -202.644532 
L 154.300156 -203.26695 
L 154.326396 -203.889367 
L 154.367584 -204.511784 
L 154.426742 -205.134202 
L 154.496633 -205.756619 
L 154.564568 -206.379037 
L 154.620981 -207.001454 
L 154.663601 -207.623872 
L 154.694779 -208.246289 
L 154.717298 -208.868706 
L 154.732361 -209.491124 
L 154.740598 -210.113541 
L 154.74654 -210.735959 
L 154.762405 -211.358376 
L 154.805301 -211.980794 
L 154.887058 -212.603211 
L 155.001778 -213.225628 
L 155.642038 -213.225628 
L 155.642038 -213.225628 
L 155.756759 -212.603211 
L 155.838516 -211.980794 
L 155.881411 -211.358376 
L 155.897276 -210.735959 
L 155.903218 -210.113541 
L 155.911456 -209.491124 
L 155.926518 -208.868706 
L 155.949038 -208.246289 
L 155.980216 -207.623872 
L 156.022835 -207.001454 
L 156.079249 -206.379037 
L 156.147184 -205.756619 
L 156.217074 -205.134202 
L 156.276233 -204.511784 
L 156.317421 -203.889367 
L 156.343661 -203.26695 
L 156.365724 -202.644532 
L 156.39458 -202.022115 
L 156.433872 -201.399697 
L 156.478089 -200.77728 
L 156.517544 -200.154862 
L 156.545373 -199.532445 
L 156.561396 -198.910028 
L 156.571602 -198.28761 
L 156.584749 -197.665193 
L 156.608582 -197.042775 
L 156.647784 -196.420358 
L 156.703537 -195.79794 
L 156.774481 -195.175523 
L 156.859669 -194.553106 
L 156.960067 -193.930688 
L 157.074816 -193.308271 
L 157.197545 -192.685853 
L 157.320048 -192.063436 
L 157.438817 -191.441018 
L 157.555357 -190.818601 
L 157.671705 -190.196183 
L 157.789131 -189.573766 
L 157.910295 -188.951349 
L 158.038311 -188.328931 
L 158.172777 -187.706514 
L 158.308758 -187.084096 
L 158.438903 -186.461679 
L 158.557549 -185.839261 
L 158.667884 -185.216844 
L 158.783896 -184.594427 
L 158.919713 -183.972009 
L 159.081086 -183.349592 
L 159.274647 -182.727174 
L 159.519962 -182.104757 
L 159.841091 -181.482339 
L 160.24568 -180.859922 
L 160.719607 -180.237505 
L 161.243954 -179.615087 
L 161.811452 -178.99267 
L 162.42262 -178.370252 
L 163.071928 -177.747835 
L 163.746268 -177.125417 
L 164.43646 -176.503 
L 165.14562 -175.880583 
L 165.886995 -175.258165 
L 166.676293 -174.635748 
L 167.521899 -174.01333 
L 168.412288 -173.390913 
L 169.310519 -172.768495 
L 170.169703 -172.146078 
L 170.958709 -171.523661 
L 171.672841 -170.901243 
L 172.324055 -170.278826 
L 172.922019 -169.656408 
L 173.459135 -169.033991 
L 173.913005 -168.411573 
L 174.266309 -167.789156 
L 174.522193 -167.166739 
L 174.699875 -166.544321 
L 174.822166 -165.921904 
L 174.903861 -165.299486 
L 174.930987 -164.677069 
L 174.843174 -164.054651 
L 174.560823 -163.432234 
L 174.051785 -162.809817 
L 173.358218 -162.187399 
L 172.539767 -161.564982 
L 171.604167 -160.942564 
L 170.51265 -160.320147 
L 169.244033 -159.697729 
L 167.837182 -159.075312 
L 166.373754 -158.452895 
L 164.929772 -157.830477 
L 163.546553 -157.20806 
L 162.240828 -156.585642 
L 161.027229 -155.963225 
L 159.925737 -155.340807 
L 158.958988 -154.71839 
L 158.14552 -154.095973 
L 157.484478 -153.473555 
L 156.945115 -152.851138 
L 156.484141 -152.22872 
L 156.08184 -151.606303 
z
" style="stroke: #004488; stroke-width: 1.1"/>
    </defs>
    <g clip-path="url(#pfb92d5013b)">
     <use xlink:href="#m16c153d5a6" x="0" y="283.464567" style="fill: #bbccee; stroke: #004488; stroke-width: 1.1"/>
    </g>
   </g>
   <g id="FillBetweenPolyCollection_8">
    <defs>
     <path id="m2e0aee8e97" d="M 227.284304 -154.029549 
L 223.424357 -154.029549 
L 222.469506 -154.433771 
L 221.416877 -154.837992 
L 220.328012 -155.242214 
L 219.227986 -155.646436 
L 218.122719 -156.050657 
L 217.022918 -156.454879 
L 215.948256 -156.8591 
L 214.918753 -157.263322 
L 213.952146 -157.667544 
L 213.065492 -158.071765 
L 212.26822 -158.475987 
L 211.55175 -158.880208 
L 210.891976 -159.28443 
L 210.263711 -159.688652 
L 209.651322 -160.092873 
L 209.049569 -160.497095 
L 208.461201 -160.901316 
L 207.894984 -161.305538 
L 207.362365 -161.709759 
L 206.874876 -162.113981 
L 206.446993 -162.518203 
L 206.100841 -162.922424 
L 205.862302 -163.326646 
L 205.746668 -163.730867 
L 205.745252 -164.135089 
L 205.825907 -164.539311 
L 205.949342 -164.943532 
L 206.088466 -165.347754 
L 206.234164 -165.751975 
L 206.387169 -166.156197 
L 206.552548 -166.560419 
L 206.743713 -166.96464 
L 206.98249 -167.368862 
L 207.287127 -167.773083 
L 207.661201 -168.177305 
L 208.095505 -168.581527 
L 208.577059 -168.985748 
L 209.094986 -169.38997 
L 209.641188 -169.794191 
L 210.205944 -170.198413 
L 210.76955 -170.602635 
L 211.299334 -171.006856 
L 211.762283 -171.411078 
L 212.146644 -171.815299 
L 212.471454 -172.219521 
L 212.77368 -172.623743 
L 213.086614 -173.027964 
L 213.429787 -173.432186 
L 213.813684 -173.836407 
L 214.245491 -174.240629 
L 214.725854 -174.644851 
L 215.243461 -175.049072 
L 215.77882 -175.453294 
L 216.31413 -175.857515 
L 216.836507 -176.261737 
L 217.333229 -176.665959 
L 217.790067 -177.07018 
L 218.197078 -177.474402 
L 218.554301 -177.878623 
L 218.871989 -178.282845 
L 219.167739 -178.687066 
L 219.46124 -179.091288 
L 219.764814 -179.49551 
L 220.075131 -179.899731 
L 220.37591 -180.303953 
L 220.650801 -180.708174 
L 220.893635 -181.112396 
L 221.107306 -181.516618 
L 221.296338 -181.920839 
L 221.463514 -182.325061 
L 221.612959 -182.729282 
L 221.753099 -183.133504 
L 221.894133 -183.537726 
L 222.042898 -183.941947 
L 222.201229 -184.346169 
L 222.368705 -184.75039 
L 222.544816 -185.154612 
L 222.72714 -185.558834 
L 222.909016 -185.963055 
L 223.081798 -186.367277 
L 223.239543 -186.771498 
L 223.37989 -187.17572 
L 223.501686 -187.579942 
L 223.605231 -187.984163 
L 223.694898 -188.388385 
L 223.778191 -188.792606 
L 223.860849 -189.196828 
L 223.944134 -189.60105 
L 224.026625 -190.005271 
L 224.106322 -190.409493 
L 224.180358 -190.813714 
L 224.245053 -191.217936 
L 224.29939 -191.622158 
L 224.349736 -192.026379 
L 224.410408 -192.430601 
L 224.497835 -192.834822 
L 224.621472 -193.239044 
L 224.776707 -193.643266 
L 224.944094 -194.047487 
L 225.764567 -194.047487 
L 225.764567 -194.047487 
L 225.931954 -193.643266 
L 226.087189 -193.239044 
L 226.210827 -192.834822 
L 226.298253 -192.430601 
L 226.358926 -192.026379 
L 226.409271 -191.622158 
L 226.463608 -191.217936 
L 226.528304 -190.813714 
L 226.602339 -190.409493 
L 226.682037 -190.005271 
L 226.764527 -189.60105 
L 226.847813 -189.196828 
L 226.93047 -188.792606 
L 227.013764 -188.388385 
L 227.103431 -187.984163 
L 227.206975 -187.579942 
L 227.328771 -187.17572 
L 227.469118 -186.771498 
L 227.626863 -186.367277 
L 227.799646 -185.963055 
L 227.981522 -185.558834 
L 228.163846 -185.154612 
L 228.339957 -184.75039 
L 228.507433 -184.346169 
L 228.665764 -183.941947 
L 228.814529 -183.537726 
L 228.955563 -183.133504 
L 229.095702 -182.729282 
L 229.245148 -182.325061 
L 229.412323 -181.920839 
L 229.601356 -181.516618 
L 229.815026 -181.112396 
L 230.057861 -180.708174 
L 230.332751 -180.303953 
L 230.633531 -179.899731 
L 230.943848 -179.49551 
L 231.247421 -179.091288 
L 231.540922 -178.687066 
L 231.836673 -178.282845 
L 232.154361 -177.878623 
L 232.511583 -177.474402 
L 232.918594 -177.07018 
L 233.375432 -176.665959 
L 233.872155 -176.261737 
L 234.394532 -175.857515 
L 234.929841 -175.453294 
L 235.465201 -175.049072 
L 235.982807 -174.644851 
L 236.463171 -174.240629 
L 236.894977 -173.836407 
L 237.278874 -173.432186 
L 237.622048 -173.027964 
L 237.934981 -172.623743 
L 238.237207 -172.219521 
L 238.562017 -171.815299 
L 238.946379 -171.411078 
L 239.409327 -171.006856 
L 239.939111 -170.602635 
L 240.502718 -170.198413 
L 241.067473 -169.794191 
L 241.613675 -169.38997 
L 242.131602 -168.985748 
L 242.613156 -168.581527 
L 243.047461 -168.177305 
L 243.421534 -167.773083 
L 243.726172 -167.368862 
L 243.964948 -166.96464 
L 244.156114 -166.560419 
L 244.321492 -166.156197 
L 244.474497 -165.751975 
L 244.620195 -165.347754 
L 244.75932 -164.943532 
L 244.882754 -164.539311 
L 244.963409 -164.135089 
L 244.961993 -163.730867 
L 244.846359 -163.326646 
L 244.607821 -162.922424 
L 244.261668 -162.518203 
L 243.833786 -162.113981 
L 243.346297 -161.709759 
L 242.813678 -161.305538 
L 242.24746 -160.901316 
L 241.659093 -160.497095 
L 241.057339 -160.092873 
L 240.44495 -159.688652 
L 239.816685 -159.28443 
L 239.156911 -158.880208 
L 238.440441 -158.475987 
L 237.643169 -158.071765 
L 236.756515 -157.667544 
L 235.789909 -157.263322 
L 234.760406 -156.8591 
L 233.685743 -156.454879 
L 232.585943 -156.050657 
L 231.480676 -155.646436 
L 230.38065 -155.242214 
L 229.291784 -154.837992 
L 228.239155 -154.433771 
L 227.284304 -154.029549 
z
" style="stroke: #004488; stroke-width: 1.1"/>
    </defs>
    <g clip-path="url(#pfb92d5013b)">
     <use xlink:href="#m2e0aee8e97" x="0" y="283.464567" style="fill: #bbccee; stroke: #004488; stroke-width: 1.1"/>
    </g>
   </g>
   <g id="FillBetweenPolyCollection_9">
    <defs>
     <path id="m628fbb8491" d="M 296.890585 -142.398028 
L 293.882921 -142.398028 
L 293.302995 -142.860994 
L 292.715211 -143.323961 
L 292.160532 -143.786928 
L 291.656022 -144.249895 
L 291.200383 -144.712861 
L 290.784889 -145.175828 
L 290.400057 -145.638795 
L 290.0364 -146.101761 
L 289.683949 -146.564728 
L 289.33438 -147.027695 
L 288.983518 -147.490662 
L 288.629047 -147.953628 
L 288.263583 -148.416595 
L 287.870557 -148.879562 
L 287.428978 -149.342529 
L 286.923791 -149.805495 
L 286.35294 -150.268462 
L 285.726387 -150.731429 
L 285.059525 -151.194395 
L 284.365204 -151.657362 
L 283.645907 -152.120329 
L 282.888165 -152.583296 
L 282.065875 -153.046262 
L 281.15804 -153.509229 
L 280.173775 -153.972196 
L 279.164906 -154.435162 
L 278.211602 -154.898129 
L 277.388455 -155.361096 
L 276.736082 -155.824063 
L 276.258557 -156.287029 
L 275.943684 -156.749996 
L 275.783768 -157.212963 
L 275.777675 -157.675929 
L 275.916006 -158.138896 
L 276.167092 -158.601863 
L 276.47841 -159.06483 
L 276.794086 -159.527796 
L 277.078911 -159.990763 
L 277.33624 -160.45373 
L 277.607929 -160.916697 
L 277.950721 -161.379663 
L 278.397881 -161.84263 
L 278.929463 -162.305597 
L 279.474253 -162.768563 
L 279.946104 -163.23153 
L 280.291691 -163.694497 
L 280.517667 -164.157464 
L 280.681066 -164.62043 
L 280.853641 -165.083397 
L 281.086554 -165.546364 
L 281.395723 -166.00933 
L 281.769116 -166.472297 
L 282.182858 -166.935264 
L 282.612518 -167.398231 
L 283.035238 -167.861197 
L 283.427915 -168.324164 
L 283.769399 -168.787131 
L 284.049156 -169.250097 
L 284.276208 -169.713064 
L 284.479239 -170.176031 
L 284.694547 -170.638998 
L 284.946937 -171.101964 
L 285.2332 -171.564931 
L 285.516689 -172.027898 
L 285.73578 -172.490865 
L 285.821569 -172.953831 
L 285.716895 -173.416798 
L 285.391762 -173.879765 
L 284.853621 -174.342731 
L 284.1507 -174.805698 
L 283.366986 -175.268665 
L 282.611836 -175.731632 
L 282.009028 -176.194598 
L 281.684448 -176.657565 
L 281.746045 -177.120532 
L 282.254367 -177.583498 
L 283.193968 -178.046465 
L 284.462951 -178.509432 
L 285.891921 -178.972399 
L 287.28856 -179.435365 
L 288.490275 -179.898332 
L 289.403318 -180.361299 
L 290.014754 -180.824265 
L 290.377768 -181.287232 
L 290.581665 -181.750199 
L 290.7201 -182.213166 
L 290.867385 -182.676132 
L 291.067908 -183.139099 
L 291.338275 -183.602066 
L 291.676427 -184.065032 
L 292.069885 -184.527999 
L 292.498988 -184.990966 
L 292.937569 -185.453933 
L 293.356901 -185.916899 
L 293.734776 -186.379866 
L 294.063842 -186.842833 
L 294.350965 -187.3058 
L 294.606825 -187.768766 
L 294.834622 -188.231733 
L 295.938885 -188.231733 
L 295.938885 -188.231733 
L 296.166681 -187.768766 
L 296.422541 -187.3058 
L 296.709664 -186.842833 
L 297.03873 -186.379866 
L 297.416605 -185.916899 
L 297.835938 -185.453933 
L 298.274519 -184.990966 
L 298.703621 -184.527999 
L 299.097079 -184.065032 
L 299.435231 -183.602066 
L 299.705598 -183.139099 
L 299.906121 -182.676132 
L 300.053407 -182.213166 
L 300.191841 -181.750199 
L 300.395739 -181.287232 
L 300.758752 -180.824265 
L 301.370188 -180.361299 
L 302.283231 -179.898332 
L 303.484946 -179.435365 
L 304.881586 -178.972399 
L 306.310555 -178.509432 
L 307.579539 -178.046465 
L 308.519139 -177.583498 
L 309.027461 -177.120532 
L 309.089059 -176.657565 
L 308.764478 -176.194598 
L 308.161671 -175.731632 
L 307.40652 -175.268665 
L 306.622806 -174.805698 
L 305.919885 -174.342731 
L 305.381744 -173.879765 
L 305.056611 -173.416798 
L 304.951937 -172.953831 
L 305.037726 -172.490865 
L 305.256817 -172.027898 
L 305.540306 -171.564931 
L 305.826569 -171.101964 
L 306.07896 -170.638998 
L 306.294267 -170.176031 
L 306.497298 -169.713064 
L 306.72435 -169.250097 
L 307.004108 -168.787131 
L 307.345591 -168.324164 
L 307.738268 -167.861197 
L 308.160989 -167.398231 
L 308.590648 -166.935264 
L 309.004391 -166.472297 
L 309.377784 -166.00933 
L 309.686952 -165.546364 
L 309.919865 -165.083397 
L 310.09244 -164.62043 
L 310.255839 -164.157464 
L 310.481815 -163.694497 
L 310.827402 -163.23153 
L 311.299254 -162.768563 
L 311.844044 -162.305597 
L 312.375625 -161.84263 
L 312.822785 -161.379663 
L 313.165577 -160.916697 
L 313.437266 -160.45373 
L 313.694595 -159.990763 
L 313.97942 -159.527796 
L 314.295096 -159.06483 
L 314.606414 -158.601863 
L 314.8575 -158.138896 
L 314.995831 -157.675929 
L 314.989738 -157.212963 
L 314.829822 -156.749996 
L 314.51495 -156.287029 
L 314.037424 -155.824063 
L 313.385052 -155.361096 
L 312.561904 -154.898129 
L 311.6086 -154.435162 
L 310.599732 -153.972196 
L 309.615467 -153.509229 
L 308.707631 -153.046262 
L 307.885342 -152.583296 
L 307.1276 -152.120329 
L 306.408302 -151.657362 
L 305.713981 -151.194395 
L 305.047119 -150.731429 
L 304.420566 -150.268462 
L 303.849716 -149.805495 
L 303.344528 -149.342529 
L 302.902949 -148.879562 
L 302.509923 -148.416595 
L 302.144459 -147.953628 
L 301.789988 -147.490662 
L 301.439126 -147.027695 
L 301.089557 -146.564728 
L 300.737106 -146.101761 
L 300.373449 -145.638795 
L 299.988617 -145.175828 
L 299.573123 -144.712861 
L 299.117484 -144.249895 
L 298.612974 -143.786928 
L 298.058295 -143.323961 
L 297.470511 -142.860994 
L 296.890585 -142.398028 
z
" style="stroke: #004488; stroke-width: 1.1"/>
    </defs>
    <g clip-path="url(#pfb92d5013b)">
     <use xlink:href="#m628fbb8491" x="0" y="283.464567" style="fill: #bbccee; stroke: #004488; stroke-width: 1.1"/>
    </g>
   </g>
   <g id="FillBetweenPolyCollection_10">
    <defs>
     <path id="m934d6bba32" d="M 366.968222 -142.259567 
L 363.870129 -142.259567 
L 363.20652 -142.889678 
L 362.570863 -143.519788 
L 361.997059 -144.149898 
L 361.476309 -144.780008 
L 360.991839 -145.410118 
L 360.526694 -146.040228 
L 360.054068 -146.670338 
L 359.54395 -147.300449 
L 358.981304 -147.930559 
L 358.371607 -148.560669 
L 357.730867 -149.190779 
L 357.070597 -149.820889 
L 356.386996 -150.450999 
L 355.665727 -151.081109 
L 354.903544 -151.711219 
L 354.121996 -152.34133 
L 353.349067 -152.97144 
L 352.588038 -153.60155 
L 351.817544 -154.23166 
L 351.024772 -154.86177 
L 350.226362 -155.49188 
L 349.454749 -156.12199 
L 348.736165 -156.752101 
L 348.083311 -157.382211 
L 347.497829 -158.012321 
L 346.977575 -158.642431 
L 346.529034 -159.272541 
L 346.173369 -159.902651 
L 345.934586 -160.532761 
L 345.819737 -161.162871 
L 345.810097 -161.792982 
L 345.866859 -162.423092 
L 345.942507 -163.053202 
L 345.993434 -163.683312 
L 345.994475 -164.313422 
L 345.951774 -164.943532 
L 345.903344 -165.573642 
L 345.899073 -166.203753 
L 345.970779 -166.833863 
L 346.119223 -167.463973 
L 346.328292 -168.094083 
L 346.585128 -168.724193 
L 346.887951 -169.354303 
L 347.249333 -169.984413 
L 347.700853 -170.614523 
L 348.28285 -171.244634 
L 349.011276 -171.874744 
L 349.851528 -172.504854 
L 350.732596 -173.134964 
L 351.585778 -173.765074 
L 352.366859 -174.395184 
L 353.058664 -175.025294 
L 353.676697 -175.655405 
L 354.26903 -176.285515 
L 354.887985 -176.915625 
L 355.553044 -177.545735 
L 356.243826 -178.175845 
L 356.922338 -178.805955 
L 357.555762 -179.436065 
L 358.129128 -180.066175 
L 358.64838 -180.696286 
L 359.127839 -181.326396 
L 359.573008 -181.956506 
L 359.982326 -182.586616 
L 360.360068 -183.216726 
L 360.713509 -183.846836 
L 361.040786 -184.476946 
L 361.334471 -185.107057 
L 361.594731 -185.737167 
L 361.829374 -186.367277 
L 362.043307 -186.997387 
L 362.234943 -187.627497 
L 362.402368 -188.257607 
L 362.550273 -188.887717 
L 362.689878 -189.517827 
L 362.830773 -190.147938 
L 362.974444 -190.778048 
L 363.11879 -191.408158 
L 363.265667 -192.038268 
L 363.418526 -192.668378 
L 363.574129 -193.298488 
L 363.721589 -193.928598 
L 363.850361 -194.558709 
L 363.956757 -195.188819 
L 364.042659 -195.818929 
L 364.112176 -196.449039 
L 364.172907 -197.079149 
L 364.236487 -197.709259 
L 364.310568 -198.339369 
L 364.390617 -198.969479 
L 364.465597 -199.59959 
L 364.53136 -200.2297 
L 364.593399 -200.85981 
L 364.658351 -201.48992 
L 364.729454 -202.12003 
L 364.81049 -202.75014 
L 364.907672 -203.38025 
L 365.022926 -204.010361 
L 365.14595 -204.640471 
L 365.692401 -204.640471 
L 365.692401 -204.640471 
L 365.815425 -204.010361 
L 365.930679 -203.38025 
L 366.027861 -202.75014 
L 366.108897 -202.12003 
L 366.18 -201.48992 
L 366.244952 -200.85981 
L 366.306991 -200.2297 
L 366.372754 -199.59959 
L 366.447734 -198.969479 
L 366.527783 -198.339369 
L 366.601864 -197.709259 
L 366.665444 -197.079149 
L 366.726175 -196.449039 
L 366.795692 -195.818929 
L 366.881595 -195.188819 
L 366.98799 -194.558709 
L 367.116762 -193.928598 
L 367.264222 -193.298488 
L 367.419825 -192.668378 
L 367.572684 -192.038268 
L 367.719561 -191.408158 
L 367.863907 -190.778048 
L 368.007579 -190.147938 
L 368.148473 -189.517827 
L 368.288078 -188.887717 
L 368.435983 -188.257607 
L 368.603408 -187.627497 
L 368.795044 -186.997387 
L 369.008977 -186.367277 
L 369.24362 -185.737167 
L 369.50388 -185.107057 
L 369.797565 -184.476946 
L 370.124842 -183.846836 
L 370.478283 -183.216726 
L 370.856025 -182.586616 
L 371.265343 -181.956506 
L 371.710512 -181.326396 
L 372.189971 -180.696286 
L 372.709223 -180.066175 
L 373.282589 -179.436065 
L 373.916013 -178.805955 
L 374.594526 -178.175845 
L 375.285307 -177.545735 
L 375.950366 -176.915625 
L 376.569321 -176.285515 
L 377.161654 -175.655405 
L 377.779687 -175.025294 
L 378.471492 -174.395184 
L 379.252573 -173.765074 
L 380.105756 -173.134964 
L 380.986823 -172.504854 
L 381.827075 -171.874744 
L 382.555501 -171.244634 
L 383.137498 -170.614523 
L 383.589018 -169.984413 
L 383.9504 -169.354303 
L 384.253223 -168.724193 
L 384.510059 -168.094083 
L 384.719128 -167.463973 
L 384.867572 -166.833863 
L 384.939278 -166.203753 
L 384.935007 -165.573642 
L 384.886577 -164.943532 
L 384.843876 -164.313422 
L 384.844917 -163.683312 
L 384.895844 -163.053202 
L 384.971492 -162.423092 
L 385.028254 -161.792982 
L 385.018614 -161.162871 
L 384.903765 -160.532761 
L 384.664982 -159.902651 
L 384.309317 -159.272541 
L 383.860776 -158.642431 
L 383.340522 -158.012321 
L 382.75504 -157.382211 
L 382.102186 -156.752101 
L 381.383602 -156.12199 
L 380.611989 -155.49188 
L 379.813579 -154.86177 
L 379.020807 -154.23166 
L 378.250313 -153.60155 
L 377.489284 -152.97144 
L 376.716355 -152.34133 
L 375.934807 -151.711219 
L 375.172624 -151.081109 
L 374.451355 -150.450999 
L 373.767754 -149.820889 
L 373.107484 -149.190779 
L 372.466744 -148.560669 
L 371.857047 -147.930559 
L 371.294401 -147.300449 
L 370.784284 -146.670338 
L 370.311657 -146.040228 
L 369.846512 -145.410118 
L 369.362042 -144.780008 
L 368.841293 -144.149898 
L 368.267488 -143.519788 
L 367.631831 -142.889678 
L 366.968222 -142.259567 
z
" style="stroke: #004488; stroke-width: 1.1"/>
    </defs>
    <g clip-path="url(#pfb92d5013b)">
     <use xlink:href="#m934d6bba32" x="0" y="283.464567" style="fill: #bbccee; stroke: #004488; stroke-width: 1.1"/>
    </g>
   </g>
   <g id="line2d_22">
    <path d="M 85.289486 222.833241 
L 85.289486 213.624966 
" clip-path="url(#pfb92d5013b)" style="fill: none; stroke: #000000; stroke-width: 1.9; stroke-linecap: round"/>
   </g>
   <g id="line2d_23">
    <path d="M 155.321908 220.756205 
L 155.321908 211.963337 
" clip-path="url(#pfb92d5013b)" style="fill: none; stroke: #000000; stroke-width: 1.9; stroke-linecap: round"/>
   </g>
   <g id="line2d_24">
    <path d="M 225.354331 215.494292 
L 225.354331 209.124657 
" clip-path="url(#pfb92d5013b)" style="fill: none; stroke: #000000; stroke-width: 1.9; stroke-linecap: round"/>
   </g>
   <g id="line2d_25">
    <path d="M 295.386753 227.541221 
L 295.386753 223.525582 
" clip-path="url(#pfb92d5013b)" style="fill: none; stroke: #000000; stroke-width: 1.9; stroke-linecap: round"/>
   </g>
   <g id="line2d_26">
    <path d="M 365.419176 227.195037 
L 365.419176 220.133061 
" clip-path="url(#pfb92d5013b)" style="fill: none; stroke: #000000; stroke-width: 1.9; stroke-linecap: round"/>
   </g>
   <g id="line2d_27">
    <path d="M 85.289486 120.157519 
L 85.289486 106.587408 
" clip-path="url(#pfb92d5013b)" style="fill: none; stroke: #000000; stroke-width: 1.9; stroke-linecap: round"/>
   </g>
   <g id="line2d_28">
    <path d="M 155.321908 120.642137 
L 155.321908 108.456761 
" clip-path="url(#pfb92d5013b)" style="fill: none; stroke: #000000; stroke-width: 1.9; stroke-linecap: round"/>
   </g>
   <g id="line2d_29">
    <path d="M 225.354331 121.542188 
L 225.354331 110.32614 
" clip-path="url(#pfb92d5013b)" style="fill: none; stroke: #000000; stroke-width: 1.9; stroke-linecap: round"/>
   </g>
   <g id="line2d_30">
    <path d="M 295.386753 127.704126 
L 295.386753 111.710808 
" clip-path="url(#pfb92d5013b)" style="fill: none; stroke: #000000; stroke-width: 1.9; stroke-linecap: round"/>
   </g>
   <g id="line2d_31">
    <path d="M 365.419176 125.765563 
L 365.419176 110.3261 
" clip-path="url(#pfb92d5013b)" style="fill: none; stroke: #000000; stroke-width: 1.9; stroke-linecap: round"/>
   </g>
   <g id="text_12">
    <text style="font-weight: 700; font-size: 19px; font-family: 'Tahoma'; text-anchor: middle; fill: #004488" x="225.354331" y="70.96859" transform="rotate(-0 225.354331 70.96859)">from mean</text>
   </g>
   <g id="text_13">
    <text style="font-weight: 700; font-size: 19px; font-family: 'Tahoma'; text-anchor: middle; fill: #bb5566" x="225.354331" y="159.121081" transform="rotate(-0 225.354331 159.121081)">from p90</text>
   </g>
   <g id="line2d_32">
    <path d="M 76.885595 218.679156 
L 93.693377 218.679156 
" clip-path="url(#pfb92d5013b)" style="fill: none; stroke: #bb5566; stroke-width: 2.1; stroke-linecap: square"/>
   </g>
   <g id="line2d_33">
    <path d="M 146.918018 216.879013 
L 163.725799 216.879013 
" clip-path="url(#pfb92d5013b)" style="fill: none; stroke: #bb5566; stroke-width: 2.1; stroke-linecap: square"/>
   </g>
   <g id="line2d_34">
    <path d="M 216.95044 212.309494 
L 233.758221 212.309494 
" clip-path="url(#pfb92d5013b)" style="fill: none; stroke: #bb5566; stroke-width: 2.1; stroke-linecap: square"/>
   </g>
   <g id="line2d_35">
    <path d="M 286.982862 225.879578 
L 303.790644 225.879578 
" clip-path="url(#pfb92d5013b)" style="fill: none; stroke: #bb5566; stroke-width: 2.1; stroke-linecap: square"/>
   </g>
   <g id="line2d_36">
    <path d="M 357.015285 224.356423 
L 373.823066 224.356423 
" clip-path="url(#pfb92d5013b)" style="fill: none; stroke: #bb5566; stroke-width: 2.1; stroke-linecap: square"/>
   </g>
   <g id="line2d_37">
    <path d="M 79.686892 113.926331 
L 90.89208 113.926331 
" clip-path="url(#pfb92d5013b)" style="fill: none; stroke: #004488; stroke-width: 2.1; stroke-linecap: square"/>
   </g>
   <g id="line2d_38">
    <path d="M 149.719314 115.241829 
L 160.924502 115.241829 
" clip-path="url(#pfb92d5013b)" style="fill: none; stroke: #004488; stroke-width: 2.1; stroke-linecap: square"/>
   </g>
   <g id="line2d_39">
    <path d="M 219.751737 116.557275 
L 230.956925 116.557275 
" clip-path="url(#pfb92d5013b)" style="fill: none; stroke: #004488; stroke-width: 2.1; stroke-linecap: square"/>
   </g>
   <g id="line2d_40">
    <path d="M 289.784159 121.126807 
L 300.989347 121.126807 
" clip-path="url(#pfb92d5013b)" style="fill: none; stroke: #004488; stroke-width: 2.1; stroke-linecap: square"/>
   </g>
   <g id="line2d_41">
    <path d="M 359.816582 118.218943 
L 371.021769 118.218943 
" clip-path="url(#pfb92d5013b)" style="fill: none; stroke: #004488; stroke-width: 2.1; stroke-linecap: square"/>
   </g>
   <g id="PathCollection_1">
    <defs>
     <path id="m9243946db2" d="M 0 2.345208 
C 0.621956 2.345208 1.218523 2.098102 1.658312 1.658312 
C 2.098102 1.218523 2.345208 0.621956 2.345208 0 
C 2.345208 -0.621956 2.098102 -1.218523 1.658312 -1.658312 
C 1.218523 -2.098102 0.621956 -2.345208 0 -2.345208 
C -0.621956 -2.345208 -1.218523 -2.098102 -1.658312 -1.658312 
C -2.098102 -1.218523 -2.345208 -0.621956 -2.345208 0 
C -2.345208 0.621956 -2.098102 1.218523 -1.658312 1.658312 
C -1.218523 2.098102 -0.621956 2.345208 0 2.345208 
z
" style="stroke: #bb5566"/>
    </defs>
    <g clip-path="url(#pfb92d5013b)">
     <use xlink:href="#m9243946db2" x="85.289486" y="217.606622" style="fill: #bb5566; stroke: #bb5566"/>
    </g>
   </g>
   <g id="PathCollection_2">
    <g clip-path="url(#pfb92d5013b)">
     <use xlink:href="#m9243946db2" x="155.321908" y="215.843341" style="fill: #bb5566; stroke: #bb5566"/>
    </g>
   </g>
   <g id="PathCollection_3">
    <g clip-path="url(#pfb92d5013b)">
     <use xlink:href="#m9243946db2" x="225.354331" y="212.144112" style="fill: #bb5566; stroke: #bb5566"/>
    </g>
   </g>
   <g id="PathCollection_4">
    <g clip-path="url(#pfb92d5013b)">
     <use xlink:href="#m9243946db2" x="295.386753" y="225.348356" style="fill: #bb5566; stroke: #bb5566"/>
    </g>
   </g>
   <g id="PathCollection_5">
    <g clip-path="url(#pfb92d5013b)">
     <use xlink:href="#m9243946db2" x="365.419176" y="223.178881" style="fill: #bb5566; stroke: #bb5566"/>
    </g>
   </g>
   <g id="PathCollection_6">
    <defs>
     <path id="m5c5f4173fe" d="M 0 2.345208 
C 0.621956 2.345208 1.218523 2.098102 1.658312 1.658312 
C 2.098102 1.218523 2.345208 0.621956 2.345208 0 
C 2.345208 -0.621956 2.098102 -1.218523 1.658312 -1.658312 
C 1.218523 -2.098102 0.621956 -2.345208 0 -2.345208 
C -0.621956 -2.345208 -1.218523 -2.098102 -1.658312 -1.658312 
C -2.098102 -1.218523 -2.345208 -0.621956 -2.345208 0 
C -2.345208 0.621956 -2.098102 1.218523 -1.658312 1.658312 
C -1.218523 2.098102 -0.621956 2.345208 0 2.345208 
z
" style="stroke: #004488"/>
    </defs>
    <g clip-path="url(#pfb92d5013b)">
     <use xlink:href="#m5c5f4173fe" x="85.289486" y="111.621681" style="fill: #004488; stroke: #004488"/>
    </g>
   </g>
   <g id="PathCollection_7">
    <g clip-path="url(#pfb92d5013b)">
     <use xlink:href="#m5c5f4173fe" x="155.321908" y="112.8375" style="fill: #004488; stroke: #004488"/>
    </g>
   </g>
   <g id="PathCollection_8">
    <g clip-path="url(#pfb92d5013b)">
     <use xlink:href="#m5c5f4173fe" x="225.354331" y="115.252242" style="fill: #004488; stroke: #004488"/>
    </g>
   </g>
   <g id="PathCollection_9">
    <g clip-path="url(#pfb92d5013b)">
     <use xlink:href="#m5c5f4173fe" x="295.386753" y="119.836421" style="fill: #004488; stroke: #004488"/>
    </g>
   </g>
   <g id="PathCollection_10">
    <g clip-path="url(#pfb92d5013b)">
     <use xlink:href="#m5c5f4173fe" x="365.419176" y="117.215428" style="fill: #004488; stroke: #004488"/>
    </g>
   </g>
  </g>
 </g>
 <defs>
  <clipPath id="pfb92d5013b">
   <rect x="46.771654" y="22.677165" width="357.165354" height="198.425197"/>
  </clipPath>
 </defs>
</svg>
