<?xml version="1.0" encoding="utf-8" standalone="no"?>
<!DOCTYPE svg PUBLIC "-//W3C//DTD SVG 1.1//EN"
  "http://www.w3.org/Graphics/SVG/1.1/DTD/svg11.dtd">
<svg xmlns:xlink="http://www.w3.org/1999/xlink" width="425.19685pt" height="283.464567pt" viewBox="0 0 425.19685 283.464567" xmlns="http://www.w3.org/2000/svg" version="1.1">
 <metadata>
  <rdf:RDF xmlns:dc="http://purl.org/dc/elements/1.1/" xmlns:cc="http://creativecommons.org/ns#" xmlns:rdf="http://www.w3.org/1999/02/22-rdf-syntax-ns#">
   <cc:Work>
    <dc:type rdf:resource="http://purl.org/dc/dcmitype/StillImage"/>
    <dc:date>2026-07-15T14:59:55.349393</dc:date>
    <dc:format>image/svg+xml</dc:format>
    <dc:creator>
     <cc:Agent>
      <dc:title>Matplotlib v3.10.0, https://matplotlib.org/</dc:title>
     </cc:Agent>
    </dc:creator>
   </cc:Work>
  </rdf:RDF>
 </metadata>
 <defs>
  <style type="text/css">*{stroke-linejoin: round; stroke-linecap: butt}</style>
 </defs>
 <g id="figure_1">
  <g id="patch_1">
   <path d="M 0 283.464567 
L 425.19685 283.464567 
L 425.19685 0 
L 0 0 
L 0 283.464567 
z
" style="fill: none; opacity: 0"/>
  </g>
  <g id="axes_1">
   <g id="patch_2">
    <path d="M 63.779528 221.102362 
L 395.433071 221.102362 
L 395.433071 25.511811 
L 63.779528 25.511811 
L 63.779528 221.102362 
z
" style="fill: none"/>
   </g>
   <g id="patch_3">
    <path d="M 66.879093 260.220472 
L 110.273015 260.220472 
L 110.273015 25.511811 
L 66.879093 25.511811 
z
" style="fill: #f7f7f7; stroke: #f7f7f7; stroke-linejoin: miter"/>
   </g>
   <g id="patch_4">
    <path d="M 110.273015 260.220472 
L 218.757819 260.220472 
L 218.757819 25.511811 
L 110.273015 25.511811 
z
" style="fill: #efefef; stroke: #efefef; stroke-linejoin: miter"/>
   </g>
   <g id="patch_5">
    <path d="M 218.757819 260.220472 
L 379.935242 260.220472 
L 379.935242 25.511811 
L 218.757819 25.511811 
z
" style="fill: #e7e7e7; stroke: #e7e7e7; stroke-linejoin: miter"/>
   </g>
   <g id="line2d_1">
    <path d="M 63.779528 221.102362 
L 395.433071 221.102362 
" clip-path="url(#p24a952b647)" style="fill: none; stroke-dasharray: 3.7,1.6; stroke-dashoffset: 0; stroke: #666666; stroke-opacity: 0.55"/>
   </g>
   <g id="matplotlib.axis_1">
    <g id="xtick_1">
     <g id="line2d_2">
      <defs>
       <path id="m1f98714596" d="M 0 0 
L 0 6 
" style="stroke: #000000; stroke-width: 1.5"/>
      </defs>
      <g>
       <use xlink:href="#m1f98714596" x="69.978659" y="221.102362" style="stroke: #000000; stroke-width: 1.5"/>
      </g>
     </g>
     <g id="text_1">
      <text style="font-size: 15px; font-family: 'Tahoma'; text-anchor: middle" x="69.978659" y="242.000018" transform="rotate(-0 69.978659 242.000018)">0.1</text>
     </g>
    </g>
    <g id="xtick_2">
     <g id="line2d_3">
      <g>
       <use xlink:href="#m1f98714596" x="94.775186" y="221.102362" style="stroke: #000000; stroke-width: 1.5"/>
      </g>
     </g>
     <g id="text_2">
      <text style="font-size: 15px; font-family: 'Tahoma'; text-anchor: middle" x="94.775186" y="242.000018" transform="rotate(-0 94.775186 242.000018)">0.5</text>
     </g>
    </g>
    <g id="xtick_3">
     <g id="line2d_4">
      <g>
       <use xlink:href="#m1f98714596" x="125.770844" y="221.102362" style="stroke: #000000; stroke-width: 1.5"/>
      </g>
     </g>
     <g id="text_3">
      <text style="font-size: 15px; font-family: 'Tahoma'; text-anchor: middle" x="125.770844" y="242.000018" transform="rotate(-0 125.770844 242.000018)">1</text>
     </g>
    </g>
    <g id="xtick_4">
     <g id="line2d_5">
      <g>
       <use xlink:href="#m1f98714596" x="187.762161" y="221.102362" style="stroke: #000000; stroke-width: 1.5"/>
      </g>
     </g>
     <g id="text_4">
      <text style="font-size: 15px; font-family: 'Tahoma'; text-anchor: middle" x="187.762161" y="242.000018" transform="rotate(-0 187.762161 242.000018)">2</text>
     </g>
    </g>
    <g id="xtick_5">
     <g id="line2d_6">
      <g>
       <use xlink:href="#m1f98714596" x="249.753477" y="221.102362" style="stroke: #000000; stroke-width: 1.5"/>
      </g>
     </g>
     <g id="text_5">
      <text style="font-size: 15px; font-family: 'Tahoma'; text-anchor: middle" x="249.753477" y="242.000018" transform="rotate(-0 249.753477 242.000018)">3</text>
     </g>
    </g>
    <g id="xtick_6">
     <g id="line2d_7">
      <g>
       <use xlink:href="#m1f98714596" x="311.744794" y="221.102362" style="stroke: #000000; stroke-width: 1.5"/>
      </g>
     </g>
     <g id="text_6">
      <text style="font-size: 15px; font-family: 'Tahoma'; text-anchor: middle" x="311.744794" y="242.000018" transform="rotate(-0 311.744794 242.000018)">4</text>
     </g>
    </g>
    <g id="xtick_7">
     <g id="line2d_8">
      <g>
       <use xlink:href="#m1f98714596" x="373.73611" y="221.102362" style="stroke: #000000; stroke-width: 1.5"/>
      </g>
     </g>
     <g id="text_7">
      <text style="font-size: 15px; font-family: 'Tahoma'; text-anchor: middle" x="373.73611" y="242.000018" transform="rotate(-0 373.73611 242.000018)">5</text>
     </g>
    </g>
    <g id="text_8">
     <text style="font-size: 18px; font-family: 'Tahoma'; text-anchor: middle" x="229.606299" y="277.695956" transform="rotate(-0 229.606299 277.695956)">Thermal tolerance (±°C)</text>
    </g>
   </g>
   <g id="matplotlib.axis_2">
    <g id="ytick_1">
     <g id="line2d_9">
      <path d="M 63.779528 221.102362 
L 395.433071 221.102362 
" clip-path="url(#p24a952b647)" style="fill: none; stroke: #d0d0d0; stroke-opacity: 0.65; stroke-width: 1.2; stroke-linecap: square"/>
     </g>
     <g id="line2d_10">
      <defs>
       <path id="m09bdd04f85" d="M 0 0 
L -6 0 
" style="stroke: #000000; stroke-width: 1.5"/>
      </defs>
      <g>
       <use xlink:href="#m09bdd04f85" x="63.779528" y="221.102362" style="stroke: #000000; stroke-width: 1.5"/>
      </g>
     </g>
     <g id="text_9">
      <text style="font-size: 15px; font-family: 'Tahoma'; text-anchor: end" x="54.279528" y="226.80119" transform="rotate(-0 54.279528 226.80119)">0</text>
     </g>
    </g>
    <g id="ytick_2">
     <g id="line2d_11">
      <path d="M 63.779528 183.847019 
L 395.433071 183.847019 
" clip-path="url(#p24a952b647)" style="fill: none; stroke: #d0d0d0; stroke-opacity: 0.65; stroke-width: 1.2; stroke-linecap: square"/>
     </g>
     <g id="line2d_12">
      <g>
       <use xlink:href="#m09bdd04f85" x="63.779528" y="183.847019" style="stroke: #000000; stroke-width: 1.5"/>
      </g>
     </g>
     <g id="text_10">
      <text style="font-size: 15px; font-family: 'Tahoma'; text-anchor: end" x="54.279528" y="189.545847" transform="rotate(-0 54.279528 189.545847)">20</text>
     </g>
    </g>
    <g id="ytick_3">
     <g id="line2d_13">
      <path d="M 63.779528 146.591676 
L 395.433071 146.591676 
" clip-path="url(#p24a952b647)" style="fill: none; stroke: #d0d0d0; stroke-opacity: 0.65; stroke-width: 1.2; stroke-linecap: square"/>
     </g>
     <g id="line2d_14">
      <g>
       <use xlink:href="#m09bdd04f85" x="63.779528" y="146.591676" style="stroke: #000000; stroke-width: 1.5"/>
      </g>
     </g>
     <g id="text_11">
      <text style="font-size: 15px; font-family: 'Tahoma'; text-anchor: end" x="54.279528" y="152.290504" transform="rotate(-0 54.279528 152.290504)">40</text>
     </g>
    </g>
    <g id="ytick_4">
     <g id="line2d_15">
      <path d="M 63.779528 109.336333 
L 395.433071 109.336333 
" clip-path="url(#p24a952b647)" style="fill: none; stroke: #d0d0d0; stroke-opacity: 0.65; stroke-width: 1.2; stroke-linecap: square"/>
     </g>
     <g id="line2d_16">
      <g>
       <use xlink:href="#m09bdd04f85" x="63.779528" y="109.336333" style="stroke: #000000; stroke-width: 1.5"/>
      </g>
     </g>
     <g id="text_12">
      <text style="font-size: 15px; font-family: 'Tahoma'; text-anchor: end" x="54.279528" y="115.035161" transform="rotate(-0 54.279528 115.035161)">60</text>
     </g>
    </g>
    <g id="ytick_5">
     <g id="line2d_17">
      <path d="M 63.779528 72.08099 
L 395.433071 72.08099 
" clip-path="url(#p24a952b647)" style="fill: none; stroke: #d0d0d0; stroke-opacity: 0.65; stroke-width: 1.2; stroke-linecap: square"/>
     </g>
     <g id="line2d_18">
      <g>
       <use xlink:href="#m09bdd04f85" x="63.779528" y="72.08099" style="stroke: #000000; stroke-width: 1.5"/>
      </g>
     </g>
     <g id="text_13">
      <text style="font-size: 15px; font-family: 'Tahoma'; text-anchor: end" x="54.279528" y="77.779818" transform="rotate(-0 54.279528 77.779818)">80</text>
     </g>
    </g>
    <g id="ytick_6">
     <g id="line2d_19">
      <path d="M 63.779528 34.825647 
L 395.433071 34.825647 
" clip-path="url(#p24a952b647)" style="fill: none; stroke: #d0d0d0; stroke-opacity: 0.65; stroke-width: 1.2; stroke-linecap: square"/>
     </g>
     <g id="line2d_20">
      <g>
       <use xlink:href="#m09bdd04f85" x="63.779528" y="34.825647" style="stroke: #000000; stroke-width: 1.5"/>
      </g>
     </g>
     <g id="text_14">
      <text style="font-size: 15px; font-family: 'Tahoma'; text-anchor: end" x="54.279528" y="40.524475" transform="rotate(-0 54.279528 40.524475)">100</text>
     </g>
    </g>
    <g id="text_15">
     <text style="font-size: 18px; font-family: 'Tahoma'; text-anchor: middle" x="22.08984" y="123.307087" transform="rotate(-90 22.08984 123.307087)">Connectivity loss (%)</text>
    </g>
   </g>
   <g id="FillBetweenPolyCollection_1">
    <defs>
     <path id="mef9dc11b20" d="M 69.978659 -114.195516 
L 69.978659 -102.403253 
L 94.775186 -93.5211 
L 125.770844 -82.43277 
L 187.762161 -73.062923 
L 249.753477 -69.124895 
L 311.744794 -64.18979 
L 373.73611 -62.50297 
L 373.73611 -62.518945 
L 373.73611 -62.518945 
L 311.744794 -64.271987 
L 249.753477 -69.575469 
L 187.762161 -75.903695 
L 125.770844 -90.077322 
L 94.775186 -103.735385 
L 69.978659 -114.195516 
z
"/>
    </defs>
    <g clip-path="url(#p24a952b647)">
     <use xlink:href="#mef9dc11b20" x="0" y="283.464567" style="fill: #e8bcc4; fill-opacity: 0.28"/>
    </g>
   </g>
   <g id="patch_6">
    <path d="M 63.779528 221.102362 
L 63.779528 25.511811 
" style="fill: none; stroke: #000000; stroke-width: 1.5; stroke-linejoin: miter; stroke-linecap: square"/>
   </g>
   <g id="patch_7">
    <path d="M 63.779528 221.102362 
L 395.433071 221.102362 
" style="fill: none; stroke: #000000; stroke-width: 1.5; stroke-linejoin: miter; stroke-linecap: square"/>
   </g>
   <g id="line2d_21">
    <path d="M 69.978659 169.269051 
L 94.775186 179.729182 
L 125.770844 193.387245 
L 187.762161 207.560872 
L 249.753477 213.889097 
L 311.744794 219.274777 
L 373.73611 220.945622 
" clip-path="url(#p24a952b647)" style="fill: none; stroke: #bb5566; stroke-opacity: 0.45; stroke-width: 1.4; stroke-linecap: square"/>
   </g>
   <g id="line2d_22">
    <path d="M 69.978659 181.061314 
L 94.775186 189.943467 
L 125.770844 201.031797 
L 187.762161 210.401644 
L 249.753477 214.339672 
L 311.744794 219.19258 
L 373.73611 220.961597 
" clip-path="url(#p24a952b647)" style="fill: none; stroke-dasharray: 5.18,2.24; stroke-dashoffset: 0; stroke: #bb5566; stroke-opacity: 0.45; stroke-width: 1.4"/>
   </g>
   <g id="patch_8">
    <path d="M 144.757123 175.888779 
Q 135.999841 183.959819 127.242559 192.030858 
" style="fill: none; opacity: 0.22; stroke: #666666; stroke-linecap: round"/>
   </g>
   <g id="patch_9">
    <path d="M 106.230564 211.331987 
Q 100.974822 201.518907 95.71908 191.705827 
" style="fill: none; opacity: 0.22; stroke: #666666; stroke-linecap: round"/>
   </g>
   <g id="line2d_23">
    <path d="M 69.978659 34.827919 
L 94.775186 34.831363 
L 125.770844 34.852037 
L 187.762161 35.202813 
L 249.753477 37.811802 
L 311.744794 47.309096 
L 373.73611 73.508744 
" clip-path="url(#p24a952b647)" style="fill: none; stroke: #004488; stroke-width: 3; stroke-linecap: square"/>
    <defs>
     <path id="m056509b06b" d="M 0 3.9 
C 1.034292 3.9 2.026361 3.489071 2.757716 2.757716 
C 3.489071 2.026361 3.9 1.034292 3.9 0 
C 3.9 -1.034292 3.489071 -2.026361 2.757716 -2.757716 
C 2.026361 -3.489071 1.034292 -3.9 0 -3.9 
C -1.034292 -3.9 -2.026361 -3.489071 -2.757716 -2.757716 
C -3.489071 -2.026361 -3.9 -1.034292 -3.9 0 
C -3.9 1.034292 -3.489071 2.026361 -2.757716 2.757716 
C -2.026361 3.489071 -1.034292 3.9 0 3.9 
z
" style="stroke: #004488"/>
    </defs>
    <g clip-path="url(#p24a952b647)">
     <use xlink:href="#m056509b06b" x="69.978659" y="34.827919" style="fill: #004488; stroke: #004488"/>
     <use xlink:href="#m056509b06b" x="94.775186" y="34.831363" style="fill: #004488; stroke: #004488"/>
     <use xlink:href="#m056509b06b" x="125.770844" y="34.852037" style="fill: #004488; stroke: #004488"/>
     <use xlink:href="#m056509b06b" x="187.762161" y="35.202813" style="fill: #004488; stroke: #004488"/>
     <use xlink:href="#m056509b06b" x="249.753477" y="37.811802" style="fill: #004488; stroke: #004488"/>
     <use xlink:href="#m056509b06b" x="311.744794" y="47.309096" style="fill: #004488; stroke: #004488"/>
     <use xlink:href="#m056509b06b" x="373.73611" y="73.508744" style="fill: #004488; stroke: #004488"/>
    </g>
   </g>
   <g id="line2d_24">
    <path d="M 69.978659 174.200346 
L 94.775186 184.397371 
L 125.770844 197.185383 
L 187.762161 208.916331 
L 249.753477 214.160859 
L 311.744794 219.404868 
L 373.73611 220.970556 
" clip-path="url(#p24a952b647)" style="fill: none; stroke: #bb5566; stroke-width: 3; stroke-linecap: square"/>
    <defs>
     <path id="mfe53df526a" d="M -3.7 3.7 
L 3.7 3.7 
L 3.7 -3.7 
L -3.7 -3.7 
z
" style="stroke: #bb5566; stroke-linejoin: miter"/>
    </defs>
    <g clip-path="url(#p24a952b647)">
     <use xlink:href="#mfe53df526a" x="69.978659" y="174.200346" style="fill: #bb5566; stroke: #bb5566; stroke-linejoin: miter"/>
     <use xlink:href="#mfe53df526a" x="94.775186" y="184.397371" style="fill: #bb5566; stroke: #bb5566; stroke-linejoin: miter"/>
     <use xlink:href="#mfe53df526a" x="125.770844" y="197.185383" style="fill: #bb5566; stroke: #bb5566; stroke-linejoin: miter"/>
     <use xlink:href="#mfe53df526a" x="187.762161" y="208.916331" style="fill: #bb5566; stroke: #bb5566; stroke-linejoin: miter"/>
     <use xlink:href="#mfe53df526a" x="249.753477" y="214.160859" style="fill: #bb5566; stroke: #bb5566; stroke-linejoin: miter"/>
     <use xlink:href="#mfe53df526a" x="311.744794" y="219.404868" style="fill: #bb5566; stroke: #bb5566; stroke-linejoin: miter"/>
     <use xlink:href="#mfe53df526a" x="373.73611" y="220.970556" style="fill: #bb5566; stroke: #bb5566; stroke-linejoin: miter"/>
    </g>
   </g>
   <g id="text_16">
    <g id="patch_10">
     <path d="M 135.557061 181.168515 
L 156.898896 181.168515 
Q 158.848896 181.168515 158.848896 179.218515 
L 158.848896 169.847851 
Q 158.848896 167.897851 156.898896 167.897851 
L 135.557061 167.897851 
Q 133.607061 167.897851 133.607061 169.847851 
L 133.607061 179.218515 
Q 133.607061 181.168515 135.557061 181.168515 
z
" style="fill: #ffffff; opacity: 0.88; stroke: #e8bcc4; stroke-linejoin: miter"/>
    </g>
    <text style="font-size: 9.75px; font-family: 'Tahoma'; text-anchor: middle; fill: #bb5566" x="146.227979" y="177.256328" transform="rotate(-0 146.227979 177.256328)">trees</text>
   </g>
   <g id="text_17">
    <g id="patch_11">
     <path d="M 71.811418 219.753694 
L 142.53548 219.753694 
Q 144.48548 219.753694 144.48548 217.803694 
L 144.48548 208.381233 
Q 144.48548 206.431233 142.53548 206.431233 
L 71.811418 206.431233 
Q 69.861418 206.431233 69.861418 208.381233 
L 69.861418 217.803694 
Q 69.861418 219.753694 71.811418 219.753694 
z
" style="fill: #ffffff; opacity: 0.88; stroke: #e8bcc4; stroke-linejoin: miter"/>
    </g>
    <text style="font-size: 9.75px; font-family: 'Tahoma'; text-anchor: middle; fill: #bb5566" x="107.173449" y="215.78971" transform="rotate(-0 107.173449 215.78971)">other vegetation</text>
   </g>
   <g id="text_18">
    <g id="patch_12">
     <path d="M 235.628093 127.437105 
L 363.064968 127.437105 
Q 366.312968 127.437105 366.312968 124.189105 
L 366.312968 87.032492 
Q 366.312968 83.784492 363.064968 83.784492 
L 235.628093 83.784492 
Q 232.380093 83.784492 232.380093 87.032492 
L 232.380093 124.189105 
Q 232.380093 127.437105 235.628093 127.437105 
z
" style="fill: #ffffff; opacity: 0.95; stroke: #bbccee; stroke-width: 1.6; stroke-linejoin: miter"/>
    </g>
    <text style="font-size: 11.6px; font-family: 'Tahoma'; fill: #004488" transform="translate(251.732155 95.84668)">During heatwaves,</text>
    <text style="font-size: 11.6px; font-family: 'Tahoma'; fill: #004488" transform="translate(235.628093 108.81983)">no analogous climates to</text>
    <text style="font-size: 11.6px; font-family: 'Tahoma'; fill: #004488" transform="translate(236.142843 121.79298)">average conditions exist.</text>
   </g>
   <g id="text_19">
    <g id="patch_13">
     <path d="M 233.311718 202.78444 
L 365.381343 202.78444 
Q 368.629343 202.78444 368.629343 199.53644 
L 368.629343 149.591552 
Q 368.629343 146.343552 365.381343 146.343552 
L 233.311718 146.343552 
Q 230.063718 146.343552 230.063718 149.591552 
L 230.063718 199.53644 
Q 230.063718 202.78444 233.311718 202.78444 
z
" style="fill: #ffffff; opacity: 0.95; stroke: #e8bcc4; stroke-width: 1.6; stroke-linejoin: miter"/>
    </g>
    <text style="font-size: 11.6px; font-family: 'Tahoma'; fill: #bb5566" transform="translate(250.610218 158.344115)">Tree-covered areas</text>
    <text style="font-size: 11.6px; font-family: 'Tahoma'; fill: #bb5566" transform="translate(233.311718 171.25564)">experience higher relative</text>
    <text style="font-size: 11.6px; font-family: 'Tahoma'; fill: #bb5566" transform="translate(244.32628 184.22879)">connectivity loss than</text>
    <text style="font-size: 11.6px; font-family: 'Tahoma'; fill: #bb5566" transform="translate(241.365562 197.140315)">other vegetated areas.</text>
   </g>
   <g id="text_20">
    <g id="patch_14">
     <path d="M 71.218486 61.260428 
L 200.373486 61.260428 
Q 201.933486 61.260428 201.933486 59.700428 
L 201.933486 47.206209 
Q 201.933486 45.646209 200.373486 45.646209 
L 71.218486 45.646209 
Q 69.658486 45.646209 69.658486 47.206209 
L 69.658486 59.700428 
Q 69.658486 61.260428 71.218486 61.260428 
z
" style="fill: #ffffff; opacity: 0.72"/>
    </g>
    <text style="font-weight: 700; font-size: 13px; font-family: 'Tahoma'; text-anchor: start; fill: #004488" x="71.218486" y="57.084178" transform="rotate(-0 71.218486 57.084178)">from mean baseline</text>
   </g>
   <g id="text_21">
    <g id="patch_15">
     <path d="M 71.218486 160.018571 
L 188.890829 160.018571 
Q 190.450829 160.018571 190.450829 158.458571 
L 190.450829 145.901384 
Q 190.450829 144.341384 188.890829 144.341384 
L 71.218486 144.341384 
Q 69.658486 144.341384 69.658486 145.901384 
L 69.658486 158.458571 
Q 69.658486 160.018571 71.218486 160.018571 
z
" style="fill: #ffffff; opacity: 0.72"/>
    </g>
    <text style="font-weight: 700; font-size: 13px; font-family: 'Tahoma'; text-anchor: start; fill: #bb5566" x="71.218486" y="155.842321" transform="rotate(-0 71.218486 155.842321)">from p90 baseline</text>
   </g>
   <g id="text_22">
    <text style="font-size: 10.5px; font-family: 'Tahoma'; text-anchor: middle; opacity: 0.95" x="88.576054" y="256.463399" transform="rotate(-0 88.576054 256.463399)">strict</text>
   </g>
   <g id="text_23">
    <text style="font-size: 10.5px; font-family: 'Tahoma'; text-anchor: middle; opacity: 0.95" x="162.965634" y="256.463399" transform="rotate(-0 162.965634 256.463399)">moderate</text>
   </g>
   <g id="text_24">
    <text style="font-size: 10.5px; font-family: 'Tahoma'; text-anchor: middle; opacity: 0.95" x="299.34653" y="256.463399" transform="rotate(-0 299.34653 256.463399)">relaxed</text>
   </g>
  </g>
 </g>
 <defs>
  <clipPath id="p24a952b647">
   <rect x="63.779528" y="25.511811" width="331.653543" height="195.590551"/>
  </clipPath>
 </defs>
</svg>
