<?xml version="1.0" encoding="utf-8" standalone="no"?>
<!DOCTYPE svg PUBLIC "-//W3C//DTD SVG 1.1//EN"
  "http://www.w3.org/Graphics/SVG/1.1/DTD/svg11.dtd">
<svg xmlns:xlink="http://www.w3.org/1999/xlink" width="425.19685pt" height="283.464567pt" viewBox="0 0 425.19685 283.464567" xmlns="http://www.w3.org/2000/svg" version="1.1">
 <metadata>
  <rdf:RDF xmlns:dc="http://purl.org/dc/elements/1.1/" xmlns:cc="http://creativecommons.org/ns#" xmlns:rdf="http://www.w3.org/1999/02/22-rdf-syntax-ns#">
   <cc:Work>
    <dc:type rdf:resource="http://purl.org/dc/dcmitype/StillImage"/>
    <dc:date>2026-05-21T17:45:39.172404</dc:date>
    <dc:format>image/svg+xml</dc:format>
    <dc:creator>
     <cc:Agent>
      <dc:title>Matplotlib v3.10.0, https://matplotlib.org/</dc:title>
     </cc:Agent>
    </dc:creator>
   </cc:Work>
  </rdf:RDF>
 </metadata>
 <defs>
  <style type="text/css">*{stroke-linejoin: round; stroke-linecap: butt}</style>
 </defs>
 <g id="figure_1">
  <g id="patch_1">
   <path d="M 0 283.464567 
L 425.19685 283.464567 
L 425.19685 0 
L 0 0 
L 0 283.464567 
z
" style="fill: none; opacity: 0"/>
  </g>
  <g id="axes_1">
   <g id="patch_2">
    <path d="M 46.771654 221.102362 
L 403.937008 221.102362 
L 403.937008 22.677165 
L 46.771654 22.677165 
L 46.771654 221.102362 
z
" style="fill: none; opacity: 0"/>
   </g>
   <g id="matplotlib.axis_1">
    <g id="xtick_1">
     <g id="line2d_1">
      <path d="M 85.289486 221.102362 
L 85.289486 22.677165 
" clip-path="url(#p235c9df3da)" style="fill: none; stroke: #d0d0d0; stroke-opacity: 0.65; stroke-width: 1.2; stroke-linecap: square"/>
     </g>
     <g id="line2d_2">
      <defs>
       <path id="m8e54b3c8c1" d="M 0 0 
L 0 6 
" style="stroke: #000000; stroke-width: 1.5"/>
      </defs>
      <g>
       <use xlink:href="#m8e54b3c8c1" x="85.289486" y="221.102362" style="stroke: #000000; stroke-width: 1.5"/>
      </g>
     </g>
     <g id="text_1">
      <text style="font-size: 15px; font-family: 'Tahoma'" transform="translate(0.788153 274.853949) rotate(-22)">Trees 2–10 m</text>
     </g>
    </g>
    <g id="xtick_2">
     <g id="line2d_3">
      <path d="M 155.321908 221.102362 
L 155.321908 22.677165 
" clip-path="url(#p235c9df3da)" style="fill: none; stroke: #d0d0d0; stroke-opacity: 0.65; stroke-width: 1.2; stroke-linecap: square"/>
     </g>
     <g id="line2d_4">
      <g>
       <use xlink:href="#m8e54b3c8c1" x="155.321908" y="221.102362" style="stroke: #000000; stroke-width: 1.5"/>
      </g>
     </g>
     <g id="text_2">
      <text style="font-size: 15px; font-family: 'Tahoma'" transform="translate(63.227809 277.921626) rotate(-22)">Trees 10–15 m</text>
     </g>
    </g>
    <g id="xtick_3">
     <g id="line2d_5">
      <path d="M 225.354331 221.102362 
L 225.354331 22.677165 
" clip-path="url(#p235c9df3da)" style="fill: none; stroke: #d0d0d0; stroke-opacity: 0.65; stroke-width: 1.2; stroke-linecap: square"/>
     </g>
     <g id="line2d_6">
      <g>
       <use xlink:href="#m8e54b3c8c1" x="225.354331" y="221.102362" style="stroke: #000000; stroke-width: 1.5"/>
      </g>
     </g>
     <g id="text_3">
      <text style="font-size: 15px; font-family: 'Tahoma'" transform="translate(145.920637 272.80649) rotate(-22)">Trees &gt;15 m</text>
     </g>
    </g>
    <g id="xtick_4">
     <g id="line2d_7">
      <path d="M 295.386753 221.102362 
L 295.386753 22.677165 
" clip-path="url(#p235c9df3da)" style="fill: none; stroke: #d0d0d0; stroke-opacity: 0.65; stroke-width: 1.2; stroke-linecap: square"/>
     </g>
     <g id="line2d_8">
      <g>
       <use xlink:href="#m8e54b3c8c1" x="295.386753" y="221.102362" style="stroke: #000000; stroke-width: 1.5"/>
      </g>
     </g>
     <g id="text_4">
      <text style="font-size: 15px; font-family: 'Tahoma'" transform="translate(259.427842 255.241538) rotate(-22)">Fields</text>
     </g>
    </g>
    <g id="xtick_5">
     <g id="line2d_9">
      <path d="M 365.419176 221.102362 
L 365.419176 22.677165 
" clip-path="url(#p235c9df3da)" style="fill: none; stroke: #d0d0d0; stroke-opacity: 0.65; stroke-width: 1.2; stroke-linecap: square"/>
     </g>
     <g id="line2d_10">
      <g>
       <use xlink:href="#m8e54b3c8c1" x="365.419176" y="221.102362" style="stroke: #000000; stroke-width: 1.5"/>
      </g>
     </g>
     <g id="text_5">
      <text style="font-size: 15px; font-family: 'Tahoma'" transform="translate(299.287521 267.420057) rotate(-22)">Other veg.</text>
     </g>
    </g>
   </g>
   <g id="matplotlib.axis_2">
    <g id="ytick_1">
     <g id="line2d_11">
      <path d="M 46.771654 221.102362 
L 403.937008 221.102362 
" clip-path="url(#p235c9df3da)" style="fill: none; stroke: #d0d0d0; stroke-opacity: 0.65; stroke-width: 1.2; stroke-linecap: square"/>
     </g>
     <g id="line2d_12">
      <defs>
       <path id="ma8b97f3ead" d="M 0 0 
L -6 0 
" style="stroke: #000000; stroke-width: 1.5"/>
      </defs>
      <g>
       <use xlink:href="#ma8b97f3ead" x="46.771654" y="221.102362" style="stroke: #000000; stroke-width: 1.5"/>
      </g>
     </g>
     <g id="text_6">
      <text style="font-size: 15px; font-family: 'Tahoma'; text-anchor: end" x="37.271654" y="226.80119" transform="rotate(-0 37.271654 226.80119)">+0</text>
     </g>
    </g>
    <g id="ytick_2">
     <g id="line2d_13">
      <path d="M 46.771654 179.561269 
L 403.937008 179.561269 
" clip-path="url(#p235c9df3da)" style="fill: none; stroke: #d0d0d0; stroke-opacity: 0.65; stroke-width: 1.2; stroke-linecap: square"/>
     </g>
     <g id="line2d_14">
      <g>
       <use xlink:href="#ma8b97f3ead" x="46.771654" y="179.561269" style="stroke: #000000; stroke-width: 1.5"/>
      </g>
     </g>
     <g id="text_7">
      <text style="font-size: 15px; font-family: 'Tahoma'; text-anchor: end" x="37.271654" y="185.260097" transform="rotate(-0 37.271654 185.260097)">+2</text>
     </g>
    </g>
    <g id="ytick_3">
     <g id="line2d_15">
      <path d="M 46.771654 138.020175 
L 403.937008 138.020175 
" clip-path="url(#p235c9df3da)" style="fill: none; stroke: #d0d0d0; stroke-opacity: 0.65; stroke-width: 1.2; stroke-linecap: square"/>
     </g>
     <g id="line2d_16">
      <g>
       <use xlink:href="#ma8b97f3ead" x="46.771654" y="138.020175" style="stroke: #000000; stroke-width: 1.5"/>
      </g>
     </g>
     <g id="text_8">
      <text style="font-size: 15px; font-family: 'Tahoma'; text-anchor: end" x="37.271654" y="143.719004" transform="rotate(-0 37.271654 143.719004)">+4</text>
     </g>
    </g>
    <g id="ytick_4">
     <g id="line2d_17">
      <path d="M 46.771654 96.479082 
L 403.937008 96.479082 
" clip-path="url(#p235c9df3da)" style="fill: none; stroke: #d0d0d0; stroke-opacity: 0.65; stroke-width: 1.2; stroke-linecap: square"/>
     </g>
     <g id="line2d_18">
      <g>
       <use xlink:href="#ma8b97f3ead" x="46.771654" y="96.479082" style="stroke: #000000; stroke-width: 1.5"/>
      </g>
     </g>
     <g id="text_9">
      <text style="font-size: 15px; font-family: 'Tahoma'; text-anchor: end" x="37.271654" y="102.17791" transform="rotate(-0 37.271654 102.17791)">+6</text>
     </g>
    </g>
    <g id="ytick_5">
     <g id="line2d_19">
      <path d="M 46.771654 54.937989 
L 403.937008 54.937989 
" clip-path="url(#p235c9df3da)" style="fill: none; stroke: #d0d0d0; stroke-opacity: 0.65; stroke-width: 1.2; stroke-linecap: square"/>
     </g>
     <g id="line2d_20">
      <g>
       <use xlink:href="#ma8b97f3ead" x="46.771654" y="54.937989" style="stroke: #000000; stroke-width: 1.5"/>
      </g>
     </g>
     <g id="text_10">
      <text style="font-size: 15px; font-family: 'Tahoma'; text-anchor: end" x="37.271654" y="60.636817" transform="rotate(-0 37.271654 60.636817)">+8</text>
     </g>
    </g>
    <g id="text_11">
     <text style="font-size: 18px; font-family: 'Tahoma'; text-anchor: middle" x="10.547591" y="121.889764" transform="rotate(-90 10.547591 121.889764)">Heatwave Δ T (°C)</text>
    </g>
   </g>
   <g id="patch_3">
    <path d="M 53.774896 220.686955 
L 396.933766 220.686955 
L 396.933766 159.621523 
L 53.774896 159.621523 
z
" clip-path="url(#p235c9df3da)" style="fill: #e8bcc4; opacity: 0.26; stroke: #bb5566; stroke-width: 0.8; stroke-linejoin: miter"/>
   </g>
   <g id="line2d_21">
    <path d="M 46.771654 221.102362 
L 403.937008 221.102362 
" clip-path="url(#p235c9df3da)" style="fill: none; stroke: #000000; stroke-opacity: 0.45; stroke-width: 0.9; stroke-linecap: square"/>
   </g>
   <g id="patch_4">
    <path d="M 53.774896 160.175431 
L 396.933766 160.175431 
L 396.933766 47.045172 
L 53.774896 47.045172 
z
" clip-path="url(#p235c9df3da)" style="fill: #bbccee; opacity: 0.28; stroke: #004488; stroke-width: 0.8; stroke-linejoin: miter"/>
   </g>
   <g id="patch_5">
    <path d="M 46.771654 221.102362 
L 46.771654 22.677165 
" style="fill: none; stroke: #000000; stroke-width: 1.5; stroke-linejoin: miter; stroke-linecap: square"/>
   </g>
   <g id="patch_6">
    <path d="M 46.771654 221.102362 
L 403.937008 221.102362 
" style="fill: none; stroke: #000000; stroke-width: 1.5; stroke-linejoin: miter; stroke-linecap: square"/>
   </g>
   <g id="FillBetweenPolyCollection_1">
    <defs>
     <path id="m6e13d8f7cd" d="M 85.99699 -74.824541 
L 84.581982 -74.824541 
L 84.267899 -75.285409 
L 83.967436 -75.746277 
L 83.706536 -76.207146 
L 83.480214 -76.668014 
L 83.265017 -77.128883 
L 83.039945 -77.589751 
L 82.799096 -78.050619 
L 82.5484 -78.511488 
L 82.295208 -78.972356 
L 82.044245 -79.433224 
L 81.799395 -79.894093 
L 81.56307 -80.354961 
L 81.334485 -80.815829 
L 81.112953 -81.276698 
L 80.90152 -81.737566 
L 80.700355 -82.198435 
L 80.493976 -82.659303 
L 80.250565 -83.120171 
L 79.938716 -83.58104 
L 79.544622 -84.041908 
L 79.0759 -84.502776 
L 78.557385 -84.963645 
L 78.024484 -85.424513 
L 77.507721 -85.885382 
L 77.010732 -86.34625 
L 76.503813 -86.807118 
L 75.947338 -87.267987 
L 75.32511 -87.728855 
L 74.652193 -88.189723 
L 73.950177 -88.650592 
L 73.221484 -89.11146 
L 72.453156 -89.572328 
L 71.640822 -90.033197 
L 70.798264 -90.494065 
L 69.943177 -90.954934 
L 69.086291 -91.415802 
L 68.239019 -91.87667 
L 67.418515 -92.337539 
L 66.634073 -92.798407 
L 65.870263 -93.259275 
L 65.087994 -93.720144 
L 64.248742 -94.181012 
L 63.348938 -94.641881 
L 62.43565 -95.102749 
L 61.582341 -95.563617 
L 60.839208 -96.024486 
L 60.201024 -96.485354 
L 59.625208 -96.946222 
L 59.086696 -97.407091 
L 58.613963 -97.867959 
L 58.26423 -98.328828 
L 58.06377 -98.789696 
L 57.983688 -99.250564 
L 57.976841 -99.711433 
L 58.024403 -100.172301 
L 58.142206 -100.633169 
L 58.361938 -101.094038 
L 58.72084 -101.554906 
L 59.253598 -102.015774 
L 59.965163 -102.476643 
L 60.800924 -102.937511 
L 61.657784 -103.39838 
L 62.444189 -103.859248 
L 63.136691 -104.320116 
L 63.779637 -104.780985 
L 64.441624 -105.241853 
L 65.182006 -105.702721 
L 66.038964 -106.16359 
L 67.013081 -106.624458 
L 68.054935 -107.085327 
L 69.091372 -107.546195 
L 70.078901 -108.007063 
L 71.029235 -108.467932 
L 71.979115 -108.9288 
L 72.936914 -109.389668 
L 73.863208 -109.850537 
L 74.704028 -110.311405 
L 75.436111 -110.772274 
L 76.077464 -111.233142 
L 76.664773 -111.69401 
L 77.228971 -112.154879 
L 77.785799 -112.615747 
L 78.338626 -113.076615 
L 78.884282 -113.537484 
L 79.414204 -113.998352 
L 79.914363 -114.45922 
L 80.372295 -114.920089 
L 80.785813 -115.380957 
L 81.161984 -115.841826 
L 81.509033 -116.302694 
L 81.830949 -116.763562 
L 82.126843 -117.224431 
L 82.394137 -117.685299 
L 82.637304 -118.146167 
L 82.877798 -118.607036 
L 83.152135 -119.067904 
L 83.491427 -119.528773 
L 83.894755 -119.989641 
L 84.319207 -120.450509 
L 86.259765 -120.450509 
L 86.259765 -120.450509 
L 86.684216 -119.989641 
L 87.087545 -119.528773 
L 87.426837 -119.067904 
L 87.701173 -118.607036 
L 87.941667 -118.146167 
L 88.184834 -117.685299 
L 88.452129 -117.224431 
L 88.748023 -116.763562 
L 89.069939 -116.302694 
L 89.416988 -115.841826 
L 89.793159 -115.380957 
L 90.206677 -114.920089 
L 90.664609 -114.45922 
L 91.164767 -113.998352 
L 91.694689 -113.537484 
L 92.240346 -113.076615 
L 92.793173 -112.615747 
L 93.350001 -112.154879 
L 93.914199 -111.69401 
L 94.501507 -111.233142 
L 95.142861 -110.772274 
L 95.874944 -110.311405 
L 96.715763 -109.850537 
L 97.642058 -109.389668 
L 98.599857 -108.9288 
L 99.549737 -108.467932 
L 100.50007 -108.007063 
L 101.4876 -107.546195 
L 102.524036 -107.085327 
L 103.56589 -106.624458 
L 104.540008 -106.16359 
L 105.396966 -105.702721 
L 106.137348 -105.241853 
L 106.799334 -104.780985 
L 107.44228 -104.320116 
L 108.134783 -103.859248 
L 108.921187 -103.39838 
L 109.778047 -102.937511 
L 110.613809 -102.476643 
L 111.325374 -102.015774 
L 111.858131 -101.554906 
L 112.217034 -101.094038 
L 112.436765 -100.633169 
L 112.554569 -100.172301 
L 112.602131 -99.711433 
L 112.595284 -99.250564 
L 112.515201 -98.789696 
L 112.314742 -98.328828 
L 111.965009 -97.867959 
L 111.492276 -97.407091 
L 110.953764 -96.946222 
L 110.377947 -96.485354 
L 109.739763 -96.024486 
L 108.996631 -95.563617 
L 108.143322 -95.102749 
L 107.230034 -94.641881 
L 106.33023 -94.181012 
L 105.490978 -93.720144 
L 104.708708 -93.259275 
L 103.944899 -92.798407 
L 103.160457 -92.337539 
L 102.339953 -91.87667 
L 101.492681 -91.415802 
L 100.635794 -90.954934 
L 99.780707 -90.494065 
L 98.93815 -90.033197 
L 98.125816 -89.572328 
L 97.357488 -89.11146 
L 96.628795 -88.650592 
L 95.926779 -88.189723 
L 95.253861 -87.728855 
L 94.631634 -87.267987 
L 94.075158 -86.807118 
L 93.56824 -86.34625 
L 93.071251 -85.885382 
L 92.554487 -85.424513 
L 92.021587 -84.963645 
L 91.503072 -84.502776 
L 91.034349 -84.041908 
L 90.640256 -83.58104 
L 90.328407 -83.120171 
L 90.084996 -82.659303 
L 89.878617 -82.198435 
L 89.677452 -81.737566 
L 89.466019 -81.276698 
L 89.244487 -80.815829 
L 89.015902 -80.354961 
L 88.779577 -79.894093 
L 88.534727 -79.433224 
L 88.283764 -78.972356 
L 88.030572 -78.511488 
L 87.779876 -78.050619 
L 87.539027 -77.589751 
L 87.313955 -77.128883 
L 87.098758 -76.668014 
L 86.872435 -76.207146 
L 86.611536 -75.746277 
L 86.311072 -75.285409 
L 85.99699 -74.824541 
z
" style="stroke: #bb5566; stroke-width: 1.05"/>
    </defs>
    <g clip-path="url(#p235c9df3da)">
     <use xlink:href="#m6e13d8f7cd" x="0" y="283.464567" style="fill: #e8bcc4; stroke: #bb5566; stroke-width: 1.05"/>
    </g>
   </g>
   <g id="FillBetweenPolyCollection_2">
    <defs>
     <path id="m1ee9494e04" d="M 156.099175 -78.632456 
L 154.544642 -78.632456 
L 154.205819 -79.064651 
L 153.868323 -79.496846 
L 153.558728 -79.929041 
L 153.281334 -80.361236 
L 153.027548 -80.793431 
L 152.788846 -81.225626 
L 152.561479 -81.657821 
L 152.342287 -82.090017 
L 152.123071 -82.522212 
L 151.88931 -82.954407 
L 151.622774 -83.386602 
L 151.307118 -83.818797 
L 150.936354 -84.250992 
L 150.519352 -84.683187 
L 150.071922 -85.115382 
L 149.602744 -85.547577 
L 149.108068 -85.979772 
L 148.578486 -86.411968 
L 148.01035 -86.844163 
L 147.414105 -87.276358 
L 146.810335 -87.708553 
L 146.210195 -88.140748 
L 145.598791 -88.572943 
L 144.946223 -89.005138 
L 144.237466 -89.437333 
L 143.482874 -89.869528 
L 142.695997 -90.301723 
L 141.870861 -90.733919 
L 140.990043 -91.166114 
L 140.053137 -91.598309 
L 139.093242 -92.030504 
L 138.166367 -92.462699 
L 137.321761 -92.894894 
L 136.569523 -93.327089 
L 135.867135 -93.759284 
L 135.144743 -94.191479 
L 134.358456 -94.623675 
L 133.524899 -95.05587 
L 132.703875 -95.488065 
L 131.950288 -95.92026 
L 131.282258 -96.352455 
L 130.685606 -96.78465 
L 130.138091 -97.216845 
L 129.628548 -97.64904 
L 129.162804 -98.081235 
L 128.760277 -98.51343 
L 128.442346 -98.945626 
L 128.217969 -99.377821 
L 128.080716 -99.810016 
L 128.017104 -100.242211 
L 128.009264 -100.674406 
L 128.031978 -101.106601 
L 128.06334 -101.538796 
L 128.107185 -101.970991 
L 128.197584 -102.403186 
L 128.374388 -102.835381 
L 128.660816 -103.267577 
L 129.068631 -103.699772 
L 129.607881 -104.131967 
L 130.272789 -104.564162 
L 131.026465 -104.996357 
L 131.818266 -105.428552 
L 132.614185 -105.860747 
L 133.400568 -106.292942 
L 134.168839 -106.725137 
L 134.916029 -107.157332 
L 135.6577 -107.589528 
L 136.420068 -108.021723 
L 137.214043 -108.453918 
L 138.0306 -108.886113 
L 138.863396 -109.318308 
L 139.718104 -109.750503 
L 140.591294 -110.182698 
L 141.453618 -110.614893 
L 142.266109 -111.047088 
L 143.009503 -111.479283 
L 143.692207 -111.911479 
L 144.335396 -112.343674 
L 144.957579 -112.775869 
L 145.569282 -113.208064 
L 146.173202 -113.640259 
L 146.767825 -114.072454 
L 147.354925 -114.504649 
L 147.941664 -114.936844 
L 148.528273 -115.369039 
L 149.094655 -115.801234 
L 149.609472 -116.23343 
L 150.05632 -116.665625 
L 150.444533 -117.09782 
L 150.792776 -117.530015 
L 151.109876 -117.96221 
L 151.395214 -118.394405 
L 151.652411 -118.8266 
L 151.899467 -119.258795 
L 152.170116 -119.69099 
L 152.507087 -120.123186 
L 152.942996 -120.555381 
L 153.471511 -120.987576 
L 154.032572 -121.419771 
L 156.611245 -121.419771 
L 156.611245 -121.419771 
L 157.172305 -120.987576 
L 157.700821 -120.555381 
L 158.136729 -120.123186 
L 158.473701 -119.69099 
L 158.744349 -119.258795 
L 158.991406 -118.8266 
L 159.248602 -118.394405 
L 159.53394 -117.96221 
L 159.851041 -117.530015 
L 160.199284 -117.09782 
L 160.587497 -116.665625 
L 161.034345 -116.23343 
L 161.549161 -115.801234 
L 162.115544 -115.369039 
L 162.702153 -114.936844 
L 163.288892 -114.504649 
L 163.875991 -114.072454 
L 164.470615 -113.640259 
L 165.074535 -113.208064 
L 165.686238 -112.775869 
L 166.30842 -112.343674 
L 166.95161 -111.911479 
L 167.634313 -111.479283 
L 168.377708 -111.047088 
L 169.190198 -110.614893 
L 170.052523 -110.182698 
L 170.925713 -109.750503 
L 171.780421 -109.318308 
L 172.613216 -108.886113 
L 173.429773 -108.453918 
L 174.223749 -108.021723 
L 174.986117 -107.589528 
L 175.727788 -107.157332 
L 176.474977 -106.725137 
L 177.243248 -106.292942 
L 178.029631 -105.860747 
L 178.82555 -105.428552 
L 179.617352 -104.996357 
L 180.371028 -104.564162 
L 181.035935 -104.131967 
L 181.575186 -103.699772 
L 181.983001 -103.267577 
L 182.269429 -102.835381 
L 182.446232 -102.403186 
L 182.536631 -101.970991 
L 182.580477 -101.538796 
L 182.611838 -101.106601 
L 182.634553 -100.674406 
L 182.626713 -100.242211 
L 182.563101 -99.810016 
L 182.425848 -99.377821 
L 182.20147 -98.945626 
L 181.883539 -98.51343 
L 181.481012 -98.081235 
L 181.015269 -97.64904 
L 180.505725 -97.216845 
L 179.958211 -96.78465 
L 179.361559 -96.352455 
L 178.693529 -95.92026 
L 177.939941 -95.488065 
L 177.118917 -95.05587 
L 176.285361 -94.623675 
L 175.499074 -94.191479 
L 174.776682 -93.759284 
L 174.074294 -93.327089 
L 173.322055 -92.894894 
L 172.47745 -92.462699 
L 171.550575 -92.030504 
L 170.590679 -91.598309 
L 169.653773 -91.166114 
L 168.772955 -90.733919 
L 167.94782 -90.301723 
L 167.160942 -89.869528 
L 166.406351 -89.437333 
L 165.697593 -89.005138 
L 165.045026 -88.572943 
L 164.433621 -88.140748 
L 163.833481 -87.708553 
L 163.229711 -87.276358 
L 162.633467 -86.844163 
L 162.065331 -86.411968 
L 161.535748 -85.979772 
L 161.041072 -85.547577 
L 160.571894 -85.115382 
L 160.124464 -84.683187 
L 159.707463 -84.250992 
L 159.336699 -83.818797 
L 159.021042 -83.386602 
L 158.754507 -82.954407 
L 158.520745 -82.522212 
L 158.30153 -82.090017 
L 158.082337 -81.657821 
L 157.854971 -81.225626 
L 157.616268 -80.793431 
L 157.362483 -80.361236 
L 157.085088 -79.929041 
L 156.775493 -79.496846 
L 156.437998 -79.064651 
L 156.099175 -78.632456 
z
" style="stroke: #bb5566; stroke-width: 1.05"/>
    </defs>
    <g clip-path="url(#p235c9df3da)">
     <use xlink:href="#m1ee9494e04" x="0" y="283.464567" style="fill: #e8bcc4; stroke: #bb5566; stroke-width: 1.05"/>
    </g>
   </g>
   <g id="FillBetweenPolyCollection_3">
    <defs>
     <path id="m9cd79b9f2e" d="M 226.024333 -84.102066 
L 224.684329 -84.102066 
L 224.358205 -84.439849 
L 224.02201 -84.777633 
L 223.706611 -85.115416 
L 223.419685 -85.453199 
L 223.150538 -85.790983 
L 222.882435 -86.128766 
L 222.598947 -86.466549 
L 222.282019 -86.804333 
L 221.911227 -87.142116 
L 221.470738 -87.479899 
L 220.957226 -87.817683 
L 220.379502 -88.155466 
L 219.752893 -88.49325 
L 219.096489 -88.831033 
L 218.430176 -89.168816 
L 217.765243 -89.5066 
L 217.096581 -89.844383 
L 216.407265 -90.182166 
L 215.679897 -90.51995 
L 214.902938 -90.857733 
L 214.071006 -91.195516 
L 213.184967 -91.5333 
L 212.254131 -91.871083 
L 211.295606 -92.208867 
L 210.324906 -92.54665 
L 209.346157 -92.884433 
L 208.36068 -93.222217 
L 207.389795 -93.56 
L 206.477921 -93.897783 
L 205.660861 -94.235567 
L 204.933326 -94.57335 
L 204.255898 -94.911133 
L 203.591841 -95.248917 
L 202.926751 -95.5867 
L 202.254587 -95.924484 
L 201.567704 -96.262267 
L 200.876672 -96.60005 
L 200.224817 -96.937834 
L 199.66075 -97.275617 
L 199.19809 -97.6134 
L 198.815039 -97.951184 
L 198.491494 -98.288967 
L 198.236699 -98.626751 
L 198.080479 -98.964534 
L 198.041686 -99.302317 
L 198.105233 -99.640101 
L 198.232112 -99.977884 
L 198.395365 -100.315667 
L 198.601032 -100.653451 
L 198.86849 -100.991234 
L 199.2005 -101.329017 
L 199.586262 -101.666801 
L 200.027819 -102.004584 
L 200.544056 -102.342368 
L 201.140782 -102.680151 
L 201.786266 -103.017934 
L 202.42935 -103.355718 
L 203.047092 -103.693501 
L 203.671576 -104.031284 
L 204.365828 -104.369068 
L 205.172397 -104.706851 
L 206.081312 -105.044634 
L 207.038451 -105.382418 
L 207.980439 -105.720201 
L 208.868429 -106.057985 
L 209.698913 -106.395768 
L 210.488886 -106.733551 
L 211.252103 -107.071335 
L 211.984709 -107.409118 
L 212.667612 -107.746901 
L 213.284478 -108.084685 
L 213.843154 -108.422468 
L 214.377548 -108.760251 
L 214.921829 -109.098035 
L 215.482624 -109.435818 
L 216.039489 -109.773602 
L 216.57034 -110.111385 
L 217.074819 -110.449168 
L 217.576508 -110.786952 
L 218.102697 -111.124735 
L 218.65717 -111.462518 
L 219.211422 -111.800302 
L 219.724659 -112.138085 
L 220.171763 -112.475869 
L 220.551598 -112.813652 
L 220.875253 -113.151435 
L 221.15453 -113.489219 
L 221.400532 -113.827002 
L 221.625967 -114.164785 
L 221.845824 -114.502569 
L 222.076372 -114.840352 
L 222.330462 -115.178135 
L 222.609473 -115.515919 
L 222.901287 -115.853702 
L 223.191517 -116.191486 
L 223.479628 -116.529269 
L 223.782215 -116.867052 
L 224.114917 -117.204836 
L 224.466823 -117.542619 
L 226.241838 -117.542619 
L 226.241838 -117.542619 
L 226.593745 -117.204836 
L 226.926446 -116.867052 
L 227.229034 -116.529269 
L 227.517145 -116.191486 
L 227.807375 -115.853702 
L 228.099189 -115.515919 
L 228.378199 -115.178135 
L 228.632289 -114.840352 
L 228.862838 -114.502569 
L 229.082694 -114.164785 
L 229.308129 -113.827002 
L 229.554131 -113.489219 
L 229.833409 -113.151435 
L 230.157064 -112.813652 
L 230.536899 -112.475869 
L 230.984003 -112.138085 
L 231.497239 -111.800302 
L 232.051491 -111.462518 
L 232.605965 -111.124735 
L 233.132153 -110.786952 
L 233.633842 -110.449168 
L 234.138321 -110.111385 
L 234.669172 -109.773602 
L 235.226038 -109.435818 
L 235.786832 -109.098035 
L 236.331113 -108.760251 
L 236.865508 -108.422468 
L 237.424183 -108.084685 
L 238.041049 -107.746901 
L 238.723953 -107.409118 
L 239.456559 -107.071335 
L 240.219775 -106.733551 
L 241.009748 -106.395768 
L 241.840232 -106.057985 
L 242.728223 -105.720201 
L 243.670211 -105.382418 
L 244.627349 -105.044634 
L 245.536265 -104.706851 
L 246.342833 -104.369068 
L 247.037085 -104.031284 
L 247.661569 -103.693501 
L 248.279311 -103.355718 
L 248.922395 -103.017934 
L 249.567879 -102.680151 
L 250.164606 -102.342368 
L 250.680843 -102.004584 
L 251.1224 -101.666801 
L 251.508161 -101.329017 
L 251.840171 -100.991234 
L 252.107629 -100.653451 
L 252.313297 -100.315667 
L 252.47655 -99.977884 
L 252.603428 -99.640101 
L 252.666975 -99.302317 
L 252.628183 -98.964534 
L 252.471963 -98.626751 
L 252.217168 -98.288967 
L 251.893622 -97.951184 
L 251.510571 -97.6134 
L 251.047911 -97.275617 
L 250.483844 -96.937834 
L 249.831989 -96.60005 
L 249.140958 -96.262267 
L 248.454075 -95.924484 
L 247.78191 -95.5867 
L 247.11682 -95.248917 
L 246.452763 -94.911133 
L 245.775335 -94.57335 
L 245.0478 -94.235567 
L 244.23074 -93.897783 
L 243.318867 -93.56 
L 242.347982 -93.222217 
L 241.362504 -92.884433 
L 240.383755 -92.54665 
L 239.413055 -92.208867 
L 238.454531 -91.871083 
L 237.523695 -91.5333 
L 236.637656 -91.195516 
L 235.805724 -90.857733 
L 235.028765 -90.51995 
L 234.301396 -90.182166 
L 233.61208 -89.844383 
L 232.943418 -89.5066 
L 232.278486 -89.168816 
L 231.612173 -88.831033 
L 230.955768 -88.49325 
L 230.329159 -88.155466 
L 229.751435 -87.817683 
L 229.237924 -87.479899 
L 228.797435 -87.142116 
L 228.426642 -86.804333 
L 228.109714 -86.466549 
L 227.826227 -86.128766 
L 227.558123 -85.790983 
L 227.288977 -85.453199 
L 227.002051 -85.115416 
L 226.686652 -84.777633 
L 226.350456 -84.439849 
L 226.024333 -84.102066 
z
" style="stroke: #bb5566; stroke-width: 1.05"/>
    </defs>
    <g clip-path="url(#p235c9df3da)">
     <use xlink:href="#m9cd79b9f2e" x="0" y="283.464567" style="fill: #e8bcc4; stroke: #bb5566; stroke-width: 1.05"/>
    </g>
   </g>
   <g id="FillBetweenPolyCollection_4">
    <defs>
     <path id="mafa6dfb38a" d="M 297.791366 -69.701114 
L 292.98214 -69.701114 
L 291.93127 -70.066872 
L 290.838818 -70.43263 
L 289.757345 -70.798388 
L 288.683071 -71.164146 
L 287.581591 -71.529903 
L 286.421364 -71.895661 
L 285.195812 -72.261419 
L 283.927363 -72.627177 
L 282.654548 -72.992935 
L 281.412332 -73.358692 
L 280.218351 -73.72445 
L 279.070483 -74.090208 
L 277.954234 -74.455966 
L 276.85677 -74.821724 
L 275.782309 -75.187481 
L 274.759287 -75.553239 
L 273.832638 -75.918997 
L 273.045688 -76.284755 
L 272.421991 -76.650513 
L 271.953175 -77.01627 
L 271.597049 -77.382028 
L 271.292881 -77.747786 
L 270.990473 -78.113544 
L 270.670297 -78.479302 
L 270.336235 -78.845059 
L 269.992783 -79.210817 
L 269.633109 -79.576575 
L 269.247054 -79.942333 
L 268.840616 -80.308091 
L 268.455542 -80.673849 
L 268.171631 -81.039606 
L 268.074108 -81.405364 
L 268.2007 -81.771122 
L 268.518059 -82.13688 
L 268.956941 -82.502638 
L 269.47252 -82.868395 
L 270.067337 -83.234153 
L 270.758643 -83.599911 
L 271.535931 -83.965669 
L 272.356184 -84.331427 
L 273.167757 -84.697184 
L 273.925231 -85.062942 
L 274.59021 -85.4287 
L 275.14126 -85.794458 
L 275.593484 -86.160216 
L 275.999408 -86.525973 
L 276.421444 -86.891731 
L 276.904777 -87.257489 
L 277.474686 -87.623247 
L 278.142997 -87.989005 
L 278.901371 -88.354762 
L 279.712625 -88.72052 
L 280.523574 -89.086278 
L 281.293407 -89.452036 
L 282.009895 -89.817794 
L 282.682449 -90.183551 
L 283.326586 -90.549309 
L 283.95434 -90.915067 
L 284.570215 -91.280825 
L 285.16986 -91.646583 
L 285.743415 -92.012341 
L 286.280389 -92.378098 
L 286.770514 -92.743856 
L 287.205628 -93.109614 
L 287.589461 -93.475372 
L 287.945964 -93.84113 
L 288.310891 -94.206887 
L 288.709824 -94.572645 
L 289.141998 -94.938403 
L 289.581683 -95.304161 
L 289.992231 -95.669919 
L 290.342981 -96.035676 
L 290.62317 -96.401434 
L 290.84784 -96.767192 
L 291.050463 -97.13295 
L 291.264153 -97.498708 
L 291.503409 -97.864465 
L 291.758979 -98.230223 
L 292.007241 -98.595981 
L 292.224589 -98.961739 
L 292.397439 -99.327497 
L 292.525323 -99.693254 
L 292.618492 -100.059012 
L 292.692402 -100.42477 
L 292.762073 -100.790528 
L 292.838589 -101.156286 
L 292.928614 -101.522043 
L 293.036123 -101.887801 
L 293.163455 -102.253559 
L 293.309657 -102.619317 
L 293.468532 -102.985075 
L 293.630311 -103.350833 
L 293.786707 -103.71659 
L 293.935405 -104.082348 
L 294.081555 -104.448106 
L 294.236652 -104.813864 
L 294.413764 -105.179622 
L 294.61755 -105.545379 
L 294.834745 -105.911137 
L 295.938761 -105.911137 
L 295.938761 -105.911137 
L 296.155956 -105.545379 
L 296.359743 -105.179622 
L 296.536854 -104.813864 
L 296.691951 -104.448106 
L 296.838101 -104.082348 
L 296.986799 -103.71659 
L 297.143196 -103.350833 
L 297.304974 -102.985075 
L 297.463849 -102.619317 
L 297.610051 -102.253559 
L 297.737383 -101.887801 
L 297.844892 -101.522043 
L 297.934917 -101.156286 
L 298.011433 -100.790528 
L 298.081104 -100.42477 
L 298.155015 -100.059012 
L 298.248184 -99.693254 
L 298.376068 -99.327497 
L 298.548918 -98.961739 
L 298.766265 -98.595981 
L 299.014527 -98.230223 
L 299.270097 -97.864465 
L 299.509353 -97.498708 
L 299.723043 -97.13295 
L 299.925666 -96.767192 
L 300.150336 -96.401434 
L 300.430525 -96.035676 
L 300.781275 -95.669919 
L 301.191824 -95.304161 
L 301.631509 -94.938403 
L 302.063682 -94.572645 
L 302.462615 -94.206887 
L 302.827542 -93.84113 
L 303.184046 -93.475372 
L 303.567879 -93.109614 
L 304.002992 -92.743856 
L 304.493117 -92.378098 
L 305.030091 -92.012341 
L 305.603646 -91.646583 
L 306.203292 -91.280825 
L 306.819167 -90.915067 
L 307.44692 -90.549309 
L 308.091057 -90.183551 
L 308.763611 -89.817794 
L 309.4801 -89.452036 
L 310.249933 -89.086278 
L 311.060881 -88.72052 
L 311.872135 -88.354762 
L 312.630509 -87.989005 
L 313.29882 -87.623247 
L 313.868729 -87.257489 
L 314.352062 -86.891731 
L 314.774098 -86.525973 
L 315.180022 -86.160216 
L 315.632247 -85.794458 
L 316.183296 -85.4287 
L 316.848275 -85.062942 
L 317.605749 -84.697184 
L 318.417322 -84.331427 
L 319.237575 -83.965669 
L 320.014863 -83.599911 
L 320.70617 -83.234153 
L 321.300986 -82.868395 
L 321.816565 -82.502638 
L 322.255447 -82.13688 
L 322.572806 -81.771122 
L 322.699398 -81.405364 
L 322.601875 -81.039606 
L 322.317964 -80.673849 
L 321.93289 -80.308091 
L 321.526452 -79.942333 
L 321.140397 -79.576575 
L 320.780723 -79.210817 
L 320.437271 -78.845059 
L 320.103209 -78.479302 
L 319.783033 -78.113544 
L 319.480625 -77.747786 
L 319.176458 -77.382028 
L 318.820332 -77.01627 
L 318.351515 -76.650513 
L 317.727819 -76.284755 
L 316.940868 -75.918997 
L 316.014219 -75.553239 
L 314.991197 -75.187481 
L 313.916736 -74.821724 
L 312.819272 -74.455966 
L 311.703023 -74.090208 
L 310.555155 -73.72445 
L 309.361174 -73.358692 
L 308.118959 -72.992935 
L 306.846143 -72.627177 
L 305.577694 -72.261419 
L 304.352142 -71.895661 
L 303.191915 -71.529903 
L 302.090436 -71.164146 
L 301.016162 -70.798388 
L 299.934688 -70.43263 
L 298.842236 -70.066872 
L 297.791366 -69.701114 
z
" style="stroke: #bb5566; stroke-width: 1.05"/>
    </defs>
    <g clip-path="url(#p235c9df3da)">
     <use xlink:href="#mafa6dfb38a" x="0" y="283.464567" style="fill: #e8bcc4; stroke: #bb5566; stroke-width: 1.05"/>
    </g>
   </g>
   <g id="FillBetweenPolyCollection_5">
    <defs>
     <path id="md2ff602cef" d="M 367.453897 -72.401294 
L 363.384454 -72.401294 
L 362.623404 -72.84398 
L 361.870017 -73.286665 
L 361.164758 -73.729351 
L 360.508554 -74.172036 
L 359.886002 -74.614721 
L 359.289094 -75.057407 
L 358.72027 -75.500092 
L 358.180584 -75.942777 
L 357.662682 -76.385463 
L 357.156991 -76.828148 
L 356.661144 -77.270834 
L 356.180097 -77.713519 
L 355.717665 -78.156204 
L 355.270097 -78.59889 
L 354.827292 -79.041575 
L 354.377191 -79.484261 
L 353.908665 -79.926946 
L 353.415543 -80.369631 
L 352.904309 -80.812317 
L 352.39775 -81.255002 
L 351.923722 -81.697687 
L 351.493099 -82.140373 
L 351.087319 -82.583058 
L 350.670413 -83.025744 
L 350.216217 -83.468429 
L 349.726014 -83.911114 
L 349.222527 -84.3538 
L 348.729843 -84.796485 
L 348.258935 -85.23917 
L 347.807412 -85.681856 
L 347.36687 -86.124541 
L 346.928663 -86.567227 
L 346.486227 -87.009912 
L 346.036302 -87.452597 
L 345.578553 -87.895283 
L 345.111676 -88.337968 
L 344.62931 -88.780654 
L 344.12333 -89.223339 
L 343.59494 -89.666024 
L 343.062077 -90.10871 
L 342.552419 -90.551395 
L 342.086857 -90.99408 
L 341.668719 -91.436766 
L 341.285893 -91.879451 
L 340.918944 -92.322137 
L 340.547627 -92.764822 
L 340.157487 -93.207507 
L 339.74894 -93.650193 
L 339.341575 -94.092878 
L 338.96519 -94.535564 
L 338.643285 -94.978249 
L 338.385892 -95.420934 
L 338.200121 -95.86362 
L 338.106531 -96.306305 
L 338.138864 -96.74899 
L 338.318774 -97.191676 
L 338.62618 -97.634361 
L 338.997142 -98.077047 
L 339.356323 -98.519732 
L 339.657594 -98.962417 
L 339.90311 -99.405103 
L 340.135717 -99.847788 
L 340.417851 -100.290474 
L 340.808115 -100.733159 
L 341.339149 -101.175844 
L 342.001263 -101.61853 
L 342.741992 -102.061215 
L 343.489089 -102.5039 
L 344.188232 -102.946586 
L 344.830887 -103.389271 
L 345.452694 -103.831957 
L 346.105928 -104.274642 
L 346.827594 -104.717327 
L 347.622407 -105.160013 
L 348.465092 -105.602698 
L 349.314907 -106.045384 
L 350.134152 -106.488069 
L 350.905642 -106.930754 
L 351.64287 -107.37344 
L 352.384013 -107.816125 
L 353.168335 -108.25881 
L 354.008433 -108.701496 
L 354.878117 -109.144181 
L 355.72557 -109.586867 
L 356.503721 -110.029552 
L 357.197038 -110.472237 
L 357.825382 -110.914923 
L 358.423122 -111.357608 
L 359.012273 -111.800294 
L 359.591455 -112.242979 
L 360.145106 -112.685664 
L 360.660094 -113.12835 
L 361.136334 -113.571035 
L 361.587974 -114.01372 
L 362.038209 -114.456406 
L 362.510495 -114.899091 
L 363.017531 -115.341777 
L 363.550581 -115.784462 
L 364.07553 -116.227147 
L 366.762821 -116.227147 
L 366.762821 -116.227147 
L 367.287771 -115.784462 
L 367.82082 -115.341777 
L 368.327856 -114.899091 
L 368.800142 -114.456406 
L 369.250377 -114.01372 
L 369.702017 -113.571035 
L 370.178257 -113.12835 
L 370.693245 -112.685664 
L 371.246896 -112.242979 
L 371.826078 -111.800294 
L 372.415229 -111.357608 
L 373.012969 -110.914923 
L 373.641313 -110.472237 
L 374.33463 -110.029552 
L 375.112781 -109.586867 
L 375.960234 -109.144181 
L 376.829918 -108.701496 
L 377.670016 -108.25881 
L 378.454338 -107.816125 
L 379.195481 -107.37344 
L 379.932709 -106.930754 
L 380.704199 -106.488069 
L 381.523444 -106.045384 
L 382.373259 -105.602698 
L 383.215944 -105.160013 
L 384.010757 -104.717327 
L 384.732423 -104.274642 
L 385.385657 -103.831957 
L 386.007464 -103.389271 
L 386.650119 -102.946586 
L 387.349262 -102.5039 
L 388.09636 -102.061215 
L 388.837088 -101.61853 
L 389.499202 -101.175844 
L 390.030236 -100.733159 
L 390.4205 -100.290474 
L 390.702634 -99.847788 
L 390.935241 -99.405103 
L 391.180757 -98.962417 
L 391.482028 -98.519732 
L 391.841209 -98.077047 
L 392.212171 -97.634361 
L 392.519577 -97.191676 
L 392.699487 -96.74899 
L 392.73182 -96.306305 
L 392.63823 -95.86362 
L 392.452459 -95.420934 
L 392.195066 -94.978249 
L 391.873161 -94.535564 
L 391.496776 -94.092878 
L 391.089411 -93.650193 
L 390.680865 -93.207507 
L 390.290724 -92.764822 
L 389.919407 -92.322137 
L 389.552458 -91.879451 
L 389.169632 -91.436766 
L 388.751494 -90.99408 
L 388.285932 -90.551395 
L 387.776275 -90.10871 
L 387.243411 -89.666024 
L 386.715021 -89.223339 
L 386.209041 -88.780654 
L 385.726676 -88.337968 
L 385.259798 -87.895283 
L 384.802049 -87.452597 
L 384.352124 -87.009912 
L 383.909689 -86.567227 
L 383.471481 -86.124541 
L 383.030939 -85.681856 
L 382.579416 -85.23917 
L 382.108508 -84.796485 
L 381.615824 -84.3538 
L 381.112337 -83.911114 
L 380.622134 -83.468429 
L 380.167938 -83.025744 
L 379.751032 -82.583058 
L 379.345252 -82.140373 
L 378.914629 -81.697687 
L 378.440601 -81.255002 
L 377.934042 -80.812317 
L 377.422808 -80.369631 
L 376.929686 -79.926946 
L 376.46116 -79.484261 
L 376.01106 -79.041575 
L 375.568254 -78.59889 
L 375.120686 -78.156204 
L 374.658254 -77.713519 
L 374.177207 -77.270834 
L 373.68136 -76.828148 
L 373.175669 -76.385463 
L 372.657767 -75.942777 
L 372.118081 -75.500092 
L 371.549257 -75.057407 
L 370.952349 -74.614721 
L 370.329797 -74.172036 
L 369.673593 -73.729351 
L 368.968334 -73.286665 
L 368.214947 -72.84398 
L 367.453897 -72.401294 
z
" style="stroke: #bb5566; stroke-width: 1.05"/>
    </defs>
    <g clip-path="url(#p235c9df3da)">
     <use xlink:href="#md2ff602cef" x="0" y="283.464567" style="fill: #e8bcc4; stroke: #bb5566; stroke-width: 1.05"/>
    </g>
   </g>
   <g id="FillBetweenPolyCollection_6">
    <defs>
     <path id="m837a1f66cb" d="M 85.660139 -162.130076 
L 84.918833 -162.130076 
L 84.731579 -162.767879 
L 84.536561 -163.405681 
L 84.349866 -164.043484 
L 84.182092 -164.681286 
L 84.040213 -165.319089 
L 83.923052 -165.956892 
L 83.816624 -166.594694 
L 83.699177 -167.232497 
L 83.553854 -167.870299 
L 83.374965 -168.508102 
L 83.162925 -169.145904 
L 82.920126 -169.783707 
L 82.654278 -170.42151 
L 82.379412 -171.059312 
L 82.105852 -171.697115 
L 81.828004 -172.334917 
L 81.529082 -172.97272 
L 81.199645 -173.610522 
L 80.841563 -174.248325 
L 80.45331 -174.886128 
L 80.026455 -175.52393 
L 79.561806 -176.161733 
L 79.077071 -176.799535 
L 78.589893 -177.437338 
L 78.098629 -178.07514 
L 77.588523 -178.712943 
L 77.05348 -179.350746 
L 76.498798 -179.988548 
L 75.920963 -180.626351 
L 75.299417 -181.264153 
L 74.613765 -181.901956 
L 73.859601 -182.539758 
L 73.049214 -183.177561 
L 72.208817 -183.815364 
L 71.372445 -184.453166 
L 70.568964 -185.090969 
L 69.815611 -185.728771 
L 69.122502 -186.366574 
L 68.496146 -187.004376 
L 67.942799 -187.642179 
L 67.476343 -188.279982 
L 67.112503 -188.917784 
L 66.841152 -189.555587 
L 66.616065 -190.193389 
L 66.390535 -190.831192 
L 66.157584 -191.468994 
L 65.947883 -192.106797 
L 65.796182 -192.7446 
L 65.712122 -193.382402 
L 65.680408 -194.020205 
L 65.687918 -194.658007 
L 65.745563 -195.29581 
L 65.884876 -195.933612 
L 66.139841 -196.571415 
L 66.523903 -197.209218 
L 67.013389 -197.84702 
L 67.560247 -198.484823 
L 68.128417 -199.122625 
L 68.71313 -199.760428 
L 69.330457 -200.39823 
L 70.005331 -201.036033 
L 70.767541 -201.673836 
L 71.634679 -202.311638 
L 72.587242 -202.949441 
L 73.57395 -203.587243 
L 74.547341 -204.225046 
L 75.481396 -204.862848 
L 76.357116 -205.500651 
L 77.153679 -206.138454 
L 77.863161 -206.776256 
L 78.504331 -207.414059 
L 79.113149 -208.051861 
L 79.717785 -208.689664 
L 80.31971 -209.327466 
L 80.893596 -209.965269 
L 81.406152 -210.603072 
L 81.83957 -211.240874 
L 82.198801 -211.878677 
L 82.498551 -212.516479 
L 82.746732 -213.154282 
L 82.94182 -213.792084 
L 83.083714 -214.429887 
L 83.182492 -215.06769 
L 83.255382 -215.705492 
L 83.317185 -216.343295 
L 83.37355 -216.981097 
L 83.423039 -217.6189 
L 83.465833 -218.256702 
L 83.507949 -218.894505 
L 83.555664 -219.532308 
L 83.609885 -220.17011 
L 83.66908 -220.807913 
L 83.734394 -221.445715 
L 83.809232 -222.083518 
L 83.898438 -222.72132 
L 84.013056 -223.359123 
L 84.172454 -223.996926 
L 84.390419 -224.634728 
L 84.65102 -225.272531 
L 85.927952 -225.272531 
L 85.927952 -225.272531 
L 86.188553 -224.634728 
L 86.406517 -223.996926 
L 86.565916 -223.359123 
L 86.680534 -222.72132 
L 86.76974 -222.083518 
L 86.844578 -221.445715 
L 86.909892 -220.807913 
L 86.969087 -220.17011 
L 87.023307 -219.532308 
L 87.071023 -218.894505 
L 87.113139 -218.256702 
L 87.155932 -217.6189 
L 87.205422 -216.981097 
L 87.261787 -216.343295 
L 87.32359 -215.705492 
L 87.39648 -215.06769 
L 87.495257 -214.429887 
L 87.637152 -213.792084 
L 87.832239 -213.154282 
L 88.08042 -212.516479 
L 88.38017 -211.878677 
L 88.739402 -211.240874 
L 89.17282 -210.603072 
L 89.685376 -209.965269 
L 90.259262 -209.327466 
L 90.861187 -208.689664 
L 91.465823 -208.051861 
L 92.07464 -207.414059 
L 92.715811 -206.776256 
L 93.425292 -206.138454 
L 94.221856 -205.500651 
L 95.097576 -204.862848 
L 96.031631 -204.225046 
L 97.005022 -203.587243 
L 97.99173 -202.949441 
L 98.944292 -202.311638 
L 99.81143 -201.673836 
L 100.57364 -201.036033 
L 101.248515 -200.39823 
L 101.865841 -199.760428 
L 102.450554 -199.122625 
L 103.018725 -198.484823 
L 103.565583 -197.84702 
L 104.055069 -197.209218 
L 104.439131 -196.571415 
L 104.694095 -195.933612 
L 104.833409 -195.29581 
L 104.891054 -194.658007 
L 104.898564 -194.020205 
L 104.86685 -193.382402 
L 104.78279 -192.7446 
L 104.631088 -192.106797 
L 104.421388 -191.468994 
L 104.188437 -190.831192 
L 103.962907 -190.193389 
L 103.737819 -189.555587 
L 103.466469 -188.917784 
L 103.102629 -188.279982 
L 102.636173 -187.642179 
L 102.082826 -187.004376 
L 101.45647 -186.366574 
L 100.76336 -185.728771 
L 100.010008 -185.090969 
L 99.206526 -184.453166 
L 98.370154 -183.815364 
L 97.529758 -183.177561 
L 96.719371 -182.539758 
L 95.965207 -181.901956 
L 95.279555 -181.264153 
L 94.658009 -180.626351 
L 94.080173 -179.988548 
L 93.525492 -179.350746 
L 92.990449 -178.712943 
L 92.480343 -178.07514 
L 91.989079 -177.437338 
L 91.501901 -176.799535 
L 91.017166 -176.161733 
L 90.552516 -175.52393 
L 90.125662 -174.886128 
L 89.737409 -174.248325 
L 89.379327 -173.610522 
L 89.04989 -172.97272 
L 88.750967 -172.334917 
L 88.47312 -171.697115 
L 88.199559 -171.059312 
L 87.924694 -170.42151 
L 87.658846 -169.783707 
L 87.416046 -169.145904 
L 87.204007 -168.508102 
L 87.025117 -167.870299 
L 86.879795 -167.232497 
L 86.762348 -166.594694 
L 86.65592 -165.956892 
L 86.538759 -165.319089 
L 86.39688 -164.681286 
L 86.229106 -164.043484 
L 86.042411 -163.405681 
L 85.847393 -162.767879 
L 85.660139 -162.130076 
z
" style="stroke: #004488; stroke-width: 1.1"/>
    </defs>
    <g clip-path="url(#p235c9df3da)">
     <use xlink:href="#m837a1f66cb" x="0" y="283.464567" style="fill: #bbccee; stroke: #004488; stroke-width: 1.1"/>
    </g>
   </g>
   <g id="FillBetweenPolyCollection_7">
    <defs>
     <path id="m71ec5d6663" d="M 155.960177 -168.707408 
L 154.683639 -168.707408 
L 154.393408 -169.274577 
L 154.119717 -169.841745 
L 153.891511 -170.408914 
L 153.709774 -170.976082 
L 153.557646 -171.543251 
L 153.411939 -172.110419 
L 153.246906 -172.677588 
L 153.039642 -173.244757 
L 152.783029 -173.811925 
L 152.490603 -174.379094 
L 152.180117 -174.946262 
L 151.854015 -175.513431 
L 151.50258 -176.080599 
L 151.122339 -176.647768 
L 150.721717 -177.214937 
L 150.308321 -177.782105 
L 149.878385 -178.349274 
L 149.422637 -178.916442 
L 148.938847 -179.483611 
L 148.432665 -180.05078 
L 147.905614 -180.617948 
L 147.349329 -181.185117 
L 146.756606 -181.752285 
L 146.132767 -182.319454 
L 145.488693 -182.886622 
L 144.82503 -183.453791 
L 144.13215 -184.02096 
L 143.408715 -184.588128 
L 142.67369 -185.155297 
L 141.954173 -185.722465 
L 141.265388 -186.289634 
L 140.608212 -186.856802 
L 139.98396 -187.423971 
L 139.406083 -187.99114 
L 138.892445 -188.558308 
L 138.443761 -189.125477 
L 138.034951 -189.692645 
L 137.632993 -190.259814 
L 137.221584 -190.826982 
L 136.811269 -191.394151 
L 136.432969 -191.96132 
L 136.119651 -192.528488 
L 135.88975 -193.095657 
L 135.750251 -193.662825 
L 135.71283 -194.229994 
L 135.797423 -194.797162 
L 136.016105 -195.364331 
L 136.355832 -195.9315 
L 136.778603 -196.498668 
L 137.240504 -197.065837 
L 137.716733 -197.633005 
L 138.213303 -198.200174 
L 138.753213 -198.767343 
L 139.350192 -199.334511 
L 139.997814 -199.90168 
L 140.680339 -200.468848 
L 141.385665 -201.036017 
L 142.107498 -201.603185 
L 142.845175 -202.170354 
L 143.608713 -202.737523 
L 144.415515 -203.304691 
L 145.267754 -203.87186 
L 146.135047 -204.439028 
L 146.971462 -205.006197 
L 147.74938 -205.573365 
L 148.47072 -206.140534 
L 149.14937 -206.707703 
L 149.789682 -207.274871 
L 150.380693 -207.84204 
L 150.906738 -208.409208 
L 151.362164 -208.976377 
L 151.755639 -209.543545 
L 152.100732 -210.110714 
L 152.404343 -210.677883 
L 152.664748 -211.245051 
L 152.877348 -211.81222 
L 153.038888 -212.379388 
L 153.149087 -212.946557 
L 153.213479 -213.513725 
L 153.242535 -214.080894 
L 153.243697 -214.648063 
L 153.21944 -215.215231 
L 153.178296 -215.7824 
L 153.139774 -216.349568 
L 153.120224 -216.916737 
L 153.119422 -217.483906 
L 153.12703 -218.051074 
L 153.136395 -218.618243 
L 153.146851 -219.185411 
L 153.159058 -219.75258 
L 153.176989 -220.319748 
L 153.213778 -220.886917 
L 153.288205 -221.454086 
L 153.41162 -222.021254 
L 153.581657 -222.588423 
L 153.792051 -223.155591 
L 154.043364 -223.72276 
L 154.3341 -224.289928 
L 154.64041 -224.857097 
L 156.003407 -224.857097 
L 156.003407 -224.857097 
L 156.309717 -224.289928 
L 156.600452 -223.72276 
L 156.851766 -223.155591 
L 157.062159 -222.588423 
L 157.232196 -222.021254 
L 157.355612 -221.454086 
L 157.430038 -220.886917 
L 157.466828 -220.319748 
L 157.484759 -219.75258 
L 157.496966 -219.185411 
L 157.507421 -218.618243 
L 157.516787 -218.051074 
L 157.524395 -217.483906 
L 157.523593 -216.916737 
L 157.504042 -216.349568 
L 157.465521 -215.7824 
L 157.424377 -215.215231 
L 157.400119 -214.648063 
L 157.401281 -214.080894 
L 157.430337 -213.513725 
L 157.49473 -212.946557 
L 157.604928 -212.379388 
L 157.766469 -211.81222 
L 157.979069 -211.245051 
L 158.239474 -210.677883 
L 158.543084 -210.110714 
L 158.888178 -209.543545 
L 159.281652 -208.976377 
L 159.737079 -208.409208 
L 160.263123 -207.84204 
L 160.854135 -207.274871 
L 161.494446 -206.707703 
L 162.173097 -206.140534 
L 162.894436 -205.573365 
L 163.672354 -205.006197 
L 164.508769 -204.439028 
L 165.376063 -203.87186 
L 166.228302 -203.304691 
L 167.035104 -202.737523 
L 167.798641 -202.170354 
L 168.536318 -201.603185 
L 169.258151 -201.036017 
L 169.963478 -200.468848 
L 170.646002 -199.90168 
L 171.293625 -199.334511 
L 171.890603 -198.767343 
L 172.430513 -198.200174 
L 172.927083 -197.633005 
L 173.403313 -197.065837 
L 173.865214 -196.498668 
L 174.287985 -195.9315 
L 174.627711 -195.364331 
L 174.846394 -194.797162 
L 174.930987 -194.229994 
L 174.893566 -193.662825 
L 174.754066 -193.095657 
L 174.524166 -192.528488 
L 174.210848 -191.96132 
L 173.832548 -191.394151 
L 173.422232 -190.826982 
L 173.010824 -190.259814 
L 172.608866 -189.692645 
L 172.200055 -189.125477 
L 171.751372 -188.558308 
L 171.237734 -187.99114 
L 170.659856 -187.423971 
L 170.035604 -186.856802 
L 169.378428 -186.289634 
L 168.689644 -185.722465 
L 167.970127 -185.155297 
L 167.235102 -184.588128 
L 166.511666 -184.02096 
L 165.818787 -183.453791 
L 165.155124 -182.886622 
L 164.511049 -182.319454 
L 163.887211 -181.752285 
L 163.294487 -181.185117 
L 162.738202 -180.617948 
L 162.211152 -180.05078 
L 161.70497 -179.483611 
L 161.22118 -178.916442 
L 160.765431 -178.349274 
L 160.335496 -177.782105 
L 159.9221 -177.214937 
L 159.521478 -176.647768 
L 159.141237 -176.080599 
L 158.789802 -175.513431 
L 158.463699 -174.946262 
L 158.153214 -174.379094 
L 157.860787 -173.811925 
L 157.604175 -173.244757 
L 157.39691 -172.677588 
L 157.231877 -172.110419 
L 157.086171 -171.543251 
L 156.934042 -170.976082 
L 156.752306 -170.408914 
L 156.524099 -169.841745 
L 156.250408 -169.274577 
L 155.960177 -168.707408 
z
" style="stroke: #004488; stroke-width: 1.1"/>
    </defs>
    <g clip-path="url(#p235c9df3da)">
     <use xlink:href="#m71ec5d6663" x="0" y="283.464567" style="fill: #bbccee; stroke: #004488; stroke-width: 1.1"/>
    </g>
   </g>
   <g id="FillBetweenPolyCollection_8">
    <defs>
     <path id="m1009269af1" d="M 226.336348 -169.607459 
L 224.372313 -169.607459 
L 223.96197 -170.040354 
L 223.584872 -170.473248 
L 223.277773 -170.906143 
L 223.033442 -171.339038 
L 222.818418 -171.771932 
L 222.598425 -172.204827 
L 222.350206 -172.637721 
L 222.061836 -173.070616 
L 221.733361 -173.503511 
L 221.377138 -173.936405 
L 221.00742 -174.3693 
L 220.621903 -174.802194 
L 220.195931 -175.235089 
L 219.701935 -175.667984 
L 219.138848 -176.100878 
L 218.543054 -176.533773 
L 217.968391 -176.966667 
L 217.451125 -177.399562 
L 216.989912 -177.832457 
L 216.556083 -178.265351 
L 216.120635 -178.698246 
L 215.671805 -179.13114 
L 215.210977 -179.564035 
L 214.736573 -179.99693 
L 214.233828 -180.429824 
L 213.678772 -180.862719 
L 213.051429 -181.295613 
L 212.34991 -181.728508 
L 211.599217 -182.161402 
L 210.847654 -182.594297 
L 210.146581 -183.027192 
L 209.522877 -183.460086 
L 208.9662 -183.892981 
L 208.444973 -184.325875 
L 207.936815 -184.75877 
L 207.443591 -185.191665 
L 206.983028 -185.624559 
L 206.576674 -186.057454 
L 206.245532 -186.490348 
L 206.003593 -186.923243 
L 205.848927 -187.356138 
L 205.767014 -187.789032 
L 205.745252 -188.221927 
L 205.78054 -188.654821 
L 205.875006 -189.087716 
L 206.031456 -189.520611 
L 206.253685 -189.953505 
L 206.545031 -190.3864 
L 206.901991 -190.819294 
L 207.309091 -191.252189 
L 207.740536 -191.685084 
L 208.167152 -192.117978 
L 208.564814 -192.550873 
L 208.923091 -192.983767 
L 209.252848 -193.416662 
L 209.585713 -193.849557 
L 209.958272 -194.282451 
L 210.389459 -194.715346 
L 210.871742 -195.14824 
L 211.382655 -195.581135 
L 211.901104 -196.01403 
L 212.412742 -196.446924 
L 212.905331 -196.879819 
L 213.366097 -197.312713 
L 213.789786 -197.745608 
L 214.19107 -198.178503 
L 214.603349 -198.611397 
L 215.05851 -199.044292 
L 215.567719 -199.477186 
L 216.122163 -199.910081 
L 216.704544 -200.342976 
L 217.29323 -200.77587 
L 217.861248 -201.208765 
L 218.382479 -201.641659 
L 218.844494 -202.074554 
L 219.255699 -202.507449 
L 219.638467 -202.940343 
L 220.012975 -203.373238 
L 220.385454 -203.806132 
L 220.74936 -204.239027 
L 221.095058 -204.671921 
L 221.418526 -205.104816 
L 221.723649 -205.537711 
L 222.0176 -205.970605 
L 222.303549 -206.4035 
L 222.577831 -206.836394 
L 222.834005 -207.269289 
L 223.068878 -207.702184 
L 223.284734 -208.135078 
L 223.486466 -208.567973 
L 223.676637 -209.000867 
L 223.853374 -209.433762 
L 224.013396 -209.866657 
L 224.156955 -210.299551 
L 224.290217 -210.732446 
L 224.42432 -211.16534 
L 224.571656 -211.598235 
L 224.738154 -212.03113 
L 224.9148 -212.464024 
L 225.793862 -212.464024 
L 225.793862 -212.464024 
L 225.970508 -212.03113 
L 226.137006 -211.598235 
L 226.284342 -211.16534 
L 226.418445 -210.732446 
L 226.551706 -210.299551 
L 226.695265 -209.866657 
L 226.855287 -209.433762 
L 227.032025 -209.000867 
L 227.222195 -208.567973 
L 227.423927 -208.135078 
L 227.639783 -207.702184 
L 227.874657 -207.269289 
L 228.130831 -206.836394 
L 228.405113 -206.4035 
L 228.691061 -205.970605 
L 228.985012 -205.537711 
L 229.290135 -205.104816 
L 229.613603 -204.671921 
L 229.959302 -204.239027 
L 230.323207 -203.806132 
L 230.695686 -203.373238 
L 231.070195 -202.940343 
L 231.452962 -202.507449 
L 231.864168 -202.074554 
L 232.326183 -201.641659 
L 232.847414 -201.208765 
L 233.415431 -200.77587 
L 234.004118 -200.342976 
L 234.586498 -199.910081 
L 235.140943 -199.477186 
L 235.650151 -199.044292 
L 236.105312 -198.611397 
L 236.517592 -198.178503 
L 236.918876 -197.745608 
L 237.342564 -197.312713 
L 237.80333 -196.879819 
L 238.29592 -196.446924 
L 238.807557 -196.01403 
L 239.326006 -195.581135 
L 239.83692 -195.14824 
L 240.319203 -194.715346 
L 240.75039 -194.282451 
L 241.122948 -193.849557 
L 241.455813 -193.416662 
L 241.78557 -192.983767 
L 242.143847 -192.550873 
L 242.541509 -192.117978 
L 242.968126 -191.685084 
L 243.39957 -191.252189 
L 243.806671 -190.819294 
L 244.163631 -190.3864 
L 244.454976 -189.953505 
L 244.677206 -189.520611 
L 244.833655 -189.087716 
L 244.928122 -188.654821 
L 244.963409 -188.221927 
L 244.941647 -187.789032 
L 244.859735 -187.356138 
L 244.705068 -186.923243 
L 244.46313 -186.490348 
L 244.131988 -186.057454 
L 243.725634 -185.624559 
L 243.26507 -185.191665 
L 242.771847 -184.75877 
L 242.263688 -184.325875 
L 241.742462 -183.892981 
L 241.185785 -183.460086 
L 240.562081 -183.027192 
L 239.861007 -182.594297 
L 239.109445 -182.161402 
L 238.358752 -181.728508 
L 237.657232 -181.295613 
L 237.029889 -180.862719 
L 236.474834 -180.429824 
L 235.972088 -179.99693 
L 235.497684 -179.564035 
L 235.036857 -179.13114 
L 234.588026 -178.698246 
L 234.152578 -178.265351 
L 233.71875 -177.832457 
L 233.257537 -177.399562 
L 232.74027 -176.966667 
L 232.165607 -176.533773 
L 231.569813 -176.100878 
L 231.006726 -175.667984 
L 230.512731 -175.235089 
L 230.086758 -174.802194 
L 229.701241 -174.3693 
L 229.331523 -173.936405 
L 228.9753 -173.503511 
L 228.646825 -173.070616 
L 228.358455 -172.637721 
L 228.110237 -172.204827 
L 227.890244 -171.771932 
L 227.675219 -171.339038 
L 227.430888 -170.906143 
L 227.12379 -170.473248 
L 226.746692 -170.040354 
L 226.336348 -169.607459 
z
" style="stroke: #004488; stroke-width: 1.1"/>
    </defs>
    <g clip-path="url(#p235c9df3da)">
     <use xlink:href="#m1009269af1" x="0" y="283.464567" style="fill: #bbccee; stroke: #004488; stroke-width: 1.1"/>
    </g>
   </g>
   <g id="FillBetweenPolyCollection_9">
    <defs>
     <path id="ma9bc1a6fbf" d="M 298.370153 -140.182505 
L 292.403353 -140.182505 
L 291.177034 -140.832196 
L 289.85853 -141.481888 
L 288.546295 -142.13158 
L 287.312506 -142.781271 
L 286.193534 -143.430963 
L 285.199755 -144.080654 
L 284.331605 -144.730346 
L 283.587903 -145.380037 
L 282.962799 -146.029729 
L 282.438897 -146.679421 
L 281.986267 -147.329112 
L 281.569538 -147.978804 
L 281.15692 -148.628495 
L 280.724161 -149.278187 
L 280.252794 -149.927878 
L 279.728122 -150.57757 
L 279.142003 -151.227262 
L 278.500127 -151.876953 
L 277.828808 -152.526645 
L 277.175545 -153.176336 
L 276.600112 -153.826028 
L 276.157795 -154.47572 
L 275.882241 -155.125411 
L 275.777675 -155.775103 
L 275.824778 -156.424794 
L 275.994762 -157.074486 
L 276.261224 -157.724177 
L 276.60333 -158.373869 
L 277.00198 -159.023561 
L 277.436105 -159.673252 
L 277.885829 -160.322944 
L 278.342892 -160.972635 
L 278.820388 -161.622327 
L 279.350908 -162.272018 
L 279.969733 -162.92171 
L 280.692252 -163.571402 
L 281.500626 -164.221093 
L 282.348707 -164.870785 
L 283.181942 -165.520476 
L 283.959776 -166.170168 
L 284.66761 -166.819859 
L 285.313248 -167.469551 
L 285.913199 -168.119243 
L 286.479324 -168.768934 
L 287.013391 -169.418626 
L 287.510084 -170.068317 
L 287.963414 -170.718009 
L 288.370456 -171.3677 
L 288.729966 -172.017392 
L 289.038921 -172.667084 
L 289.292343 -173.316775 
L 289.488153 -173.966467 
L 289.632784 -174.616158 
L 289.741713 -175.26585 
L 289.833659 -175.915541 
L 289.922918 -176.565233 
L 290.015261 -177.214925 
L 290.109209 -177.864616 
L 290.200285 -178.514308 
L 290.284756 -179.163999 
L 290.361083 -179.813691 
L 290.429608 -180.463382 
L 290.491852 -181.113074 
L 290.550218 -181.762766 
L 290.607861 -182.412457 
L 290.667882 -183.062149 
L 290.731452 -183.71184 
L 290.795863 -184.361532 
L 290.854568 -185.011224 
L 290.900308 -185.660915 
L 290.929851 -186.310607 
L 290.947274 -186.960298 
L 290.963367 -187.60999 
L 290.990917 -188.259681 
L 291.037829 -188.909373 
L 291.101781 -189.559065 
L 291.170224 -190.208756 
L 291.226768 -190.858448 
L 291.260393 -191.508139 
L 291.27141 -192.157831 
L 291.270622 -192.807522 
L 291.273367 -193.457214 
L 291.29296 -194.106906 
L 291.336661 -194.756597 
L 291.404619 -195.406289 
L 291.49122 -196.05598 
L 291.588407 -196.705672 
L 291.689698 -197.355363 
L 291.792739 -198.005055 
L 291.899098 -198.654747 
L 292.012569 -199.304438 
L 292.138611 -199.95413 
L 292.285974 -200.603821 
L 292.468413 -201.253513 
L 292.702976 -201.903204 
L 293.003229 -202.552896 
L 293.369662 -203.202588 
L 293.782705 -203.852279 
L 294.204054 -204.501971 
L 296.569452 -204.501971 
L 296.569452 -204.501971 
L 296.990801 -203.852279 
L 297.403844 -203.202588 
L 297.770277 -202.552896 
L 298.07053 -201.903204 
L 298.305093 -201.253513 
L 298.487532 -200.603821 
L 298.634895 -199.95413 
L 298.760937 -199.304438 
L 298.874408 -198.654747 
L 298.980768 -198.005055 
L 299.083808 -197.355363 
L 299.1851 -196.705672 
L 299.282286 -196.05598 
L 299.368888 -195.406289 
L 299.436845 -194.756597 
L 299.480547 -194.106906 
L 299.500139 -193.457214 
L 299.502884 -192.807522 
L 299.502096 -192.157831 
L 299.513113 -191.508139 
L 299.546739 -190.858448 
L 299.603283 -190.208756 
L 299.671725 -189.559065 
L 299.735677 -188.909373 
L 299.782589 -188.259681 
L 299.810139 -187.60999 
L 299.826233 -186.960298 
L 299.843655 -186.310607 
L 299.873198 -185.660915 
L 299.918938 -185.011224 
L 299.977644 -184.361532 
L 300.042054 -183.71184 
L 300.105624 -183.062149 
L 300.165646 -182.412457 
L 300.223289 -181.762766 
L 300.281655 -181.113074 
L 300.343898 -180.463382 
L 300.412423 -179.813691 
L 300.48875 -179.163999 
L 300.573221 -178.514308 
L 300.664297 -177.864616 
L 300.758245 -177.214925 
L 300.850589 -176.565233 
L 300.939847 -175.915541 
L 301.031794 -175.26585 
L 301.140722 -174.616158 
L 301.285354 -173.966467 
L 301.481163 -173.316775 
L 301.734585 -172.667084 
L 302.04354 -172.017392 
L 302.40305 -171.3677 
L 302.810092 -170.718009 
L 303.263422 -170.068317 
L 303.760115 -169.418626 
L 304.294182 -168.768934 
L 304.860307 -168.119243 
L 305.460258 -167.469551 
L 306.105896 -166.819859 
L 306.81373 -166.170168 
L 307.591565 -165.520476 
L 308.424799 -164.870785 
L 309.27288 -164.221093 
L 310.081254 -163.571402 
L 310.803773 -162.92171 
L 311.422598 -162.272018 
L 311.953118 -161.622327 
L 312.430614 -160.972635 
L 312.887677 -160.322944 
L 313.337401 -159.673252 
L 313.771527 -159.023561 
L 314.170176 -158.373869 
L 314.512283 -157.724177 
L 314.778744 -157.074486 
L 314.948728 -156.424794 
L 314.995831 -155.775103 
L 314.891265 -155.125411 
L 314.615711 -154.47572 
L 314.173395 -153.826028 
L 313.597962 -153.176336 
L 312.944698 -152.526645 
L 312.273379 -151.876953 
L 311.631503 -151.227262 
L 311.045384 -150.57757 
L 310.520713 -149.927878 
L 310.049346 -149.278187 
L 309.616586 -148.628495 
L 309.203968 -147.978804 
L 308.787239 -147.329112 
L 308.334609 -146.679421 
L 307.810708 -146.029729 
L 307.185603 -145.380037 
L 306.441902 -144.730346 
L 305.573752 -144.080654 
L 304.579973 -143.430963 
L 303.461 -142.781271 
L 302.227211 -142.13158 
L 300.914976 -141.481888 
L 299.596473 -140.832196 
L 298.370153 -140.182505 
z
" style="stroke: #004488; stroke-width: 1.1"/>
    </defs>
    <g clip-path="url(#p235c9df3da)">
     <use xlink:href="#ma9bc1a6fbf" x="0" y="283.464567" style="fill: #bbccee; stroke: #004488; stroke-width: 1.1"/>
    </g>
   </g>
   <g id="FillBetweenPolyCollection_10">
    <defs>
     <path id="m3c28577068" d="M 366.866185 -142.813435 
L 363.972166 -142.813435 
L 363.473864 -143.561035 
L 362.998846 -144.308635 
L 362.586941 -145.056235 
L 362.246329 -145.803835 
L 361.957353 -146.551436 
L 361.688181 -147.299036 
L 361.409633 -148.046636 
L 361.101499 -148.794236 
L 360.752273 -149.541836 
L 360.358444 -150.289436 
L 359.925974 -151.037036 
L 359.471291 -151.784636 
L 359.018212 -152.532236 
L 358.59105 -153.279837 
L 358.207708 -154.027437 
L 357.875976 -154.775037 
L 357.59308 -155.522637 
L 357.347354 -156.270237 
L 357.122408 -157.017837 
L 356.904412 -157.765437 
L 356.689719 -158.513037 
L 356.487026 -159.260638 
L 356.310904 -160.008238 
L 356.170847 -160.755838 
L 356.064692 -161.503438 
L 355.981618 -162.251038 
L 355.91125 -162.998638 
L 355.850097 -163.746238 
L 355.799816 -164.493838 
L 355.760041 -165.241438 
L 355.723987 -165.989039 
L 355.682258 -166.736639 
L 355.631444 -167.484239 
L 355.577814 -168.231839 
L 355.530522 -168.979439 
L 355.490116 -169.727039 
L 355.444258 -170.474639 
L 355.375554 -171.222239 
L 355.273645 -171.969839 
L 355.139925 -172.71744 
L 354.982046 -173.46504 
L 354.805576 -174.21264 
L 354.610922 -174.96024 
L 354.39654 -175.70784 
L 354.163505 -176.45544 
L 353.916527 -177.20304 
L 353.66052 -177.95064 
L 353.395898 -178.698241 
L 353.116845 -179.445841 
L 352.813886 -180.193441 
L 352.478245 -180.941041 
L 352.10518 -181.688641 
L 351.696237 -182.436241 
L 351.261256 -183.183841 
L 350.8186 -183.931441 
L 350.390784 -184.679041 
L 349.995519 -185.426642 
L 349.636374 -186.174242 
L 349.298689 -186.921842 
L 348.954074 -187.669442 
L 348.573015 -188.417042 
L 348.140895 -189.164642 
L 347.669339 -189.912242 
L 347.194875 -190.659842 
L 346.763711 -191.407442 
L 346.411458 -192.155043 
L 346.150788 -192.902643 
L 345.973551 -193.650243 
L 345.863424 -194.397843 
L 345.810097 -195.145443 
L 345.817585 -195.893043 
L 345.902655 -196.640643 
L 346.083885 -197.388243 
L 346.368418 -198.135844 
L 346.747371 -198.883444 
L 347.204774 -199.631044 
L 347.732242 -200.378644 
L 348.335475 -201.126244 
L 349.026621 -201.873844 
L 349.809979 -202.621444 
L 350.673541 -203.369044 
L 351.591369 -204.116644 
L 352.53165 -204.864245 
L 353.463254 -205.611845 
L 354.359405 -206.359445 
L 355.201165 -207.107045 
L 355.981023 -207.854645 
L 356.703264 -208.602245 
L 357.379515 -209.349845 
L 358.022815 -210.097445 
L 358.644678 -210.845046 
L 359.255558 -211.592646 
L 359.865802 -212.340246 
L 360.485362 -213.087846 
L 361.122754 -213.835446 
L 361.782779 -214.583046 
L 362.461198 -215.330646 
L 363.13786 -216.078246 
L 363.775119 -216.825846 
L 367.063232 -216.825846 
L 367.063232 -216.825846 
L 367.700491 -216.078246 
L 368.377153 -215.330646 
L 369.055572 -214.583046 
L 369.715597 -213.835446 
L 370.352989 -213.087846 
L 370.972549 -212.340246 
L 371.582793 -211.592646 
L 372.193673 -210.845046 
L 372.815536 -210.097445 
L 373.458837 -209.349845 
L 374.135087 -208.602245 
L 374.857328 -207.854645 
L 375.637186 -207.107045 
L 376.478946 -206.359445 
L 377.375097 -205.611845 
L 378.306702 -204.864245 
L 379.246982 -204.116644 
L 380.16481 -203.369044 
L 381.028372 -202.621444 
L 381.81173 -201.873844 
L 382.502876 -201.126244 
L 383.106109 -200.378644 
L 383.633577 -199.631044 
L 384.09098 -198.883444 
L 384.469933 -198.135844 
L 384.754466 -197.388243 
L 384.935696 -196.640643 
L 385.020766 -195.893043 
L 385.028254 -195.145443 
L 384.974928 -194.397843 
L 384.8648 -193.650243 
L 384.687563 -192.902643 
L 384.426893 -192.155043 
L 384.07464 -191.407442 
L 383.643476 -190.659842 
L 383.169012 -189.912242 
L 382.697456 -189.164642 
L 382.265336 -188.417042 
L 381.884277 -187.669442 
L 381.539662 -186.921842 
L 381.201977 -186.174242 
L 380.842832 -185.426642 
L 380.447567 -184.679041 
L 380.019752 -183.931441 
L 379.577095 -183.183841 
L 379.142114 -182.436241 
L 378.733171 -181.688641 
L 378.360106 -180.941041 
L 378.024465 -180.193441 
L 377.721506 -179.445841 
L 377.442453 -178.698241 
L 377.177831 -177.95064 
L 376.921825 -177.20304 
L 376.674846 -176.45544 
L 376.441811 -175.70784 
L 376.227429 -174.96024 
L 376.032775 -174.21264 
L 375.856305 -173.46504 
L 375.698427 -172.71744 
L 375.564707 -171.969839 
L 375.462797 -171.222239 
L 375.394093 -170.474639 
L 375.348235 -169.727039 
L 375.307829 -168.979439 
L 375.260538 -168.231839 
L 375.206907 -167.484239 
L 375.156093 -166.736639 
L 375.114364 -165.989039 
L 375.07831 -165.241438 
L 375.038535 -164.493838 
L 374.988254 -163.746238 
L 374.927101 -162.998638 
L 374.856733 -162.251038 
L 374.77366 -161.503438 
L 374.667504 -160.755838 
L 374.527447 -160.008238 
L 374.351325 -159.260638 
L 374.148633 -158.513037 
L 373.933939 -157.765437 
L 373.715943 -157.017837 
L 373.490997 -156.270237 
L 373.245271 -155.522637 
L 372.962375 -154.775037 
L 372.630643 -154.027437 
L 372.247301 -153.279837 
L 371.820139 -152.532236 
L 371.36706 -151.784636 
L 370.912377 -151.037036 
L 370.479907 -150.289436 
L 370.086078 -149.541836 
L 369.736853 -148.794236 
L 369.428718 -148.046636 
L 369.15017 -147.299036 
L 368.880998 -146.551436 
L 368.592022 -145.803835 
L 368.25141 -145.056235 
L 367.839505 -144.308635 
L 367.364487 -143.561035 
L 366.866185 -142.813435 
z
" style="stroke: #004488; stroke-width: 1.1"/>
    </defs>
    <g clip-path="url(#p235c9df3da)">
     <use xlink:href="#m3c28577068" x="0" y="283.464567" style="fill: #bbccee; stroke: #004488; stroke-width: 1.1"/>
    </g>
   </g>
   <g id="line2d_22">
    <path d="M 85.289486 190.223489 
L 85.289486 178.661191 
" clip-path="url(#p235c9df3da)" style="fill: none; stroke: #000000; stroke-width: 1.9; stroke-linecap: round"/>
   </g>
   <g id="line2d_23">
    <path d="M 155.321908 188.49261 
L 155.321908 176.930312 
" clip-path="url(#p235c9df3da)" style="fill: none; stroke: #000000; stroke-width: 1.9; stroke-linecap: round"/>
   </g>
   <g id="line2d_24">
    <path d="M 225.354331 188.00794 
L 225.354331 178.938151 
" clip-path="url(#p235c9df3da)" style="fill: none; stroke: #000000; stroke-width: 1.9; stroke-linecap: round"/>
   </g>
   <g id="line2d_25">
    <path d="M 295.386753 205.870623 
L 295.386753 195.900757 
" clip-path="url(#p235c9df3da)" style="fill: none; stroke: #000000; stroke-width: 1.9; stroke-linecap: round"/>
   </g>
   <g id="line2d_26">
    <path d="M 365.419176 196.177717 
L 365.419176 181.915265 
" clip-path="url(#p235c9df3da)" style="fill: none; stroke: #000000; stroke-width: 1.9; stroke-linecap: round"/>
   </g>
   <g id="line2d_27">
    <path d="M 85.289486 97.86379 
L 85.289486 83.324405 
" clip-path="url(#p235c9df3da)" style="fill: none; stroke: #000000; stroke-width: 1.9; stroke-linecap: round"/>
   </g>
   <g id="line2d_28">
    <path d="M 155.321908 96.340622 
L 155.321908 83.255168 
" clip-path="url(#p235c9df3da)" style="fill: none; stroke: #000000; stroke-width: 1.9; stroke-linecap: round"/>
   </g>
   <g id="line2d_29">
    <path d="M 225.354331 100.010077 
L 225.354331 88.240095 
" clip-path="url(#p235c9df3da)" style="fill: none; stroke: #000000; stroke-width: 1.9; stroke-linecap: round"/>
   </g>
   <g id="line2d_30">
    <path d="M 295.386753 131.23512 
L 295.386753 111.503098 
" clip-path="url(#p235c9df3da)" style="fill: none; stroke: #000000; stroke-width: 1.9; stroke-linecap: round"/>
   </g>
   <g id="line2d_31">
    <path d="M 365.419176 113.23399 
L 365.419176 85.609138 
" clip-path="url(#p235c9df3da)" style="fill: none; stroke: #000000; stroke-width: 1.9; stroke-linecap: round"/>
   </g>
   <g id="text_12">
    <text style="font-weight: 700; font-size: 19px; font-family: 'Tahoma'; text-anchor: middle; fill: #004488" x="225.354331" y="38.835181" transform="rotate(-0 225.354331 38.835181)">from mean</text>
   </g>
   <g id="text_13">
    <text style="font-weight: 700; font-size: 19px; font-family: 'Tahoma'; text-anchor: middle; fill: #bb5566" x="225.354331" y="159.121081" transform="rotate(-0 225.354331 159.121081)">from p90</text>
   </g>
   <g id="line2d_32">
    <path d="M 76.885595 184.269275 
L 93.693377 184.269275 
" clip-path="url(#p235c9df3da)" style="fill: none; stroke: #bb5566; stroke-width: 2.1; stroke-linecap: square"/>
   </g>
   <g id="line2d_33">
    <path d="M 146.918018 182.746066 
L 163.725799 182.746066 
" clip-path="url(#p235c9df3da)" style="fill: none; stroke: #bb5566; stroke-width: 2.1; stroke-linecap: square"/>
   </g>
   <g id="line2d_34">
    <path d="M 216.95044 183.576907 
L 233.758221 183.576907 
" clip-path="url(#p235c9df3da)" style="fill: none; stroke: #bb5566; stroke-width: 2.1; stroke-linecap: square"/>
   </g>
   <g id="line2d_35">
    <path d="M 286.982862 201.301103 
L 303.790644 201.301103 
" clip-path="url(#p235c9df3da)" style="fill: none; stroke: #bb5566; stroke-width: 2.1; stroke-linecap: square"/>
   </g>
   <g id="line2d_36">
    <path d="M 357.015285 188.561834 
L 373.823066 188.561834 
" clip-path="url(#p235c9df3da)" style="fill: none; stroke: #bb5566; stroke-width: 2.1; stroke-linecap: square"/>
   </g>
   <g id="line2d_37">
    <path d="M 79.686892 90.490243 
L 90.89208 90.490243 
" clip-path="url(#p235c9df3da)" style="fill: none; stroke: #004488; stroke-width: 2.1; stroke-linecap: square"/>
   </g>
   <g id="line2d_38">
    <path d="M 149.719314 89.763264 
L 160.924502 89.763264 
" clip-path="url(#p235c9df3da)" style="fill: none; stroke: #004488; stroke-width: 2.1; stroke-linecap: square"/>
   </g>
   <g id="line2d_39">
    <path d="M 219.751737 94.402019 
L 230.956925 94.402019 
" clip-path="url(#p235c9df3da)" style="fill: none; stroke: #004488; stroke-width: 2.1; stroke-linecap: square"/>
   </g>
   <g id="line2d_40">
    <path d="M 289.784159 123.619264 
L 300.989347 123.619264 
" clip-path="url(#p235c9df3da)" style="fill: none; stroke: #004488; stroke-width: 2.1; stroke-linecap: square"/>
   </g>
   <g id="line2d_41">
    <path d="M 359.816582 96.617542 
L 371.021769 96.617542 
" clip-path="url(#p235c9df3da)" style="fill: none; stroke: #004488; stroke-width: 2.1; stroke-linecap: square"/>
   </g>
   <g id="PathCollection_1">
    <defs>
     <path id="m6c175ab7b4" d="M 0 2.345208 
C 0.621956 2.345208 1.218523 2.098102 1.658312 1.658312 
C 2.098102 1.218523 2.345208 0.621956 2.345208 0 
C 2.345208 -0.621956 2.098102 -1.218523 1.658312 -1.658312 
C 1.218523 -2.098102 0.621956 -2.345208 0 -2.345208 
C -0.621956 -2.345208 -1.218523 -2.098102 -1.658312 -1.658312 
C -2.098102 -1.218523 -2.345208 -0.621956 -2.345208 0 
C -2.345208 0.621956 -2.098102 1.218523 -1.658312 1.658312 
C -1.218523 2.098102 -0.621956 2.345208 0 2.345208 
z
" style="stroke: #bb5566"/>
    </defs>
    <g clip-path="url(#p235c9df3da)">
     <use xlink:href="#m6c175ab7b4" x="85.289486" y="184.608137" style="fill: #bb5566; stroke: #bb5566"/>
    </g>
   </g>
   <g id="PathCollection_2">
    <g clip-path="url(#p235c9df3da)">
     <use xlink:href="#m6c175ab7b4" x="155.321908" y="182.767471" style="fill: #bb5566; stroke: #bb5566"/>
    </g>
   </g>
   <g id="PathCollection_3">
    <g clip-path="url(#p235c9df3da)">
     <use xlink:href="#m6c175ab7b4" x="225.354331" y="183.315813" style="fill: #bb5566; stroke: #bb5566"/>
    </g>
   </g>
   <g id="PathCollection_4">
    <g clip-path="url(#p235c9df3da)">
     <use xlink:href="#m6c175ab7b4" x="295.386753" y="200.280412" style="fill: #bb5566; stroke: #bb5566"/>
    </g>
   </g>
   <g id="PathCollection_5">
    <g clip-path="url(#p235c9df3da)">
     <use xlink:href="#m6c175ab7b4" x="365.419176" y="189.076449" style="fill: #bb5566; stroke: #bb5566"/>
    </g>
   </g>
   <g id="PathCollection_6">
    <defs>
     <path id="m8ef046a89b" d="M 0 2.345208 
C 0.621956 2.345208 1.218523 2.098102 1.658312 1.658312 
C 2.098102 1.218523 2.345208 0.621956 2.345208 0 
C 2.345208 -0.621956 2.098102 -1.218523 1.658312 -1.658312 
C 1.218523 -2.098102 0.621956 -2.345208 0 -2.345208 
C -0.621956 -2.345208 -1.218523 -2.098102 -1.658312 -1.658312 
C -2.098102 -1.218523 -2.345208 -0.621956 -2.345208 0 
C -2.345208 0.621956 -2.098102 1.218523 -1.658312 1.658312 
C -1.218523 2.098102 -0.621956 2.345208 0 2.345208 
z
" style="stroke: #004488"/>
    </defs>
    <g clip-path="url(#p235c9df3da)">
     <use xlink:href="#m8ef046a89b" x="85.289486" y="90.569522" style="fill: #004488; stroke: #004488"/>
    </g>
   </g>
   <g id="PathCollection_7">
    <g clip-path="url(#p235c9df3da)">
     <use xlink:href="#m8ef046a89b" x="155.321908" y="89.381461" style="fill: #004488; stroke: #004488"/>
    </g>
   </g>
   <g id="PathCollection_8">
    <g clip-path="url(#p235c9df3da)">
     <use xlink:href="#m8ef046a89b" x="225.354331" y="94.025796" style="fill: #004488; stroke: #004488"/>
    </g>
   </g>
   <g id="PathCollection_9">
    <g clip-path="url(#p235c9df3da)">
     <use xlink:href="#m8ef046a89b" x="295.386753" y="119.755365" style="fill: #004488; stroke: #004488"/>
    </g>
   </g>
   <g id="PathCollection_10">
    <g clip-path="url(#p235c9df3da)">
     <use xlink:href="#m8ef046a89b" x="365.419176" y="99.623206" style="fill: #004488; stroke: #004488"/>
    </g>
   </g>
  </g>
 </g>
 <defs>
  <clipPath id="p235c9df3da">
   <rect x="46.771654" y="22.677165" width="357.165354" height="198.425197"/>
  </clipPath>
 </defs>
</svg>
