<?xml version="1.0" encoding="utf-8" standalone="no"?>
<!DOCTYPE svg PUBLIC "-//W3C//DTD SVG 1.1//EN"
  "http://www.w3.org/Graphics/SVG/1.1/DTD/svg11.dtd">
<svg xmlns:xlink="http://www.w3.org/1999/xlink" width="425.19685pt" height="283.464567pt" viewBox="0 0 425.19685 283.464567" xmlns="http://www.w3.org/2000/svg" version="1.1">
 <metadata>
  <rdf:RDF xmlns:dc="http://purl.org/dc/elements/1.1/" xmlns:cc="http://creativecommons.org/ns#" xmlns:rdf="http://www.w3.org/1999/02/22-rdf-syntax-ns#">
   <cc:Work>
    <dc:type rdf:resource="http://purl.org/dc/dcmitype/StillImage"/>
    <dc:date>2026-07-10T15:12:19.408802</dc:date>
    <dc:format>image/svg+xml</dc:format>
    <dc:creator>
     <cc:Agent>
      <dc:title>Matplotlib v3.10.0, https://matplotlib.org/</dc:title>
     </cc:Agent>
    </dc:creator>
   </cc:Work>
  </rdf:RDF>
 </metadata>
 <defs>
  <style type="text/css">*{stroke-linejoin: round; stroke-linecap: butt}</style>
 </defs>
 <g id="figure_1">
  <g id="patch_1">
   <path d="M 0 283.464567 
L 425.19685 283.464567 
L 425.19685 0 
L 0 0 
L 0 283.464567 
z
" style="fill: none; opacity: 0"/>
  </g>
  <g id="axes_1">
   <g id="patch_2">
    <path d="M 55.275591 238.110236 
L 378.425197 238.110236 
L 378.425197 22.677165 
L 55.275591 22.677165 
L 55.275591 238.110236 
z
" style="fill: none; opacity: 0"/>
   </g>
   <g id="FillBetweenPolyCollection_1">
    <path d="M 55.275591 238.110236 
L 55.275591 238.110236 
L 69.325573 238.110236 
L 83.375556 238.110236 
L 97.425539 238.110236 
L 111.475522 238.110236 
L 125.525505 238.110236 
L 139.575488 238.110236 
L 153.625471 238.110236 
L 167.675454 238.110236 
L 181.725436 238.110236 
L 195.775419 238.110236 
L 209.825402 238.110236 
L 223.875385 238.110236 
L 237.925368 238.110236 
L 251.975351 238.110236 
L 266.025334 238.110236 
L 280.075317 238.110236 
L 294.1253 238.110236 
L 308.175282 238.110236 
L 322.225265 238.110236 
L 336.275248 238.110236 
L 350.325231 238.110236 
L 364.375214 238.110236 
L 378.425197 238.110236 
L 378.425197 237.88634 
L 378.425197 237.88634 
L 364.375214 234.104952 
L 350.325231 225.565555 
L 336.275248 214.279877 
L 322.225265 201.064396 
L 308.175282 188.436948 
L 294.1253 176.701122 
L 280.075317 168.720681 
L 266.025334 163.155931 
L 251.975351 162.708661 
L 237.925368 164.030182 
L 223.875385 168.98204 
L 209.825402 178.833047 
L 195.775419 188.226028 
L 181.725436 199.454923 
L 167.675454 212.368187 
L 153.625471 224.602196 
L 139.575488 233.25343 
L 125.525505 237.659792 
L 111.475522 238.110236 
L 97.425539 238.110234 
L 83.375556 238.110235 
L 69.325573 238.110236 
L 55.275591 238.110236 
z
" clip-path="url(#p783a2a324a)" style="fill: #ddaa33; fill-opacity: 0.3"/>
   </g>
   <g id="matplotlib.axis_1">
    <g id="xtick_1">
     <g id="line2d_1">
      <path d="M 55.275591 238.110236 
L 55.275591 22.677165 
" clip-path="url(#p783a2a324a)" style="fill: none; stroke: #d0d0d0; stroke-opacity: 0.65; stroke-width: 1.2; stroke-linecap: square"/>
     </g>
     <g id="line2d_2">
      <defs>
       <path id="m9f57a6e4c9" d="M 0 0 
L 0 6 
" style="stroke: #000000; stroke-width: 1.5"/>
      </defs>
      <g>
       <use xlink:href="#m9f57a6e4c9" x="55.275591" y="238.110236" style="stroke: #000000; stroke-width: 1.5"/>
      </g>
     </g>
     <g id="text_1">
      <text style="font-size: 15px; font-family: 'Tahoma'; text-anchor: middle" x="55.275591" y="259.007892" transform="rotate(-0 55.275591 259.007892)">0</text>
     </g>
    </g>
    <g id="xtick_2">
     <g id="line2d_3">
      <path d="M 97.425539 238.110236 
L 97.425539 22.677165 
" clip-path="url(#p783a2a324a)" style="fill: none; stroke: #d0d0d0; stroke-opacity: 0.65; stroke-width: 1.2; stroke-linecap: square"/>
     </g>
     <g id="line2d_4">
      <g>
       <use xlink:href="#m9f57a6e4c9" x="97.425539" y="238.110236" style="stroke: #000000; stroke-width: 1.5"/>
      </g>
     </g>
     <g id="text_2">
      <text style="font-size: 15px; font-family: 'Tahoma'; text-anchor: middle" x="97.425539" y="259.007892" transform="rotate(-0 97.425539 259.007892)">3</text>
     </g>
    </g>
    <g id="xtick_3">
     <g id="line2d_5">
      <path d="M 139.575488 238.110236 
L 139.575488 22.677165 
" clip-path="url(#p783a2a324a)" style="fill: none; stroke: #d0d0d0; stroke-opacity: 0.65; stroke-width: 1.2; stroke-linecap: square"/>
     </g>
     <g id="line2d_6">
      <g>
       <use xlink:href="#m9f57a6e4c9" x="139.575488" y="238.110236" style="stroke: #000000; stroke-width: 1.5"/>
      </g>
     </g>
     <g id="text_3">
      <text style="font-size: 15px; font-family: 'Tahoma'; text-anchor: middle" x="139.575488" y="259.007892" transform="rotate(-0 139.575488 259.007892)">6</text>
     </g>
    </g>
    <g id="xtick_4">
     <g id="line2d_7">
      <path d="M 181.725436 238.110236 
L 181.725436 22.677165 
" clip-path="url(#p783a2a324a)" style="fill: none; stroke: #d0d0d0; stroke-opacity: 0.65; stroke-width: 1.2; stroke-linecap: square"/>
     </g>
     <g id="line2d_8">
      <g>
       <use xlink:href="#m9f57a6e4c9" x="181.725436" y="238.110236" style="stroke: #000000; stroke-width: 1.5"/>
      </g>
     </g>
     <g id="text_4">
      <text style="font-size: 15px; font-family: 'Tahoma'; text-anchor: middle" x="181.725436" y="259.007892" transform="rotate(-0 181.725436 259.007892)">9</text>
     </g>
    </g>
    <g id="xtick_5">
     <g id="line2d_9">
      <path d="M 223.875385 238.110236 
L 223.875385 22.677165 
" clip-path="url(#p783a2a324a)" style="fill: none; stroke: #d0d0d0; stroke-opacity: 0.65; stroke-width: 1.2; stroke-linecap: square"/>
     </g>
     <g id="line2d_10">
      <g>
       <use xlink:href="#m9f57a6e4c9" x="223.875385" y="238.110236" style="stroke: #000000; stroke-width: 1.5"/>
      </g>
     </g>
     <g id="text_5">
      <text style="font-size: 15px; font-family: 'Tahoma'; text-anchor: middle" x="223.875385" y="259.007892" transform="rotate(-0 223.875385 259.007892)">12</text>
     </g>
    </g>
    <g id="xtick_6">
     <g id="line2d_11">
      <path d="M 266.025334 238.110236 
L 266.025334 22.677165 
" clip-path="url(#p783a2a324a)" style="fill: none; stroke: #d0d0d0; stroke-opacity: 0.65; stroke-width: 1.2; stroke-linecap: square"/>
     </g>
     <g id="line2d_12">
      <g>
       <use xlink:href="#m9f57a6e4c9" x="266.025334" y="238.110236" style="stroke: #000000; stroke-width: 1.5"/>
      </g>
     </g>
     <g id="text_6">
      <text style="font-size: 15px; font-family: 'Tahoma'; text-anchor: middle" x="266.025334" y="259.007892" transform="rotate(-0 266.025334 259.007892)">15</text>
     </g>
    </g>
    <g id="xtick_7">
     <g id="line2d_13">
      <path d="M 308.175282 238.110236 
L 308.175282 22.677165 
" clip-path="url(#p783a2a324a)" style="fill: none; stroke: #d0d0d0; stroke-opacity: 0.65; stroke-width: 1.2; stroke-linecap: square"/>
     </g>
     <g id="line2d_14">
      <g>
       <use xlink:href="#m9f57a6e4c9" x="308.175282" y="238.110236" style="stroke: #000000; stroke-width: 1.5"/>
      </g>
     </g>
     <g id="text_7">
      <text style="font-size: 15px; font-family: 'Tahoma'; text-anchor: middle" x="308.175282" y="259.007892" transform="rotate(-0 308.175282 259.007892)">18</text>
     </g>
    </g>
    <g id="xtick_8">
     <g id="line2d_15">
      <path d="M 350.325231 238.110236 
L 350.325231 22.677165 
" clip-path="url(#p783a2a324a)" style="fill: none; stroke: #d0d0d0; stroke-opacity: 0.65; stroke-width: 1.2; stroke-linecap: square"/>
     </g>
     <g id="line2d_16">
      <g>
       <use xlink:href="#m9f57a6e4c9" x="350.325231" y="238.110236" style="stroke: #000000; stroke-width: 1.5"/>
      </g>
     </g>
     <g id="text_8">
      <text style="font-size: 15px; font-family: 'Tahoma'; text-anchor: middle" x="350.325231" y="259.007892" transform="rotate(-0 350.325231 259.007892)">21</text>
     </g>
    </g>
    <g id="xtick_9">
     <g id="line2d_17">
      <path d="M 378.425197 238.110236 
L 378.425197 22.677165 
" clip-path="url(#p783a2a324a)" style="fill: none; stroke: #d0d0d0; stroke-opacity: 0.65; stroke-width: 1.2; stroke-linecap: square"/>
     </g>
     <g id="line2d_18">
      <g>
       <use xlink:href="#m9f57a6e4c9" x="378.425197" y="238.110236" style="stroke: #000000; stroke-width: 1.5"/>
      </g>
     </g>
     <g id="text_9">
      <text style="font-size: 15px; font-family: 'Tahoma'; text-anchor: middle" x="378.425197" y="259.007892" transform="rotate(-0 378.425197 259.007892)">23</text>
     </g>
    </g>
    <g id="text_10">
     <text style="font-size: 18px; font-family: 'Tahoma'; text-anchor: middle" x="216.850394" y="279.70383" transform="rotate(-0 216.850394 279.70383)">Hour (local time)</text>
    </g>
   </g>
   <g id="matplotlib.axis_2">
    <g id="ytick_1">
     <g id="line2d_19">
      <path d="M 55.275591 230.313848 
L 378.425197 230.313848 
" clip-path="url(#p783a2a324a)" style="fill: none; stroke: #d0d0d0; stroke-opacity: 0.65; stroke-width: 1.2; stroke-linecap: square"/>
     </g>
     <g id="line2d_20">
      <defs>
       <path id="m96d60bdc2c" d="M 0 0 
L -6 0 
" style="stroke: #000000; stroke-width: 1.5"/>
      </defs>
      <g>
       <use xlink:href="#m96d60bdc2c" x="55.275591" y="230.313848" style="stroke: #000000; stroke-width: 1.5"/>
      </g>
     </g>
     <g id="text_11">
      <text style="font-size: 15px; font-family: 'Tahoma'; text-anchor: end" x="45.775591" y="236.012676" transform="rotate(-0 45.775591 236.012676)">12.5</text>
     </g>
    </g>
    <g id="ytick_2">
     <g id="line2d_21">
      <path d="M 55.275591 193.810982 
L 378.425197 193.810982 
" clip-path="url(#p783a2a324a)" style="fill: none; stroke: #d0d0d0; stroke-opacity: 0.65; stroke-width: 1.2; stroke-linecap: square"/>
     </g>
     <g id="line2d_22">
      <g>
       <use xlink:href="#m96d60bdc2c" x="55.275591" y="193.810982" style="stroke: #000000; stroke-width: 1.5"/>
      </g>
     </g>
     <g id="text_12">
      <text style="font-size: 15px; font-family: 'Tahoma'; text-anchor: end" x="45.775591" y="199.50981" transform="rotate(-0 45.775591 199.50981)">15.0</text>
     </g>
    </g>
    <g id="ytick_3">
     <g id="line2d_23">
      <path d="M 55.275591 157.308116 
L 378.425197 157.308116 
" clip-path="url(#p783a2a324a)" style="fill: none; stroke: #d0d0d0; stroke-opacity: 0.65; stroke-width: 1.2; stroke-linecap: square"/>
     </g>
     <g id="line2d_24">
      <g>
       <use xlink:href="#m96d60bdc2c" x="55.275591" y="157.308116" style="stroke: #000000; stroke-width: 1.5"/>
      </g>
     </g>
     <g id="text_13">
      <text style="font-size: 15px; font-family: 'Tahoma'; text-anchor: end" x="45.775591" y="163.006944" transform="rotate(-0 45.775591 163.006944)">17.5</text>
     </g>
    </g>
    <g id="ytick_4">
     <g id="line2d_25">
      <path d="M 55.275591 120.805249 
L 378.425197 120.805249 
" clip-path="url(#p783a2a324a)" style="fill: none; stroke: #d0d0d0; stroke-opacity: 0.65; stroke-width: 1.2; stroke-linecap: square"/>
     </g>
     <g id="line2d_26">
      <g>
       <use xlink:href="#m96d60bdc2c" x="55.275591" y="120.805249" style="stroke: #000000; stroke-width: 1.5"/>
      </g>
     </g>
     <g id="text_14">
      <text style="font-size: 15px; font-family: 'Tahoma'; text-anchor: end" x="45.775591" y="126.504077" transform="rotate(-0 45.775591 126.504077)">20.0</text>
     </g>
    </g>
    <g id="ytick_5">
     <g id="line2d_27">
      <path d="M 55.275591 84.302383 
L 378.425197 84.302383 
" clip-path="url(#p783a2a324a)" style="fill: none; stroke: #d0d0d0; stroke-opacity: 0.65; stroke-width: 1.2; stroke-linecap: square"/>
     </g>
     <g id="line2d_28">
      <g>
       <use xlink:href="#m96d60bdc2c" x="55.275591" y="84.302383" style="stroke: #000000; stroke-width: 1.5"/>
      </g>
     </g>
     <g id="text_15">
      <text style="font-size: 15px; font-family: 'Tahoma'; text-anchor: end" x="45.775591" y="90.001211" transform="rotate(-0 45.775591 90.001211)">22.5</text>
     </g>
    </g>
    <g id="ytick_6">
     <g id="line2d_29">
      <path d="M 55.275591 47.799517 
L 378.425197 47.799517 
" clip-path="url(#p783a2a324a)" style="fill: none; stroke: #d0d0d0; stroke-opacity: 0.65; stroke-width: 1.2; stroke-linecap: square"/>
     </g>
     <g id="line2d_30">
      <g>
       <use xlink:href="#m96d60bdc2c" x="55.275591" y="47.799517" style="stroke: #000000; stroke-width: 1.5"/>
      </g>
     </g>
     <g id="text_16">
      <text style="font-size: 15px; font-family: 'Tahoma'; text-anchor: end" x="45.775591" y="53.498345" transform="rotate(-0 45.775591 53.498345)">25.0</text>
     </g>
    </g>
    <g id="text_17">
     <text style="font-size: 18px; font-family: 'Tahoma'; text-anchor: middle" x="9.043716" y="130.393701" transform="rotate(-90 9.043716 130.393701)">15 cm air temperature (°C)</text>
    </g>
   </g>
   <g id="text_18">
    <path d="M 181.64996 229.373705 
L 180.274179 229.373705 
L 180.274179 221.191674 
L 181.64996 221.191674 
L 181.64996 229.373705 
z
M 181.746054 219.822924 
L 180.178085 219.822924 
L 180.178085 218.39558 
L 181.746054 218.39558 
L 181.746054 219.822924 
z
M 190.102695 229.373705 
L 188.72457 229.373705 
L 188.72457 224.71433 
Q 188.72457 224.15183 188.66832 223.66433 
Q 188.614413 223.17683 188.46207 222.883861 
Q 188.29332 222.57683 187.99332 222.42683 
Q 187.69332 222.27683 187.173007 222.27683 
Q 186.659726 222.27683 186.113632 222.551049 
Q 185.567538 222.825268 185.04957 223.265893 
L 185.04957 229.373705 
L 183.671445 229.373705 
L 183.671445 221.191674 
L 185.04957 221.191674 
L 185.04957 222.101049 
Q 185.663632 221.550268 186.263632 221.257299 
Q 186.865976 220.96433 187.531601 220.96433 
Q 188.740976 220.96433 189.420663 221.761205 
Q 190.102695 222.555736 190.102695 224.062768 
L 190.102695 229.373705 
z
M 195.288827 229.556518 
Q 194.445077 229.556518 193.741952 229.296361 
Q 193.038827 229.036205 192.534921 228.508861 
Q 192.028671 227.981518 191.749765 227.179955 
Q 191.470859 226.378393 191.470859 225.293236 
Q 191.470859 224.217455 191.75914 223.434643 
Q 192.049765 222.649486 192.534921 222.115111 
Q 193.017734 221.580736 193.737265 221.292455 
Q 194.45914 221.00183 195.288827 221.00183 
Q 195.961484 221.00183 196.587265 221.194018 
Q 197.213046 221.383861 197.705234 221.632299 
L 197.705234 223.17683 
L 197.623202 223.17683 
Q 197.47789 223.052611 197.245859 222.893236 
Q 197.016171 222.731518 196.685702 222.562768 
Q 196.402109 222.415111 196.013046 222.304955 
Q 195.623984 222.194799 195.26539 222.194799 
Q 194.19664 222.194799 193.547421 223.005736 
Q 192.900546 223.81433 192.900546 225.293236 
Q 192.900546 226.744018 193.526327 227.554955 
Q 194.152109 228.363549 195.26539 228.363549 
Q 195.94039 228.363549 196.547421 228.084643 
Q 197.154452 227.805736 197.623202 227.367455 
L 197.705234 227.367455 
L 197.705234 228.911986 
Q 197.498984 229.00808 197.191952 229.144018 
Q 196.884921 229.277611 196.636484 229.343236 
Q 196.284921 229.446361 196.006015 229.500268 
Q 195.727109 229.556518 195.288827 229.556518 
z
M 201.103964 229.373705 
L 199.353183 229.373705 
L 199.353183 227.285424 
L 201.103964 227.285424 
L 201.103964 229.373705 
z
M 210.398105 229.57058 
Q 209.577792 229.57058 208.862949 229.352611 
Q 208.148105 229.132299 207.679355 228.883861 
L 207.679355 227.336986 
L 207.754355 227.336986 
Q 207.930136 227.477611 208.166855 227.646361 
Q 208.405917 227.812768 208.802011 227.99558 
Q 209.153574 228.157299 209.573105 228.281518 
Q 209.99498 228.405736 210.449667 228.405736 
Q 210.777792 228.405736 211.150449 228.330736 
Q 211.525449 228.253393 211.708261 228.136205 
Q 211.966074 227.967455 212.078574 227.777611 
Q 212.191074 227.585424 212.191074 227.205736 
Q 212.191074 226.715893 211.923886 226.467455 
Q 211.656699 226.216674 210.977011 226.047924 
Q 210.712167 225.982299 210.287949 225.89558 
Q 209.86373 225.806518 209.505136 225.703393 
Q 208.567636 225.433861 208.141074 224.866674 
Q 207.716855 224.297143 207.716855 223.493236 
Q 207.716855 222.386986 208.55123 221.690893 
Q 209.387949 220.994799 210.770761 220.994799 
Q 211.452792 220.994799 212.139511 221.163549 
Q 212.828574 221.332299 213.297324 221.587768 
L 213.297324 223.059643 
L 213.224667 223.059643 
Q 212.697324 222.642455 212.048105 222.401049 
Q 211.40123 222.159643 210.742636 222.159643 
Q 210.060605 222.159643 209.591855 222.44558 
Q 209.123105 222.731518 209.123105 223.30808 
Q 209.123105 223.821361 209.402011 224.074486 
Q 209.680917 224.327611 210.29498 224.48933 
Q 210.602011 224.569018 210.979355 224.646361 
Q 211.356699 224.723705 211.773886 224.824486 
Q 212.683261 225.05183 213.140292 225.579174 
Q 213.597324 226.106518 213.597324 227.015893 
Q 213.597324 227.543236 213.38873 228.016674 
Q 213.180136 228.487768 212.777011 228.825268 
Q 212.33873 229.190893 211.785605 229.380736 
Q 211.23248 229.57058 210.398105 229.57058 
z
M 221.611191 225.286205 
Q 221.611191 227.351049 220.615097 228.476049 
Q 219.619003 229.601049 217.964316 229.601049 
Q 216.258066 229.601049 215.278378 228.440893 
Q 214.301035 227.278393 214.301035 225.286205 
Q 214.301035 223.235424 215.308847 222.101049 
Q 216.31666 220.96433 217.964316 220.96433 
Q 219.619003 220.96433 220.615097 222.096361 
Q 221.611191 223.228393 221.611191 225.286205 
z
M 220.190878 225.286205 
Q 220.190878 223.697143 219.611972 222.926049 
Q 219.033066 222.152611 217.964316 222.152611 
Q 216.886191 222.152611 216.302597 222.926049 
Q 215.721347 223.697143 215.721347 225.286205 
Q 215.721347 226.823705 216.302597 227.62058 
Q 216.886191 228.415111 217.964316 228.415111 
Q 219.026035 228.415111 219.607285 227.634643 
Q 220.190878 226.854174 220.190878 225.286205 
z
M 224.430722 229.373705 
L 223.054941 229.373705 
L 223.054941 217.976049 
L 224.430722 217.976049 
L 224.430722 229.373705 
z
M 231.022519 227.360424 
L 231.022519 225.08933 
Q 230.532675 225.133861 229.780331 225.211205 
Q 229.030331 225.286205 228.568613 225.42683 
Q 228.020175 225.593236 227.661581 225.942455 
Q 227.302988 226.28933 227.302988 226.912768 
Q 227.302988 227.615893 227.696738 227.974486 
Q 228.092831 228.33308 228.85455 228.33308 
Q 229.506113 228.33308 230.033456 228.05183 
Q 230.5608 227.77058 231.022519 227.360424 
z
M 231.022519 228.50183 
Q 230.853769 228.626049 230.572519 228.851049 
Q 230.291269 229.073705 230.026425 229.204955 
Q 229.6608 229.394799 229.318613 229.497924 
Q 228.978769 229.601049 228.364706 229.601049 
Q 227.858456 229.601049 227.403769 229.408861 
Q 226.951425 229.219018 226.606894 228.874486 
Q 226.276425 228.53933 226.077206 228.044799 
Q 225.880331 227.550268 225.880331 226.999486 
Q 225.880331 226.151049 226.238925 225.555736 
Q 226.599863 224.95808 227.375644 224.606518 
Q 228.064706 224.290111 229.002206 224.17058 
Q 229.939706 224.048705 231.022519 223.990111 
L 231.022519 223.727611 
Q 231.022519 223.242455 230.874863 222.947143 
Q 230.72955 222.649486 230.46705 222.487768 
Q 230.202206 222.321361 229.820175 222.267455 
Q 229.440488 222.211205 229.037363 222.211205 
Q 228.561581 222.211205 227.91705 222.354174 
Q 227.272519 222.497143 226.627988 222.766674 
L 226.5483 222.766674 
L 226.5483 221.367455 
Q 226.927988 221.257299 227.638144 221.126049 
Q 228.3483 220.994799 229.044394 220.994799 
Q 229.888144 220.994799 230.464706 221.126049 
Q 231.043613 221.257299 231.505331 221.60183 
Q 231.952988 221.93933 232.170956 222.473705 
Q 232.391269 223.00808 232.391269 223.77683 
L 232.391269 229.373705 
L 231.022519 229.373705 
L 231.022519 228.50183 
z
M 238.661679 222.672924 
L 238.589023 222.672924 
Q 238.434335 222.628393 238.260898 222.616674 
Q 238.089804 222.604955 237.848398 222.604955 
Q 237.292929 222.604955 236.742148 222.848705 
Q 236.19371 223.090111 235.703867 223.565893 
L 235.703867 229.373705 
L 234.325742 229.373705 
L 234.325742 221.191674 
L 235.703867 221.191674 
L 235.703867 222.40808 
Q 236.45621 221.742455 237.016367 221.468236 
Q 237.578867 221.191674 238.10621 221.191674 
Q 238.317148 221.191674 238.422617 221.203393 
Q 238.530429 221.215111 238.661679 221.236205 
L 238.661679 222.672924 
z
M 248.754452 222.672924 
L 248.681796 222.672924 
Q 248.527109 222.628393 248.353671 222.616674 
Q 248.182577 222.604955 247.941171 222.604955 
Q 247.385702 222.604955 246.834921 222.848705 
Q 246.286484 223.090111 245.79664 223.565893 
L 245.79664 229.373705 
L 244.418515 229.373705 
L 244.418515 221.191674 
L 245.79664 221.191674 
L 245.79664 222.40808 
Q 246.548984 221.742455 247.10914 221.468236 
Q 247.67164 221.191674 248.198984 221.191674 
Q 248.409921 221.191674 248.51539 221.203393 
Q 248.623202 221.215111 248.754452 221.236205 
L 248.754452 222.672924 
z
M 254.131601 227.360424 
L 254.131601 225.08933 
Q 253.641757 225.133861 252.889413 225.211205 
Q 252.139413 225.286205 251.677695 225.42683 
Q 251.129257 225.593236 250.770663 225.942455 
Q 250.41207 226.28933 250.41207 226.912768 
Q 250.41207 227.615893 250.80582 227.974486 
Q 251.201913 228.33308 251.963632 228.33308 
Q 252.615195 228.33308 253.142538 228.05183 
Q 253.669882 227.77058 254.131601 227.360424 
z
M 254.131601 228.50183 
Q 253.962851 228.626049 253.681601 228.851049 
Q 253.400351 229.073705 253.135507 229.204955 
Q 252.769882 229.394799 252.427695 229.497924 
Q 252.087851 229.601049 251.473788 229.601049 
Q 250.967538 229.601049 250.512851 229.408861 
Q 250.060507 229.219018 249.715976 228.874486 
Q 249.385507 228.53933 249.186288 228.044799 
Q 248.989413 227.550268 248.989413 226.999486 
Q 248.989413 226.151049 249.348007 225.555736 
Q 249.708945 224.95808 250.484726 224.606518 
Q 251.173788 224.290111 252.111288 224.17058 
Q 253.048788 224.048705 254.131601 223.990111 
L 254.131601 223.727611 
Q 254.131601 223.242455 253.983945 222.947143 
Q 253.838632 222.649486 253.576132 222.487768 
Q 253.311288 222.321361 252.929257 222.267455 
Q 252.54957 222.211205 252.146445 222.211205 
Q 251.670663 222.211205 251.026132 222.354174 
Q 250.381601 222.497143 249.73707 222.766674 
L 249.657382 222.766674 
L 249.657382 221.367455 
Q 250.03707 221.257299 250.747226 221.126049 
Q 251.457382 220.994799 252.153476 220.994799 
Q 252.997226 220.994799 253.573788 221.126049 
Q 254.152695 221.257299 254.614413 221.60183 
Q 255.06207 221.93933 255.280038 222.473705 
Q 255.500351 223.00808 255.500351 223.77683 
L 255.500351 229.373705 
L 254.131601 229.373705 
L 254.131601 228.50183 
z
M 263.734824 229.373705 
L 262.356699 229.373705 
L 262.356699 228.53933 
Q 262.035605 228.808861 261.80123 228.984643 
Q 261.566855 229.160424 261.250449 229.30808 
Q 260.95748 229.446361 260.641074 229.523705 
Q 260.327011 229.601049 259.909824 229.601049 
Q 259.244199 229.601049 258.677011 229.322143 
Q 258.109824 229.043236 257.71373 228.508861 
Q 257.310605 227.967455 257.090292 227.172924 
Q 256.86998 226.378393 256.86998 225.344799 
Q 256.86998 224.269018 257.148886 223.481518 
Q 257.427792 222.694018 257.917636 222.10808 
Q 258.365292 221.573705 258.998105 221.269018 
Q 259.633261 220.96433 260.327011 220.96433 
Q 260.943417 220.96433 261.395761 221.100268 
Q 261.850449 221.236205 262.356699 221.522143 
L 262.356699 217.976049 
L 263.734824 217.976049 
L 263.734824 229.373705 
z
M 262.356699 227.381518 
L 262.356699 222.663549 
Q 261.843417 222.415111 261.435605 222.321361 
Q 261.030136 222.225268 260.554355 222.225268 
Q 259.492636 222.225268 258.892636 223.019799 
Q 258.292636 223.81433 258.292636 225.316674 
Q 258.292636 226.75808 258.752011 227.524486 
Q 259.21373 228.288549 260.233261 228.288549 
Q 260.774667 228.288549 261.323105 228.044799 
Q 261.873886 227.798705 262.356699 227.381518 
z
M 267.872714 229.373705 
L 266.121933 229.373705 
L 266.121933 227.285424 
L 267.872714 227.285424 
L 267.872714 229.373705 
z
M 279.159042 232.392455 
L 277.480917 232.392455 
Q 276.205917 230.876049 275.477011 229.183861 
Q 274.750449 227.491674 274.750449 225.18308 
Q 274.750449 222.928393 275.46998 221.210424 
Q 276.191855 219.492455 277.480917 217.976049 
L 279.159042 217.976049 
L 279.159042 218.051049 
Q 278.566074 218.585424 278.027011 219.286205 
Q 277.487949 219.984643 277.02623 220.915111 
Q 276.587949 221.815111 276.31373 222.900268 
Q 276.039511 223.98308 276.039511 225.18308 
Q 276.039511 226.436986 276.306699 227.477611 
Q 276.573886 228.515893 277.02623 229.453393 
Q 277.466855 230.355736 278.029355 231.084643 
Q 278.594199 231.813549 279.159042 232.317455 
L 279.159042 232.392455 
z
M 293.03873 218.468236 
L 290.298886 229.373705 
L 288.665292 229.373705 
L 286.445761 220.319799 
L 284.277792 229.373705 
L 282.681699 229.373705 
L 279.890292 218.468236 
L 281.378574 218.468236 
L 283.574667 227.536205 
L 285.756699 218.468236 
L 287.230917 218.468236 
L 289.434042 227.622924 
L 291.616074 218.468236 
L 293.03873 218.468236 
z
M 298.560312 217.976049 
L 294.289999 231.747924 
L 293.052499 231.747924 
L 297.301718 217.976049 
L 298.560312 217.976049 
z
M 309.247519 229.373705 
L 309.247519 224.641674 
Q 309.247519 224.079174 309.202988 223.598705 
Q 309.158456 223.118236 309.020175 222.848705 
Q 308.872519 222.555736 308.600644 222.417455 
Q 308.331113 222.27683 307.869394 222.27683 
Q 307.445175 222.27683 306.957675 222.536986 
Q 306.470175 222.797143 305.949863 223.286986 
Q 305.956894 223.411205 305.968613 223.584643 
Q 305.980331 223.755736 305.980331 223.990111 
L 305.980331 229.373705 
L 304.602206 229.373705 
L 304.602206 224.641674 
Q 304.602206 224.079174 304.557675 223.598705 
Q 304.515488 223.118236 304.374863 222.848705 
Q 304.22955 222.555736 303.957675 222.417455 
Q 303.688144 222.27683 303.226425 222.27683 
Q 302.778769 222.27683 302.286581 222.555736 
Q 301.796738 222.832299 301.337363 223.265893 
L 301.337363 229.373705 
L 299.959238 229.373705 
L 299.959238 221.191674 
L 301.337363 221.191674 
L 301.337363 222.101049 
Q 301.878769 221.559643 302.408456 221.261986 
Q 302.940488 220.96433 303.577988 220.96433 
Q 304.302206 220.96433 304.862363 221.294799 
Q 305.422519 221.625268 305.715488 222.379955 
Q 306.338925 221.683861 306.931894 221.325268 
Q 307.524863 220.96433 308.220956 220.96433 
Q 308.7483 220.96433 309.17955 221.130736 
Q 309.613144 221.294799 309.934238 221.660424 
Q 310.264706 222.035424 310.442831 222.593236 
Q 310.6233 223.148705 310.6233 223.990111 
L 310.6233 229.373705 
L 309.247519 229.373705 
z
M 317.902988 225.227611 
L 312.915488 225.227611 
L 312.915488 224.11433 
Q 313.480331 223.68308 313.995956 223.284643 
Q 314.511581 222.883861 314.835019 222.569799 
Q 315.6108 221.822143 315.852206 221.402611 
Q 316.093613 220.980736 316.093613 220.387768 
Q 316.093613 219.881518 315.77955 219.607299 
Q 315.465488 219.33308 314.907675 219.33308 
Q 314.403769 219.33308 313.8858 219.553393 
Q 313.370175 219.771361 313.070175 220.005736 
L 312.960019 220.005736 
L 312.960019 218.69558 
Q 313.421738 218.496361 313.981894 218.372143 
Q 314.54205 218.247924 315.083456 218.247924 
Q 316.227206 218.247924 316.838925 218.824486 
Q 317.450644 219.398705 317.450644 220.298705 
Q 317.450644 220.922143 317.160019 221.496361 
Q 316.871738 222.07058 316.07955 222.780736 
Q 315.699863 223.118236 315.193613 223.49558 
Q 314.687363 223.872924 314.293613 224.172924 
L 317.902988 224.172924 
L 317.902988 225.227611 
z
M 323.910605 225.18308 
Q 323.910605 227.447143 323.184042 229.162768 
Q 322.459824 230.876049 321.177792 232.392455 
L 319.499667 232.392455 
L 319.499667 232.317455 
Q 320.064511 231.813549 320.634042 231.077611 
Q 321.205917 230.341674 321.63248 229.453393 
Q 322.084824 228.508861 322.352011 227.458861 
Q 322.621542 226.406518 322.621542 225.18308 
Q 322.621542 223.976049 322.349667 222.900268 
Q 322.077792 221.822143 321.63248 220.915111 
Q 321.184824 220.005736 320.61998 219.281518 
Q 320.05748 218.554955 319.499667 218.051049 
L 319.499667 217.976049 
L 321.177792 217.976049 
Q 322.452792 219.492455 323.181699 221.201049 
Q 323.910605 222.907299 323.910605 225.18308 
z
" style="opacity: 0.75; stroke: #ffffff; stroke-width: 2"/>
    <path d="M 181.64996 229.373705 
L 180.274179 229.373705 
L 180.274179 221.191674 
L 181.64996 221.191674 
L 181.64996 229.373705 
z
M 181.746054 219.822924 
L 180.178085 219.822924 
L 180.178085 218.39558 
L 181.746054 218.39558 
L 181.746054 219.822924 
z
M 190.102695 229.373705 
L 188.72457 229.373705 
L 188.72457 224.71433 
Q 188.72457 224.15183 188.66832 223.66433 
Q 188.614413 223.17683 188.46207 222.883861 
Q 188.29332 222.57683 187.99332 222.42683 
Q 187.69332 222.27683 187.173007 222.27683 
Q 186.659726 222.27683 186.113632 222.551049 
Q 185.567538 222.825268 185.04957 223.265893 
L 185.04957 229.373705 
L 183.671445 229.373705 
L 183.671445 221.191674 
L 185.04957 221.191674 
L 185.04957 222.101049 
Q 185.663632 221.550268 186.263632 221.257299 
Q 186.865976 220.96433 187.531601 220.96433 
Q 188.740976 220.96433 189.420663 221.761205 
Q 190.102695 222.555736 190.102695 224.062768 
L 190.102695 229.373705 
z
M 195.288827 229.556518 
Q 194.445077 229.556518 193.741952 229.296361 
Q 193.038827 229.036205 192.534921 228.508861 
Q 192.028671 227.981518 191.749765 227.179955 
Q 191.470859 226.378393 191.470859 225.293236 
Q 191.470859 224.217455 191.75914 223.434643 
Q 192.049765 222.649486 192.534921 222.115111 
Q 193.017734 221.580736 193.737265 221.292455 
Q 194.45914 221.00183 195.288827 221.00183 
Q 195.961484 221.00183 196.587265 221.194018 
Q 197.213046 221.383861 197.705234 221.632299 
L 197.705234 223.17683 
L 197.623202 223.17683 
Q 197.47789 223.052611 197.245859 222.893236 
Q 197.016171 222.731518 196.685702 222.562768 
Q 196.402109 222.415111 196.013046 222.304955 
Q 195.623984 222.194799 195.26539 222.194799 
Q 194.19664 222.194799 193.547421 223.005736 
Q 192.900546 223.81433 192.900546 225.293236 
Q 192.900546 226.744018 193.526327 227.554955 
Q 194.152109 228.363549 195.26539 228.363549 
Q 195.94039 228.363549 196.547421 228.084643 
Q 197.154452 227.805736 197.623202 227.367455 
L 197.705234 227.367455 
L 197.705234 228.911986 
Q 197.498984 229.00808 197.191952 229.144018 
Q 196.884921 229.277611 196.636484 229.343236 
Q 196.284921 229.446361 196.006015 229.500268 
Q 195.727109 229.556518 195.288827 229.556518 
z
M 201.103964 229.373705 
L 199.353183 229.373705 
L 199.353183 227.285424 
L 201.103964 227.285424 
L 201.103964 229.373705 
z
M 210.398105 229.57058 
Q 209.577792 229.57058 208.862949 229.352611 
Q 208.148105 229.132299 207.679355 228.883861 
L 207.679355 227.336986 
L 207.754355 227.336986 
Q 207.930136 227.477611 208.166855 227.646361 
Q 208.405917 227.812768 208.802011 227.99558 
Q 209.153574 228.157299 209.573105 228.281518 
Q 209.99498 228.405736 210.449667 228.405736 
Q 210.777792 228.405736 211.150449 228.330736 
Q 211.525449 228.253393 211.708261 228.136205 
Q 211.966074 227.967455 212.078574 227.777611 
Q 212.191074 227.585424 212.191074 227.205736 
Q 212.191074 226.715893 211.923886 226.467455 
Q 211.656699 226.216674 210.977011 226.047924 
Q 210.712167 225.982299 210.287949 225.89558 
Q 209.86373 225.806518 209.505136 225.703393 
Q 208.567636 225.433861 208.141074 224.866674 
Q 207.716855 224.297143 207.716855 223.493236 
Q 207.716855 222.386986 208.55123 221.690893 
Q 209.387949 220.994799 210.770761 220.994799 
Q 211.452792 220.994799 212.139511 221.163549 
Q 212.828574 221.332299 213.297324 221.587768 
L 213.297324 223.059643 
L 213.224667 223.059643 
Q 212.697324 222.642455 212.048105 222.401049 
Q 211.40123 222.159643 210.742636 222.159643 
Q 210.060605 222.159643 209.591855 222.44558 
Q 209.123105 222.731518 209.123105 223.30808 
Q 209.123105 223.821361 209.402011 224.074486 
Q 209.680917 224.327611 210.29498 224.48933 
Q 210.602011 224.569018 210.979355 224.646361 
Q 211.356699 224.723705 211.773886 224.824486 
Q 212.683261 225.05183 213.140292 225.579174 
Q 213.597324 226.106518 213.597324 227.015893 
Q 213.597324 227.543236 213.38873 228.016674 
Q 213.180136 228.487768 212.777011 228.825268 
Q 212.33873 229.190893 211.785605 229.380736 
Q 211.23248 229.57058 210.398105 229.57058 
z
M 221.611191 225.286205 
Q 221.611191 227.351049 220.615097 228.476049 
Q 219.619003 229.601049 217.964316 229.601049 
Q 216.258066 229.601049 215.278378 228.440893 
Q 214.301035 227.278393 214.301035 225.286205 
Q 214.301035 223.235424 215.308847 222.101049 
Q 216.31666 220.96433 217.964316 220.96433 
Q 219.619003 220.96433 220.615097 222.096361 
Q 221.611191 223.228393 221.611191 225.286205 
z
M 220.190878 225.286205 
Q 220.190878 223.697143 219.611972 222.926049 
Q 219.033066 222.152611 217.964316 222.152611 
Q 216.886191 222.152611 216.302597 222.926049 
Q 215.721347 223.697143 215.721347 225.286205 
Q 215.721347 226.823705 216.302597 227.62058 
Q 216.886191 228.415111 217.964316 228.415111 
Q 219.026035 228.415111 219.607285 227.634643 
Q 220.190878 226.854174 220.190878 225.286205 
z
M 224.430722 229.373705 
L 223.054941 229.373705 
L 223.054941 217.976049 
L 224.430722 217.976049 
L 224.430722 229.373705 
z
M 231.022519 227.360424 
L 231.022519 225.08933 
Q 230.532675 225.133861 229.780331 225.211205 
Q 229.030331 225.286205 228.568613 225.42683 
Q 228.020175 225.593236 227.661581 225.942455 
Q 227.302988 226.28933 227.302988 226.912768 
Q 227.302988 227.615893 227.696738 227.974486 
Q 228.092831 228.33308 228.85455 228.33308 
Q 229.506113 228.33308 230.033456 228.05183 
Q 230.5608 227.77058 231.022519 227.360424 
z
M 231.022519 228.50183 
Q 230.853769 228.626049 230.572519 228.851049 
Q 230.291269 229.073705 230.026425 229.204955 
Q 229.6608 229.394799 229.318613 229.497924 
Q 228.978769 229.601049 228.364706 229.601049 
Q 227.858456 229.601049 227.403769 229.408861 
Q 226.951425 229.219018 226.606894 228.874486 
Q 226.276425 228.53933 226.077206 228.044799 
Q 225.880331 227.550268 225.880331 226.999486 
Q 225.880331 226.151049 226.238925 225.555736 
Q 226.599863 224.95808 227.375644 224.606518 
Q 228.064706 224.290111 229.002206 224.17058 
Q 229.939706 224.048705 231.022519 223.990111 
L 231.022519 223.727611 
Q 231.022519 223.242455 230.874863 222.947143 
Q 230.72955 222.649486 230.46705 222.487768 
Q 230.202206 222.321361 229.820175 222.267455 
Q 229.440488 222.211205 229.037363 222.211205 
Q 228.561581 222.211205 227.91705 222.354174 
Q 227.272519 222.497143 226.627988 222.766674 
L 226.5483 222.766674 
L 226.5483 221.367455 
Q 226.927988 221.257299 227.638144 221.126049 
Q 228.3483 220.994799 229.044394 220.994799 
Q 229.888144 220.994799 230.464706 221.126049 
Q 231.043613 221.257299 231.505331 221.60183 
Q 231.952988 221.93933 232.170956 222.473705 
Q 232.391269 223.00808 232.391269 223.77683 
L 232.391269 229.373705 
L 231.022519 229.373705 
L 231.022519 228.50183 
z
M 238.661679 222.672924 
L 238.589023 222.672924 
Q 238.434335 222.628393 238.260898 222.616674 
Q 238.089804 222.604955 237.848398 222.604955 
Q 237.292929 222.604955 236.742148 222.848705 
Q 236.19371 223.090111 235.703867 223.565893 
L 235.703867 229.373705 
L 234.325742 229.373705 
L 234.325742 221.191674 
L 235.703867 221.191674 
L 235.703867 222.40808 
Q 236.45621 221.742455 237.016367 221.468236 
Q 237.578867 221.191674 238.10621 221.191674 
Q 238.317148 221.191674 238.422617 221.203393 
Q 238.530429 221.215111 238.661679 221.236205 
L 238.661679 222.672924 
z
M 248.754452 222.672924 
L 248.681796 222.672924 
Q 248.527109 222.628393 248.353671 222.616674 
Q 248.182577 222.604955 247.941171 222.604955 
Q 247.385702 222.604955 246.834921 222.848705 
Q 246.286484 223.090111 245.79664 223.565893 
L 245.79664 229.373705 
L 244.418515 229.373705 
L 244.418515 221.191674 
L 245.79664 221.191674 
L 245.79664 222.40808 
Q 246.548984 221.742455 247.10914 221.468236 
Q 247.67164 221.191674 248.198984 221.191674 
Q 248.409921 221.191674 248.51539 221.203393 
Q 248.623202 221.215111 248.754452 221.236205 
L 248.754452 222.672924 
z
M 254.131601 227.360424 
L 254.131601 225.08933 
Q 253.641757 225.133861 252.889413 225.211205 
Q 252.139413 225.286205 251.677695 225.42683 
Q 251.129257 225.593236 250.770663 225.942455 
Q 250.41207 226.28933 250.41207 226.912768 
Q 250.41207 227.615893 250.80582 227.974486 
Q 251.201913 228.33308 251.963632 228.33308 
Q 252.615195 228.33308 253.142538 228.05183 
Q 253.669882 227.77058 254.131601 227.360424 
z
M 254.131601 228.50183 
Q 253.962851 228.626049 253.681601 228.851049 
Q 253.400351 229.073705 253.135507 229.204955 
Q 252.769882 229.394799 252.427695 229.497924 
Q 252.087851 229.601049 251.473788 229.601049 
Q 250.967538 229.601049 250.512851 229.408861 
Q 250.060507 229.219018 249.715976 228.874486 
Q 249.385507 228.53933 249.186288 228.044799 
Q 248.989413 227.550268 248.989413 226.999486 
Q 248.989413 226.151049 249.348007 225.555736 
Q 249.708945 224.95808 250.484726 224.606518 
Q 251.173788 224.290111 252.111288 224.17058 
Q 253.048788 224.048705 254.131601 223.990111 
L 254.131601 223.727611 
Q 254.131601 223.242455 253.983945 222.947143 
Q 253.838632 222.649486 253.576132 222.487768 
Q 253.311288 222.321361 252.929257 222.267455 
Q 252.54957 222.211205 252.146445 222.211205 
Q 251.670663 222.211205 251.026132 222.354174 
Q 250.381601 222.497143 249.73707 222.766674 
L 249.657382 222.766674 
L 249.657382 221.367455 
Q 250.03707 221.257299 250.747226 221.126049 
Q 251.457382 220.994799 252.153476 220.994799 
Q 252.997226 220.994799 253.573788 221.126049 
Q 254.152695 221.257299 254.614413 221.60183 
Q 255.06207 221.93933 255.280038 222.473705 
Q 255.500351 223.00808 255.500351 223.77683 
L 255.500351 229.373705 
L 254.131601 229.373705 
L 254.131601 228.50183 
z
M 263.734824 229.373705 
L 262.356699 229.373705 
L 262.356699 228.53933 
Q 262.035605 228.808861 261.80123 228.984643 
Q 261.566855 229.160424 261.250449 229.30808 
Q 260.95748 229.446361 260.641074 229.523705 
Q 260.327011 229.601049 259.909824 229.601049 
Q 259.244199 229.601049 258.677011 229.322143 
Q 258.109824 229.043236 257.71373 228.508861 
Q 257.310605 227.967455 257.090292 227.172924 
Q 256.86998 226.378393 256.86998 225.344799 
Q 256.86998 224.269018 257.148886 223.481518 
Q 257.427792 222.694018 257.917636 222.10808 
Q 258.365292 221.573705 258.998105 221.269018 
Q 259.633261 220.96433 260.327011 220.96433 
Q 260.943417 220.96433 261.395761 221.100268 
Q 261.850449 221.236205 262.356699 221.522143 
L 262.356699 217.976049 
L 263.734824 217.976049 
L 263.734824 229.373705 
z
M 262.356699 227.381518 
L 262.356699 222.663549 
Q 261.843417 222.415111 261.435605 222.321361 
Q 261.030136 222.225268 260.554355 222.225268 
Q 259.492636 222.225268 258.892636 223.019799 
Q 258.292636 223.81433 258.292636 225.316674 
Q 258.292636 226.75808 258.752011 227.524486 
Q 259.21373 228.288549 260.233261 228.288549 
Q 260.774667 228.288549 261.323105 228.044799 
Q 261.873886 227.798705 262.356699 227.381518 
z
M 267.872714 229.373705 
L 266.121933 229.373705 
L 266.121933 227.285424 
L 267.872714 227.285424 
L 267.872714 229.373705 
z
M 279.159042 232.392455 
L 277.480917 232.392455 
Q 276.205917 230.876049 275.477011 229.183861 
Q 274.750449 227.491674 274.750449 225.18308 
Q 274.750449 222.928393 275.46998 221.210424 
Q 276.191855 219.492455 277.480917 217.976049 
L 279.159042 217.976049 
L 279.159042 218.051049 
Q 278.566074 218.585424 278.027011 219.286205 
Q 277.487949 219.984643 277.02623 220.915111 
Q 276.587949 221.815111 276.31373 222.900268 
Q 276.039511 223.98308 276.039511 225.18308 
Q 276.039511 226.436986 276.306699 227.477611 
Q 276.573886 228.515893 277.02623 229.453393 
Q 277.466855 230.355736 278.029355 231.084643 
Q 278.594199 231.813549 279.159042 232.317455 
L 279.159042 232.392455 
z
M 293.03873 218.468236 
L 290.298886 229.373705 
L 288.665292 229.373705 
L 286.445761 220.319799 
L 284.277792 229.373705 
L 282.681699 229.373705 
L 279.890292 218.468236 
L 281.378574 218.468236 
L 283.574667 227.536205 
L 285.756699 218.468236 
L 287.230917 218.468236 
L 289.434042 227.622924 
L 291.616074 218.468236 
L 293.03873 218.468236 
z
M 298.560312 217.976049 
L 294.289999 231.747924 
L 293.052499 231.747924 
L 297.301718 217.976049 
L 298.560312 217.976049 
z
M 309.247519 229.373705 
L 309.247519 224.641674 
Q 309.247519 224.079174 309.202988 223.598705 
Q 309.158456 223.118236 309.020175 222.848705 
Q 308.872519 222.555736 308.600644 222.417455 
Q 308.331113 222.27683 307.869394 222.27683 
Q 307.445175 222.27683 306.957675 222.536986 
Q 306.470175 222.797143 305.949863 223.286986 
Q 305.956894 223.411205 305.968613 223.584643 
Q 305.980331 223.755736 305.980331 223.990111 
L 305.980331 229.373705 
L 304.602206 229.373705 
L 304.602206 224.641674 
Q 304.602206 224.079174 304.557675 223.598705 
Q 304.515488 223.118236 304.374863 222.848705 
Q 304.22955 222.555736 303.957675 222.417455 
Q 303.688144 222.27683 303.226425 222.27683 
Q 302.778769 222.27683 302.286581 222.555736 
Q 301.796738 222.832299 301.337363 223.265893 
L 301.337363 229.373705 
L 299.959238 229.373705 
L 299.959238 221.191674 
L 301.337363 221.191674 
L 301.337363 222.101049 
Q 301.878769 221.559643 302.408456 221.261986 
Q 302.940488 220.96433 303.577988 220.96433 
Q 304.302206 220.96433 304.862363 221.294799 
Q 305.422519 221.625268 305.715488 222.379955 
Q 306.338925 221.683861 306.931894 221.325268 
Q 307.524863 220.96433 308.220956 220.96433 
Q 308.7483 220.96433 309.17955 221.130736 
Q 309.613144 221.294799 309.934238 221.660424 
Q 310.264706 222.035424 310.442831 222.593236 
Q 310.6233 223.148705 310.6233 223.990111 
L 310.6233 229.373705 
L 309.247519 229.373705 
z
M 317.902988 225.227611 
L 312.915488 225.227611 
L 312.915488 224.11433 
Q 313.480331 223.68308 313.995956 223.284643 
Q 314.511581 222.883861 314.835019 222.569799 
Q 315.6108 221.822143 315.852206 221.402611 
Q 316.093613 220.980736 316.093613 220.387768 
Q 316.093613 219.881518 315.77955 219.607299 
Q 315.465488 219.33308 314.907675 219.33308 
Q 314.403769 219.33308 313.8858 219.553393 
Q 313.370175 219.771361 313.070175 220.005736 
L 312.960019 220.005736 
L 312.960019 218.69558 
Q 313.421738 218.496361 313.981894 218.372143 
Q 314.54205 218.247924 315.083456 218.247924 
Q 316.227206 218.247924 316.838925 218.824486 
Q 317.450644 219.398705 317.450644 220.298705 
Q 317.450644 220.922143 317.160019 221.496361 
Q 316.871738 222.07058 316.07955 222.780736 
Q 315.699863 223.118236 315.193613 223.49558 
Q 314.687363 223.872924 314.293613 224.172924 
L 317.902988 224.172924 
L 317.902988 225.227611 
z
M 323.910605 225.18308 
Q 323.910605 227.447143 323.184042 229.162768 
Q 322.459824 230.876049 321.177792 232.392455 
L 319.499667 232.392455 
L 319.499667 232.317455 
Q 320.064511 231.813549 320.634042 231.077611 
Q 321.205917 230.341674 321.63248 229.453393 
Q 322.084824 228.508861 322.352011 227.458861 
Q 322.621542 226.406518 322.621542 225.18308 
Q 322.621542 223.976049 322.349667 222.900268 
Q 322.077792 221.822143 321.63248 220.915111 
Q 321.184824 220.005736 320.61998 219.281518 
Q 320.05748 218.554955 319.499667 218.051049 
L 319.499667 217.976049 
L 321.177792 217.976049 
Q 322.452792 219.492455 323.181699 221.201049 
Q 323.910605 222.907299 323.910605 225.18308 
z
" style="opacity: 0.5"/>
   </g>
   <g id="patch_3">
    <path d="M 55.275591 238.110236 
L 55.275591 22.677165 
" style="fill: none; stroke: #000000; stroke-width: 1.5; stroke-linejoin: miter; stroke-linecap: square"/>
   </g>
   <g id="patch_4">
    <path d="M 55.275591 238.110236 
L 378.425197 238.110236 
" style="fill: none; stroke: #000000; stroke-width: 1.5; stroke-linejoin: miter; stroke-linecap: square"/>
   </g>
   <g id="FillBetweenPolyCollection_2">
    <defs>
     <path id="mc294789782" d="M 55.275591 -144.87055 
L 55.275591 -67.929465 
L 69.325573 -62.351166 
L 83.375556 -58.250214 
L 97.425539 -54.874713 
L 111.475522 -53.333333 
L 125.525505 -56.792798 
L 139.575488 -66.185336 
L 153.625471 -80.527677 
L 167.675454 -92.150537 
L 181.725436 -101.342933 
L 195.775419 -110.172175 
L 209.825402 -120.670149 
L 223.875385 -128.761001 
L 237.925368 -133.152958 
L 251.975351 -137.731928 
L 266.025334 -140.675073 
L 280.075317 -137.752207 
L 294.1253 -133.189717 
L 308.175282 -128.699301 
L 322.225265 -120.711742 
L 336.275248 -111.673183 
L 350.325231 -98.951355 
L 364.375214 -85.629408 
L 378.425197 -75.238316 
L 378.425197 -151.187526 
L 378.425197 -151.187526 
L 364.375214 -160.158959 
L 350.325231 -174.887088 
L 336.275248 -191.42566 
L 322.225265 -206.831538 
L 308.175282 -222.577218 
L 294.1253 -236.124533 
L 280.075317 -243.456241 
L 266.025334 -250.685378 
L 251.975351 -252.48893 
L 237.925368 -252.808399 
L 223.875385 -245.431482 
L 209.825402 -230.821969 
L 195.775419 -219.149076 
L 181.725436 -200.350893 
L 167.675454 -174.518183 
L 153.625471 -152.358287 
L 139.575488 -136.563199 
L 125.525505 -130.479862 
L 111.475522 -131.569604 
L 97.425539 -133.968973 
L 83.375556 -137.007755 
L 69.325573 -140.638654 
L 55.275591 -144.87055 
z
"/>
    </defs>
    <g clip-path="url(#p783a2a324a)">
     <use xlink:href="#mc294789782" x="0" y="283.464567" style="fill: #bbccee; fill-opacity: 0.7"/>
    </g>
   </g>
   <g id="line2d_31">
    <path d="M 55.275591 177.064559 
L 69.325573 181.969657 
L 83.375556 185.835583 
L 97.425539 189.042724 
L 111.475522 191.013098 
L 125.525505 189.828237 
L 139.575488 182.090299 
L 153.625471 167.021585 
L 167.675454 150.130207 
L 181.725436 132.617654 
L 195.775419 118.803941 
L 209.825402 107.718508 
L 223.875385 96.368325 
L 237.925368 90.483888 
L 251.975351 88.354138 
L 266.025334 87.784342 
L 280.075317 92.860343 
L 294.1253 98.807442 
L 308.175282 107.826308 
L 322.225265 119.692927 
L 336.275248 131.915146 
L 350.325231 146.545346 
L 364.375214 160.570384 
L 378.425197 170.251646 
" clip-path="url(#p783a2a324a)" style="fill: none; stroke: #004488; stroke-width: 2.4; stroke-linecap: square"/>
   </g>
   <g id="legend_1">
    <g id="patch_5">
     <path d="M 297.980666 58.093572 
L 370.925197 58.093572 
L 370.925197 30.177165 
L 297.980666 30.177165 
z
" style="fill: #ffffff; opacity: 0.97; stroke: #b8b8b8; stroke-linejoin: miter"/>
    </g>
    <g id="patch_6">
     <path d="M 304.730666 48.324822 
L 327.230666 48.324822 
L 327.230666 37.824822 
L 304.730666 37.824822 
z
" style="fill: #bbccee"/>
    </g>
    <g id="text_19">
     <text style="font-size: 15px; font-family: 'Tahoma'; text-anchor: start" x="334.730666" y="48.324822" transform="rotate(-0 334.730666 48.324822)">±SD</text>
    </g>
   </g>
  </g>
 </g>
 <defs>
  <clipPath id="p783a2a324a">
   <rect x="55.275591" y="22.677165" width="323.149606" height="215.433071"/>
  </clipPath>
 </defs>
</svg>
