<?xml version="1.0" encoding="utf-8" standalone="no"?>
<!DOCTYPE svg PUBLIC "-//W3C//DTD SVG 1.1//EN"
  "http://www.w3.org/Graphics/SVG/1.1/DTD/svg11.dtd">
<svg xmlns:xlink="http://www.w3.org/1999/xlink" width="425.19685pt" height="198.425197pt" viewBox="0 0 425.19685 198.425197" xmlns="http://www.w3.org/2000/svg" version="1.1">
 <metadata>
  <rdf:RDF xmlns:dc="http://purl.org/dc/elements/1.1/" xmlns:cc="http://creativecommons.org/ns#" xmlns:rdf="http://www.w3.org/1999/02/22-rdf-syntax-ns#">
   <cc:Work>
    <dc:type rdf:resource="http://purl.org/dc/dcmitype/StillImage"/>
    <dc:date>2026-07-15T11:19:34.393318</dc:date>
    <dc:format>image/svg+xml</dc:format>
    <dc:creator>
     <cc:Agent>
      <dc:title>Matplotlib v3.10.0, https://matplotlib.org/</dc:title>
     </cc:Agent>
    </dc:creator>
   </cc:Work>
  </rdf:RDF>
 </metadata>
 <defs>
  <style type="text/css">*{stroke-linejoin: round; stroke-linecap: butt}</style>
 </defs>
 <g id="figure_1">
  <g id="patch_1">
   <path d="M 0 198.425197 
L 425.19685 198.425197 
L 425.19685 0 
L 0 0 
L 0 198.425197 
z
" style="fill: none; opacity: 0"/>
  </g>
  <g id="axes_1">
   <g id="patch_2">
    <path d="M 51.023622 150.80315 
L 399.685039 150.80315 
L 399.685039 35.716535 
L 51.023622 35.716535 
L 51.023622 150.80315 
z
" style="fill: none; opacity: 0"/>
   </g>
   <g id="matplotlib.axis_1">
    <g id="xtick_1">
     <g id="line2d_1">
      <path d="M 51.023622 150.80315 
L 51.023622 35.716535 
" clip-path="url(#p19ece552ed)" style="fill: none; stroke: #d0d0d0; stroke-opacity: 0.65; stroke-width: 1.2; stroke-linecap: square"/>
     </g>
     <g id="line2d_2">
      <defs>
       <path id="m9cdef3e0b4" d="M 0 0 
L 0 6 
" style="stroke: #000000; stroke-width: 1.5"/>
      </defs>
      <g>
       <use xlink:href="#m9cdef3e0b4" x="51.023622" y="150.80315" style="stroke: #000000; stroke-width: 1.5"/>
      </g>
     </g>
     <g id="text_1">
      <text style="font-size: 15px; font-family: 'Tahoma'; text-anchor: middle" x="51.023622" y="171.700806" transform="rotate(-0 51.023622 171.700806)">0</text>
     </g>
    </g>
    <g id="xtick_2">
     <g id="line2d_3">
      <path d="M 120.755906 150.80315 
L 120.755906 35.716535 
" clip-path="url(#p19ece552ed)" style="fill: none; stroke: #d0d0d0; stroke-opacity: 0.65; stroke-width: 1.2; stroke-linecap: square"/>
     </g>
     <g id="line2d_4">
      <g>
       <use xlink:href="#m9cdef3e0b4" x="120.755906" y="150.80315" style="stroke: #000000; stroke-width: 1.5"/>
      </g>
     </g>
     <g id="text_2">
      <text style="font-size: 15px; font-family: 'Tahoma'; text-anchor: middle" x="120.755906" y="171.700806" transform="rotate(-0 120.755906 171.700806)">20</text>
     </g>
    </g>
    <g id="xtick_3">
     <g id="line2d_5">
      <path d="M 190.488189 150.80315 
L 190.488189 35.716535 
" clip-path="url(#p19ece552ed)" style="fill: none; stroke: #d0d0d0; stroke-opacity: 0.65; stroke-width: 1.2; stroke-linecap: square"/>
     </g>
     <g id="line2d_6">
      <g>
       <use xlink:href="#m9cdef3e0b4" x="190.488189" y="150.80315" style="stroke: #000000; stroke-width: 1.5"/>
      </g>
     </g>
     <g id="text_3">
      <text style="font-size: 15px; font-family: 'Tahoma'; text-anchor: middle" x="190.488189" y="171.700806" transform="rotate(-0 190.488189 171.700806)">40</text>
     </g>
    </g>
    <g id="xtick_4">
     <g id="line2d_7">
      <path d="M 260.220472 150.80315 
L 260.220472 35.716535 
" clip-path="url(#p19ece552ed)" style="fill: none; stroke: #d0d0d0; stroke-opacity: 0.65; stroke-width: 1.2; stroke-linecap: square"/>
     </g>
     <g id="line2d_8">
      <g>
       <use xlink:href="#m9cdef3e0b4" x="260.220472" y="150.80315" style="stroke: #000000; stroke-width: 1.5"/>
      </g>
     </g>
     <g id="text_4">
      <text style="font-size: 15px; font-family: 'Tahoma'; text-anchor: middle" x="260.220472" y="171.700806" transform="rotate(-0 260.220472 171.700806)">60</text>
     </g>
    </g>
    <g id="xtick_5">
     <g id="line2d_9">
      <path d="M 329.952756 150.80315 
L 329.952756 35.716535 
" clip-path="url(#p19ece552ed)" style="fill: none; stroke: #d0d0d0; stroke-opacity: 0.65; stroke-width: 1.2; stroke-linecap: square"/>
     </g>
     <g id="line2d_10">
      <g>
       <use xlink:href="#m9cdef3e0b4" x="329.952756" y="150.80315" style="stroke: #000000; stroke-width: 1.5"/>
      </g>
     </g>
     <g id="text_5">
      <text style="font-size: 15px; font-family: 'Tahoma'; text-anchor: middle" x="329.952756" y="171.700806" transform="rotate(-0 329.952756 171.700806)">80</text>
     </g>
    </g>
    <g id="xtick_6">
     <g id="line2d_11">
      <path d="M 399.685039 150.80315 
L 399.685039 35.716535 
" clip-path="url(#p19ece552ed)" style="fill: none; stroke: #d0d0d0; stroke-opacity: 0.65; stroke-width: 1.2; stroke-linecap: square"/>
     </g>
     <g id="line2d_12">
      <g>
       <use xlink:href="#m9cdef3e0b4" x="399.685039" y="150.80315" style="stroke: #000000; stroke-width: 1.5"/>
      </g>
     </g>
     <g id="text_6">
      <text style="font-size: 15px; font-family: 'Tahoma'; text-anchor: middle" x="399.685039" y="171.700806" transform="rotate(-0 399.685039 171.700806)">100</text>
     </g>
    </g>
    <g id="text_7">
     <text style="font-size: 18px; font-family: 'Tahoma'; text-anchor: middle" x="225.354331" y="192.483931" transform="rotate(-0 225.354331 192.483931)">Land-cover composition of corner class (%)</text>
    </g>
   </g>
   <g id="matplotlib.axis_2">
    <g id="ytick_1">
     <g id="line2d_13">
      <path d="M 51.023622 49.907276 
L 399.685039 49.907276 
" clip-path="url(#p19ece552ed)" style="fill: none; stroke: #d0d0d0; stroke-opacity: 0.65; stroke-width: 1.2; stroke-linecap: square"/>
     </g>
     <g id="line2d_14">
      <defs>
       <path id="m30e46076df" d="M 0 0 
L -6 0 
" style="stroke: #000000; stroke-width: 1.5"/>
      </defs>
      <g>
       <use xlink:href="#m30e46076df" x="51.023622" y="49.907276" style="stroke: #000000; stroke-width: 1.5"/>
      </g>
     </g>
     <g id="text_8">
      <text style="font-size: 15px; font-family: 'Tahoma'; text-anchor: end" x="41.523622" y="55.606104" transform="rotate(-0 41.523622 55.606104)">Cool-stable</text>
     </g>
    </g>
    <g id="ytick_2">
     <g id="line2d_15">
      <path d="M 51.023622 78.808987 
L 399.685039 78.808987 
" clip-path="url(#p19ece552ed)" style="fill: none; stroke: #d0d0d0; stroke-opacity: 0.65; stroke-width: 1.2; stroke-linecap: square"/>
     </g>
     <g id="line2d_16">
      <g>
       <use xlink:href="#m30e46076df" x="51.023622" y="78.808987" style="stroke: #000000; stroke-width: 1.5"/>
      </g>
     </g>
     <g id="text_9">
      <text style="font-size: 15px; font-family: 'Tahoma'; text-anchor: end" x="41.523622" y="84.544143" transform="rotate(-0 41.523622 84.544143)">Cool-amplifying</text>
     </g>
    </g>
    <g id="ytick_3">
     <g id="line2d_17">
      <path d="M 51.023622 107.710698 
L 399.685039 107.710698 
" clip-path="url(#p19ece552ed)" style="fill: none; stroke: #d0d0d0; stroke-opacity: 0.65; stroke-width: 1.2; stroke-linecap: square"/>
     </g>
     <g id="line2d_18">
      <g>
       <use xlink:href="#m30e46076df" x="51.023622" y="107.710698" style="stroke: #000000; stroke-width: 1.5"/>
      </g>
     </g>
     <g id="text_10">
      <text style="font-size: 15px; font-family: 'Tahoma'; text-anchor: end" x="41.523622" y="113.409526" transform="rotate(-0 41.523622 113.409526)">Hot-stable</text>
     </g>
    </g>
    <g id="ytick_4">
     <g id="line2d_19">
      <path d="M 51.023622 136.612409 
L 399.685039 136.612409 
" clip-path="url(#p19ece552ed)" style="fill: none; stroke: #d0d0d0; stroke-opacity: 0.65; stroke-width: 1.2; stroke-linecap: square"/>
     </g>
     <g id="line2d_20">
      <g>
       <use xlink:href="#m30e46076df" x="51.023622" y="136.612409" style="stroke: #000000; stroke-width: 1.5"/>
      </g>
     </g>
     <g id="text_11">
      <text style="font-size: 15px; font-family: 'Tahoma'; text-anchor: end" x="41.523622" y="142.347566" transform="rotate(-0 41.523622 142.347566)">Hot-amplifying</text>
     </g>
    </g>
   </g>
   <g id="patch_3">
    <path d="M 51.023622 40.947745 
L 96.464563 40.947745 
L 96.464563 58.866806 
L 51.023622 58.866806 
z
" clip-path="url(#p19ece552ed)" style="fill: #1966d2"/>
   </g>
   <g id="patch_4">
    <path d="M 51.023622 69.849456 
L 89.087608 69.849456 
L 89.087608 87.768517 
L 51.023622 87.768517 
z
" clip-path="url(#p19ece552ed)" style="fill: #1966d2"/>
   </g>
   <g id="patch_5">
    <path d="M 51.023622 98.751168 
L 55.19029 98.751168 
L 55.19029 116.670229 
L 51.023622 116.670229 
z
" clip-path="url(#p19ece552ed)" style="fill: #1966d2"/>
   </g>
   <g id="patch_6">
    <path d="M 51.023622 127.652879 
L 113.580453 127.652879 
L 113.580453 145.57194 
L 51.023622 145.57194 
z
" clip-path="url(#p19ece552ed)" style="fill: #1966d2"/>
   </g>
   <g id="patch_7">
    <path d="M 96.464563 40.947745 
L 142.431252 40.947745 
L 142.431252 58.866806 
L 96.464563 58.866806 
z
" clip-path="url(#p19ece552ed)" style="fill: #1b5e20"/>
   </g>
   <g id="patch_8">
    <path d="M 89.087608 69.849456 
L 117.182765 69.849456 
L 117.182765 87.768517 
L 89.087608 87.768517 
z
" clip-path="url(#p19ece552ed)" style="fill: #1b5e20"/>
   </g>
   <g id="patch_9">
    <path d="M 55.19029 98.751168 
L 55.709178 98.751168 
L 55.709178 116.670229 
L 55.19029 116.670229 
z
" clip-path="url(#p19ece552ed)" style="fill: #1b5e20"/>
   </g>
   <g id="patch_10">
    <path d="M 113.580453 127.652879 
L 130.518832 127.652879 
L 130.518832 145.57194 
L 113.580453 145.57194 
z
" clip-path="url(#p19ece552ed)" style="fill: #1b5e20"/>
   </g>
   <g id="patch_11">
    <path d="M 142.431252 40.947745 
L 351.413555 40.947745 
L 351.413555 58.866806 
L 142.431252 58.866806 
z
" clip-path="url(#p19ece552ed)" style="fill: #f5b041"/>
   </g>
   <g id="patch_12">
    <path d="M 117.182765 69.849456 
L 396.700906 69.849456 
L 396.700906 87.768517 
L 117.182765 87.768517 
z
" clip-path="url(#p19ece552ed)" style="fill: #f5b041"/>
   </g>
   <g id="patch_13">
    <path d="M 55.709178 98.751168 
L 55.812956 98.751168 
L 55.812956 116.670229 
L 55.709178 116.670229 
z
" clip-path="url(#p19ece552ed)" style="fill: #f5b041"/>
   </g>
   <g id="patch_14">
    <path d="M 130.518832 127.652879 
L 142.544989 127.652879 
L 142.544989 145.57194 
L 130.518832 145.57194 
z
" clip-path="url(#p19ece552ed)" style="fill: #f5b041"/>
   </g>
   <g id="patch_15">
    <path d="M 351.413555 40.947745 
L 351.413555 40.947745 
L 351.413555 58.866806 
L 351.413555 58.866806 
z
" clip-path="url(#p19ece552ed)" style="fill: #c62828"/>
   </g>
   <g id="patch_16">
    <path d="M 396.700906 69.849456 
L 396.700906 69.849456 
L 396.700906 87.768517 
L 396.700906 87.768517 
z
" clip-path="url(#p19ece552ed)" style="fill: #c62828"/>
   </g>
   <g id="patch_17">
    <path d="M 55.812956 98.751168 
L 156.202164 98.751168 
L 156.202164 116.670229 
L 55.812956 116.670229 
z
" clip-path="url(#p19ece552ed)" style="fill: #c62828"/>
   </g>
   <g id="patch_18">
    <path d="M 142.544989 127.652879 
L 168.787451 127.652879 
L 168.787451 145.57194 
L 142.544989 145.57194 
z
" clip-path="url(#p19ece552ed)" style="fill: #c62828"/>
   </g>
   <g id="patch_19">
    <path d="M 351.413555 40.947745 
L 368.814585 40.947745 
L 368.814585 58.866806 
L 351.413555 58.866806 
z
" clip-path="url(#p19ece552ed)" style="fill: #6a1b9a"/>
   </g>
   <g id="patch_20">
    <path d="M 396.700906 69.849456 
L 398.994388 69.849456 
L 398.994388 87.768517 
L 396.700906 87.768517 
z
" clip-path="url(#p19ece552ed)" style="fill: #6a1b9a"/>
   </g>
   <g id="patch_21">
    <path d="M 156.202164 98.751168 
L 324.586419 98.751168 
L 324.586419 116.670229 
L 156.202164 116.670229 
z
" clip-path="url(#p19ece552ed)" style="fill: #6a1b9a"/>
   </g>
   <g id="patch_22">
    <path d="M 168.787451 127.652879 
L 309.417168 127.652879 
L 309.417168 145.57194 
L 168.787451 145.57194 
z
" clip-path="url(#p19ece552ed)" style="fill: #6a1b9a"/>
   </g>
   <g id="patch_23">
    <path d="M 51.023622 150.80315 
L 51.023622 35.716535 
" style="fill: none; stroke: #000000; stroke-width: 1.5; stroke-linejoin: miter; stroke-linecap: square"/>
   </g>
   <g id="patch_24">
    <path d="M 51.023622 150.80315 
L 399.685039 150.80315 
" style="fill: none; stroke: #000000; stroke-width: 1.5; stroke-linejoin: miter; stroke-linecap: square"/>
   </g>
  </g>
  <g id="legend_1">
   <g id="patch_25">
    <path d="M -9.177654 20.515054 
L 14.222346 20.515054 
L 14.222346 12.325054 
L -9.177654 12.325054 
z
" style="fill: #1966d2"/>
   </g>
   <g id="text_12">
    <text style="font-size: 11.7px; font-family: 'Tahoma'; text-anchor: start" x="18.317346" y="20.515054" transform="rotate(-0 18.317346 20.515054)">Trees 2–10 m</text>
   </g>
   <g id="patch_26">
    <path d="M 97.228362 20.515054 
L 120.628362 20.515054 
L 120.628362 12.325054 
L 97.228362 12.325054 
z
" style="fill: #1b5e20"/>
   </g>
   <g id="text_13">
    <text style="font-size: 11.7px; font-family: 'Tahoma'; text-anchor: start" x="124.723362" y="20.515054" transform="rotate(-0 124.723362 20.515054)">Trees 10–15 m</text>
   </g>
   <g id="patch_27">
    <path d="M 210.021846 20.515054 
L 233.421846 20.515054 
L 233.421846 12.325054 
L 210.021846 12.325054 
z
" style="fill: #f5b041"/>
   </g>
   <g id="text_14">
    <text style="font-size: 11.7px; font-family: 'Tahoma'; text-anchor: start" x="237.516846" y="20.515054" transform="rotate(-0 237.516846 20.515054)">Trees &gt;15 m</text>
   </g>
   <g id="patch_28">
    <path d="M 312.164674 20.515054 
L 335.564674 20.515054 
L 335.564674 12.325054 
L 312.164674 12.325054 
z
" style="fill: #c62828"/>
   </g>
   <g id="text_15">
    <text style="font-size: 11.7px; font-family: 'Tahoma'; text-anchor: start" x="339.659674" y="20.515054" transform="rotate(-0 339.659674 20.515054)">Fields</text>
   </g>
   <g id="patch_29">
    <path d="M 377.734034 20.515054 
L 401.134034 20.515054 
L 401.134034 12.325054 
L 377.734034 12.325054 
z
" style="fill: #6a1b9a"/>
   </g>
   <g id="text_16">
    <text style="font-size: 11.7px; font-family: 'Tahoma'; text-anchor: start" x="405.229034" y="20.515054" transform="rotate(-0 405.229034 20.515054)">Other veg.</text>
   </g>
  </g>
 </g>
 <defs>
  <clipPath id="p19ece552ed">
   <rect x="51.023622" y="35.716535" width="348.661417" height="115.086614"/>
  </clipPath>
 </defs>
</svg>
