<?xml version="1.0" encoding="utf-8" standalone="no"?>
<!DOCTYPE svg PUBLIC "-//W3C//DTD SVG 1.1//EN"
  "http://www.w3.org/Graphics/SVG/1.1/DTD/svg11.dtd">
<svg xmlns:xlink="http://www.w3.org/1999/xlink" width="566.929134pt" height="425.19685pt" viewBox="0 0 566.929134 425.19685" xmlns="http://www.w3.org/2000/svg" version="1.1">
 <metadata>
  <rdf:RDF xmlns:dc="http://purl.org/dc/elements/1.1/" xmlns:cc="http://creativecommons.org/ns#" xmlns:rdf="http://www.w3.org/1999/02/22-rdf-syntax-ns#">
   <cc:Work>
    <dc:type rdf:resource="http://purl.org/dc/dcmitype/StillImage"/>
    <dc:date>2026-05-18T10:54:20.943229</dc:date>
    <dc:format>image/svg+xml</dc:format>
    <dc:creator>
     <cc:Agent>
      <dc:title>Matplotlib v3.10.0, https://matplotlib.org/</dc:title>
     </cc:Agent>
    </dc:creator>
   </cc:Work>
  </rdf:RDF>
 </metadata>
 <defs>
  <style type="text/css">*{stroke-linejoin: round; stroke-linecap: butt}</style>
 </defs>
 <g id="figure_1">
  <g id="patch_1">
   <path d="M 0 425.19685 
L 566.929134 425.19685 
L 566.929134 0 
L 0 0 
L 0 425.19685 
z
" style="fill: none; opacity: 0"/>
  </g>
  <g id="axes_1">
   <g id="patch_2">
    <path d="M 73.700787 357.165354 
L 504.566929 357.165354 
L 504.566929 34.015748 
L 73.700787 34.015748 
L 73.700787 357.165354 
z
" style="fill: none; opacity: 0"/>
   </g>
   <g id="matplotlib.axis_1">
    <g id="xtick_1">
     <g id="line2d_1">
      <defs>
       <path id="m961617175c" d="M 0 0 
L 0 3.5 
" style="stroke: #000000; stroke-width: 0.8"/>
      </defs>
      <g>
       <use xlink:href="#m961617175c" x="73.700787" y="357.165354" style="stroke: #000000; stroke-width: 0.8"/>
      </g>
     </g>
     <g id="text_1">
      <text style="font-size: 10px; font-family: 'Tahoma'; text-anchor: middle" x="73.700787" y="371.763792" transform="rotate(-0 73.700787 371.763792)">0</text>
     </g>
    </g>
    <g id="xtick_2">
     <g id="line2d_2">
      <g>
       <use xlink:href="#m961617175c" x="129.900719" y="357.165354" style="stroke: #000000; stroke-width: 0.8"/>
      </g>
     </g>
     <g id="text_2">
      <text style="font-size: 10px; font-family: 'Tahoma'; text-anchor: middle" x="129.900719" y="371.763792" transform="rotate(-0 129.900719 371.763792)">3</text>
     </g>
    </g>
    <g id="xtick_3">
     <g id="line2d_3">
      <g>
       <use xlink:href="#m961617175c" x="186.10065" y="357.165354" style="stroke: #000000; stroke-width: 0.8"/>
      </g>
     </g>
     <g id="text_3">
      <text style="font-size: 10px; font-family: 'Tahoma'; text-anchor: middle" x="186.10065" y="371.763792" transform="rotate(-0 186.10065 371.763792)">6</text>
     </g>
    </g>
    <g id="xtick_4">
     <g id="line2d_4">
      <g>
       <use xlink:href="#m961617175c" x="242.300582" y="357.165354" style="stroke: #000000; stroke-width: 0.8"/>
      </g>
     </g>
     <g id="text_4">
      <text style="font-size: 10px; font-family: 'Tahoma'; text-anchor: middle" x="242.300582" y="371.763792" transform="rotate(-0 242.300582 371.763792)">9</text>
     </g>
    </g>
    <g id="xtick_5">
     <g id="line2d_5">
      <g>
       <use xlink:href="#m961617175c" x="298.500514" y="357.165354" style="stroke: #000000; stroke-width: 0.8"/>
      </g>
     </g>
     <g id="text_5">
      <text style="font-size: 10px; font-family: 'Tahoma'; text-anchor: middle" x="298.500514" y="371.763792" transform="rotate(-0 298.500514 371.763792)">12</text>
     </g>
    </g>
    <g id="xtick_6">
     <g id="line2d_6">
      <g>
       <use xlink:href="#m961617175c" x="354.700445" y="357.165354" style="stroke: #000000; stroke-width: 0.8"/>
      </g>
     </g>
     <g id="text_6">
      <text style="font-size: 10px; font-family: 'Tahoma'; text-anchor: middle" x="354.700445" y="371.763792" transform="rotate(-0 354.700445 371.763792)">15</text>
     </g>
    </g>
    <g id="xtick_7">
     <g id="line2d_7">
      <g>
       <use xlink:href="#m961617175c" x="410.900377" y="357.165354" style="stroke: #000000; stroke-width: 0.8"/>
      </g>
     </g>
     <g id="text_7">
      <text style="font-size: 10px; font-family: 'Tahoma'; text-anchor: middle" x="410.900377" y="371.763792" transform="rotate(-0 410.900377 371.763792)">18</text>
     </g>
    </g>
    <g id="xtick_8">
     <g id="line2d_8">
      <g>
       <use xlink:href="#m961617175c" x="467.100308" y="357.165354" style="stroke: #000000; stroke-width: 0.8"/>
      </g>
     </g>
     <g id="text_8">
      <text style="font-size: 10px; font-family: 'Tahoma'; text-anchor: middle" x="467.100308" y="371.763792" transform="rotate(-0 467.100308 371.763792)">21</text>
     </g>
    </g>
    <g id="text_9">
     <text style="font-size: 11px; font-family: 'Tahoma'; text-anchor: middle" x="289.133858" y="386.134573" transform="rotate(-0 289.133858 386.134573)">Hour (local time)</text>
    </g>
   </g>
   <g id="matplotlib.axis_2">
    <g id="ytick_1">
     <g id="line2d_9">
      <path d="M 73.700787 353.49743 
L 504.566929 353.49743 
" clip-path="url(#pea7a300d21)" style="fill: none; stroke: #d0d0d0; stroke-opacity: 0.65; stroke-width: 0.8; stroke-linecap: square"/>
     </g>
     <g id="line2d_10">
      <defs>
       <path id="m4d86f31768" d="M 0 0 
L -3.5 0 
" style="stroke: #000000; stroke-width: 0.8"/>
      </defs>
      <g>
       <use xlink:href="#m4d86f31768" x="73.700787" y="353.49743" style="stroke: #000000; stroke-width: 0.8"/>
      </g>
     </g>
     <g id="text_10">
      <text style="font-size: 10px; font-family: 'Tahoma'; text-anchor: end" x="66.700787" y="357.296649" transform="rotate(-0 66.700787 357.296649)">12</text>
     </g>
    </g>
    <g id="ytick_2">
     <g id="line2d_11">
      <path d="M 73.700787 310.490417 
L 504.566929 310.490417 
" clip-path="url(#pea7a300d21)" style="fill: none; stroke: #d0d0d0; stroke-opacity: 0.65; stroke-width: 0.8; stroke-linecap: square"/>
     </g>
     <g id="line2d_12">
      <g>
       <use xlink:href="#m4d86f31768" x="73.700787" y="310.490417" style="stroke: #000000; stroke-width: 0.8"/>
      </g>
     </g>
     <g id="text_11">
      <text style="font-size: 10px; font-family: 'Tahoma'; text-anchor: end" x="66.700787" y="314.289636" transform="rotate(-0 66.700787 314.289636)">14</text>
     </g>
    </g>
    <g id="ytick_3">
     <g id="line2d_13">
      <path d="M 73.700787 267.483404 
L 504.566929 267.483404 
" clip-path="url(#pea7a300d21)" style="fill: none; stroke: #d0d0d0; stroke-opacity: 0.65; stroke-width: 0.8; stroke-linecap: square"/>
     </g>
     <g id="line2d_14">
      <g>
       <use xlink:href="#m4d86f31768" x="73.700787" y="267.483404" style="stroke: #000000; stroke-width: 0.8"/>
      </g>
     </g>
     <g id="text_12">
      <text style="font-size: 10px; font-family: 'Tahoma'; text-anchor: end" x="66.700787" y="271.282622" transform="rotate(-0 66.700787 271.282622)">16</text>
     </g>
    </g>
    <g id="ytick_4">
     <g id="line2d_15">
      <path d="M 73.700787 224.47639 
L 504.566929 224.47639 
" clip-path="url(#pea7a300d21)" style="fill: none; stroke: #d0d0d0; stroke-opacity: 0.65; stroke-width: 0.8; stroke-linecap: square"/>
     </g>
     <g id="line2d_16">
      <g>
       <use xlink:href="#m4d86f31768" x="73.700787" y="224.47639" style="stroke: #000000; stroke-width: 0.8"/>
      </g>
     </g>
     <g id="text_13">
      <text style="font-size: 10px; font-family: 'Tahoma'; text-anchor: end" x="66.700787" y="228.275609" transform="rotate(-0 66.700787 228.275609)">18</text>
     </g>
    </g>
    <g id="ytick_5">
     <g id="line2d_17">
      <path d="M 73.700787 181.469377 
L 504.566929 181.469377 
" clip-path="url(#pea7a300d21)" style="fill: none; stroke: #d0d0d0; stroke-opacity: 0.65; stroke-width: 0.8; stroke-linecap: square"/>
     </g>
     <g id="line2d_18">
      <g>
       <use xlink:href="#m4d86f31768" x="73.700787" y="181.469377" style="stroke: #000000; stroke-width: 0.8"/>
      </g>
     </g>
     <g id="text_14">
      <text style="font-size: 10px; font-family: 'Tahoma'; text-anchor: end" x="66.700787" y="185.268596" transform="rotate(-0 66.700787 185.268596)">20</text>
     </g>
    </g>
    <g id="ytick_6">
     <g id="line2d_19">
      <path d="M 73.700787 138.462364 
L 504.566929 138.462364 
" clip-path="url(#pea7a300d21)" style="fill: none; stroke: #d0d0d0; stroke-opacity: 0.65; stroke-width: 0.8; stroke-linecap: square"/>
     </g>
     <g id="line2d_20">
      <g>
       <use xlink:href="#m4d86f31768" x="73.700787" y="138.462364" style="stroke: #000000; stroke-width: 0.8"/>
      </g>
     </g>
     <g id="text_15">
      <text style="font-size: 10px; font-family: 'Tahoma'; text-anchor: end" x="66.700787" y="142.261583" transform="rotate(-0 66.700787 142.261583)">22</text>
     </g>
    </g>
    <g id="ytick_7">
     <g id="line2d_21">
      <path d="M 73.700787 95.455351 
L 504.566929 95.455351 
" clip-path="url(#pea7a300d21)" style="fill: none; stroke: #d0d0d0; stroke-opacity: 0.65; stroke-width: 0.8; stroke-linecap: square"/>
     </g>
     <g id="line2d_22">
      <g>
       <use xlink:href="#m4d86f31768" x="73.700787" y="95.455351" style="stroke: #000000; stroke-width: 0.8"/>
      </g>
     </g>
     <g id="text_16">
      <text style="font-size: 10px; font-family: 'Tahoma'; text-anchor: end" x="66.700787" y="99.254569" transform="rotate(-0 66.700787 99.254569)">24</text>
     </g>
    </g>
    <g id="ytick_8">
     <g id="line2d_23">
      <path d="M 73.700787 52.448337 
L 504.566929 52.448337 
" clip-path="url(#pea7a300d21)" style="fill: none; stroke: #d0d0d0; stroke-opacity: 0.65; stroke-width: 0.8; stroke-linecap: square"/>
     </g>
     <g id="line2d_24">
      <g>
       <use xlink:href="#m4d86f31768" x="73.700787" y="52.448337" style="stroke: #000000; stroke-width: 0.8"/>
      </g>
     </g>
     <g id="text_17">
      <text style="font-size: 10px; font-family: 'Tahoma'; text-anchor: end" x="66.700787" y="56.247556" transform="rotate(-0 66.700787 56.247556)">26</text>
     </g>
    </g>
    <g id="text_18">
     <text style="font-size: 11px; font-family: 'Tahoma'; text-anchor: middle" x="49.568287" y="195.590551" transform="rotate(-90 49.568287 195.590551)">15 cm air temperature (°C)</text>
    </g>
   </g>
   <g id="FillBetweenPolyCollection_1">
    <defs>
     <path id="mb160abd639" d="M 73.700787 -218.053256 
L 73.700787 -105.155463 
L 92.434098 -96.972053 
L 111.167408 -90.629215 
L 129.900719 -84.990147 
L 148.634029 -82.720115 
L 167.36734 -87.814962 
L 186.10065 -101.64761 
L 204.833961 -122.769966 
L 223.567271 -139.887269 
L 242.300582 -153.425161 
L 261.033893 -166.428226 
L 279.767203 -181.88888 
L 298.500514 -193.804498 
L 317.233824 -200.272653 
L 335.967135 -207.016227 
L 354.700445 -211.350676 
L 373.433756 -207.046092 
L 392.167066 -200.326788 
L 410.900377 -193.71363 
L 429.633687 -181.950135 
L 448.366998 -168.638801 
L 467.100308 -149.903019 
L 485.833619 -130.283425 
L 504.566929 -114.98018 
L 504.566929 -226.832653 
L 504.566929 -226.832653 
L 485.833619 -240.045126 
L 467.100308 -261.735644 
L 448.366998 -286.09245 
L 429.633687 -308.781107 
L 410.900377 -331.970199 
L 392.167066 -351.9217 
L 373.433756 -362.719305 
L 354.700445 -373.365853 
L 335.967135 -376.021993 
L 317.233824 -376.492484 
L 298.500514 -365.628298 
L 279.767203 -344.112469 
L 261.033893 -326.921482 
L 242.300582 -299.236885 
L 223.567271 -261.192348 
L 204.833961 -228.556865 
L 186.10065 -205.295008 
L 167.36734 -196.335911 
L 148.634029 -197.940804 
L 129.900719 -201.47442 
L 111.167408 -206.301159 
L 92.434098 -211.657715 
L 73.700787 -218.053256 
z
"/>
    </defs>
    <g clip-path="url(#pea7a300d21)">
     <use xlink:href="#mb160abd639" x="0" y="425.19685" style="fill: #bbccee"/>
    </g>
   </g>
   <g id="line2d_25">
    <path d="M 73.700787 263.592491 
L 92.434098 270.881966 
L 111.167408 276.731663 
L 129.900719 281.964567 
L 148.634029 284.866391 
L 167.36734 283.121414 
L 186.10065 271.725542 
L 204.833961 249.533435 
L 223.567271 224.657042 
L 242.300582 198.865828 
L 261.033893 178.521996 
L 279.767203 162.196176 
L 298.500514 145.480452 
L 317.233824 136.814282 
L 335.967135 133.677741 
L 354.700445 132.838586 
L 373.433756 140.314152 
L 392.167066 149.072606 
L 410.900377 162.354936 
L 429.633687 179.831229 
L 448.366998 197.831225 
L 467.100308 219.377519 
L 485.833619 240.032575 
L 504.566929 254.290434 
" clip-path="url(#pea7a300d21)" style="fill: none; stroke: #004488; stroke-width: 2.4; stroke-linecap: square"/>
   </g>
   <g id="patch_3">
    <path d="M 73.700787 357.165354 
L 73.700787 34.015748 
" style="fill: none; stroke: #000000; stroke-width: 0.8; stroke-linejoin: miter; stroke-linecap: square"/>
   </g>
   <g id="patch_4">
    <path d="M 73.700787 357.165354 
L 504.566929 357.165354 
" style="fill: none; stroke: #000000; stroke-width: 0.8; stroke-linejoin: miter; stroke-linecap: square"/>
   </g>
   <g id="legend_1">
    <g id="patch_5">
     <path d="M 456.30021 55.265592 
L 500.066929 55.265592 
L 500.066929 38.515748 
L 456.30021 38.515748 
z
" style="fill: #ffffff; opacity: 0.97; stroke: #b8b8b8; stroke-linejoin: miter"/>
    </g>
    <g id="patch_6">
     <path d="M 460.35021 49.404342 
L 473.85021 49.404342 
L 473.85021 43.104342 
L 460.35021 43.104342 
z
" style="fill: #bbccee"/>
    </g>
    <g id="text_19">
     <text style="font-size: 9px; font-family: 'Tahoma'; text-anchor: start" x="478.35021" y="49.404342" transform="rotate(-0 478.35021 49.404342)">±SD</text>
    </g>
   </g>
  </g>
 </g>
 <defs>
  <clipPath id="pea7a300d21">
   <rect x="73.700787" y="34.015748" width="430.866142" height="323.149606"/>
  </clipPath>
 </defs>
</svg>
