<?xml version="1.0" encoding="utf-8" standalone="no"?>
<!DOCTYPE svg PUBLIC "-//W3C//DTD SVG 1.1//EN"
  "http://www.w3.org/Graphics/SVG/1.1/DTD/svg11.dtd">
<svg xmlns:xlink="http://www.w3.org/1999/xlink" width="425.19685pt" height="283.464567pt" viewBox="0 0 425.19685 283.464567" xmlns="http://www.w3.org/2000/svg" version="1.1">
 <metadata>
  <rdf:RDF xmlns:dc="http://purl.org/dc/elements/1.1/" xmlns:cc="http://creativecommons.org/ns#" xmlns:rdf="http://www.w3.org/1999/02/22-rdf-syntax-ns#">
   <cc:Work>
    <dc:type rdf:resource="http://purl.org/dc/dcmitype/StillImage"/>
    <dc:date>2026-05-18T13:13:23.756775</dc:date>
    <dc:format>image/svg+xml</dc:format>
    <dc:creator>
     <cc:Agent>
      <dc:title>Matplotlib v3.10.0, https://matplotlib.org/</dc:title>
     </cc:Agent>
    </dc:creator>
   </cc:Work>
  </rdf:RDF>
 </metadata>
 <defs>
  <style type="text/css">*{stroke-linejoin: round; stroke-linecap: butt}</style>
 </defs>
 <g id="figure_1">
  <g id="patch_1">
   <path d="M 0 283.464567 
L 425.19685 283.464567 
L 425.19685 0 
L 0 0 
L 0 283.464567 
z
" style="fill: none; opacity: 0"/>
  </g>
  <g id="axes_1">
   <g id="patch_2">
    <path d="M 55.275591 238.110236 
L 378.425197 238.110236 
L 378.425197 22.677165 
L 55.275591 22.677165 
L 55.275591 238.110236 
z
" style="fill: none; opacity: 0"/>
   </g>
   <g id="FillBetweenPolyCollection_1">
    <path d="M 55.275591 238.110236 
L 55.275591 238.110236 
L 69.325573 238.110236 
L 83.375556 238.110236 
L 97.425539 238.110236 
L 111.475522 238.110236 
L 125.525505 238.110236 
L 139.575488 238.110236 
L 153.625471 238.110236 
L 167.675454 238.110236 
L 181.725436 238.110236 
L 195.775419 238.110236 
L 209.825402 238.110236 
L 223.875385 238.110236 
L 237.925368 238.110236 
L 251.975351 238.110236 
L 266.025334 238.110236 
L 280.075317 238.110236 
L 294.1253 238.110236 
L 308.175282 238.110236 
L 322.225265 238.110236 
L 336.275248 238.110236 
L 350.325231 238.110236 
L 364.375214 238.110236 
L 378.425197 238.110236 
L 378.425197 237.88634 
L 378.425197 237.88634 
L 364.375214 234.104952 
L 350.325231 225.565555 
L 336.275248 214.279877 
L 322.225265 201.064396 
L 308.175282 188.436948 
L 294.1253 176.701122 
L 280.075317 168.720681 
L 266.025334 163.155931 
L 251.975351 162.708661 
L 237.925368 164.030182 
L 223.875385 168.98204 
L 209.825402 178.833047 
L 195.775419 188.226028 
L 181.725436 199.454923 
L 167.675454 212.368187 
L 153.625471 224.602196 
L 139.575488 233.25343 
L 125.525505 237.659792 
L 111.475522 238.110236 
L 97.425539 238.110234 
L 83.375556 238.110235 
L 69.325573 238.110236 
L 55.275591 238.110236 
z
" clip-path="url(#p12b28d0cc1)" style="fill: #ddaa33; fill-opacity: 0.3"/>
   </g>
   <g id="matplotlib.axis_1">
    <g id="xtick_1">
     <g id="line2d_1">
      <path d="M 55.275591 238.110236 
L 55.275591 22.677165 
" clip-path="url(#p12b28d0cc1)" style="fill: none; stroke: #d0d0d0; stroke-opacity: 0.65; stroke-width: 1.2; stroke-linecap: square"/>
     </g>
     <g id="line2d_2">
      <defs>
       <path id="m593d30f723" d="M 0 0 
L 0 6 
" style="stroke: #000000; stroke-width: 1.5"/>
      </defs>
      <g>
       <use xlink:href="#m593d30f723" x="55.275591" y="238.110236" style="stroke: #000000; stroke-width: 1.5"/>
      </g>
     </g>
     <g id="text_1">
      <text style="font-size: 15px; font-family: 'Tahoma'; text-anchor: middle" x="55.275591" y="259.007892" transform="rotate(-0 55.275591 259.007892)">0</text>
     </g>
    </g>
    <g id="xtick_2">
     <g id="line2d_3">
      <path d="M 97.425539 238.110236 
L 97.425539 22.677165 
" clip-path="url(#p12b28d0cc1)" style="fill: none; stroke: #d0d0d0; stroke-opacity: 0.65; stroke-width: 1.2; stroke-linecap: square"/>
     </g>
     <g id="line2d_4">
      <g>
       <use xlink:href="#m593d30f723" x="97.425539" y="238.110236" style="stroke: #000000; stroke-width: 1.5"/>
      </g>
     </g>
     <g id="text_2">
      <text style="font-size: 15px; font-family: 'Tahoma'; text-anchor: middle" x="97.425539" y="259.007892" transform="rotate(-0 97.425539 259.007892)">3</text>
     </g>
    </g>
    <g id="xtick_3">
     <g id="line2d_5">
      <path d="M 139.575488 238.110236 
L 139.575488 22.677165 
" clip-path="url(#p12b28d0cc1)" style="fill: none; stroke: #d0d0d0; stroke-opacity: 0.65; stroke-width: 1.2; stroke-linecap: square"/>
     </g>
     <g id="line2d_6">
      <g>
       <use xlink:href="#m593d30f723" x="139.575488" y="238.110236" style="stroke: #000000; stroke-width: 1.5"/>
      </g>
     </g>
     <g id="text_3">
      <text style="font-size: 15px; font-family: 'Tahoma'; text-anchor: middle" x="139.575488" y="259.007892" transform="rotate(-0 139.575488 259.007892)">6</text>
     </g>
    </g>
    <g id="xtick_4">
     <g id="line2d_7">
      <path d="M 181.725436 238.110236 
L 181.725436 22.677165 
" clip-path="url(#p12b28d0cc1)" style="fill: none; stroke: #d0d0d0; stroke-opacity: 0.65; stroke-width: 1.2; stroke-linecap: square"/>
     </g>
     <g id="line2d_8">
      <g>
       <use xlink:href="#m593d30f723" x="181.725436" y="238.110236" style="stroke: #000000; stroke-width: 1.5"/>
      </g>
     </g>
     <g id="text_4">
      <text style="font-size: 15px; font-family: 'Tahoma'; text-anchor: middle" x="181.725436" y="259.007892" transform="rotate(-0 181.725436 259.007892)">9</text>
     </g>
    </g>
    <g id="xtick_5">
     <g id="line2d_9">
      <path d="M 223.875385 238.110236 
L 223.875385 22.677165 
" clip-path="url(#p12b28d0cc1)" style="fill: none; stroke: #d0d0d0; stroke-opacity: 0.65; stroke-width: 1.2; stroke-linecap: square"/>
     </g>
     <g id="line2d_10">
      <g>
       <use xlink:href="#m593d30f723" x="223.875385" y="238.110236" style="stroke: #000000; stroke-width: 1.5"/>
      </g>
     </g>
     <g id="text_5">
      <text style="font-size: 15px; font-family: 'Tahoma'; text-anchor: middle" x="223.875385" y="259.007892" transform="rotate(-0 223.875385 259.007892)">12</text>
     </g>
    </g>
    <g id="xtick_6">
     <g id="line2d_11">
      <path d="M 266.025334 238.110236 
L 266.025334 22.677165 
" clip-path="url(#p12b28d0cc1)" style="fill: none; stroke: #d0d0d0; stroke-opacity: 0.65; stroke-width: 1.2; stroke-linecap: square"/>
     </g>
     <g id="line2d_12">
      <g>
       <use xlink:href="#m593d30f723" x="266.025334" y="238.110236" style="stroke: #000000; stroke-width: 1.5"/>
      </g>
     </g>
     <g id="text_6">
      <text style="font-size: 15px; font-family: 'Tahoma'; text-anchor: middle" x="266.025334" y="259.007892" transform="rotate(-0 266.025334 259.007892)">15</text>
     </g>
    </g>
    <g id="xtick_7">
     <g id="line2d_13">
      <path d="M 308.175282 238.110236 
L 308.175282 22.677165 
" clip-path="url(#p12b28d0cc1)" style="fill: none; stroke: #d0d0d0; stroke-opacity: 0.65; stroke-width: 1.2; stroke-linecap: square"/>
     </g>
     <g id="line2d_14">
      <g>
       <use xlink:href="#m593d30f723" x="308.175282" y="238.110236" style="stroke: #000000; stroke-width: 1.5"/>
      </g>
     </g>
     <g id="text_7">
      <text style="font-size: 15px; font-family: 'Tahoma'; text-anchor: middle" x="308.175282" y="259.007892" transform="rotate(-0 308.175282 259.007892)">18</text>
     </g>
    </g>
    <g id="xtick_8">
     <g id="line2d_15">
      <path d="M 350.325231 238.110236 
L 350.325231 22.677165 
" clip-path="url(#p12b28d0cc1)" style="fill: none; stroke: #d0d0d0; stroke-opacity: 0.65; stroke-width: 1.2; stroke-linecap: square"/>
     </g>
     <g id="line2d_16">
      <g>
       <use xlink:href="#m593d30f723" x="350.325231" y="238.110236" style="stroke: #000000; stroke-width: 1.5"/>
      </g>
     </g>
     <g id="text_8">
      <text style="font-size: 15px; font-family: 'Tahoma'; text-anchor: middle" x="350.325231" y="259.007892" transform="rotate(-0 350.325231 259.007892)">21</text>
     </g>
    </g>
    <g id="xtick_9">
     <g id="line2d_17">
      <path d="M 378.425197 238.110236 
L 378.425197 22.677165 
" clip-path="url(#p12b28d0cc1)" style="fill: none; stroke: #d0d0d0; stroke-opacity: 0.65; stroke-width: 1.2; stroke-linecap: square"/>
     </g>
     <g id="line2d_18">
      <g>
       <use xlink:href="#m593d30f723" x="378.425197" y="238.110236" style="stroke: #000000; stroke-width: 1.5"/>
      </g>
     </g>
     <g id="text_9">
      <text style="font-size: 15px; font-family: 'Tahoma'; text-anchor: middle" x="378.425197" y="259.007892" transform="rotate(-0 378.425197 259.007892)">23</text>
     </g>
    </g>
    <g id="text_10">
     <text style="font-size: 18px; font-family: 'Tahoma'; text-anchor: middle" x="216.850394" y="279.70383" transform="rotate(-0 216.850394 279.70383)">Hour (local time)</text>
    </g>
   </g>
   <g id="matplotlib.axis_2">
    <g id="ytick_1">
     <g id="line2d_19">
      <path d="M 55.275591 230.313848 
L 378.425197 230.313848 
" clip-path="url(#p12b28d0cc1)" style="fill: none; stroke: #d0d0d0; stroke-opacity: 0.65; stroke-width: 1.2; stroke-linecap: square"/>
     </g>
     <g id="line2d_20">
      <defs>
       <path id="m1468abbe7e" d="M 0 0 
L -6 0 
" style="stroke: #000000; stroke-width: 1.5"/>
      </defs>
      <g>
       <use xlink:href="#m1468abbe7e" x="55.275591" y="230.313848" style="stroke: #000000; stroke-width: 1.5"/>
      </g>
     </g>
     <g id="text_11">
      <text style="font-size: 15px; font-family: 'Tahoma'; text-anchor: end" x="45.775591" y="236.012676" transform="rotate(-0 45.775591 236.012676)">12.5</text>
     </g>
    </g>
    <g id="ytick_2">
     <g id="line2d_21">
      <path d="M 55.275591 193.810982 
L 378.425197 193.810982 
" clip-path="url(#p12b28d0cc1)" style="fill: none; stroke: #d0d0d0; stroke-opacity: 0.65; stroke-width: 1.2; stroke-linecap: square"/>
     </g>
     <g id="line2d_22">
      <g>
       <use xlink:href="#m1468abbe7e" x="55.275591" y="193.810982" style="stroke: #000000; stroke-width: 1.5"/>
      </g>
     </g>
     <g id="text_12">
      <text style="font-size: 15px; font-family: 'Tahoma'; text-anchor: end" x="45.775591" y="199.50981" transform="rotate(-0 45.775591 199.50981)">15.0</text>
     </g>
    </g>
    <g id="ytick_3">
     <g id="line2d_23">
      <path d="M 55.275591 157.308116 
L 378.425197 157.308116 
" clip-path="url(#p12b28d0cc1)" style="fill: none; stroke: #d0d0d0; stroke-opacity: 0.65; stroke-width: 1.2; stroke-linecap: square"/>
     </g>
     <g id="line2d_24">
      <g>
       <use xlink:href="#m1468abbe7e" x="55.275591" y="157.308116" style="stroke: #000000; stroke-width: 1.5"/>
      </g>
     </g>
     <g id="text_13">
      <text style="font-size: 15px; font-family: 'Tahoma'; text-anchor: end" x="45.775591" y="163.006944" transform="rotate(-0 45.775591 163.006944)">17.5</text>
     </g>
    </g>
    <g id="ytick_4">
     <g id="line2d_25">
      <path d="M 55.275591 120.805249 
L 378.425197 120.805249 
" clip-path="url(#p12b28d0cc1)" style="fill: none; stroke: #d0d0d0; stroke-opacity: 0.65; stroke-width: 1.2; stroke-linecap: square"/>
     </g>
     <g id="line2d_26">
      <g>
       <use xlink:href="#m1468abbe7e" x="55.275591" y="120.805249" style="stroke: #000000; stroke-width: 1.5"/>
      </g>
     </g>
     <g id="text_14">
      <text style="font-size: 15px; font-family: 'Tahoma'; text-anchor: end" x="45.775591" y="126.504077" transform="rotate(-0 45.775591 126.504077)">20.0</text>
     </g>
    </g>
    <g id="ytick_5">
     <g id="line2d_27">
      <path d="M 55.275591 84.302383 
L 378.425197 84.302383 
" clip-path="url(#p12b28d0cc1)" style="fill: none; stroke: #d0d0d0; stroke-opacity: 0.65; stroke-width: 1.2; stroke-linecap: square"/>
     </g>
     <g id="line2d_28">
      <g>
       <use xlink:href="#m1468abbe7e" x="55.275591" y="84.302383" style="stroke: #000000; stroke-width: 1.5"/>
      </g>
     </g>
     <g id="text_15">
      <text style="font-size: 15px; font-family: 'Tahoma'; text-anchor: end" x="45.775591" y="90.001211" transform="rotate(-0 45.775591 90.001211)">22.5</text>
     </g>
    </g>
    <g id="ytick_6">
     <g id="line2d_29">
      <path d="M 55.275591 47.799517 
L 378.425197 47.799517 
" clip-path="url(#p12b28d0cc1)" style="fill: none; stroke: #d0d0d0; stroke-opacity: 0.65; stroke-width: 1.2; stroke-linecap: square"/>
     </g>
     <g id="line2d_30">
      <g>
       <use xlink:href="#m1468abbe7e" x="55.275591" y="47.799517" style="stroke: #000000; stroke-width: 1.5"/>
      </g>
     </g>
     <g id="text_16">
      <text style="font-size: 15px; font-family: 'Tahoma'; text-anchor: end" x="45.775591" y="53.498345" transform="rotate(-0 45.775591 53.498345)">25.0</text>
     </g>
    </g>
    <g id="text_17">
     <text style="font-size: 18px; font-family: 'Tahoma'; text-anchor: middle" x="9.043716" y="130.393701" transform="rotate(-90 9.043716 130.393701)">15 cm air temperature (°C)</text>
    </g>
   </g>
   <g id="text_18">
    <path d="M 208.285507 229.57058 
Q 207.465195 229.57058 206.750351 229.352611 
Q 206.035507 229.132299 205.566757 228.883861 
L 205.566757 227.336986 
L 205.641757 227.336986 
Q 205.817538 227.477611 206.054257 227.646361 
Q 206.29332 227.812768 206.689413 227.99558 
Q 207.040976 228.157299 207.460507 228.281518 
Q 207.882382 228.405736 208.33707 228.405736 
Q 208.665195 228.405736 209.037851 228.330736 
Q 209.412851 228.253393 209.595663 228.136205 
Q 209.853476 227.967455 209.965976 227.777611 
Q 210.078476 227.585424 210.078476 227.205736 
Q 210.078476 226.715893 209.811288 226.467455 
Q 209.544101 226.216674 208.864413 226.047924 
Q 208.59957 225.982299 208.175351 225.89558 
Q 207.751132 225.806518 207.392538 225.703393 
Q 206.455038 225.433861 206.028476 224.866674 
Q 205.604257 224.297143 205.604257 223.493236 
Q 205.604257 222.386986 206.438632 221.690893 
Q 207.275351 220.994799 208.658163 220.994799 
Q 209.340195 220.994799 210.026913 221.163549 
Q 210.715976 221.332299 211.184726 221.587768 
L 211.184726 223.059643 
L 211.11207 223.059643 
Q 210.584726 222.642455 209.935507 222.401049 
Q 209.288632 222.159643 208.630038 222.159643 
Q 207.948007 222.159643 207.479257 222.44558 
Q 207.010507 222.731518 207.010507 223.30808 
Q 207.010507 223.821361 207.289413 224.074486 
Q 207.56832 224.327611 208.182382 224.48933 
Q 208.489413 224.569018 208.866757 224.646361 
Q 209.244101 224.723705 209.661288 224.824486 
Q 210.570663 225.05183 211.027695 225.579174 
Q 211.484726 226.106518 211.484726 227.015893 
Q 211.484726 227.543236 211.276132 228.016674 
Q 211.067538 228.487768 210.664413 228.825268 
Q 210.226132 229.190893 209.673007 229.380736 
Q 209.119882 229.57058 208.285507 229.57058 
z
M 219.498593 225.286205 
Q 219.498593 227.351049 218.502499 228.476049 
Q 217.506406 229.601049 215.851718 229.601049 
Q 214.145468 229.601049 213.165781 228.440893 
Q 212.188437 227.278393 212.188437 225.286205 
Q 212.188437 223.235424 213.196249 222.101049 
Q 214.204062 220.96433 215.851718 220.96433 
Q 217.506406 220.96433 218.502499 222.096361 
Q 219.498593 223.228393 219.498593 225.286205 
z
M 218.078281 225.286205 
Q 218.078281 223.697143 217.499374 222.926049 
Q 216.920468 222.152611 215.851718 222.152611 
Q 214.773593 222.152611 214.189999 222.926049 
Q 213.608749 223.697143 213.608749 225.286205 
Q 213.608749 226.823705 214.189999 227.62058 
Q 214.773593 228.415111 215.851718 228.415111 
Q 216.913437 228.415111 217.494687 227.634643 
Q 218.078281 226.854174 218.078281 225.286205 
z
M 222.318124 229.373705 
L 220.942343 229.373705 
L 220.942343 217.976049 
L 222.318124 217.976049 
L 222.318124 229.373705 
z
M 228.909921 227.360424 
L 228.909921 225.08933 
Q 228.420077 225.133861 227.667734 225.211205 
Q 226.917734 225.286205 226.456015 225.42683 
Q 225.907577 225.593236 225.548984 225.942455 
Q 225.19039 226.28933 225.19039 226.912768 
Q 225.19039 227.615893 225.58414 227.974486 
Q 225.980234 228.33308 226.741952 228.33308 
Q 227.393515 228.33308 227.920859 228.05183 
Q 228.448202 227.77058 228.909921 227.360424 
z
M 228.909921 228.50183 
Q 228.741171 228.626049 228.459921 228.851049 
Q 228.178671 229.073705 227.913827 229.204955 
Q 227.548202 229.394799 227.206015 229.497924 
Q 226.866171 229.601049 226.252109 229.601049 
Q 225.745859 229.601049 225.291171 229.408861 
Q 224.838827 229.219018 224.494296 228.874486 
Q 224.163827 228.53933 223.964609 228.044799 
Q 223.767734 227.550268 223.767734 226.999486 
Q 223.767734 226.151049 224.126327 225.555736 
Q 224.487265 224.95808 225.263046 224.606518 
Q 225.952109 224.290111 226.889609 224.17058 
Q 227.827109 224.048705 228.909921 223.990111 
L 228.909921 223.727611 
Q 228.909921 223.242455 228.762265 222.947143 
Q 228.616952 222.649486 228.354452 222.487768 
Q 228.089609 222.321361 227.707577 222.267455 
Q 227.32789 222.211205 226.924765 222.211205 
Q 226.448984 222.211205 225.804452 222.354174 
Q 225.159921 222.497143 224.51539 222.766674 
L 224.435702 222.766674 
L 224.435702 221.367455 
Q 224.81539 221.257299 225.525546 221.126049 
Q 226.235702 220.994799 226.931796 220.994799 
Q 227.775546 220.994799 228.352109 221.126049 
Q 228.931015 221.257299 229.392734 221.60183 
Q 229.84039 221.93933 230.058359 222.473705 
Q 230.278671 223.00808 230.278671 223.77683 
L 230.278671 229.373705 
L 228.909921 229.373705 
L 228.909921 228.50183 
z
M 236.549081 222.672924 
L 236.476425 222.672924 
Q 236.321738 222.628393 236.1483 222.616674 
Q 235.977206 222.604955 235.7358 222.604955 
Q 235.180331 222.604955 234.62955 222.848705 
Q 234.081113 223.090111 233.591269 223.565893 
L 233.591269 229.373705 
L 232.213144 229.373705 
L 232.213144 221.191674 
L 233.591269 221.191674 
L 233.591269 222.40808 
Q 234.343613 221.742455 234.903769 221.468236 
Q 235.466269 221.191674 235.993613 221.191674 
Q 236.20455 221.191674 236.310019 221.203393 
Q 236.417831 221.215111 236.549081 221.236205 
L 236.549081 222.672924 
z
M 246.641855 222.672924 
L 246.569199 222.672924 
Q 246.414511 222.628393 246.241074 222.616674 
Q 246.06998 222.604955 245.828574 222.604955 
Q 245.273105 222.604955 244.722324 222.848705 
Q 244.173886 223.090111 243.684042 223.565893 
L 243.684042 229.373705 
L 242.305917 229.373705 
L 242.305917 221.191674 
L 243.684042 221.191674 
L 243.684042 222.40808 
Q 244.436386 221.742455 244.996542 221.468236 
Q 245.559042 221.191674 246.086386 221.191674 
Q 246.297324 221.191674 246.402792 221.203393 
Q 246.510605 221.215111 246.641855 221.236205 
L 246.641855 222.672924 
z
M 252.019003 227.360424 
L 252.019003 225.08933 
Q 251.52916 225.133861 250.776816 225.211205 
Q 250.026816 225.286205 249.565097 225.42683 
Q 249.01666 225.593236 248.658066 225.942455 
Q 248.299472 226.28933 248.299472 226.912768 
Q 248.299472 227.615893 248.693222 227.974486 
Q 249.089316 228.33308 249.851035 228.33308 
Q 250.502597 228.33308 251.029941 228.05183 
Q 251.557285 227.77058 252.019003 227.360424 
z
M 252.019003 228.50183 
Q 251.850253 228.626049 251.569003 228.851049 
Q 251.287753 229.073705 251.02291 229.204955 
Q 250.657285 229.394799 250.315097 229.497924 
Q 249.975253 229.601049 249.361191 229.601049 
Q 248.854941 229.601049 248.400253 229.408861 
Q 247.94791 229.219018 247.603378 228.874486 
Q 247.27291 228.53933 247.073691 228.044799 
Q 246.876816 227.550268 246.876816 226.999486 
Q 246.876816 226.151049 247.23541 225.555736 
Q 247.596347 224.95808 248.372128 224.606518 
Q 249.061191 224.290111 249.998691 224.17058 
Q 250.936191 224.048705 252.019003 223.990111 
L 252.019003 223.727611 
Q 252.019003 223.242455 251.871347 222.947143 
Q 251.726035 222.649486 251.463535 222.487768 
Q 251.198691 222.321361 250.81666 222.267455 
Q 250.436972 222.211205 250.033847 222.211205 
Q 249.558066 222.211205 248.913535 222.354174 
Q 248.269003 222.497143 247.624472 222.766674 
L 247.544785 222.766674 
L 247.544785 221.367455 
Q 247.924472 221.257299 248.634628 221.126049 
Q 249.344785 220.994799 250.040878 220.994799 
Q 250.884628 220.994799 251.461191 221.126049 
Q 252.040097 221.257299 252.501816 221.60183 
Q 252.949472 221.93933 253.167441 222.473705 
Q 253.387753 223.00808 253.387753 223.77683 
L 253.387753 229.373705 
L 252.019003 229.373705 
L 252.019003 228.50183 
z
M 261.622226 229.373705 
L 260.244101 229.373705 
L 260.244101 228.53933 
Q 259.923007 228.808861 259.688632 228.984643 
Q 259.454257 229.160424 259.137851 229.30808 
Q 258.844882 229.446361 258.528476 229.523705 
Q 258.214413 229.601049 257.797226 229.601049 
Q 257.131601 229.601049 256.564413 229.322143 
Q 255.997226 229.043236 255.601132 228.508861 
Q 255.198007 227.967455 254.977695 227.172924 
Q 254.757382 226.378393 254.757382 225.344799 
Q 254.757382 224.269018 255.036288 223.481518 
Q 255.315195 222.694018 255.805038 222.10808 
Q 256.252695 221.573705 256.885507 221.269018 
Q 257.520663 220.96433 258.214413 220.96433 
Q 258.83082 220.96433 259.283163 221.100268 
Q 259.737851 221.236205 260.244101 221.522143 
L 260.244101 217.976049 
L 261.622226 217.976049 
L 261.622226 229.373705 
z
M 260.244101 227.381518 
L 260.244101 222.663549 
Q 259.73082 222.415111 259.323007 222.321361 
Q 258.917538 222.225268 258.441757 222.225268 
Q 257.380038 222.225268 256.780038 223.019799 
Q 256.180038 223.81433 256.180038 225.316674 
Q 256.180038 226.75808 256.639413 227.524486 
Q 257.101132 228.288549 258.120663 228.288549 
Q 258.66207 228.288549 259.210507 228.044799 
Q 259.761288 227.798705 260.244101 227.381518 
z
M 265.019492 229.373705 
L 263.64371 229.373705 
L 263.64371 221.191674 
L 265.019492 221.191674 
L 265.019492 229.373705 
z
M 265.115585 219.822924 
L 263.547617 219.822924 
L 263.547617 218.39558 
L 265.115585 218.39558 
L 265.115585 219.822924 
z
M 271.611288 227.360424 
L 271.611288 225.08933 
Q 271.121445 225.133861 270.369101 225.211205 
Q 269.619101 225.286205 269.157382 225.42683 
Q 268.608945 225.593236 268.250351 225.942455 
Q 267.891757 226.28933 267.891757 226.912768 
Q 267.891757 227.615893 268.285507 227.974486 
Q 268.681601 228.33308 269.44332 228.33308 
Q 270.094882 228.33308 270.622226 228.05183 
Q 271.14957 227.77058 271.611288 227.360424 
z
M 271.611288 228.50183 
Q 271.442538 228.626049 271.161288 228.851049 
Q 270.880038 229.073705 270.615195 229.204955 
Q 270.24957 229.394799 269.907382 229.497924 
Q 269.567538 229.601049 268.953476 229.601049 
Q 268.447226 229.601049 267.992538 229.408861 
Q 267.540195 229.219018 267.195663 228.874486 
Q 266.865195 228.53933 266.665976 228.044799 
Q 266.469101 227.550268 266.469101 226.999486 
Q 266.469101 226.151049 266.827695 225.555736 
Q 267.188632 224.95808 267.964413 224.606518 
Q 268.653476 224.290111 269.590976 224.17058 
Q 270.528476 224.048705 271.611288 223.990111 
L 271.611288 223.727611 
Q 271.611288 223.242455 271.463632 222.947143 
Q 271.31832 222.649486 271.05582 222.487768 
Q 270.790976 222.321361 270.408945 222.267455 
Q 270.029257 222.211205 269.626132 222.211205 
Q 269.150351 222.211205 268.50582 222.354174 
Q 267.861288 222.497143 267.216757 222.766674 
L 267.13707 222.766674 
L 267.13707 221.367455 
Q 267.516757 221.257299 268.226913 221.126049 
Q 268.93707 220.994799 269.633163 220.994799 
Q 270.476913 220.994799 271.053476 221.126049 
Q 271.632382 221.257299 272.094101 221.60183 
Q 272.541757 221.93933 272.759726 222.473705 
Q 272.980038 223.00808 272.980038 223.77683 
L 272.980038 229.373705 
L 271.611288 229.373705 
L 271.611288 228.50183 
z
M 277.389511 229.535424 
Q 276.262167 229.535424 275.631699 228.89558 
Q 275.003574 228.253393 275.003574 226.868236 
L 275.003574 222.335424 
L 274.073105 222.335424 
L 274.073105 221.191674 
L 275.003574 221.191674 
L 275.003574 218.840893 
L 276.379355 218.840893 
L 276.379355 221.191674 
L 278.912949 221.191674 
L 278.912949 222.335424 
L 276.379355 222.335424 
L 276.379355 226.223705 
Q 276.379355 226.847143 276.400449 227.184643 
Q 276.423886 227.519799 276.569199 227.812768 
Q 276.693417 228.07058 276.972324 228.199486 
Q 277.25123 228.326049 277.727011 228.326049 
Q 278.064511 228.326049 278.378574 228.227611 
Q 278.69498 228.129174 278.833261 228.063549 
L 278.912949 228.063549 
L 278.912949 229.301049 
Q 278.52623 229.411205 278.125449 229.472143 
Q 277.727011 229.535424 277.389511 229.535424 
z
M 281.337851 229.373705 
L 279.96207 229.373705 
L 279.96207 221.191674 
L 281.337851 221.191674 
L 281.337851 229.373705 
z
M 281.433945 219.822924 
L 279.865976 219.822924 
L 279.865976 218.39558 
L 281.433945 218.39558 
L 281.433945 219.822924 
z
M 290.090585 225.286205 
Q 290.090585 227.351049 289.094492 228.476049 
Q 288.098398 229.601049 286.44371 229.601049 
Q 284.73746 229.601049 283.757773 228.440893 
Q 282.780429 227.278393 282.780429 225.286205 
Q 282.780429 223.235424 283.788242 222.101049 
Q 284.796054 220.96433 286.44371 220.96433 
Q 288.098398 220.96433 289.094492 222.096361 
Q 290.090585 223.228393 290.090585 225.286205 
z
M 288.670273 225.286205 
Q 288.670273 223.697143 288.091367 222.926049 
Q 287.51246 222.152611 286.44371 222.152611 
Q 285.365585 222.152611 284.781992 222.926049 
Q 284.200742 223.697143 284.200742 225.286205 
Q 284.200742 226.823705 284.781992 227.62058 
Q 285.365585 228.415111 286.44371 228.415111 
Q 287.505429 228.415111 288.086679 227.634643 
Q 288.670273 226.854174 288.670273 225.286205 
z
M 297.935117 229.373705 
L 296.556992 229.373705 
L 296.556992 224.71433 
Q 296.556992 224.15183 296.500742 223.66433 
Q 296.446835 223.17683 296.294492 222.883861 
Q 296.125742 222.57683 295.825742 222.42683 
Q 295.525742 222.27683 295.005429 222.27683 
Q 294.492148 222.27683 293.946054 222.551049 
Q 293.39996 222.825268 292.881992 223.265893 
L 292.881992 229.373705 
L 291.503867 229.373705 
L 291.503867 221.191674 
L 292.881992 221.191674 
L 292.881992 222.101049 
Q 293.496054 221.550268 294.096054 221.257299 
Q 294.698398 220.96433 295.364023 220.96433 
Q 296.573398 220.96433 297.253085 221.761205 
Q 297.935117 222.555736 297.935117 224.062768 
L 297.935117 229.373705 
z
" style="opacity: 0.75; stroke: #ffffff; stroke-width: 2"/>
    <path d="M 208.285507 229.57058 
Q 207.465195 229.57058 206.750351 229.352611 
Q 206.035507 229.132299 205.566757 228.883861 
L 205.566757 227.336986 
L 205.641757 227.336986 
Q 205.817538 227.477611 206.054257 227.646361 
Q 206.29332 227.812768 206.689413 227.99558 
Q 207.040976 228.157299 207.460507 228.281518 
Q 207.882382 228.405736 208.33707 228.405736 
Q 208.665195 228.405736 209.037851 228.330736 
Q 209.412851 228.253393 209.595663 228.136205 
Q 209.853476 227.967455 209.965976 227.777611 
Q 210.078476 227.585424 210.078476 227.205736 
Q 210.078476 226.715893 209.811288 226.467455 
Q 209.544101 226.216674 208.864413 226.047924 
Q 208.59957 225.982299 208.175351 225.89558 
Q 207.751132 225.806518 207.392538 225.703393 
Q 206.455038 225.433861 206.028476 224.866674 
Q 205.604257 224.297143 205.604257 223.493236 
Q 205.604257 222.386986 206.438632 221.690893 
Q 207.275351 220.994799 208.658163 220.994799 
Q 209.340195 220.994799 210.026913 221.163549 
Q 210.715976 221.332299 211.184726 221.587768 
L 211.184726 223.059643 
L 211.11207 223.059643 
Q 210.584726 222.642455 209.935507 222.401049 
Q 209.288632 222.159643 208.630038 222.159643 
Q 207.948007 222.159643 207.479257 222.44558 
Q 207.010507 222.731518 207.010507 223.30808 
Q 207.010507 223.821361 207.289413 224.074486 
Q 207.56832 224.327611 208.182382 224.48933 
Q 208.489413 224.569018 208.866757 224.646361 
Q 209.244101 224.723705 209.661288 224.824486 
Q 210.570663 225.05183 211.027695 225.579174 
Q 211.484726 226.106518 211.484726 227.015893 
Q 211.484726 227.543236 211.276132 228.016674 
Q 211.067538 228.487768 210.664413 228.825268 
Q 210.226132 229.190893 209.673007 229.380736 
Q 209.119882 229.57058 208.285507 229.57058 
z
M 219.498593 225.286205 
Q 219.498593 227.351049 218.502499 228.476049 
Q 217.506406 229.601049 215.851718 229.601049 
Q 214.145468 229.601049 213.165781 228.440893 
Q 212.188437 227.278393 212.188437 225.286205 
Q 212.188437 223.235424 213.196249 222.101049 
Q 214.204062 220.96433 215.851718 220.96433 
Q 217.506406 220.96433 218.502499 222.096361 
Q 219.498593 223.228393 219.498593 225.286205 
z
M 218.078281 225.286205 
Q 218.078281 223.697143 217.499374 222.926049 
Q 216.920468 222.152611 215.851718 222.152611 
Q 214.773593 222.152611 214.189999 222.926049 
Q 213.608749 223.697143 213.608749 225.286205 
Q 213.608749 226.823705 214.189999 227.62058 
Q 214.773593 228.415111 215.851718 228.415111 
Q 216.913437 228.415111 217.494687 227.634643 
Q 218.078281 226.854174 218.078281 225.286205 
z
M 222.318124 229.373705 
L 220.942343 229.373705 
L 220.942343 217.976049 
L 222.318124 217.976049 
L 222.318124 229.373705 
z
M 228.909921 227.360424 
L 228.909921 225.08933 
Q 228.420077 225.133861 227.667734 225.211205 
Q 226.917734 225.286205 226.456015 225.42683 
Q 225.907577 225.593236 225.548984 225.942455 
Q 225.19039 226.28933 225.19039 226.912768 
Q 225.19039 227.615893 225.58414 227.974486 
Q 225.980234 228.33308 226.741952 228.33308 
Q 227.393515 228.33308 227.920859 228.05183 
Q 228.448202 227.77058 228.909921 227.360424 
z
M 228.909921 228.50183 
Q 228.741171 228.626049 228.459921 228.851049 
Q 228.178671 229.073705 227.913827 229.204955 
Q 227.548202 229.394799 227.206015 229.497924 
Q 226.866171 229.601049 226.252109 229.601049 
Q 225.745859 229.601049 225.291171 229.408861 
Q 224.838827 229.219018 224.494296 228.874486 
Q 224.163827 228.53933 223.964609 228.044799 
Q 223.767734 227.550268 223.767734 226.999486 
Q 223.767734 226.151049 224.126327 225.555736 
Q 224.487265 224.95808 225.263046 224.606518 
Q 225.952109 224.290111 226.889609 224.17058 
Q 227.827109 224.048705 228.909921 223.990111 
L 228.909921 223.727611 
Q 228.909921 223.242455 228.762265 222.947143 
Q 228.616952 222.649486 228.354452 222.487768 
Q 228.089609 222.321361 227.707577 222.267455 
Q 227.32789 222.211205 226.924765 222.211205 
Q 226.448984 222.211205 225.804452 222.354174 
Q 225.159921 222.497143 224.51539 222.766674 
L 224.435702 222.766674 
L 224.435702 221.367455 
Q 224.81539 221.257299 225.525546 221.126049 
Q 226.235702 220.994799 226.931796 220.994799 
Q 227.775546 220.994799 228.352109 221.126049 
Q 228.931015 221.257299 229.392734 221.60183 
Q 229.84039 221.93933 230.058359 222.473705 
Q 230.278671 223.00808 230.278671 223.77683 
L 230.278671 229.373705 
L 228.909921 229.373705 
L 228.909921 228.50183 
z
M 236.549081 222.672924 
L 236.476425 222.672924 
Q 236.321738 222.628393 236.1483 222.616674 
Q 235.977206 222.604955 235.7358 222.604955 
Q 235.180331 222.604955 234.62955 222.848705 
Q 234.081113 223.090111 233.591269 223.565893 
L 233.591269 229.373705 
L 232.213144 229.373705 
L 232.213144 221.191674 
L 233.591269 221.191674 
L 233.591269 222.40808 
Q 234.343613 221.742455 234.903769 221.468236 
Q 235.466269 221.191674 235.993613 221.191674 
Q 236.20455 221.191674 236.310019 221.203393 
Q 236.417831 221.215111 236.549081 221.236205 
L 236.549081 222.672924 
z
M 246.641855 222.672924 
L 246.569199 222.672924 
Q 246.414511 222.628393 246.241074 222.616674 
Q 246.06998 222.604955 245.828574 222.604955 
Q 245.273105 222.604955 244.722324 222.848705 
Q 244.173886 223.090111 243.684042 223.565893 
L 243.684042 229.373705 
L 242.305917 229.373705 
L 242.305917 221.191674 
L 243.684042 221.191674 
L 243.684042 222.40808 
Q 244.436386 221.742455 244.996542 221.468236 
Q 245.559042 221.191674 246.086386 221.191674 
Q 246.297324 221.191674 246.402792 221.203393 
Q 246.510605 221.215111 246.641855 221.236205 
L 246.641855 222.672924 
z
M 252.019003 227.360424 
L 252.019003 225.08933 
Q 251.52916 225.133861 250.776816 225.211205 
Q 250.026816 225.286205 249.565097 225.42683 
Q 249.01666 225.593236 248.658066 225.942455 
Q 248.299472 226.28933 248.299472 226.912768 
Q 248.299472 227.615893 248.693222 227.974486 
Q 249.089316 228.33308 249.851035 228.33308 
Q 250.502597 228.33308 251.029941 228.05183 
Q 251.557285 227.77058 252.019003 227.360424 
z
M 252.019003 228.50183 
Q 251.850253 228.626049 251.569003 228.851049 
Q 251.287753 229.073705 251.02291 229.204955 
Q 250.657285 229.394799 250.315097 229.497924 
Q 249.975253 229.601049 249.361191 229.601049 
Q 248.854941 229.601049 248.400253 229.408861 
Q 247.94791 229.219018 247.603378 228.874486 
Q 247.27291 228.53933 247.073691 228.044799 
Q 246.876816 227.550268 246.876816 226.999486 
Q 246.876816 226.151049 247.23541 225.555736 
Q 247.596347 224.95808 248.372128 224.606518 
Q 249.061191 224.290111 249.998691 224.17058 
Q 250.936191 224.048705 252.019003 223.990111 
L 252.019003 223.727611 
Q 252.019003 223.242455 251.871347 222.947143 
Q 251.726035 222.649486 251.463535 222.487768 
Q 251.198691 222.321361 250.81666 222.267455 
Q 250.436972 222.211205 250.033847 222.211205 
Q 249.558066 222.211205 248.913535 222.354174 
Q 248.269003 222.497143 247.624472 222.766674 
L 247.544785 222.766674 
L 247.544785 221.367455 
Q 247.924472 221.257299 248.634628 221.126049 
Q 249.344785 220.994799 250.040878 220.994799 
Q 250.884628 220.994799 251.461191 221.126049 
Q 252.040097 221.257299 252.501816 221.60183 
Q 252.949472 221.93933 253.167441 222.473705 
Q 253.387753 223.00808 253.387753 223.77683 
L 253.387753 229.373705 
L 252.019003 229.373705 
L 252.019003 228.50183 
z
M 261.622226 229.373705 
L 260.244101 229.373705 
L 260.244101 228.53933 
Q 259.923007 228.808861 259.688632 228.984643 
Q 259.454257 229.160424 259.137851 229.30808 
Q 258.844882 229.446361 258.528476 229.523705 
Q 258.214413 229.601049 257.797226 229.601049 
Q 257.131601 229.601049 256.564413 229.322143 
Q 255.997226 229.043236 255.601132 228.508861 
Q 255.198007 227.967455 254.977695 227.172924 
Q 254.757382 226.378393 254.757382 225.344799 
Q 254.757382 224.269018 255.036288 223.481518 
Q 255.315195 222.694018 255.805038 222.10808 
Q 256.252695 221.573705 256.885507 221.269018 
Q 257.520663 220.96433 258.214413 220.96433 
Q 258.83082 220.96433 259.283163 221.100268 
Q 259.737851 221.236205 260.244101 221.522143 
L 260.244101 217.976049 
L 261.622226 217.976049 
L 261.622226 229.373705 
z
M 260.244101 227.381518 
L 260.244101 222.663549 
Q 259.73082 222.415111 259.323007 222.321361 
Q 258.917538 222.225268 258.441757 222.225268 
Q 257.380038 222.225268 256.780038 223.019799 
Q 256.180038 223.81433 256.180038 225.316674 
Q 256.180038 226.75808 256.639413 227.524486 
Q 257.101132 228.288549 258.120663 228.288549 
Q 258.66207 228.288549 259.210507 228.044799 
Q 259.761288 227.798705 260.244101 227.381518 
z
M 265.019492 229.373705 
L 263.64371 229.373705 
L 263.64371 221.191674 
L 265.019492 221.191674 
L 265.019492 229.373705 
z
M 265.115585 219.822924 
L 263.547617 219.822924 
L 263.547617 218.39558 
L 265.115585 218.39558 
L 265.115585 219.822924 
z
M 271.611288 227.360424 
L 271.611288 225.08933 
Q 271.121445 225.133861 270.369101 225.211205 
Q 269.619101 225.286205 269.157382 225.42683 
Q 268.608945 225.593236 268.250351 225.942455 
Q 267.891757 226.28933 267.891757 226.912768 
Q 267.891757 227.615893 268.285507 227.974486 
Q 268.681601 228.33308 269.44332 228.33308 
Q 270.094882 228.33308 270.622226 228.05183 
Q 271.14957 227.77058 271.611288 227.360424 
z
M 271.611288 228.50183 
Q 271.442538 228.626049 271.161288 228.851049 
Q 270.880038 229.073705 270.615195 229.204955 
Q 270.24957 229.394799 269.907382 229.497924 
Q 269.567538 229.601049 268.953476 229.601049 
Q 268.447226 229.601049 267.992538 229.408861 
Q 267.540195 229.219018 267.195663 228.874486 
Q 266.865195 228.53933 266.665976 228.044799 
Q 266.469101 227.550268 266.469101 226.999486 
Q 266.469101 226.151049 266.827695 225.555736 
Q 267.188632 224.95808 267.964413 224.606518 
Q 268.653476 224.290111 269.590976 224.17058 
Q 270.528476 224.048705 271.611288 223.990111 
L 271.611288 223.727611 
Q 271.611288 223.242455 271.463632 222.947143 
Q 271.31832 222.649486 271.05582 222.487768 
Q 270.790976 222.321361 270.408945 222.267455 
Q 270.029257 222.211205 269.626132 222.211205 
Q 269.150351 222.211205 268.50582 222.354174 
Q 267.861288 222.497143 267.216757 222.766674 
L 267.13707 222.766674 
L 267.13707 221.367455 
Q 267.516757 221.257299 268.226913 221.126049 
Q 268.93707 220.994799 269.633163 220.994799 
Q 270.476913 220.994799 271.053476 221.126049 
Q 271.632382 221.257299 272.094101 221.60183 
Q 272.541757 221.93933 272.759726 222.473705 
Q 272.980038 223.00808 272.980038 223.77683 
L 272.980038 229.373705 
L 271.611288 229.373705 
L 271.611288 228.50183 
z
M 277.389511 229.535424 
Q 276.262167 229.535424 275.631699 228.89558 
Q 275.003574 228.253393 275.003574 226.868236 
L 275.003574 222.335424 
L 274.073105 222.335424 
L 274.073105 221.191674 
L 275.003574 221.191674 
L 275.003574 218.840893 
L 276.379355 218.840893 
L 276.379355 221.191674 
L 278.912949 221.191674 
L 278.912949 222.335424 
L 276.379355 222.335424 
L 276.379355 226.223705 
Q 276.379355 226.847143 276.400449 227.184643 
Q 276.423886 227.519799 276.569199 227.812768 
Q 276.693417 228.07058 276.972324 228.199486 
Q 277.25123 228.326049 277.727011 228.326049 
Q 278.064511 228.326049 278.378574 228.227611 
Q 278.69498 228.129174 278.833261 228.063549 
L 278.912949 228.063549 
L 278.912949 229.301049 
Q 278.52623 229.411205 278.125449 229.472143 
Q 277.727011 229.535424 277.389511 229.535424 
z
M 281.337851 229.373705 
L 279.96207 229.373705 
L 279.96207 221.191674 
L 281.337851 221.191674 
L 281.337851 229.373705 
z
M 281.433945 219.822924 
L 279.865976 219.822924 
L 279.865976 218.39558 
L 281.433945 218.39558 
L 281.433945 219.822924 
z
M 290.090585 225.286205 
Q 290.090585 227.351049 289.094492 228.476049 
Q 288.098398 229.601049 286.44371 229.601049 
Q 284.73746 229.601049 283.757773 228.440893 
Q 282.780429 227.278393 282.780429 225.286205 
Q 282.780429 223.235424 283.788242 222.101049 
Q 284.796054 220.96433 286.44371 220.96433 
Q 288.098398 220.96433 289.094492 222.096361 
Q 290.090585 223.228393 290.090585 225.286205 
z
M 288.670273 225.286205 
Q 288.670273 223.697143 288.091367 222.926049 
Q 287.51246 222.152611 286.44371 222.152611 
Q 285.365585 222.152611 284.781992 222.926049 
Q 284.200742 223.697143 284.200742 225.286205 
Q 284.200742 226.823705 284.781992 227.62058 
Q 285.365585 228.415111 286.44371 228.415111 
Q 287.505429 228.415111 288.086679 227.634643 
Q 288.670273 226.854174 288.670273 225.286205 
z
M 297.935117 229.373705 
L 296.556992 229.373705 
L 296.556992 224.71433 
Q 296.556992 224.15183 296.500742 223.66433 
Q 296.446835 223.17683 296.294492 222.883861 
Q 296.125742 222.57683 295.825742 222.42683 
Q 295.525742 222.27683 295.005429 222.27683 
Q 294.492148 222.27683 293.946054 222.551049 
Q 293.39996 222.825268 292.881992 223.265893 
L 292.881992 229.373705 
L 291.503867 229.373705 
L 291.503867 221.191674 
L 292.881992 221.191674 
L 292.881992 222.101049 
Q 293.496054 221.550268 294.096054 221.257299 
Q 294.698398 220.96433 295.364023 220.96433 
Q 296.573398 220.96433 297.253085 221.761205 
Q 297.935117 222.555736 297.935117 224.062768 
L 297.935117 229.373705 
z
" style="opacity: 0.5"/>
   </g>
   <g id="patch_3">
    <path d="M 55.275591 238.110236 
L 55.275591 22.677165 
" style="fill: none; stroke: #000000; stroke-width: 1.5; stroke-linejoin: miter; stroke-linecap: square"/>
   </g>
   <g id="patch_4">
    <path d="M 55.275591 238.110236 
L 378.425197 238.110236 
" style="fill: none; stroke: #000000; stroke-width: 1.5; stroke-linejoin: miter; stroke-linecap: square"/>
   </g>
   <g id="FillBetweenPolyCollection_2">
    <defs>
     <path id="m08a9a11e6a" d="M 55.275591 -144.87055 
L 55.275591 -67.929465 
L 69.325573 -62.351166 
L 83.375556 -58.250214 
L 97.425539 -54.874713 
L 111.475522 -53.333333 
L 125.525505 -56.792798 
L 139.575488 -66.185336 
L 153.625471 -80.527677 
L 167.675454 -92.150537 
L 181.725436 -101.342933 
L 195.775419 -110.172175 
L 209.825402 -120.670149 
L 223.875385 -128.761001 
L 237.925368 -133.152958 
L 251.975351 -137.731928 
L 266.025334 -140.675073 
L 280.075317 -137.752207 
L 294.1253 -133.189717 
L 308.175282 -128.699301 
L 322.225265 -120.711742 
L 336.275248 -111.673183 
L 350.325231 -98.951355 
L 364.375214 -85.629408 
L 378.425197 -75.238316 
L 378.425197 -151.187526 
L 378.425197 -151.187526 
L 364.375214 -160.158959 
L 350.325231 -174.887088 
L 336.275248 -191.42566 
L 322.225265 -206.831538 
L 308.175282 -222.577218 
L 294.1253 -236.124533 
L 280.075317 -243.456241 
L 266.025334 -250.685378 
L 251.975351 -252.48893 
L 237.925368 -252.808399 
L 223.875385 -245.431482 
L 209.825402 -230.821969 
L 195.775419 -219.149076 
L 181.725436 -200.350893 
L 167.675454 -174.518183 
L 153.625471 -152.358287 
L 139.575488 -136.563199 
L 125.525505 -130.479862 
L 111.475522 -131.569604 
L 97.425539 -133.968973 
L 83.375556 -137.007755 
L 69.325573 -140.638654 
L 55.275591 -144.87055 
z
"/>
    </defs>
    <g clip-path="url(#p12b28d0cc1)">
     <use xlink:href="#m08a9a11e6a" x="0" y="283.464567" style="fill: #bbccee; fill-opacity: 0.7"/>
    </g>
   </g>
   <g id="line2d_31">
    <path d="M 55.275591 177.064559 
L 69.325573 181.969657 
L 83.375556 185.835583 
L 97.425539 189.042724 
L 111.475522 191.013098 
L 125.525505 189.828237 
L 139.575488 182.090299 
L 153.625471 167.021585 
L 167.675454 150.130207 
L 181.725436 132.617654 
L 195.775419 118.803941 
L 209.825402 107.718508 
L 223.875385 96.368325 
L 237.925368 90.483888 
L 251.975351 88.354138 
L 266.025334 87.784342 
L 280.075317 92.860343 
L 294.1253 98.807442 
L 308.175282 107.826308 
L 322.225265 119.692927 
L 336.275248 131.915146 
L 350.325231 146.545346 
L 364.375214 160.570384 
L 378.425197 170.251646 
" clip-path="url(#p12b28d0cc1)" style="fill: none; stroke: #004488; stroke-width: 2.4; stroke-linecap: square"/>
   </g>
   <g id="legend_1">
    <g id="patch_5">
     <path d="M 297.980666 58.093572 
L 370.925197 58.093572 
L 370.925197 30.177165 
L 297.980666 30.177165 
z
" style="fill: #ffffff; opacity: 0.97; stroke: #b8b8b8; stroke-linejoin: miter"/>
    </g>
    <g id="patch_6">
     <path d="M 304.730666 48.324822 
L 327.230666 48.324822 
L 327.230666 37.824822 
L 304.730666 37.824822 
z
" style="fill: #bbccee"/>
    </g>
    <g id="text_19">
     <text style="font-size: 15px; font-family: 'Tahoma'; text-anchor: start" x="334.730666" y="48.324822" transform="rotate(-0 334.730666 48.324822)">±SD</text>
    </g>
   </g>
  </g>
 </g>
 <defs>
  <clipPath id="p12b28d0cc1">
   <rect x="55.275591" y="22.677165" width="323.149606" height="215.433071"/>
  </clipPath>
 </defs>
</svg>
