<?xml version="1.0" encoding="utf-8" standalone="no"?>
<!DOCTYPE svg PUBLIC "-//W3C//DTD SVG 1.1//EN"
  "http://www.w3.org/Graphics/SVG/1.1/DTD/svg11.dtd">
<svg xmlns:xlink="http://www.w3.org/1999/xlink" width="425.19685pt" height="283.464567pt" viewBox="0 0 425.19685 283.464567" xmlns="http://www.w3.org/2000/svg" version="1.1">
 <metadata>
  <rdf:RDF xmlns:dc="http://purl.org/dc/elements/1.1/" xmlns:cc="http://creativecommons.org/ns#" xmlns:rdf="http://www.w3.org/1999/02/22-rdf-syntax-ns#">
   <cc:Work>
    <dc:type rdf:resource="http://purl.org/dc/dcmitype/StillImage"/>
    <dc:date>2026-05-21T15:50:23.256060</dc:date>
    <dc:format>image/svg+xml</dc:format>
    <dc:creator>
     <cc:Agent>
      <dc:title>Matplotlib v3.10.0, https://matplotlib.org/</dc:title>
     </cc:Agent>
    </dc:creator>
   </cc:Work>
  </rdf:RDF>
 </metadata>
 <defs>
  <style type="text/css">*{stroke-linejoin: round; stroke-linecap: butt}</style>
 </defs>
 <g id="figure_1">
  <g id="patch_1">
   <path d="M 0 283.464567 
L 425.19685 283.464567 
L 425.19685 0 
L 0 0 
L 0 283.464567 
z
" style="fill: none; opacity: 0"/>
  </g>
  <g id="axes_1">
   <g id="patch_2">
    <path d="M 46.771654 221.102362 
L 403.937008 221.102362 
L 403.937008 22.677165 
L 46.771654 22.677165 
L 46.771654 221.102362 
z
" style="fill: none; opacity: 0"/>
   </g>
   <g id="matplotlib.axis_1">
    <g id="xtick_1">
     <g id="line2d_1">
      <path d="M 85.289486 221.102362 
L 85.289486 22.677165 
" clip-path="url(#pa01c79df11)" style="fill: none; stroke: #d0d0d0; stroke-opacity: 0.65; stroke-width: 1.2; stroke-linecap: square"/>
     </g>
     <g id="line2d_2">
      <defs>
       <path id="m058770a4ef" d="M 0 0 
L 0 6 
" style="stroke: #000000; stroke-width: 1.5"/>
      </defs>
      <g>
       <use xlink:href="#m058770a4ef" x="85.289486" y="221.102362" style="stroke: #000000; stroke-width: 1.5"/>
      </g>
     </g>
     <g id="text_1">
      <text style="font-size: 15px; font-family: 'Tahoma'" transform="translate(0.788153 274.853949) rotate(-22)">Trees 2–10 m</text>
     </g>
    </g>
    <g id="xtick_2">
     <g id="line2d_3">
      <path d="M 155.321908 221.102362 
L 155.321908 22.677165 
" clip-path="url(#pa01c79df11)" style="fill: none; stroke: #d0d0d0; stroke-opacity: 0.65; stroke-width: 1.2; stroke-linecap: square"/>
     </g>
     <g id="line2d_4">
      <g>
       <use xlink:href="#m058770a4ef" x="155.321908" y="221.102362" style="stroke: #000000; stroke-width: 1.5"/>
      </g>
     </g>
     <g id="text_2">
      <text style="font-size: 15px; font-family: 'Tahoma'" transform="translate(63.227809 277.921626) rotate(-22)">Trees 10–15 m</text>
     </g>
    </g>
    <g id="xtick_3">
     <g id="line2d_5">
      <path d="M 225.354331 221.102362 
L 225.354331 22.677165 
" clip-path="url(#pa01c79df11)" style="fill: none; stroke: #d0d0d0; stroke-opacity: 0.65; stroke-width: 1.2; stroke-linecap: square"/>
     </g>
     <g id="line2d_6">
      <g>
       <use xlink:href="#m058770a4ef" x="225.354331" y="221.102362" style="stroke: #000000; stroke-width: 1.5"/>
      </g>
     </g>
     <g id="text_3">
      <text style="font-size: 15px; font-family: 'Tahoma'" transform="translate(145.920637 272.80649) rotate(-22)">Trees &gt;15 m</text>
     </g>
    </g>
    <g id="xtick_4">
     <g id="line2d_7">
      <path d="M 295.386753 221.102362 
L 295.386753 22.677165 
" clip-path="url(#pa01c79df11)" style="fill: none; stroke: #d0d0d0; stroke-opacity: 0.65; stroke-width: 1.2; stroke-linecap: square"/>
     </g>
     <g id="line2d_8">
      <g>
       <use xlink:href="#m058770a4ef" x="295.386753" y="221.102362" style="stroke: #000000; stroke-width: 1.5"/>
      </g>
     </g>
     <g id="text_4">
      <text style="font-size: 15px; font-family: 'Tahoma'" transform="translate(259.427842 255.241538) rotate(-22)">Fields</text>
     </g>
    </g>
    <g id="xtick_5">
     <g id="line2d_9">
      <path d="M 365.419176 221.102362 
L 365.419176 22.677165 
" clip-path="url(#pa01c79df11)" style="fill: none; stroke: #d0d0d0; stroke-opacity: 0.65; stroke-width: 1.2; stroke-linecap: square"/>
     </g>
     <g id="line2d_10">
      <g>
       <use xlink:href="#m058770a4ef" x="365.419176" y="221.102362" style="stroke: #000000; stroke-width: 1.5"/>
      </g>
     </g>
     <g id="text_5">
      <text style="font-size: 15px; font-family: 'Tahoma'" transform="translate(299.287521 267.420057) rotate(-22)">Other veg.</text>
     </g>
    </g>
   </g>
   <g id="matplotlib.axis_2">
    <g id="ytick_1">
     <g id="line2d_11">
      <path d="M 46.771654 221.102362 
L 403.937008 221.102362 
" clip-path="url(#pa01c79df11)" style="fill: none; stroke: #d0d0d0; stroke-opacity: 0.65; stroke-width: 1.2; stroke-linecap: square"/>
     </g>
     <g id="line2d_12">
      <defs>
       <path id="mc158d325b7" d="M 0 0 
L -6 0 
" style="stroke: #000000; stroke-width: 1.5"/>
      </defs>
      <g>
       <use xlink:href="#mc158d325b7" x="46.771654" y="221.102362" style="stroke: #000000; stroke-width: 1.5"/>
      </g>
     </g>
     <g id="text_6">
      <text style="font-size: 15px; font-family: 'Tahoma'; text-anchor: end" x="37.271654" y="226.80119" transform="rotate(-0 37.271654 226.80119)">+0</text>
     </g>
    </g>
    <g id="ytick_2">
     <g id="line2d_13">
      <path d="M 46.771654 178.718305 
L 403.937008 178.718305 
" clip-path="url(#pa01c79df11)" style="fill: none; stroke: #d0d0d0; stroke-opacity: 0.65; stroke-width: 1.2; stroke-linecap: square"/>
     </g>
     <g id="line2d_14">
      <g>
       <use xlink:href="#mc158d325b7" x="46.771654" y="178.718305" style="stroke: #000000; stroke-width: 1.5"/>
      </g>
     </g>
     <g id="text_7">
      <text style="font-size: 15px; font-family: 'Tahoma'; text-anchor: end" x="37.271654" y="184.417133" transform="rotate(-0 37.271654 184.417133)">+2</text>
     </g>
    </g>
    <g id="ytick_3">
     <g id="line2d_15">
      <path d="M 46.771654 136.334248 
L 403.937008 136.334248 
" clip-path="url(#pa01c79df11)" style="fill: none; stroke: #d0d0d0; stroke-opacity: 0.65; stroke-width: 1.2; stroke-linecap: square"/>
     </g>
     <g id="line2d_16">
      <g>
       <use xlink:href="#mc158d325b7" x="46.771654" y="136.334248" style="stroke: #000000; stroke-width: 1.5"/>
      </g>
     </g>
     <g id="text_8">
      <text style="font-size: 15px; font-family: 'Tahoma'; text-anchor: end" x="37.271654" y="142.033076" transform="rotate(-0 37.271654 142.033076)">+4</text>
     </g>
    </g>
    <g id="ytick_4">
     <g id="line2d_17">
      <path d="M 46.771654 93.950191 
L 403.937008 93.950191 
" clip-path="url(#pa01c79df11)" style="fill: none; stroke: #d0d0d0; stroke-opacity: 0.65; stroke-width: 1.2; stroke-linecap: square"/>
     </g>
     <g id="line2d_18">
      <g>
       <use xlink:href="#mc158d325b7" x="46.771654" y="93.950191" style="stroke: #000000; stroke-width: 1.5"/>
      </g>
     </g>
     <g id="text_9">
      <text style="font-size: 15px; font-family: 'Tahoma'; text-anchor: end" x="37.271654" y="99.649019" transform="rotate(-0 37.271654 99.649019)">+6</text>
     </g>
    </g>
    <g id="ytick_5">
     <g id="line2d_19">
      <path d="M 46.771654 51.566134 
L 403.937008 51.566134 
" clip-path="url(#pa01c79df11)" style="fill: none; stroke: #d0d0d0; stroke-opacity: 0.65; stroke-width: 1.2; stroke-linecap: square"/>
     </g>
     <g id="line2d_20">
      <g>
       <use xlink:href="#mc158d325b7" x="46.771654" y="51.566134" style="stroke: #000000; stroke-width: 1.5"/>
      </g>
     </g>
     <g id="text_10">
      <text style="font-size: 15px; font-family: 'Tahoma'; text-anchor: end" x="37.271654" y="57.264962" transform="rotate(-0 37.271654 57.264962)">+8</text>
     </g>
    </g>
    <g id="text_11">
     <text style="font-size: 18px; font-family: 'Tahoma'; text-anchor: middle" x="10.547591" y="121.889764" transform="rotate(-90 10.547591 121.889764)">Heatwave Δ T (°C)</text>
    </g>
   </g>
   <g id="patch_3">
    <path d="M 53.774896 215.874983 
L 396.933766 215.874983 
L 396.933766 163.318776 
L 53.774896 163.318776 
z
" clip-path="url(#pa01c79df11)" style="fill: #e8bcc4; opacity: 0.16; stroke: #bb5566; stroke-width: 0.8; stroke-linejoin: miter"/>
   </g>
   <g id="line2d_21">
    <path d="M 46.771654 221.102362 
L 403.937008 221.102362 
" clip-path="url(#pa01c79df11)" style="fill: none; stroke: #000000; stroke-opacity: 0.45; stroke-width: 0.9; stroke-linecap: square"/>
   </g>
   <g id="patch_4">
    <path d="M 53.774896 135.557203 
L 396.933766 135.557203 
L 396.933766 47.045172 
L 53.774896 47.045172 
z
" clip-path="url(#pa01c79df11)" style="fill: #bbccee; opacity: 0.18; stroke: #004488; stroke-width: 0.8; stroke-linejoin: miter"/>
   </g>
   <g id="patch_5">
    <path d="M 46.771654 221.102362 
L 46.771654 22.677165 
" style="fill: none; stroke: #000000; stroke-width: 1.5; stroke-linejoin: miter; stroke-linecap: square"/>
   </g>
   <g id="patch_6">
    <path d="M 46.771654 221.102362 
L 403.937008 221.102362 
" style="fill: none; stroke: #000000; stroke-width: 1.5; stroke-linejoin: miter; stroke-linecap: square"/>
   </g>
   <g id="FillBetweenPolyCollection_1">
    <defs>
     <path id="m316d6509a3" d="M 86.177239 -77.549809 
L 84.401732 -77.549809 
L 84.039058 -77.974363 
L 83.703781 -78.398918 
L 83.413709 -78.823472 
L 83.154679 -79.248027 
L 82.903925 -79.672581 
L 82.64991 -80.097136 
L 82.397116 -80.52169 
L 82.154748 -80.946244 
L 81.919157 -81.370799 
L 81.670446 -81.795353 
L 81.387517 -82.219908 
L 81.060222 -82.644462 
L 80.68699 -83.069017 
L 80.271837 -83.493571 
L 79.82942 -83.918126 
L 79.38452 -84.34268 
L 78.955278 -84.767234 
L 78.534303 -85.191789 
L 78.090885 -85.616343 
L 77.595436 -86.040898 
L 77.04163 -86.465452 
L 76.445723 -86.890007 
L 75.827572 -87.314561 
L 75.192125 -87.739115 
L 74.52686 -88.16367 
L 73.816366 -88.588224 
L 73.056827 -89.012779 
L 72.253633 -89.437333 
L 71.408815 -89.861888 
L 70.517128 -90.286442 
L 69.575479 -90.710996 
L 68.593745 -91.135551 
L 67.594535 -91.560105 
L 66.604099 -91.98466 
L 65.647021 -92.409214 
L 64.74586 -92.833769 
L 63.913231 -93.258323 
L 63.137396 -93.682878 
L 62.383054 -94.107432 
L 61.61966 -94.531986 
L 60.856631 -94.956541 
L 60.146716 -95.381095 
L 59.54422 -95.80565 
L 59.058028 -96.230204 
L 58.655966 -96.654759 
L 58.318919 -97.079313 
L 58.076711 -97.503867 
L 57.976841 -97.928422 
L 58.022303 -98.352976 
L 58.158261 -98.777531 
L 58.332624 -99.202085 
L 58.561648 -99.62664 
L 58.917115 -100.051194 
L 59.445143 -100.475748 
L 60.109329 -100.900303 
L 60.82036 -101.324857 
L 61.518879 -101.749412 
L 62.22765 -102.173966 
L 63.025483 -102.598521 
L 63.972235 -103.023075 
L 65.054752 -103.447629 
L 66.198728 -103.872184 
L 67.329888 -104.296738 
L 68.421766 -104.721293 
L 69.483501 -105.145847 
L 70.512895 -105.570402 
L 71.481789 -105.994956 
L 72.37141 -106.419511 
L 73.202823 -106.844065 
L 74.015245 -107.268619 
L 74.818753 -107.693174 
L 75.583113 -108.117728 
L 76.273486 -108.542283 
L 76.883428 -108.966837 
L 77.432337 -109.391392 
L 77.946936 -109.815946 
L 78.448279 -110.2405 
L 78.940455 -110.665055 
L 79.406037 -111.089609 
L 79.823255 -111.514164 
L 80.189857 -111.938718 
L 80.521836 -112.363273 
L 80.830482 -112.787827 
L 81.111076 -113.212381 
L 81.355371 -113.636936 
L 81.566904 -114.06149 
L 81.759636 -114.486045 
L 81.945871 -114.910599 
L 82.130022 -115.335154 
L 82.311518 -115.759708 
L 82.489003 -116.184263 
L 82.662264 -116.608817 
L 82.832994 -117.033371 
L 83.005222 -117.457926 
L 83.188294 -117.88248 
L 83.40189 -118.307035 
L 83.671595 -118.731589 
L 84.007306 -119.156144 
L 84.380691 -119.580698 
L 86.198281 -119.580698 
L 86.198281 -119.580698 
L 86.571666 -119.156144 
L 86.907377 -118.731589 
L 87.177082 -118.307035 
L 87.390677 -117.88248 
L 87.57375 -117.457926 
L 87.745978 -117.033371 
L 87.916708 -116.608817 
L 88.089968 -116.184263 
L 88.267454 -115.759708 
L 88.44895 -115.335154 
L 88.633101 -114.910599 
L 88.819336 -114.486045 
L 89.012068 -114.06149 
L 89.223601 -113.636936 
L 89.467896 -113.212381 
L 89.748489 -112.787827 
L 90.057136 -112.363273 
L 90.389114 -111.938718 
L 90.755717 -111.514164 
L 91.172935 -111.089609 
L 91.638516 -110.665055 
L 92.130693 -110.2405 
L 92.632036 -109.815946 
L 93.146635 -109.391392 
L 93.695543 -108.966837 
L 94.305486 -108.542283 
L 94.995859 -108.117728 
L 95.760219 -107.693174 
L 96.563726 -107.268619 
L 97.376149 -106.844065 
L 98.207562 -106.419511 
L 99.097183 -105.994956 
L 100.066076 -105.570402 
L 101.09547 -105.145847 
L 102.157206 -104.721293 
L 103.249083 -104.296738 
L 104.380244 -103.872184 
L 105.52422 -103.447629 
L 106.606737 -103.023075 
L 107.553488 -102.598521 
L 108.351322 -102.173966 
L 109.060093 -101.749412 
L 109.758611 -101.324857 
L 110.469642 -100.900303 
L 111.133829 -100.475748 
L 111.661857 -100.051194 
L 112.017324 -99.62664 
L 112.246348 -99.202085 
L 112.420711 -98.777531 
L 112.556669 -98.352976 
L 112.602131 -97.928422 
L 112.502261 -97.503867 
L 112.260053 -97.079313 
L 111.923005 -96.654759 
L 111.520943 -96.230204 
L 111.034752 -95.80565 
L 110.432256 -95.381095 
L 109.722341 -94.956541 
L 108.959312 -94.531986 
L 108.195918 -94.107432 
L 107.441576 -93.682878 
L 106.665741 -93.258323 
L 105.833112 -92.833769 
L 104.93195 -92.409214 
L 103.974872 -91.98466 
L 102.984436 -91.560105 
L 101.985227 -91.135551 
L 101.003492 -90.710996 
L 100.061844 -90.286442 
L 99.170156 -89.861888 
L 98.325339 -89.437333 
L 97.522145 -89.012779 
L 96.762606 -88.588224 
L 96.052112 -88.16367 
L 95.386847 -87.739115 
L 94.7514 -87.314561 
L 94.133249 -86.890007 
L 93.537341 -86.465452 
L 92.983536 -86.040898 
L 92.488087 -85.616343 
L 92.044668 -85.191789 
L 91.623694 -84.767234 
L 91.194451 -84.34268 
L 90.749551 -83.918126 
L 90.307135 -83.493571 
L 89.891982 -83.069017 
L 89.51875 -82.644462 
L 89.191455 -82.219908 
L 88.908525 -81.795353 
L 88.659815 -81.370799 
L 88.424223 -80.946244 
L 88.181856 -80.52169 
L 87.929062 -80.097136 
L 87.675047 -79.672581 
L 87.424293 -79.248027 
L 87.165262 -78.823472 
L 86.875191 -78.398918 
L 86.539914 -77.974363 
L 86.177239 -77.549809 
z
" style="stroke: #bb5566; stroke-opacity: 0.62; stroke-width: 1.05"/>
    </defs>
    <g clip-path="url(#pa01c79df11)">
     <use xlink:href="#m316d6509a3" x="0" y="283.464567" style="fill: #e8bcc4; fill-opacity: 0.62; stroke: #bb5566; stroke-opacity: 0.62; stroke-width: 1.05"/>
    </g>
   </g>
   <g id="FillBetweenPolyCollection_2">
    <defs>
     <path id="m7e6eb5565c" d="M 156.180961 -80.940544 
L 154.462856 -80.940544 
L 154.096151 -81.335129 
L 153.731178 -81.729715 
L 153.383919 -82.124301 
L 153.040634 -82.518886 
L 152.677563 -82.913472 
L 152.280231 -83.308058 
L 151.846529 -83.702643 
L 151.381684 -84.097229 
L 150.896845 -84.491815 
L 150.407301 -84.8864 
L 149.922728 -85.280986 
L 149.437095 -85.675571 
L 148.932581 -86.070157 
L 148.39652 -86.464743 
L 147.833113 -86.859328 
L 147.25611 -87.253914 
L 146.671334 -87.6485 
L 146.070148 -88.043085 
L 145.438341 -88.437671 
L 144.763778 -88.832256 
L 144.03491 -89.226842 
L 143.243485 -89.621428 
L 142.395586 -90.016013 
L 141.510835 -90.410599 
L 140.600959 -90.805185 
L 139.654451 -91.19977 
L 138.654624 -91.594356 
L 137.615197 -91.988942 
L 136.589555 -92.383527 
L 135.638978 -92.778113 
L 134.792812 -93.172698 
L 134.036492 -93.567284 
L 133.329656 -93.96187 
L 132.635804 -94.356455 
L 131.944359 -94.751041 
L 131.271925 -95.145627 
L 130.644583 -95.540212 
L 130.077874 -95.934798 
L 129.569746 -96.329383 
L 129.110992 -96.723969 
L 128.704766 -97.118555 
L 128.374021 -97.51314 
L 128.144885 -97.907726 
L 128.02569 -98.302312 
L 128.009264 -98.696897 
L 128.093671 -99.091483 
L 128.290556 -99.486068 
L 128.60509 -99.880654 
L 129.010431 -100.27524 
L 129.454933 -100.669825 
L 129.902042 -101.064411 
L 130.356789 -101.458997 
L 130.851123 -101.853582 
L 131.413553 -102.248168 
L 132.054148 -102.642754 
L 132.764627 -103.037339 
L 133.524779 -103.431925 
L 134.313731 -103.82651 
L 135.119762 -104.221096 
L 135.940361 -104.615682 
L 136.774888 -105.010267 
L 137.618009 -105.404853 
L 138.458802 -105.799439 
L 139.286897 -106.194024 
L 140.10065 -106.58861 
L 140.90586 -106.983195 
L 141.702411 -107.377781 
L 142.474333 -107.772367 
L 143.198369 -108.166952 
L 143.86405 -108.561538 
L 144.483532 -108.956124 
L 145.079354 -109.350709 
L 145.660616 -109.745295 
L 146.21078 -110.139881 
L 146.700172 -110.534466 
L 147.111718 -110.929052 
L 147.456912 -111.323637 
L 147.771948 -111.718223 
L 148.1001 -112.112809 
L 148.470251 -112.507394 
L 148.88222 -112.90198 
L 149.309789 -113.296566 
L 149.720699 -113.691151 
L 150.096584 -114.085737 
L 150.436339 -114.480322 
L 150.745124 -114.874908 
L 151.025466 -115.269494 
L 151.279728 -115.664079 
L 151.515248 -116.058665 
L 151.740565 -116.453251 
L 151.956341 -116.847836 
L 152.154798 -117.242422 
L 152.332204 -117.637008 
L 152.503192 -118.031593 
L 152.702366 -118.426179 
L 152.969478 -118.820764 
L 153.326694 -119.21535 
L 153.76073 -119.609936 
L 154.220618 -120.004521 
L 156.423199 -120.004521 
L 156.423199 -120.004521 
L 156.883086 -119.609936 
L 157.317123 -119.21535 
L 157.674338 -118.820764 
L 157.94145 -118.426179 
L 158.140625 -118.031593 
L 158.311613 -117.637008 
L 158.489019 -117.242422 
L 158.687476 -116.847836 
L 158.903252 -116.453251 
L 159.128568 -116.058665 
L 159.364088 -115.664079 
L 159.61835 -115.269494 
L 159.898693 -114.874908 
L 160.207477 -114.480322 
L 160.547233 -114.085737 
L 160.923117 -113.691151 
L 161.334027 -113.296566 
L 161.761596 -112.90198 
L 162.173566 -112.507394 
L 162.543717 -112.112809 
L 162.871868 -111.718223 
L 163.186904 -111.323637 
L 163.532099 -110.929052 
L 163.943645 -110.534466 
L 164.433037 -110.139881 
L 164.9832 -109.745295 
L 165.564462 -109.350709 
L 166.160285 -108.956124 
L 166.779767 -108.561538 
L 167.445448 -108.166952 
L 168.169483 -107.772367 
L 168.941405 -107.377781 
L 169.737957 -106.983195 
L 170.543167 -106.58861 
L 171.356919 -106.194024 
L 172.185015 -105.799439 
L 173.025807 -105.404853 
L 173.868928 -105.010267 
L 174.703455 -104.615682 
L 175.524055 -104.221096 
L 176.330086 -103.82651 
L 177.119038 -103.431925 
L 177.87919 -103.037339 
L 178.589668 -102.642754 
L 179.230264 -102.248168 
L 179.792693 -101.853582 
L 180.287027 -101.458997 
L 180.741775 -101.064411 
L 181.188884 -100.669825 
L 181.633386 -100.27524 
L 182.038727 -99.880654 
L 182.353261 -99.486068 
L 182.550145 -99.091483 
L 182.634553 -98.696897 
L 182.618126 -98.302312 
L 182.498932 -97.907726 
L 182.269796 -97.51314 
L 181.939051 -97.118555 
L 181.532825 -96.723969 
L 181.074071 -96.329383 
L 180.565942 -95.934798 
L 179.999234 -95.540212 
L 179.371891 -95.145627 
L 178.699457 -94.751041 
L 178.008013 -94.356455 
L 177.314161 -93.96187 
L 176.607324 -93.567284 
L 175.851004 -93.172698 
L 175.004838 -92.778113 
L 174.054261 -92.383527 
L 173.02862 -91.988942 
L 171.989193 -91.594356 
L 170.989365 -91.19977 
L 170.042857 -90.805185 
L 169.132981 -90.410599 
L 168.248231 -90.016013 
L 167.400331 -89.621428 
L 166.608907 -89.226842 
L 165.880039 -88.832256 
L 165.205476 -88.437671 
L 164.573669 -88.043085 
L 163.972482 -87.6485 
L 163.387707 -87.253914 
L 162.810704 -86.859328 
L 162.247297 -86.464743 
L 161.711236 -86.070157 
L 161.206721 -85.675571 
L 160.721089 -85.280986 
L 160.236516 -84.8864 
L 159.746971 -84.491815 
L 159.262133 -84.097229 
L 158.797288 -83.702643 
L 158.363585 -83.308058 
L 157.966253 -82.913472 
L 157.603183 -82.518886 
L 157.259897 -82.124301 
L 156.912638 -81.729715 
L 156.547666 -81.335129 
L 156.180961 -80.940544 
z
" style="stroke: #bb5566; stroke-opacity: 0.62; stroke-width: 1.05"/>
    </defs>
    <g clip-path="url(#pa01c79df11)">
     <use xlink:href="#m7e6eb5565c" x="0" y="283.464567" style="fill: #e8bcc4; fill-opacity: 0.62; stroke: #bb5566; stroke-opacity: 0.62; stroke-width: 1.05"/>
    </g>
   </g>
   <g id="FillBetweenPolyCollection_3">
    <defs>
     <path id="m13f07a3935" d="M 226.622456 -85.320249 
L 224.086206 -85.320249 
L 223.538215 -85.62707 
L 222.989241 -85.93389 
L 222.470789 -86.240711 
L 221.975373 -86.547531 
L 221.479961 -86.854352 
L 220.971897 -87.161172 
L 220.452768 -87.467993 
L 219.921255 -87.774814 
L 219.357056 -88.081634 
L 218.72778 -88.388455 
L 218.016286 -88.695275 
L 217.239887 -89.002096 
L 216.438423 -89.308916 
L 215.64212 -89.615737 
L 214.85007 -89.922558 
L 214.034563 -90.229378 
L 213.161463 -90.536199 
L 212.210294 -90.843019 
L 211.18646 -91.14984 
L 210.124684 -91.45666 
L 209.081152 -91.763481 
L 208.111697 -92.070301 
L 207.244138 -92.377122 
L 206.46546 -92.683943 
L 205.737428 -92.990763 
L 205.027137 -93.297584 
L 204.324713 -93.604404 
L 203.639444 -93.911225 
L 202.987666 -94.218045 
L 202.381057 -94.524866 
L 201.814179 -94.831687 
L 201.25872 -95.138507 
L 200.679041 -95.445328 
L 200.065901 -95.752148 
L 199.458262 -96.058969 
L 198.924838 -96.365789 
L 198.51812 -96.67261 
L 198.247041 -96.97943 
L 198.092447 -97.286251 
L 198.041686 -97.593072 
L 198.104676 -97.899892 
L 198.297549 -98.206713 
L 198.612433 -98.513533 
L 199.007889 -98.820354 
L 199.430473 -99.127174 
L 199.839663 -99.433995 
L 200.215973 -99.740815 
L 200.564102 -100.047636 
L 200.915192 -100.354457 
L 201.314012 -100.661277 
L 201.797792 -100.968098 
L 202.387559 -101.274918 
L 203.08763 -101.581739 
L 203.879456 -101.888559 
L 204.719579 -102.19538 
L 205.554411 -102.502201 
L 206.341728 -102.809021 
L 207.063334 -103.115842 
L 207.725353 -103.422662 
L 208.348558 -103.729483 
L 208.954736 -104.036303 
L 209.559372 -104.343124 
L 210.173371 -104.649944 
L 210.803811 -104.956765 
L 211.447495 -105.263586 
L 212.087348 -105.570406 
L 212.704486 -105.877227 
L 213.298639 -106.184047 
L 213.891441 -106.490868 
L 214.501748 -106.797688 
L 215.117842 -107.104509 
L 215.7003 -107.41133 
L 216.216059 -107.71815 
L 216.669539 -108.024971 
L 217.100351 -108.331791 
L 217.552335 -108.638612 
L 218.045126 -108.945432 
L 218.569437 -109.252253 
L 219.098263 -109.559073 
L 219.598328 -109.865894 
L 220.040818 -110.172715 
L 220.414437 -110.479535 
L 220.731445 -110.786356 
L 221.017011 -111.093176 
L 221.289929 -111.399997 
L 221.552975 -111.706817 
L 221.799858 -112.013638 
L 222.02788 -112.320459 
L 222.241988 -112.627279 
L 222.448811 -112.9341 
L 222.651043 -113.24092 
L 222.848809 -113.547741 
L 223.04361 -113.854561 
L 223.239223 -114.161382 
L 223.441917 -114.468202 
L 223.66304 -114.775023 
L 223.917867 -115.081844 
L 224.213129 -115.388664 
L 224.530989 -115.695485 
L 226.177672 -115.695485 
L 226.177672 -115.695485 
L 226.495532 -115.388664 
L 226.790794 -115.081844 
L 227.045622 -114.775023 
L 227.266745 -114.468202 
L 227.469439 -114.161382 
L 227.665052 -113.854561 
L 227.859852 -113.547741 
L 228.057619 -113.24092 
L 228.25985 -112.9341 
L 228.466673 -112.627279 
L 228.680782 -112.320459 
L 228.908804 -112.013638 
L 229.155687 -111.706817 
L 229.418732 -111.399997 
L 229.69165 -111.093176 
L 229.977216 -110.786356 
L 230.294224 -110.479535 
L 230.667843 -110.172715 
L 231.110334 -109.865894 
L 231.610398 -109.559073 
L 232.139224 -109.252253 
L 232.663535 -108.945432 
L 233.156326 -108.638612 
L 233.60831 -108.331791 
L 234.039123 -108.024971 
L 234.492602 -107.71815 
L 235.008362 -107.41133 
L 235.590819 -107.104509 
L 236.206914 -106.797688 
L 236.817221 -106.490868 
L 237.410022 -106.184047 
L 238.004176 -105.877227 
L 238.621314 -105.570406 
L 239.261166 -105.263586 
L 239.904851 -104.956765 
L 240.535291 -104.649944 
L 241.149289 -104.343124 
L 241.753926 -104.036303 
L 242.360104 -103.729483 
L 242.983309 -103.422662 
L 243.645327 -103.115842 
L 244.366933 -102.809021 
L 245.154251 -102.502201 
L 245.989083 -102.19538 
L 246.829206 -101.888559 
L 247.621031 -101.581739 
L 248.321103 -101.274918 
L 248.91087 -100.968098 
L 249.39465 -100.661277 
L 249.79347 -100.354457 
L 250.144559 -100.047636 
L 250.492689 -99.740815 
L 250.868998 -99.433995 
L 251.278188 -99.127174 
L 251.700773 -98.820354 
L 252.096228 -98.513533 
L 252.411113 -98.206713 
L 252.603986 -97.899892 
L 252.666975 -97.593072 
L 252.616215 -97.286251 
L 252.46162 -96.97943 
L 252.190541 -96.67261 
L 251.783824 -96.365789 
L 251.2504 -96.058969 
L 250.642761 -95.752148 
L 250.02962 -95.445328 
L 249.449942 -95.138507 
L 248.894483 -94.831687 
L 248.327604 -94.524866 
L 247.720996 -94.218045 
L 247.069217 -93.911225 
L 246.383948 -93.604404 
L 245.681524 -93.297584 
L 244.971234 -92.990763 
L 244.243201 -92.683943 
L 243.464523 -92.377122 
L 242.596964 -92.070301 
L 241.627509 -91.763481 
L 240.583978 -91.45666 
L 239.522201 -91.14984 
L 238.498368 -90.843019 
L 237.547198 -90.536199 
L 236.674098 -90.229378 
L 235.858591 -89.922558 
L 235.066541 -89.615737 
L 234.270238 -89.308916 
L 233.468774 -89.002096 
L 232.692376 -88.695275 
L 231.980882 -88.388455 
L 231.351606 -88.081634 
L 230.787406 -87.774814 
L 230.255893 -87.467993 
L 229.736765 -87.161172 
L 229.2287 -86.854352 
L 228.733288 -86.547531 
L 228.237872 -86.240711 
L 227.71942 -85.93389 
L 227.170447 -85.62707 
L 226.622456 -85.320249 
z
" style="stroke: #bb5566; stroke-opacity: 0.62; stroke-width: 1.05"/>
    </defs>
    <g clip-path="url(#pa01c79df11)">
     <use xlink:href="#m13f07a3935" x="0" y="283.464567" style="fill: #e8bcc4; fill-opacity: 0.62; stroke: #bb5566; stroke-opacity: 0.62; stroke-width: 1.05"/>
    </g>
   </g>
   <g id="FillBetweenPolyCollection_4">
    <defs>
     <path id="m6796b3fe9e" d="M 298.248546 -73.664623 
L 292.52496 -73.664623 
L 291.124805 -73.968589 
L 289.633699 -74.272556 
L 288.152169 -74.576522 
L 286.704196 -74.880489 
L 285.265162 -75.184455 
L 283.81243 -75.488422 
L 282.35654 -75.792388 
L 280.932414 -76.096355 
L 279.559253 -76.400321 
L 278.20859 -76.704288 
L 276.819907 -77.008254 
L 275.355865 -77.31222 
L 273.84348 -77.616187 
L 272.363999 -77.920153 
L 271.013698 -78.22412 
L 269.877226 -78.528086 
L 269.015851 -78.832053 
L 268.452513 -79.136019 
L 268.161146 -79.439986 
L 268.074108 -79.743952 
L 268.100128 -80.047919 
L 268.151048 -80.351885 
L 268.185985 -80.655852 
L 268.246303 -80.959818 
L 268.429268 -81.263785 
L 268.802133 -81.567751 
L 269.334411 -81.871718 
L 269.917102 -82.175684 
L 270.447332 -82.479651 
L 270.894193 -82.783617 
L 271.291031 -83.087584 
L 271.673192 -83.39155 
L 272.02601 -83.695517 
L 272.296188 -83.999483 
L 272.457381 -84.30345 
L 272.558805 -84.607416 
L 272.698942 -84.911383 
L 272.951395 -85.215349 
L 273.322242 -85.519316 
L 273.77418 -85.823282 
L 274.279879 -86.127249 
L 274.848508 -86.431215 
L 275.504295 -86.735182 
L 276.247798 -87.039148 
L 277.05381 -87.343115 
L 277.912256 -87.647081 
L 278.850293 -87.951048 
L 279.892946 -88.255014 
L 281.006324 -88.55898 
L 282.092402 -88.862947 
L 283.040737 -89.166913 
L 283.788294 -89.47088 
L 284.348651 -89.774846 
L 284.803075 -90.078813 
L 285.259831 -90.382779 
L 285.800012 -90.686746 
L 286.441885 -90.990712 
L 287.142976 -91.294679 
L 287.829851 -91.598645 
L 288.436011 -91.902612 
L 288.932088 -92.206578 
L 289.334284 -92.510545 
L 289.688518 -92.814511 
L 290.042924 -93.118478 
L 290.422409 -93.422444 
L 290.815479 -93.726411 
L 291.181789 -94.030377 
L 291.477238 -94.334344 
L 291.679313 -94.63831 
L 291.797327 -94.942277 
L 291.866011 -95.246243 
L 291.929323 -95.55021 
L 292.021511 -95.854176 
L 292.153119 -96.158143 
L 292.310057 -96.462109 
L 292.466278 -96.766076 
L 292.60103 -97.070042 
L 292.711358 -97.374009 
L 292.814109 -97.677975 
L 292.933239 -97.981942 
L 293.078113 -98.285908 
L 293.233409 -98.589875 
L 293.373874 -98.893841 
L 293.487373 -99.197808 
L 293.579862 -99.501774 
L 293.661917 -99.80574 
L 293.738641 -100.109707 
L 293.813028 -100.413673 
L 293.891119 -100.71764 
L 293.978945 -101.021606 
L 294.076611 -101.325573 
L 294.177214 -101.629539 
L 294.270194 -101.933506 
L 294.347475 -102.237472 
L 294.412055 -102.541439 
L 294.482844 -102.845405 
L 294.58616 -103.149372 
L 294.735444 -103.453338 
L 294.916288 -103.757305 
L 295.857219 -103.757305 
L 295.857219 -103.757305 
L 296.038063 -103.453338 
L 296.187346 -103.149372 
L 296.290662 -102.845405 
L 296.361451 -102.541439 
L 296.426031 -102.237472 
L 296.503312 -101.933506 
L 296.596292 -101.629539 
L 296.696895 -101.325573 
L 296.794562 -101.021606 
L 296.882387 -100.71764 
L 296.960478 -100.413673 
L 297.034865 -100.109707 
L 297.111589 -99.80574 
L 297.193644 -99.501774 
L 297.286133 -99.197808 
L 297.399632 -98.893841 
L 297.540098 -98.589875 
L 297.695394 -98.285908 
L 297.840267 -97.981942 
L 297.959398 -97.677975 
L 298.062148 -97.374009 
L 298.172476 -97.070042 
L 298.307228 -96.766076 
L 298.46345 -96.462109 
L 298.620388 -96.158143 
L 298.751995 -95.854176 
L 298.844183 -95.55021 
L 298.907496 -95.246243 
L 298.976179 -94.942277 
L 299.094193 -94.63831 
L 299.296268 -94.334344 
L 299.591717 -94.030377 
L 299.958027 -93.726411 
L 300.351097 -93.422444 
L 300.730582 -93.118478 
L 301.084989 -92.814511 
L 301.439222 -92.510545 
L 301.841419 -92.206578 
L 302.337495 -91.902612 
L 302.943655 -91.598645 
L 303.63053 -91.294679 
L 304.331621 -90.990712 
L 304.973495 -90.686746 
L 305.513675 -90.382779 
L 305.970431 -90.078813 
L 306.424855 -89.774846 
L 306.985212 -89.47088 
L 307.73277 -89.166913 
L 308.681104 -88.862947 
L 309.767182 -88.55898 
L 310.88056 -88.255014 
L 311.923214 -87.951048 
L 312.861251 -87.647081 
L 313.719696 -87.343115 
L 314.525708 -87.039148 
L 315.269211 -86.735182 
L 315.924999 -86.431215 
L 316.493627 -86.127249 
L 316.999327 -85.823282 
L 317.451264 -85.519316 
L 317.822111 -85.215349 
L 318.074564 -84.911383 
L 318.214701 -84.607416 
L 318.316125 -84.30345 
L 318.477318 -83.999483 
L 318.747496 -83.695517 
L 319.100314 -83.39155 
L 319.482475 -83.087584 
L 319.879313 -82.783617 
L 320.326175 -82.479651 
L 320.856404 -82.175684 
L 321.439096 -81.871718 
L 321.971374 -81.567751 
L 322.344238 -81.263785 
L 322.527203 -80.959818 
L 322.587522 -80.655852 
L 322.622458 -80.351885 
L 322.673378 -80.047919 
L 322.699398 -79.743952 
L 322.61236 -79.439986 
L 322.320994 -79.136019 
L 321.757655 -78.832053 
L 320.896281 -78.528086 
L 319.759808 -78.22412 
L 318.409507 -77.920153 
L 316.930026 -77.616187 
L 315.417641 -77.31222 
L 313.9536 -77.008254 
L 312.564916 -76.704288 
L 311.214253 -76.400321 
L 309.841092 -76.096355 
L 308.416966 -75.792388 
L 306.961076 -75.488422 
L 305.508345 -75.184455 
L 304.06931 -74.880489 
L 302.621338 -74.576522 
L 301.139808 -74.272556 
L 299.648701 -73.968589 
L 298.248546 -73.664623 
z
" style="stroke: #bb5566; stroke-opacity: 0.62; stroke-width: 1.05"/>
    </defs>
    <g clip-path="url(#pa01c79df11)">
     <use xlink:href="#m6796b3fe9e" x="0" y="283.464567" style="fill: #e8bcc4; fill-opacity: 0.62; stroke: #bb5566; stroke-opacity: 0.62; stroke-width: 1.05"/>
    </g>
   </g>
   <g id="FillBetweenPolyCollection_5">
    <defs>
     <path id="m3bc4a5694c" d="M 367.720387 -75.2187 
L 363.117964 -75.2187 
L 362.168973 -75.594733 
L 361.168288 -75.970767 
L 360.17427 -76.3468 
L 359.20644 -76.722834 
L 358.252506 -77.098868 
L 357.291032 -77.474901 
L 356.313938 -77.850935 
L 355.336726 -78.226968 
L 354.39175 -78.603002 
L 353.510621 -78.979035 
L 352.710324 -79.355069 
L 351.993821 -79.731102 
L 351.360855 -80.107136 
L 350.814153 -80.483169 
L 350.35263 -80.859203 
L 349.959575 -81.235236 
L 349.600784 -81.61127 
L 349.236873 -81.987304 
L 348.839237 -82.363337 
L 348.397596 -82.739371 
L 347.917258 -83.115404 
L 347.412428 -83.491438 
L 346.901452 -83.867471 
L 346.404132 -84.243505 
L 345.936485 -84.619538 
L 345.501395 -84.995572 
L 345.082618 -85.371605 
L 344.651532 -85.747639 
L 344.184688 -86.123672 
L 343.678833 -86.499706 
L 343.152988 -86.875739 
L 342.639186 -87.251773 
L 342.169945 -87.627807 
L 341.768585 -88.00384 
L 341.44508 -88.379874 
L 341.196915 -88.755907 
L 341.010691 -89.131941 
L 340.862031 -89.507974 
L 340.71931 -89.884008 
L 340.557475 -90.260041 
L 340.374943 -90.636075 
L 340.195927 -91.012108 
L 340.050642 -91.388142 
L 339.948222 -91.764175 
L 339.866108 -92.140209 
L 339.765087 -92.516242 
L 339.616493 -92.892276 
L 339.418949 -93.26831 
L 339.192452 -93.644343 
L 338.957847 -94.020377 
L 338.723018 -94.39641 
L 338.490491 -94.772444 
L 338.278453 -95.148477 
L 338.131401 -95.524511 
L 338.106531 -95.900544 
L 338.245716 -96.276578 
L 338.554026 -96.652611 
L 338.997608 -97.028645 
L 339.520324 -97.404678 
L 340.069117 -97.780712 
L 340.613599 -98.156746 
L 341.148671 -98.532779 
L 341.681215 -98.908813 
L 342.214534 -99.284846 
L 342.745915 -99.66088 
L 343.279708 -100.036913 
L 343.840403 -100.412947 
L 344.466166 -100.78898 
L 345.18192 -101.165014 
L 345.975016 -101.541047 
L 346.798343 -101.917081 
L 347.601099 -102.293114 
L 348.361825 -102.669148 
L 349.097292 -103.045181 
L 349.843481 -103.421215 
L 350.627325 -103.797249 
L 351.450425 -104.173282 
L 352.291761 -104.549316 
L 353.122536 -104.925349 
L 353.921766 -105.301383 
L 354.683929 -105.677416 
L 355.416345 -106.05345 
L 356.130778 -106.429483 
L 356.835864 -106.805517 
L 357.533305 -107.18155 
L 358.216702 -107.557584 
L 358.872131 -107.933617 
L 359.48197 -108.309651 
L 360.032614 -108.685684 
L 360.521734 -109.061718 
L 360.958679 -109.437752 
L 361.357622 -109.813785 
L 361.731086 -110.189819 
L 362.090724 -110.565852 
L 362.452851 -110.941886 
L 362.839073 -111.317919 
L 363.265962 -111.693953 
L 363.729285 -112.069986 
L 364.196695 -112.44602 
L 366.641656 -112.44602 
L 366.641656 -112.44602 
L 367.109066 -112.069986 
L 367.572389 -111.693953 
L 367.999278 -111.317919 
L 368.385501 -110.941886 
L 368.747628 -110.565852 
L 369.107265 -110.189819 
L 369.480729 -109.813785 
L 369.879672 -109.437752 
L 370.316617 -109.061718 
L 370.805737 -108.685684 
L 371.356381 -108.309651 
L 371.96622 -107.933617 
L 372.621649 -107.557584 
L 373.305046 -107.18155 
L 374.002487 -106.805517 
L 374.707573 -106.429483 
L 375.422006 -106.05345 
L 376.154422 -105.677416 
L 376.916585 -105.301383 
L 377.715815 -104.925349 
L 378.54659 -104.549316 
L 379.387926 -104.173282 
L 380.211026 -103.797249 
L 380.99487 -103.421215 
L 381.741059 -103.045181 
L 382.476526 -102.669148 
L 383.237252 -102.293114 
L 384.040008 -101.917081 
L 384.863336 -101.541047 
L 385.656431 -101.165014 
L 386.372185 -100.78898 
L 386.997949 -100.412947 
L 387.558643 -100.036913 
L 388.092436 -99.66088 
L 388.623817 -99.284846 
L 389.157136 -98.908813 
L 389.68968 -98.532779 
L 390.224752 -98.156746 
L 390.769234 -97.780712 
L 391.318027 -97.404678 
L 391.840744 -97.028645 
L 392.284325 -96.652611 
L 392.592635 -96.276578 
L 392.73182 -95.900544 
L 392.70695 -95.524511 
L 392.559898 -95.148477 
L 392.34786 -94.772444 
L 392.115333 -94.39641 
L 391.880504 -94.020377 
L 391.6459 -93.644343 
L 391.419402 -93.26831 
L 391.221858 -92.892276 
L 391.073264 -92.516242 
L 390.972243 -92.140209 
L 390.89013 -91.764175 
L 390.787709 -91.388142 
L 390.642424 -91.012108 
L 390.463408 -90.636075 
L 390.280876 -90.260041 
L 390.119041 -89.884008 
L 389.97632 -89.507974 
L 389.82766 -89.131941 
L 389.641436 -88.755907 
L 389.393271 -88.379874 
L 389.069766 -88.00384 
L 388.668406 -87.627807 
L 388.199165 -87.251773 
L 387.685363 -86.875739 
L 387.159518 -86.499706 
L 386.653664 -86.123672 
L 386.186819 -85.747639 
L 385.755733 -85.371605 
L 385.336956 -84.995572 
L 384.901866 -84.619538 
L 384.434219 -84.243505 
L 383.936899 -83.867471 
L 383.425924 -83.491438 
L 382.921093 -83.115404 
L 382.440755 -82.739371 
L 381.999114 -82.363337 
L 381.601478 -81.987304 
L 381.237567 -81.61127 
L 380.878776 -81.235236 
L 380.485721 -80.859203 
L 380.024198 -80.483169 
L 379.477496 -80.107136 
L 378.84453 -79.731102 
L 378.128027 -79.355069 
L 377.32773 -78.979035 
L 376.446601 -78.603002 
L 375.501625 -78.226968 
L 374.524413 -77.850935 
L 373.547319 -77.474901 
L 372.585845 -77.098868 
L 371.631911 -76.722834 
L 370.664082 -76.3468 
L 369.670063 -75.970767 
L 368.669378 -75.594733 
L 367.720387 -75.2187 
z
" style="stroke: #bb5566; stroke-opacity: 0.62; stroke-width: 1.05"/>
    </defs>
    <g clip-path="url(#pa01c79df11)">
     <use xlink:href="#m3bc4a5694c" x="0" y="283.464567" style="fill: #e8bcc4; fill-opacity: 0.62; stroke: #bb5566; stroke-opacity: 0.62; stroke-width: 1.05"/>
    </g>
   </g>
   <g id="FillBetweenPolyCollection_6">
    <defs>
     <path id="m5806ff48f6" d="M 85.909534 -171.359887 
L 84.669437 -171.359887 
L 84.374229 -171.964966 
L 84.090432 -172.570045 
L 83.846516 -173.175124 
L 83.638543 -173.780202 
L 83.446558 -174.385281 
L 83.259042 -174.99036 
L 83.079289 -175.595439 
L 82.910563 -176.200517 
L 82.73998 -176.805596 
L 82.54002 -177.410675 
L 82.286639 -178.015754 
L 81.976327 -178.620832 
L 81.625584 -179.225911 
L 81.253462 -179.83099 
L 80.865343 -180.436069 
L 80.455299 -181.041147 
L 80.021033 -181.646226 
L 79.565818 -182.251305 
L 79.081808 -182.856384 
L 78.546305 -183.461462 
L 77.949021 -184.066541 
L 77.313916 -184.67162 
L 76.676746 -185.276699 
L 76.042977 -185.881778 
L 75.383527 -186.486856 
L 74.675763 -187.091935 
L 73.934958 -187.697014 
L 73.195944 -188.302093 
L 72.474676 -188.907171 
L 71.761922 -189.51225 
L 71.049435 -190.117329 
L 70.347173 -190.722408 
L 69.672429 -191.327486 
L 69.031685 -191.932565 
L 68.419071 -192.537644 
L 67.830446 -193.142723 
L 67.276076 -193.747801 
L 66.780187 -194.35288 
L 66.369219 -194.957959 
L 66.059557 -195.563038 
L 65.852596 -196.168116 
L 65.734228 -196.773195 
L 65.680746 -197.378274 
L 65.680408 -197.983353 
L 65.748936 -198.588432 
L 65.901308 -199.19351 
L 66.110475 -199.798589 
L 66.328608 -200.403668 
L 66.557189 -201.008747 
L 66.865969 -201.613825 
L 67.329018 -202.218904 
L 67.95679 -202.823983 
L 68.694081 -203.429062 
L 69.466809 -204.03414 
L 70.221946 -204.639219 
L 70.937159 -205.244298 
L 71.614642 -205.849377 
L 72.275116 -206.454455 
L 72.950707 -207.059534 
L 73.670574 -207.664613 
L 74.442634 -208.269692 
L 75.244055 -208.87477 
L 76.030931 -209.479849 
L 76.762091 -210.084928 
L 77.420508 -210.690007 
L 78.019861 -211.295086 
L 78.590782 -211.900164 
L 79.152369 -212.505243 
L 79.694637 -213.110322 
L 80.192954 -213.715401 
L 80.634692 -214.320479 
L 81.021894 -214.925558 
L 81.354166 -215.530637 
L 81.625782 -216.135716 
L 81.84101 -216.740794 
L 82.019588 -217.345873 
L 82.182498 -217.950952 
L 82.337686 -218.556031 
L 82.481829 -219.161109 
L 82.612584 -219.766188 
L 82.735274 -220.371267 
L 82.856548 -220.976346 
L 82.974514 -221.581425 
L 83.079086 -222.186503 
L 83.161862 -222.791582 
L 83.222975 -223.396661 
L 83.268575 -224.00174 
L 83.30487 -224.606818 
L 83.335989 -225.211897 
L 83.365706 -225.816976 
L 83.399158 -226.422055 
L 83.442623 -227.027133 
L 83.501763 -227.632212 
L 83.579687 -228.237291 
L 83.67915 -228.84237 
L 83.811122 -229.447448 
L 83.997268 -230.052527 
L 84.250719 -230.657606 
L 84.549131 -231.262685 
L 86.029841 -231.262685 
L 86.029841 -231.262685 
L 86.328253 -230.657606 
L 86.581704 -230.052527 
L 86.76785 -229.447448 
L 86.899822 -228.84237 
L 86.999285 -228.237291 
L 87.077209 -227.632212 
L 87.136349 -227.027133 
L 87.179814 -226.422055 
L 87.213265 -225.816976 
L 87.242983 -225.211897 
L 87.274101 -224.606818 
L 87.310397 -224.00174 
L 87.355997 -223.396661 
L 87.41711 -222.791582 
L 87.499885 -222.186503 
L 87.604457 -221.581425 
L 87.722424 -220.976346 
L 87.843697 -220.371267 
L 87.966388 -219.766188 
L 88.097143 -219.161109 
L 88.241286 -218.556031 
L 88.396474 -217.950952 
L 88.559384 -217.345873 
L 88.737962 -216.740794 
L 88.95319 -216.135716 
L 89.224806 -215.530637 
L 89.557078 -214.925558 
L 89.944279 -214.320479 
L 90.386017 -213.715401 
L 90.884335 -213.110322 
L 91.426603 -212.505243 
L 91.98819 -211.900164 
L 92.55911 -211.295086 
L 93.158464 -210.690007 
L 93.816881 -210.084928 
L 94.548041 -209.479849 
L 95.334916 -208.87477 
L 96.136337 -208.269692 
L 96.908398 -207.664613 
L 97.628265 -207.059534 
L 98.303856 -206.454455 
L 98.96433 -205.849377 
L 99.641812 -205.244298 
L 100.357025 -204.639219 
L 101.112163 -204.03414 
L 101.88489 -203.429062 
L 102.622182 -202.823983 
L 103.249954 -202.218904 
L 103.713003 -201.613825 
L 104.021783 -201.008747 
L 104.250364 -200.403668 
L 104.468497 -199.798589 
L 104.677663 -199.19351 
L 104.830035 -198.588432 
L 104.898564 -197.983353 
L 104.898226 -197.378274 
L 104.844743 -196.773195 
L 104.726376 -196.168116 
L 104.519415 -195.563038 
L 104.209753 -194.957959 
L 103.798784 -194.35288 
L 103.302895 -193.747801 
L 102.748525 -193.142723 
L 102.159901 -192.537644 
L 101.547286 -191.932565 
L 100.906543 -191.327486 
L 100.231799 -190.722408 
L 99.529537 -190.117329 
L 98.817049 -189.51225 
L 98.104295 -188.907171 
L 97.383028 -188.302093 
L 96.644013 -187.697014 
L 95.903208 -187.091935 
L 95.195445 -186.486856 
L 94.535995 -185.881778 
L 93.902226 -185.276699 
L 93.265056 -184.67162 
L 92.629951 -184.066541 
L 92.032667 -183.461462 
L 91.497164 -182.856384 
L 91.013154 -182.251305 
L 90.557939 -181.646226 
L 90.123672 -181.041147 
L 89.713629 -180.436069 
L 89.32551 -179.83099 
L 88.953388 -179.225911 
L 88.602645 -178.620832 
L 88.292333 -178.015754 
L 88.038952 -177.410675 
L 87.838992 -176.805596 
L 87.668409 -176.200517 
L 87.499682 -175.595439 
L 87.31993 -174.99036 
L 87.132413 -174.385281 
L 86.940429 -173.780202 
L 86.732456 -173.175124 
L 86.48854 -172.570045 
L 86.204743 -171.964966 
L 85.909534 -171.359887 
z
" style="stroke: #004488; stroke-opacity: 0.86; stroke-width: 1.1"/>
    </defs>
    <g clip-path="url(#pa01c79df11)">
     <use xlink:href="#m5806ff48f6" x="0" y="283.464567" style="fill: #bbccee; fill-opacity: 0.86; stroke: #004488; stroke-opacity: 0.86; stroke-width: 1.1"/>
    </g>
   </g>
   <g id="FillBetweenPolyCollection_7">
    <defs>
     <path id="m8f50752e0c" d="M 156.039885 -173.902921 
L 154.603932 -173.902921 
L 154.270233 -174.468756 
L 153.935417 -175.03459 
L 153.629681 -175.600424 
L 153.357726 -176.166258 
L 153.104209 -176.732092 
L 152.848619 -177.297927 
L 152.577245 -177.863761 
L 152.284504 -178.429595 
L 151.9677 -178.995429 
L 151.624151 -179.561263 
L 151.250688 -180.127098 
L 150.841032 -180.692932 
L 150.385793 -181.258766 
L 149.880692 -181.8246 
L 149.335443 -182.390434 
L 148.77312 -182.956268 
L 148.218936 -183.522103 
L 147.682348 -184.087937 
L 147.144778 -184.653771 
L 146.570506 -185.219605 
L 145.936335 -185.785439 
L 145.250105 -186.351274 
L 144.54037 -186.917108 
L 143.831632 -187.482942 
L 143.129425 -188.048776 
L 142.425928 -188.61461 
L 141.719654 -189.180444 
L 141.029315 -189.746279 
L 140.383091 -190.312113 
L 139.791794 -190.877947 
L 139.237944 -191.443781 
L 138.693589 -192.009615 
L 138.146381 -192.57545 
L 137.613129 -193.141284 
L 137.134506 -193.707118 
L 136.749193 -194.272952 
L 136.461159 -194.838786 
L 136.233671 -195.40462 
L 136.02514 -195.970455 
L 135.835081 -196.536289 
L 135.71283 -197.102123 
L 135.717464 -197.667957 
L 135.868481 -198.233791 
L 136.138274 -198.799626 
L 136.488323 -199.36546 
L 136.901331 -199.931294 
L 137.378407 -200.497128 
L 137.919203 -201.062962 
L 138.51213 -201.628796 
L 139.138494 -202.194631 
L 139.782712 -202.760465 
L 140.441047 -203.326299 
L 141.119257 -203.892133 
L 141.819424 -204.457967 
L 142.534669 -205.023802 
L 143.261804 -205.589636 
L 144.011242 -206.15547 
L 144.793904 -206.721304 
L 145.601571 -207.287138 
L 146.409482 -207.852972 
L 147.195029 -208.418807 
L 147.943942 -208.984641 
L 148.641787 -209.550475 
L 149.271852 -210.116309 
L 149.823336 -210.682143 
L 150.296487 -211.247978 
L 150.700712 -211.813812 
L 151.050672 -212.379646 
L 151.360206 -212.94548 
L 151.634658 -213.511314 
L 151.871044 -214.077149 
L 152.069104 -214.642983 
L 152.238374 -215.208817 
L 152.389336 -215.774651 
L 152.520055 -216.340485 
L 152.617666 -216.906319 
L 152.675065 -217.472154 
L 152.702817 -218.037988 
L 152.721073 -218.603822 
L 152.741713 -219.169656 
L 152.762915 -219.73549 
L 152.780426 -220.301325 
L 152.79874 -220.867159 
L 152.828678 -221.432993 
L 152.877511 -221.998827 
L 152.946182 -222.564661 
L 153.034214 -223.130495 
L 153.140026 -223.69633 
L 153.255714 -224.262164 
L 153.369199 -224.827998 
L 153.474278 -225.393832 
L 153.573395 -225.959666 
L 153.670008 -226.525501 
L 153.764866 -227.091335 
L 153.863133 -227.657169 
L 153.982377 -228.223003 
L 154.148049 -228.788837 
L 154.373461 -229.354671 
L 154.63939 -229.920506 
L 156.004427 -229.920506 
L 156.004427 -229.920506 
L 156.270355 -229.354671 
L 156.495768 -228.788837 
L 156.661439 -228.223003 
L 156.780683 -227.657169 
L 156.87895 -227.091335 
L 156.973808 -226.525501 
L 157.070421 -225.959666 
L 157.169539 -225.393832 
L 157.274618 -224.827998 
L 157.388103 -224.262164 
L 157.503791 -223.69633 
L 157.609602 -223.130495 
L 157.697634 -222.564661 
L 157.766305 -221.998827 
L 157.815139 -221.432993 
L 157.845077 -220.867159 
L 157.86339 -220.301325 
L 157.880901 -219.73549 
L 157.902104 -219.169656 
L 157.922744 -218.603822 
L 157.941 -218.037988 
L 157.968751 -217.472154 
L 158.026151 -216.906319 
L 158.123762 -216.340485 
L 158.25448 -215.774651 
L 158.405443 -215.208817 
L 158.574712 -214.642983 
L 158.772772 -214.077149 
L 159.009158 -213.511314 
L 159.283611 -212.94548 
L 159.593144 -212.379646 
L 159.943104 -211.813812 
L 160.34733 -211.247978 
L 160.82048 -210.682143 
L 161.371965 -210.116309 
L 162.00203 -209.550475 
L 162.699875 -208.984641 
L 163.448787 -208.418807 
L 164.234335 -207.852972 
L 165.042245 -207.287138 
L 165.849913 -206.721304 
L 166.632574 -206.15547 
L 167.382012 -205.589636 
L 168.109147 -205.023802 
L 168.824392 -204.457967 
L 169.524559 -203.892133 
L 170.20277 -203.326299 
L 170.861104 -202.760465 
L 171.505323 -202.194631 
L 172.131686 -201.628796 
L 172.724614 -201.062962 
L 173.265409 -200.497128 
L 173.742486 -199.931294 
L 174.155493 -199.36546 
L 174.505542 -198.799626 
L 174.775336 -198.233791 
L 174.926352 -197.667957 
L 174.930987 -197.102123 
L 174.808736 -196.536289 
L 174.618676 -195.970455 
L 174.410145 -195.40462 
L 174.182657 -194.838786 
L 173.894623 -194.272952 
L 173.509311 -193.707118 
L 173.030687 -193.141284 
L 172.497435 -192.57545 
L 171.950227 -192.009615 
L 171.405873 -191.443781 
L 170.852022 -190.877947 
L 170.260725 -190.312113 
L 169.614502 -189.746279 
L 168.924162 -189.180444 
L 168.217888 -188.61461 
L 167.514391 -188.048776 
L 166.812184 -187.482942 
L 166.103447 -186.917108 
L 165.393712 -186.351274 
L 164.707482 -185.785439 
L 164.073311 -185.219605 
L 163.499039 -184.653771 
L 162.961469 -184.087937 
L 162.424881 -183.522103 
L 161.870697 -182.956268 
L 161.308374 -182.390434 
L 160.763124 -181.8246 
L 160.258024 -181.258766 
L 159.802784 -180.692932 
L 159.393129 -180.127098 
L 159.019666 -179.561263 
L 158.676117 -178.995429 
L 158.359313 -178.429595 
L 158.066571 -177.863761 
L 157.795197 -177.297927 
L 157.539608 -176.732092 
L 157.286091 -176.166258 
L 157.014136 -175.600424 
L 156.7084 -175.03459 
L 156.373584 -174.468756 
L 156.039885 -173.902921 
z
" style="stroke: #004488; stroke-opacity: 0.86; stroke-width: 1.1"/>
    </defs>
    <g clip-path="url(#pa01c79df11)">
     <use xlink:href="#m8f50752e0c" x="0" y="283.464567" style="fill: #bbccee; fill-opacity: 0.86; stroke: #004488; stroke-opacity: 0.86; stroke-width: 1.1"/>
    </g>
   </g>
   <g id="FillBetweenPolyCollection_8">
    <defs>
     <path id="m3b85e3a5a6" d="M 226.606895 -172.06625 
L 224.101767 -172.06625 
L 223.607534 -172.53219 
L 223.13775 -172.998129 
L 222.729535 -173.464068 
L 222.379522 -173.930007 
L 222.054036 -174.395947 
L 221.708695 -174.861886 
L 221.308217 -175.327825 
L 220.842118 -175.793765 
L 220.328515 -176.259704 
L 219.801189 -176.725643 
L 219.289509 -177.191582 
L 218.80735 -177.657522 
L 218.35471 -178.123461 
L 217.922523 -178.5894 
L 217.49477 -179.055339 
L 217.053155 -179.521279 
L 216.589016 -179.987218 
L 216.113964 -180.453157 
L 215.654971 -180.919096 
L 215.2342 -181.385036 
L 214.851617 -181.850975 
L 214.484541 -182.316914 
L 214.100065 -182.782853 
L 213.669512 -183.248793 
L 213.179386 -183.714732 
L 212.63529 -184.180671 
L 212.055358 -184.646611 
L 211.457114 -185.11255 
L 210.850246 -185.578489 
L 210.243635 -186.044428 
L 209.657837 -186.510368 
L 209.123475 -186.976307 
L 208.660022 -187.442246 
L 208.255686 -187.908185 
L 207.873676 -188.374125 
L 207.484103 -188.840064 
L 207.09301 -189.306003 
L 206.739736 -189.771942 
L 206.461742 -190.237882 
L 206.258819 -190.703821 
L 206.094753 -191.16976 
L 205.93912 -191.635699 
L 205.805792 -192.101639 
L 205.745252 -192.567578 
L 205.8017 -193.033517 
L 205.984228 -193.499457 
L 206.27421 -193.965396 
L 206.643557 -194.431335 
L 207.057417 -194.897274 
L 207.469221 -195.363214 
L 207.8302 -195.829153 
L 208.113937 -196.295092 
L 208.332567 -196.761031 
L 208.526473 -197.226971 
L 208.736028 -197.69291 
L 208.978248 -198.158849 
L 209.242503 -198.624788 
L 209.506737 -199.090728 
L 209.764925 -199.556667 
L 210.042746 -200.022606 
L 210.381782 -200.488545 
L 210.805315 -200.954485 
L 211.301803 -201.420424 
L 211.839827 -201.886363 
L 212.392189 -202.352303 
L 212.945541 -202.818242 
L 213.496852 -203.284181 
L 214.048624 -203.75012 
L 214.604937 -204.21606 
L 215.164593 -204.681999 
L 215.715585 -205.147938 
L 216.240236 -205.613877 
L 216.730324 -206.079817 
L 217.197468 -206.545756 
L 217.665198 -207.011695 
L 218.148253 -207.477634 
L 218.641089 -207.943574 
L 219.12759 -208.409513 
L 219.597294 -208.875452 
L 220.048194 -209.341391 
L 220.478664 -209.807331 
L 220.884054 -210.27327 
L 221.260832 -210.739209 
L 221.609541 -211.205149 
L 221.932904 -211.671088 
L 222.232538 -212.137027 
L 222.507413 -212.602966 
L 222.754719 -213.068906 
L 222.972253 -213.534845 
L 223.160721 -214.000784 
L 223.325134 -214.466723 
L 223.474962 -214.932663 
L 223.621954 -215.398602 
L 223.776283 -215.864541 
L 223.944939 -216.33048 
L 224.133618 -216.79642 
L 224.346438 -217.262359 
L 224.579192 -217.728298 
L 224.812917 -218.194237 
L 225.895744 -218.194237 
L 225.895744 -218.194237 
L 226.12947 -217.728298 
L 226.362224 -217.262359 
L 226.575043 -216.79642 
L 226.763722 -216.33048 
L 226.932378 -215.864541 
L 227.086707 -215.398602 
L 227.2337 -214.932663 
L 227.383528 -214.466723 
L 227.54794 -214.000784 
L 227.736409 -213.534845 
L 227.953943 -213.068906 
L 228.201248 -212.602966 
L 228.476124 -212.137027 
L 228.775758 -211.671088 
L 229.09912 -211.205149 
L 229.44783 -210.739209 
L 229.824608 -210.27327 
L 230.229997 -209.807331 
L 230.660467 -209.341391 
L 231.111368 -208.875452 
L 231.581071 -208.409513 
L 232.067572 -207.943574 
L 232.560409 -207.477634 
L 233.043464 -207.011695 
L 233.511194 -206.545756 
L 233.978337 -206.079817 
L 234.468425 -205.613877 
L 234.993077 -205.147938 
L 235.544069 -204.681999 
L 236.103724 -204.21606 
L 236.660038 -203.75012 
L 237.21181 -203.284181 
L 237.76312 -202.818242 
L 238.316473 -202.352303 
L 238.868834 -201.886363 
L 239.406859 -201.420424 
L 239.903347 -200.954485 
L 240.32688 -200.488545 
L 240.665916 -200.022606 
L 240.943736 -199.556667 
L 241.201924 -199.090728 
L 241.466159 -198.624788 
L 241.730413 -198.158849 
L 241.972633 -197.69291 
L 242.182188 -197.226971 
L 242.376094 -196.761031 
L 242.594724 -196.295092 
L 242.878461 -195.829153 
L 243.23944 -195.363214 
L 243.651245 -194.897274 
L 244.065104 -194.431335 
L 244.434452 -193.965396 
L 244.724434 -193.499457 
L 244.906962 -193.033517 
L 244.963409 -192.567578 
L 244.902869 -192.101639 
L 244.769541 -191.635699 
L 244.613908 -191.16976 
L 244.449843 -190.703821 
L 244.246919 -190.237882 
L 243.968925 -189.771942 
L 243.615651 -189.306003 
L 243.224558 -188.840064 
L 242.834986 -188.374125 
L 242.452975 -187.908185 
L 242.048639 -187.442246 
L 241.585187 -186.976307 
L 241.050825 -186.510368 
L 240.465027 -186.044428 
L 239.858416 -185.578489 
L 239.251547 -185.11255 
L 238.653303 -184.646611 
L 238.073371 -184.180671 
L 237.529276 -183.714732 
L 237.039149 -183.248793 
L 236.608596 -182.782853 
L 236.22412 -182.316914 
L 235.857045 -181.850975 
L 235.474462 -181.385036 
L 235.05369 -180.919096 
L 234.594698 -180.453157 
L 234.119645 -179.987218 
L 233.655506 -179.521279 
L 233.213892 -179.055339 
L 232.786139 -178.5894 
L 232.353952 -178.123461 
L 231.901312 -177.657522 
L 231.419153 -177.191582 
L 230.907473 -176.725643 
L 230.380146 -176.259704 
L 229.866544 -175.793765 
L 229.400444 -175.327825 
L 228.999966 -174.861886 
L 228.654625 -174.395947 
L 228.32914 -173.930007 
L 227.979127 -173.464068 
L 227.570911 -172.998129 
L 227.101127 -172.53219 
L 226.606895 -172.06625 
z
" style="stroke: #004488; stroke-opacity: 0.86; stroke-width: 1.1"/>
    </defs>
    <g clip-path="url(#pa01c79df11)">
     <use xlink:href="#m3b85e3a5a6" x="0" y="283.464567" style="fill: #bbccee; fill-opacity: 0.86; stroke: #004488; stroke-opacity: 0.86; stroke-width: 1.1"/>
    </g>
   </g>
   <g id="FillBetweenPolyCollection_9">
    <defs>
     <path id="me805fce13f" d="M 296.598293 -158.997871 
L 294.175213 -158.997871 
L 293.630111 -159.533023 
L 293.023343 -160.068174 
L 292.381183 -160.603326 
L 291.710541 -161.138478 
L 290.994062 -161.67363 
L 290.191382 -162.208782 
L 289.248717 -162.743934 
L 288.12047 -163.279086 
L 286.799021 -163.814238 
L 285.337549 -164.34939 
L 283.847605 -164.884542 
L 282.46592 -165.419694 
L 281.306109 -165.954846 
L 280.421565 -166.489998 
L 279.797158 -167.02515 
L 279.369945 -167.560302 
L 279.065252 -168.095454 
L 278.827941 -168.630606 
L 278.632483 -169.165758 
L 278.470754 -169.70091 
L 278.331976 -170.236062 
L 278.191794 -170.771214 
L 278.017236 -171.306366 
L 277.78149 -171.841518 
L 277.476474 -172.37667 
L 277.116067 -172.911822 
L 276.731877 -173.446974 
L 276.366131 -173.982126 
L 276.063165 -174.517278 
L 275.859943 -175.052429 
L 275.777675 -175.587581 
L 275.817651 -176.122733 
L 275.965827 -176.657885 
L 276.208923 -177.193037 
L 276.553579 -177.728189 
L 277.02918 -178.263341 
L 277.664575 -178.798493 
L 278.455125 -179.333645 
L 279.34851 -179.868797 
L 280.260652 -180.403949 
L 281.109109 -180.939101 
L 281.844926 -181.474253 
L 282.470619 -182.009405 
L 283.036566 -182.544557 
L 283.613416 -183.079709 
L 284.252074 -183.614861 
L 284.955244 -184.150013 
L 285.678657 -184.685165 
L 286.359074 -185.220317 
L 286.949027 -185.755469 
L 287.436846 -186.290621 
L 287.842358 -186.825773 
L 288.195128 -187.360925 
L 288.513372 -187.896077 
L 288.798616 -188.431229 
L 289.045695 -188.966381 
L 289.254722 -189.501533 
L 289.433574 -190.036684 
L 289.591644 -190.571836 
L 289.733438 -191.106988 
L 289.858216 -191.64214 
L 289.964748 -192.177292 
L 290.05593 -192.712444 
L 290.138645 -193.247596 
L 290.219043 -193.782748 
L 290.298091 -194.3179 
L 290.371958 -194.853052 
L 290.436572 -195.388204 
L 290.491636 -195.923356 
L 290.54083 -196.458508 
L 290.58919 -196.99366 
L 290.640942 -197.528812 
L 290.699488 -198.063964 
L 290.768458 -198.599116 
L 290.852101 -199.134268 
L 290.954421 -199.66942 
L 291.077211 -200.204572 
L 291.217722 -200.739724 
L 291.36795 -201.274876 
L 291.517207 -201.810028 
L 291.656865 -202.34518 
L 291.783879 -202.880332 
L 291.901121 -203.415484 
L 292.01516 -203.950636 
L 292.132824 -204.485788 
L 292.257499 -205.020939 
L 292.387189 -205.556091 
L 292.516531 -206.091243 
L 292.641368 -206.626395 
L 292.76104 -207.161547 
L 292.876413 -207.696699 
L 292.987945 -208.231851 
L 293.098354 -208.767003 
L 293.217891 -209.302155 
L 293.365663 -209.837307 
L 293.563309 -210.372459 
L 293.823178 -210.907611 
L 294.137068 -211.442763 
L 294.473157 -211.977915 
L 296.30035 -211.977915 
L 296.30035 -211.977915 
L 296.636438 -211.442763 
L 296.950329 -210.907611 
L 297.210197 -210.372459 
L 297.407843 -209.837307 
L 297.555615 -209.302155 
L 297.675153 -208.767003 
L 297.785562 -208.231851 
L 297.897093 -207.696699 
L 298.012466 -207.161547 
L 298.132138 -206.626395 
L 298.256975 -206.091243 
L 298.386317 -205.556091 
L 298.516007 -205.020939 
L 298.640683 -204.485788 
L 298.758346 -203.950636 
L 298.872385 -203.415484 
L 298.989627 -202.880332 
L 299.116641 -202.34518 
L 299.256299 -201.810028 
L 299.405557 -201.274876 
L 299.555784 -200.739724 
L 299.696295 -200.204572 
L 299.819085 -199.66942 
L 299.921405 -199.134268 
L 300.005048 -198.599116 
L 300.074018 -198.063964 
L 300.132564 -197.528812 
L 300.184316 -196.99366 
L 300.232676 -196.458508 
L 300.28187 -195.923356 
L 300.336934 -195.388204 
L 300.401548 -194.853052 
L 300.475416 -194.3179 
L 300.554463 -193.782748 
L 300.634861 -193.247596 
L 300.717577 -192.712444 
L 300.808758 -192.177292 
L 300.91529 -191.64214 
L 301.040068 -191.106988 
L 301.181863 -190.571836 
L 301.339932 -190.036684 
L 301.518785 -189.501533 
L 301.727811 -188.966381 
L 301.97489 -188.431229 
L 302.260134 -187.896077 
L 302.578379 -187.360925 
L 302.931148 -186.825773 
L 303.33666 -186.290621 
L 303.82448 -185.755469 
L 304.414432 -185.220317 
L 305.094849 -184.685165 
L 305.818262 -184.150013 
L 306.521432 -183.614861 
L 307.16009 -183.079709 
L 307.73694 -182.544557 
L 308.302888 -182.009405 
L 308.92858 -181.474253 
L 309.664397 -180.939101 
L 310.512854 -180.403949 
L 311.424996 -179.868797 
L 312.318381 -179.333645 
L 313.108931 -178.798493 
L 313.744326 -178.263341 
L 314.219927 -177.728189 
L 314.564583 -177.193037 
L 314.80768 -176.657885 
L 314.955855 -176.122733 
L 314.995831 -175.587581 
L 314.913563 -175.052429 
L 314.710341 -174.517278 
L 314.407375 -173.982126 
L 314.041629 -173.446974 
L 313.657439 -172.911822 
L 313.297033 -172.37667 
L 312.992017 -171.841518 
L 312.75627 -171.306366 
L 312.581712 -170.771214 
L 312.44153 -170.236062 
L 312.302753 -169.70091 
L 312.141023 -169.165758 
L 311.945566 -168.630606 
L 311.708254 -168.095454 
L 311.403561 -167.560302 
L 310.976348 -167.02515 
L 310.351942 -166.489998 
L 309.467397 -165.954846 
L 308.307586 -165.419694 
L 306.925901 -164.884542 
L 305.435957 -164.34939 
L 303.974485 -163.814238 
L 302.653036 -163.279086 
L 301.524789 -162.743934 
L 300.582124 -162.208782 
L 299.779444 -161.67363 
L 299.062966 -161.138478 
L 298.392323 -160.603326 
L 297.750163 -160.068174 
L 297.143395 -159.533023 
L 296.598293 -158.997871 
z
" style="stroke: #004488; stroke-opacity: 0.86; stroke-width: 1.1"/>
    </defs>
    <g clip-path="url(#pa01c79df11)">
     <use xlink:href="#me805fce13f" x="0" y="283.464567" style="fill: #bbccee; fill-opacity: 0.86; stroke: #004488; stroke-opacity: 0.86; stroke-width: 1.1"/>
    </g>
   </g>
   <g id="FillBetweenPolyCollection_10">
    <defs>
     <path id="m59fe9959f3" d="M 366.548895 -161.682175 
L 364.289456 -161.682175 
L 363.864208 -162.300811 
L 363.437249 -162.919447 
L 363.032548 -163.538083 
L 362.652135 -164.156719 
L 362.284513 -164.775355 
L 361.917332 -165.393991 
L 361.543581 -166.012627 
L 361.159118 -166.631263 
L 360.757699 -167.249899 
L 360.331 -167.868535 
L 359.874857 -168.487171 
L 359.3953 -169.105807 
L 358.906928 -169.724443 
L 358.423787 -170.343079 
L 357.951152 -170.961715 
L 357.485843 -171.580351 
L 357.023466 -172.198987 
L 356.564312 -172.817623 
L 356.113364 -173.436259 
L 355.677818 -174.054895 
L 355.266434 -174.673531 
L 354.889429 -175.292167 
L 354.555607 -175.910803 
L 354.267881 -176.529439 
L 354.021705 -177.148075 
L 353.808509 -177.766711 
L 353.621605 -178.385347 
L 353.459692 -179.003983 
L 353.324499 -179.622619 
L 353.213821 -180.241254 
L 353.116749 -180.85989 
L 353.018108 -181.478526 
L 352.910304 -182.097162 
L 352.800102 -182.715798 
L 352.699825 -183.334434 
L 352.609793 -183.95307 
L 352.51167 -184.571706 
L 352.381343 -185.190342 
L 352.206612 -185.808978 
L 351.990546 -186.427614 
L 351.742029 -187.04625 
L 351.470151 -187.664886 
L 351.18774 -188.283522 
L 350.912057 -188.902158 
L 350.655018 -189.520794 
L 350.412698 -190.13943 
L 350.166796 -190.758066 
L 349.896396 -191.376702 
L 349.588273 -191.995338 
L 349.239203 -192.613974 
L 348.853757 -193.23261 
L 348.443418 -193.851246 
L 348.027719 -194.469882 
L 347.632805 -195.088518 
L 347.282931 -195.707154 
L 346.987007 -196.32579 
L 346.731065 -196.944426 
L 346.488504 -197.563062 
L 346.24587 -198.181698 
L 346.022844 -198.800334 
L 345.864613 -199.41897 
L 345.810097 -200.037606 
L 345.865139 -200.656242 
L 346.005178 -201.274878 
L 346.200604 -201.893514 
L 346.43646 -202.51215 
L 346.710847 -203.130786 
L 347.023728 -203.749422 
L 347.373994 -204.368058 
L 347.764238 -204.986694 
L 348.200077 -205.60533 
L 348.681994 -206.223966 
L 349.202572 -206.842602 
L 349.756299 -207.461238 
L 350.35073 -208.079874 
L 351.003564 -208.69851 
L 351.726019 -209.317146 
L 352.508562 -209.935782 
L 353.322503 -210.554418 
L 354.13471 -211.173054 
L 354.921182 -211.79169 
L 355.669998 -212.410326 
L 356.377361 -213.028962 
L 357.045386 -213.647598 
L 357.682913 -214.266234 
L 358.303238 -214.88487 
L 358.915995 -215.503506 
L 359.519413 -216.122142 
L 360.101037 -216.740778 
L 360.646732 -217.359414 
L 361.149682 -217.97805 
L 361.612565 -218.596686 
L 362.043971 -219.215322 
L 362.454547 -219.833958 
L 362.855698 -220.452594 
L 363.258418 -221.07123 
L 363.668572 -221.689866 
L 364.079536 -222.308502 
L 364.468895 -222.927138 
L 366.369456 -222.927138 
L 366.369456 -222.927138 
L 366.758815 -222.308502 
L 367.169779 -221.689866 
L 367.579933 -221.07123 
L 367.982653 -220.452594 
L 368.383804 -219.833958 
L 368.79438 -219.215322 
L 369.225786 -218.596686 
L 369.68867 -217.97805 
L 370.191619 -217.359414 
L 370.737314 -216.740778 
L 371.318938 -216.122142 
L 371.922356 -215.503506 
L 372.535113 -214.88487 
L 373.155438 -214.266234 
L 373.792965 -213.647598 
L 374.46099 -213.028962 
L 375.168354 -212.410326 
L 375.917169 -211.79169 
L 376.703641 -211.173054 
L 377.515848 -210.554418 
L 378.32979 -209.935782 
L 379.112332 -209.317146 
L 379.834787 -208.69851 
L 380.487621 -208.079874 
L 381.082052 -207.461238 
L 381.635779 -206.842602 
L 382.156358 -206.223966 
L 382.638274 -205.60533 
L 383.074113 -204.986694 
L 383.464357 -204.368058 
L 383.814624 -203.749422 
L 384.127504 -203.130786 
L 384.401892 -202.51215 
L 384.637747 -201.893514 
L 384.833173 -201.274878 
L 384.973213 -200.656242 
L 385.028254 -200.037606 
L 384.973738 -199.41897 
L 384.815507 -198.800334 
L 384.592481 -198.181698 
L 384.349847 -197.563062 
L 384.107286 -196.944426 
L 383.851345 -196.32579 
L 383.55542 -195.707154 
L 383.205546 -195.088518 
L 382.810632 -194.469882 
L 382.394933 -193.851246 
L 381.984594 -193.23261 
L 381.599148 -192.613974 
L 381.250078 -191.995338 
L 380.941955 -191.376702 
L 380.671556 -190.758066 
L 380.425653 -190.13943 
L 380.183333 -189.520794 
L 379.926294 -188.902158 
L 379.650611 -188.283522 
L 379.3682 -187.664886 
L 379.096322 -187.04625 
L 378.847805 -186.427614 
L 378.631739 -185.808978 
L 378.457009 -185.190342 
L 378.326681 -184.571706 
L 378.228558 -183.95307 
L 378.138526 -183.334434 
L 378.038249 -182.715798 
L 377.928047 -182.097162 
L 377.820243 -181.478526 
L 377.721602 -180.85989 
L 377.62453 -180.241254 
L 377.513852 -179.622619 
L 377.378659 -179.003983 
L 377.216746 -178.385347 
L 377.029842 -177.766711 
L 376.816646 -177.148075 
L 376.57047 -176.529439 
L 376.282745 -175.910803 
L 375.948922 -175.292167 
L 375.571917 -174.673531 
L 375.160533 -174.054895 
L 374.724987 -173.436259 
L 374.274039 -172.817623 
L 373.814885 -172.198987 
L 373.352508 -171.580351 
L 372.887199 -170.961715 
L 372.414564 -170.343079 
L 371.931424 -169.724443 
L 371.443051 -169.105807 
L 370.963494 -168.487171 
L 370.507351 -167.868535 
L 370.080653 -167.249899 
L 369.679233 -166.631263 
L 369.29477 -166.012627 
L 368.921019 -165.393991 
L 368.553838 -164.775355 
L 368.186216 -164.156719 
L 367.805803 -163.538083 
L 367.401102 -162.919447 
L 366.974143 -162.300811 
L 366.548895 -161.682175 
z
" style="stroke: #004488; stroke-opacity: 0.86; stroke-width: 1.1"/>
    </defs>
    <g clip-path="url(#pa01c79df11)">
     <use xlink:href="#m59fe9959f3" x="0" y="283.464567" style="fill: #bbccee; fill-opacity: 0.86; stroke: #004488; stroke-opacity: 0.86; stroke-width: 1.1"/>
    </g>
   </g>
   <g id="line2d_22">
    <path d="M 85.289486 190.656458 
L 85.289486 180.272396 
" clip-path="url(#pa01c79df11)" style="fill: none; stroke: #000000; stroke-width: 1.9; stroke-linecap: round"/>
   </g>
   <g id="line2d_23">
    <path d="M 155.321908 189.455589 
L 155.321908 179.000858 
" clip-path="url(#pa01c79df11)" style="fill: none; stroke: #000000; stroke-width: 1.9; stroke-linecap: round"/>
   </g>
   <g id="line2d_24">
    <path d="M 225.354331 189.102408 
L 225.354331 180.625618 
" clip-path="url(#pa01c79df11)" style="fill: none; stroke: #000000; stroke-width: 1.9; stroke-linecap: round"/>
   </g>
   <g id="line2d_25">
    <path d="M 295.386753 204.148756 
L 295.386753 196.378302 
" clip-path="url(#pa01c79df11)" style="fill: none; stroke: #000000; stroke-width: 1.9; stroke-linecap: round"/>
   </g>
   <g id="line2d_26">
    <path d="M 365.419176 197.014091 
L 365.419176 184.440149 
" clip-path="url(#pa01c79df11)" style="fill: none; stroke: #000000; stroke-width: 1.9; stroke-linecap: round"/>
   </g>
   <g id="line2d_27">
    <path d="M 85.289486 92.254817 
L 85.289486 78.197439 
" clip-path="url(#pa01c79df11)" style="fill: none; stroke: #000000; stroke-width: 1.9; stroke-linecap: round"/>
   </g>
   <g id="line2d_28">
    <path d="M 155.321908 92.749309 
L 155.321908 79.468977 
" clip-path="url(#pa01c79df11)" style="fill: none; stroke: #000000; stroke-width: 1.9; stroke-linecap: round"/>
   </g>
   <g id="line2d_29">
    <path d="M 225.354331 97.058345 
L 225.354331 83.495447 
" clip-path="url(#pa01c79df11)" style="fill: none; stroke: #000000; stroke-width: 1.9; stroke-linecap: round"/>
   </g>
   <g id="line2d_30">
    <path d="M 295.386753 113.093664 
L 295.386753 98.047302 
" clip-path="url(#pa01c79df11)" style="fill: none; stroke: #000000; stroke-width: 1.9; stroke-linecap: round"/>
   </g>
   <g id="line2d_31">
    <path d="M 365.419176 100.519708 
L 365.419176 79.115782 
" clip-path="url(#pa01c79df11)" style="fill: none; stroke: #000000; stroke-width: 1.9; stroke-linecap: round"/>
   </g>
   <g id="text_12">
    <text style="font-weight: 700; font-size: 19px; font-family: 'Tahoma'; text-anchor: middle; fill: #004488" x="225.354331" y="38.835181" transform="rotate(-0 225.354331 38.835181)">from mean</text>
   </g>
   <g id="text_13">
    <text style="font-weight: 700; font-size: 19px; font-family: 'Tahoma'; text-anchor: middle; fill: #bb5566" x="225.354331" y="134.179536" transform="rotate(-0 225.354331 134.179536)">from p90</text>
   </g>
   <g id="line2d_32">
    <path d="M 76.885595 185.42912 
L 93.693377 185.42912 
" clip-path="url(#pa01c79df11)" style="fill: none; stroke: #bb5566; stroke-width: 2.1; stroke-linecap: square"/>
   </g>
   <g id="line2d_33">
    <path d="M 146.918018 184.369507 
L 163.725799 184.369507 
" clip-path="url(#pa01c79df11)" style="fill: none; stroke: #bb5566; stroke-width: 2.1; stroke-linecap: square"/>
   </g>
   <g id="line2d_34">
    <path d="M 216.95044 185.075924 
L 233.758221 185.075924 
" clip-path="url(#pa01c79df11)" style="fill: none; stroke: #bb5566; stroke-width: 2.1; stroke-linecap: square"/>
   </g>
   <g id="line2d_35">
    <path d="M 286.982862 200.616737 
L 303.790644 200.616737 
" clip-path="url(#pa01c79df11)" style="fill: none; stroke: #bb5566; stroke-width: 2.1; stroke-linecap: square"/>
   </g>
   <g id="line2d_36">
    <path d="M 357.015285 190.515188 
L 373.823066 190.515188 
" clip-path="url(#pa01c79df11)" style="fill: none; stroke: #bb5566; stroke-width: 2.1; stroke-linecap: square"/>
   </g>
   <g id="line2d_37">
    <path d="M 79.686892 85.261462 
L 90.89208 85.261462 
" clip-path="url(#pa01c79df11)" style="fill: none; stroke: #004488; stroke-width: 2.1; stroke-linecap: square"/>
   </g>
   <g id="line2d_38">
    <path d="M 149.719314 86.179778 
L 160.924502 86.179778 
" clip-path="url(#pa01c79df11)" style="fill: none; stroke: #004488; stroke-width: 2.1; stroke-linecap: square"/>
   </g>
   <g id="line2d_39">
    <path d="M 219.751737 90.488814 
L 230.956925 90.488814 
" clip-path="url(#pa01c79df11)" style="fill: none; stroke: #004488; stroke-width: 2.1; stroke-linecap: square"/>
   </g>
   <g id="line2d_40">
    <path d="M 289.784159 106.594761 
L 300.989347 106.594761 
" clip-path="url(#pa01c79df11)" style="fill: none; stroke: #004488; stroke-width: 2.1; stroke-linecap: square"/>
   </g>
   <g id="line2d_41">
    <path d="M 359.816582 88.369617 
L 371.021769 88.369617 
" clip-path="url(#pa01c79df11)" style="fill: none; stroke: #004488; stroke-width: 2.1; stroke-linecap: square"/>
   </g>
   <g id="PathCollection_1">
    <defs>
     <path id="md5c4794c6c" d="M 0 2.345208 
C 0.621956 2.345208 1.218523 2.098102 1.658312 1.658312 
C 2.098102 1.218523 2.345208 0.621956 2.345208 0 
C 2.345208 -0.621956 2.098102 -1.218523 1.658312 -1.658312 
C 1.218523 -2.098102 0.621956 -2.345208 0 -2.345208 
C -0.621956 -2.345208 -1.218523 -2.098102 -1.658312 -1.658312 
C -2.098102 -1.218523 -2.345208 -0.621956 -2.345208 0 
C -2.345208 0.621956 -2.098102 1.218523 -1.658312 1.658312 
C -1.218523 2.098102 -0.621956 2.345208 0 2.345208 
z
" style="stroke: #bb5566"/>
    </defs>
    <g clip-path="url(#pa01c79df11)">
     <use xlink:href="#md5c4794c6c" x="85.289486" y="185.420519" style="fill: #bb5566; stroke: #bb5566"/>
    </g>
   </g>
   <g id="PathCollection_2">
    <g clip-path="url(#pa01c79df11)">
     <use xlink:href="#md5c4794c6c" x="155.321908" y="184.042381" style="fill: #bb5566; stroke: #bb5566"/>
    </g>
   </g>
   <g id="PathCollection_3">
    <g clip-path="url(#pa01c79df11)">
     <use xlink:href="#md5c4794c6c" x="225.354331" y="184.688674" style="fill: #bb5566; stroke: #bb5566"/>
    </g>
   </g>
   <g id="PathCollection_4">
    <g clip-path="url(#pa01c79df11)">
     <use xlink:href="#md5c4794c6c" x="295.386753" y="199.652585" style="fill: #bb5566; stroke: #bb5566"/>
    </g>
   </g>
   <g id="PathCollection_5">
    <g clip-path="url(#pa01c79df11)">
     <use xlink:href="#md5c4794c6c" x="365.419176" y="190.641576" style="fill: #bb5566; stroke: #bb5566"/>
    </g>
   </g>
   <g id="PathCollection_6">
    <defs>
     <path id="me435cc65d4" d="M 0 2.345208 
C 0.621956 2.345208 1.218523 2.098102 1.658312 1.658312 
C 2.098102 1.218523 2.345208 0.621956 2.345208 0 
C 2.345208 -0.621956 2.098102 -1.218523 1.658312 -1.658312 
C 1.218523 -2.098102 0.621956 -2.345208 0 -2.345208 
C -0.621956 -2.345208 -1.218523 -2.098102 -1.658312 -1.658312 
C -2.098102 -1.218523 -2.345208 -0.621956 -2.345208 0 
C -2.345208 0.621956 -2.098102 1.218523 -1.658312 1.658312 
C -1.218523 2.098102 -0.621956 2.345208 0 2.345208 
z
" style="stroke: #004488"/>
    </defs>
    <g clip-path="url(#pa01c79df11)">
     <use xlink:href="#me435cc65d4" x="85.289486" y="85.012083" style="fill: #004488; stroke: #004488"/>
    </g>
   </g>
   <g id="PathCollection_7">
    <g clip-path="url(#pa01c79df11)">
     <use xlink:href="#me435cc65d4" x="155.321908" y="85.531664" style="fill: #004488; stroke: #004488"/>
    </g>
   </g>
   <g id="PathCollection_8">
    <g clip-path="url(#pa01c79df11)">
     <use xlink:href="#me435cc65d4" x="225.354331" y="90.232351" style="fill: #004488; stroke: #004488"/>
    </g>
   </g>
   <g id="PathCollection_9">
    <g clip-path="url(#pa01c79df11)">
     <use xlink:href="#me435cc65d4" x="295.386753" y="104.257105" style="fill: #004488; stroke: #004488"/>
    </g>
   </g>
   <g id="PathCollection_10">
    <g clip-path="url(#pa01c79df11)">
     <use xlink:href="#me435cc65d4" x="365.419176" y="89.843638" style="fill: #004488; stroke: #004488"/>
    </g>
   </g>
  </g>
 </g>
 <defs>
  <clipPath id="pa01c79df11">
   <rect x="46.771654" y="22.677165" width="357.165354" height="198.425197"/>
  </clipPath>
 </defs>
</svg>
