<?xml version="1.0" encoding="utf-8" standalone="no"?>
<!DOCTYPE svg PUBLIC "-//W3C//DTD SVG 1.1//EN"
  "http://www.w3.org/Graphics/SVG/1.1/DTD/svg11.dtd">
<svg xmlns:xlink="http://www.w3.org/1999/xlink" width="425.19685pt" height="283.464567pt" viewBox="0 0 425.19685 283.464567" xmlns="http://www.w3.org/2000/svg" version="1.1">
 <metadata>
  <rdf:RDF xmlns:dc="http://purl.org/dc/elements/1.1/" xmlns:cc="http://creativecommons.org/ns#" xmlns:rdf="http://www.w3.org/1999/02/22-rdf-syntax-ns#">
   <cc:Work>
    <dc:type rdf:resource="http://purl.org/dc/dcmitype/StillImage"/>
    <dc:date>2026-05-21T17:17:25.815135</dc:date>
    <dc:format>image/svg+xml</dc:format>
    <dc:creator>
     <cc:Agent>
      <dc:title>Matplotlib v3.10.0, https://matplotlib.org/</dc:title>
     </cc:Agent>
    </dc:creator>
   </cc:Work>
  </rdf:RDF>
 </metadata>
 <defs>
  <style type="text/css">*{stroke-linejoin: round; stroke-linecap: butt}</style>
 </defs>
 <g id="figure_1">
  <g id="patch_1">
   <path d="M 0 283.464567 
L 425.19685 283.464567 
L 425.19685 0 
L 0 0 
L 0 283.464567 
z
" style="fill: none; opacity: 0"/>
  </g>
  <g id="axes_1">
   <g id="patch_2">
    <path d="M 46.771654 221.102362 
L 403.937008 221.102362 
L 403.937008 22.677165 
L 46.771654 22.677165 
L 46.771654 221.102362 
z
" style="fill: none; opacity: 0"/>
   </g>
   <g id="matplotlib.axis_1">
    <g id="xtick_1">
     <g id="line2d_1">
      <path d="M 85.289486 221.102362 
L 85.289486 22.677165 
" clip-path="url(#p0812e41095)" style="fill: none; stroke: #d0d0d0; stroke-opacity: 0.65; stroke-width: 1.2; stroke-linecap: square"/>
     </g>
     <g id="line2d_2">
      <defs>
       <path id="m1b70f0a695" d="M 0 0 
L 0 6 
" style="stroke: #000000; stroke-width: 1.5"/>
      </defs>
      <g>
       <use xlink:href="#m1b70f0a695" x="85.289486" y="221.102362" style="stroke: #000000; stroke-width: 1.5"/>
      </g>
     </g>
     <g id="text_1">
      <text style="font-size: 15px; font-family: 'Tahoma'" transform="translate(0.788153 274.853949) rotate(-22)">Trees 2–10 m</text>
     </g>
    </g>
    <g id="xtick_2">
     <g id="line2d_3">
      <path d="M 155.321908 221.102362 
L 155.321908 22.677165 
" clip-path="url(#p0812e41095)" style="fill: none; stroke: #d0d0d0; stroke-opacity: 0.65; stroke-width: 1.2; stroke-linecap: square"/>
     </g>
     <g id="line2d_4">
      <g>
       <use xlink:href="#m1b70f0a695" x="155.321908" y="221.102362" style="stroke: #000000; stroke-width: 1.5"/>
      </g>
     </g>
     <g id="text_2">
      <text style="font-size: 15px; font-family: 'Tahoma'" transform="translate(63.227809 277.921626) rotate(-22)">Trees 10–15 m</text>
     </g>
    </g>
    <g id="xtick_3">
     <g id="line2d_5">
      <path d="M 225.354331 221.102362 
L 225.354331 22.677165 
" clip-path="url(#p0812e41095)" style="fill: none; stroke: #d0d0d0; stroke-opacity: 0.65; stroke-width: 1.2; stroke-linecap: square"/>
     </g>
     <g id="line2d_6">
      <g>
       <use xlink:href="#m1b70f0a695" x="225.354331" y="221.102362" style="stroke: #000000; stroke-width: 1.5"/>
      </g>
     </g>
     <g id="text_3">
      <text style="font-size: 15px; font-family: 'Tahoma'" transform="translate(145.920637 272.80649) rotate(-22)">Trees &gt;15 m</text>
     </g>
    </g>
    <g id="xtick_4">
     <g id="line2d_7">
      <path d="M 295.386753 221.102362 
L 295.386753 22.677165 
" clip-path="url(#p0812e41095)" style="fill: none; stroke: #d0d0d0; stroke-opacity: 0.65; stroke-width: 1.2; stroke-linecap: square"/>
     </g>
     <g id="line2d_8">
      <g>
       <use xlink:href="#m1b70f0a695" x="295.386753" y="221.102362" style="stroke: #000000; stroke-width: 1.5"/>
      </g>
     </g>
     <g id="text_4">
      <text style="font-size: 15px; font-family: 'Tahoma'" transform="translate(259.427842 255.241538) rotate(-22)">Fields</text>
     </g>
    </g>
    <g id="xtick_5">
     <g id="line2d_9">
      <path d="M 365.419176 221.102362 
L 365.419176 22.677165 
" clip-path="url(#p0812e41095)" style="fill: none; stroke: #d0d0d0; stroke-opacity: 0.65; stroke-width: 1.2; stroke-linecap: square"/>
     </g>
     <g id="line2d_10">
      <g>
       <use xlink:href="#m1b70f0a695" x="365.419176" y="221.102362" style="stroke: #000000; stroke-width: 1.5"/>
      </g>
     </g>
     <g id="text_5">
      <text style="font-size: 15px; font-family: 'Tahoma'" transform="translate(299.287521 267.420057) rotate(-22)">Other veg.</text>
     </g>
    </g>
   </g>
   <g id="matplotlib.axis_2">
    <g id="ytick_1">
     <g id="line2d_11">
      <path d="M 46.771654 221.102362 
L 403.937008 221.102362 
" clip-path="url(#p0812e41095)" style="fill: none; stroke: #d0d0d0; stroke-opacity: 0.65; stroke-width: 1.2; stroke-linecap: square"/>
     </g>
     <g id="line2d_12">
      <defs>
       <path id="m01dbc6d457" d="M 0 0 
L -6 0 
" style="stroke: #000000; stroke-width: 1.5"/>
      </defs>
      <g>
       <use xlink:href="#m01dbc6d457" x="46.771654" y="221.102362" style="stroke: #000000; stroke-width: 1.5"/>
      </g>
     </g>
     <g id="text_6">
      <text style="font-size: 15px; font-family: 'Tahoma'; text-anchor: end" x="37.271654" y="226.80119" transform="rotate(-0 37.271654 226.80119)">+0</text>
     </g>
    </g>
    <g id="ytick_2">
     <g id="line2d_13">
      <path d="M 46.771654 177.479011 
L 403.937008 177.479011 
" clip-path="url(#p0812e41095)" style="fill: none; stroke: #d0d0d0; stroke-opacity: 0.65; stroke-width: 1.2; stroke-linecap: square"/>
     </g>
     <g id="line2d_14">
      <g>
       <use xlink:href="#m01dbc6d457" x="46.771654" y="177.479011" style="stroke: #000000; stroke-width: 1.5"/>
      </g>
     </g>
     <g id="text_7">
      <text style="font-size: 15px; font-family: 'Tahoma'; text-anchor: end" x="37.271654" y="183.177839" transform="rotate(-0 37.271654 183.177839)">+2</text>
     </g>
    </g>
    <g id="ytick_3">
     <g id="line2d_15">
      <path d="M 46.771654 133.855659 
L 403.937008 133.855659 
" clip-path="url(#p0812e41095)" style="fill: none; stroke: #d0d0d0; stroke-opacity: 0.65; stroke-width: 1.2; stroke-linecap: square"/>
     </g>
     <g id="line2d_16">
      <g>
       <use xlink:href="#m01dbc6d457" x="46.771654" y="133.855659" style="stroke: #000000; stroke-width: 1.5"/>
      </g>
     </g>
     <g id="text_8">
      <text style="font-size: 15px; font-family: 'Tahoma'; text-anchor: end" x="37.271654" y="139.554487" transform="rotate(-0 37.271654 139.554487)">+4</text>
     </g>
    </g>
    <g id="ytick_4">
     <g id="line2d_17">
      <path d="M 46.771654 90.232308 
L 403.937008 90.232308 
" clip-path="url(#p0812e41095)" style="fill: none; stroke: #d0d0d0; stroke-opacity: 0.65; stroke-width: 1.2; stroke-linecap: square"/>
     </g>
     <g id="line2d_18">
      <g>
       <use xlink:href="#m01dbc6d457" x="46.771654" y="90.232308" style="stroke: #000000; stroke-width: 1.5"/>
      </g>
     </g>
     <g id="text_9">
      <text style="font-size: 15px; font-family: 'Tahoma'; text-anchor: end" x="37.271654" y="95.931136" transform="rotate(-0 37.271654 95.931136)">+6</text>
     </g>
    </g>
    <g id="ytick_5">
     <g id="line2d_19">
      <path d="M 46.771654 46.608956 
L 403.937008 46.608956 
" clip-path="url(#p0812e41095)" style="fill: none; stroke: #d0d0d0; stroke-opacity: 0.65; stroke-width: 1.2; stroke-linecap: square"/>
     </g>
     <g id="line2d_20">
      <g>
       <use xlink:href="#m01dbc6d457" x="46.771654" y="46.608956" style="stroke: #000000; stroke-width: 1.5"/>
      </g>
     </g>
     <g id="text_10">
      <text style="font-size: 15px; font-family: 'Tahoma'; text-anchor: end" x="37.271654" y="52.307784" transform="rotate(-0 37.271654 52.307784)">+8</text>
     </g>
    </g>
    <g id="text_11">
     <text style="font-size: 18px; font-family: 'Tahoma'; text-anchor: middle" x="10.547591" y="121.889764" transform="rotate(-90 10.547591 121.889764)">Heatwave Δ T (°C)</text>
    </g>
   </g>
   <g id="patch_3">
    <path d="M 53.774896 231.862772 
L 396.933766 231.862772 
L 396.933766 169.699488 
L 53.774896 169.699488 
z
" clip-path="url(#p0812e41095)" style="fill: #e8bcc4; opacity: 0.26; stroke: #bb5566; stroke-width: 0.8; stroke-linejoin: miter"/>
   </g>
   <g id="line2d_21">
    <path d="M 46.771654 221.102362 
L 403.937008 221.102362 
" clip-path="url(#p0812e41095)" style="fill: none; stroke: #000000; stroke-opacity: 0.45; stroke-width: 0.9; stroke-linecap: square"/>
   </g>
   <g id="patch_4">
    <path d="M 53.774896 122.658992 
L 396.933766 122.658992 
L 396.933766 49.153641 
L 53.774896 49.153641 
z
" clip-path="url(#p0812e41095)" style="fill: #bbccee; opacity: 0.28; stroke: #004488; stroke-width: 0.8; stroke-linejoin: miter"/>
   </g>
   <g id="patch_5">
    <path d="M 46.771654 221.102362 
L 46.771654 22.677165 
" style="fill: none; stroke: #000000; stroke-width: 1.5; stroke-linejoin: miter; stroke-linecap: square"/>
   </g>
   <g id="patch_6">
    <path d="M 46.771654 221.102362 
L 403.937008 221.102362 
" style="fill: none; stroke: #000000; stroke-width: 1.5; stroke-linejoin: miter; stroke-linecap: square"/>
   </g>
   <g id="FillBetweenPolyCollection_1">
    <defs>
     <path id="me92bd38ba1" d="M 88.239364 -65.41584 
L 82.339608 -65.41584 
L 80.913952 -65.894669 
L 79.230943 -66.373497 
L 77.321866 -66.852326 
L 75.199272 -67.331155 
L 72.877963 -67.809984 
L 70.406173 -68.288812 
L 67.881837 -68.767641 
L 65.442097 -69.24647 
L 63.231089 -69.725299 
L 61.362878 -70.204127 
L 59.899827 -70.682956 
L 58.856908 -71.161785 
L 58.222814 -71.640614 
L 57.976841 -72.119442 
L 58.09013 -72.598271 
L 58.520232 -73.0771 
L 59.214293 -73.555928 
L 60.121524 -74.034757 
L 61.200684 -74.513586 
L 62.413674 -74.992415 
L 63.714862 -75.471243 
L 65.051723 -75.950072 
L 66.377402 -76.428901 
L 67.660618 -76.90773 
L 68.883152 -77.386558 
L 70.031163 -77.865387 
L 71.091567 -78.344216 
L 72.055573 -78.823045 
L 72.923145 -79.301873 
L 73.703211 -79.780702 
L 74.409374 -80.259531 
L 75.053619 -80.73836 
L 75.641203 -81.217188 
L 76.16967 -81.696017 
L 76.632588 -82.174846 
L 77.025135 -82.653675 
L 77.348254 -83.132503 
L 77.610788 -83.611332 
L 77.829768 -84.090161 
L 78.027405 -84.568989 
L 78.224432 -85.047818 
L 78.433136 -85.526647 
L 78.653816 -86.005476 
L 78.875613 -86.484304 
L 79.081183 -86.963133 
L 79.254272 -87.441962 
L 79.386785 -87.920791 
L 79.480636 -88.399619 
L 79.543598 -88.878448 
L 79.583875 -89.357277 
L 79.60792 -89.836106 
L 79.620728 -90.314934 
L 79.625508 -90.793763 
L 79.623108 -91.272592 
L 79.614246 -91.751421 
L 79.604368 -92.230249 
L 79.606251 -92.709078 
L 79.636174 -93.187907 
L 79.70522 -93.666736 
L 79.811845 -94.145564 
L 79.941224 -94.624393 
L 80.07231 -95.103222 
L 80.188617 -95.582051 
L 80.28637 -96.060879 
L 80.374968 -96.539708 
L 80.469267 -97.018537 
L 80.578451 -97.497365 
L 80.6991 -97.976194 
L 80.817774 -98.455023 
L 80.921472 -98.933852 
L 81.007978 -99.41268 
L 81.088438 -99.891509 
L 81.181144 -100.370338 
L 81.301728 -100.849167 
L 81.456126 -101.327995 
L 81.639917 -101.806824 
L 81.84343 -102.285653 
L 82.058142 -102.764482 
L 82.279049 -103.24331 
L 82.502031 -103.722139 
L 82.720575 -104.200968 
L 82.9264 -104.679797 
L 83.113308 -105.158625 
L 83.279858 -105.637454 
L 83.428281 -106.116283 
L 83.56139 -106.595112 
L 83.68082 -107.07394 
L 83.787806 -107.552769 
L 83.88498 -108.031598 
L 83.976889 -108.510427 
L 84.068207 -108.989255 
L 84.160976 -109.468084 
L 84.25386 -109.946913 
L 84.344943 -110.425741 
L 84.435837 -110.90457 
L 84.532841 -111.383399 
L 84.643205 -111.862228 
L 84.768841 -112.341056 
L 84.902313 -112.819885 
L 85.676659 -112.819885 
L 85.676659 -112.819885 
L 85.810131 -112.341056 
L 85.935767 -111.862228 
L 86.046131 -111.383399 
L 86.143135 -110.90457 
L 86.234029 -110.425741 
L 86.325111 -109.946913 
L 86.417995 -109.468084 
L 86.510765 -108.989255 
L 86.602083 -108.510427 
L 86.693992 -108.031598 
L 86.791166 -107.552769 
L 86.898151 -107.07394 
L 87.017582 -106.595112 
L 87.150691 -106.116283 
L 87.299114 -105.637454 
L 87.465664 -105.158625 
L 87.652572 -104.679797 
L 87.858397 -104.200968 
L 88.076941 -103.722139 
L 88.299922 -103.24331 
L 88.52083 -102.764482 
L 88.735541 -102.285653 
L 88.939055 -101.806824 
L 89.122846 -101.327995 
L 89.277244 -100.849167 
L 89.397828 -100.370338 
L 89.490534 -99.891509 
L 89.570994 -99.41268 
L 89.657499 -98.933852 
L 89.761198 -98.455023 
L 89.879872 -97.976194 
L 90.000521 -97.497365 
L 90.109705 -97.018537 
L 90.204004 -96.539708 
L 90.292602 -96.060879 
L 90.390355 -95.582051 
L 90.506662 -95.103222 
L 90.637747 -94.624393 
L 90.767127 -94.145564 
L 90.873752 -93.666736 
L 90.942798 -93.187907 
L 90.972721 -92.709078 
L 90.974603 -92.230249 
L 90.964726 -91.751421 
L 90.955864 -91.272592 
L 90.953464 -90.793763 
L 90.958243 -90.314934 
L 90.971052 -89.836106 
L 90.995097 -89.357277 
L 91.035374 -88.878448 
L 91.098336 -88.399619 
L 91.192187 -87.920791 
L 91.3247 -87.441962 
L 91.497789 -86.963133 
L 91.703359 -86.484304 
L 91.925155 -86.005476 
L 92.145836 -85.526647 
L 92.354539 -85.047818 
L 92.551567 -84.568989 
L 92.749204 -84.090161 
L 92.968184 -83.611332 
L 93.230717 -83.132503 
L 93.553837 -82.653675 
L 93.946384 -82.174846 
L 94.409302 -81.696017 
L 94.937769 -81.217188 
L 95.525353 -80.73836 
L 96.169598 -80.259531 
L 96.875761 -79.780702 
L 97.655827 -79.301873 
L 98.523399 -78.823045 
L 99.487405 -78.344216 
L 100.547809 -77.865387 
L 101.695819 -77.386558 
L 102.918354 -76.90773 
L 104.20157 -76.428901 
L 105.527249 -75.950072 
L 106.86411 -75.471243 
L 108.165297 -74.992415 
L 109.378288 -74.513586 
L 110.457448 -74.034757 
L 111.364679 -73.555928 
L 112.05874 -73.0771 
L 112.488842 -72.598271 
L 112.602131 -72.119442 
L 112.356158 -71.640614 
L 111.722064 -71.161785 
L 110.679145 -70.682956 
L 109.216094 -70.204127 
L 107.347883 -69.725299 
L 105.136875 -69.24647 
L 102.697135 -68.767641 
L 100.172798 -68.288812 
L 97.701008 -67.809984 
L 95.3797 -67.331155 
L 93.257106 -66.852326 
L 91.348029 -66.373497 
L 89.66502 -65.894669 
L 88.239364 -65.41584 
z
" style="stroke: #bb5566; stroke-width: 1.05"/>
    </defs>
    <g clip-path="url(#p0812e41095)">
     <use xlink:href="#me92bd38ba1" x="0" y="283.464567" style="fill: #e8bcc4; stroke: #bb5566; stroke-width: 1.05"/>
    </g>
   </g>
   <g id="FillBetweenPolyCollection_2">
    <defs>
     <path id="m36b3efa743" d="M 158.896887 -66.724515 
L 151.74693 -66.724515 
L 150.09678 -67.193062 
L 148.219707 -67.661609 
L 146.205684 -68.130156 
L 144.129523 -68.598704 
L 142.052582 -69.067251 
L 140.028374 -69.535798 
L 138.098287 -70.004345 
L 136.281978 -70.472892 
L 134.578278 -70.94144 
L 132.984475 -71.409987 
L 131.521691 -71.878534 
L 130.243449 -72.347081 
L 129.217649 -72.815628 
L 128.496593 -73.284176 
L 128.098427 -73.752723 
L 128.009264 -74.22127 
L 128.197841 -74.689817 
L 128.630765 -75.158364 
L 129.281269 -75.626911 
L 130.127796 -76.095459 
L 131.143038 -76.564006 
L 132.282652 -77.032553 
L 133.486542 -77.5011 
L 134.695229 -77.969647 
L 135.869021 -78.438195 
L 136.995354 -78.906742 
L 138.080939 -79.375289 
L 139.136347 -79.843836 
L 140.162823 -80.312383 
L 141.147798 -80.780931 
L 142.070718 -81.249478 
L 142.914432 -81.718025 
L 143.673056 -82.186572 
L 144.350816 -82.655119 
L 144.955701 -83.123666 
L 145.49575 -83.592214 
L 145.97961 -84.060761 
L 146.416207 -84.529308 
L 146.810833 -84.997855 
L 147.162253 -85.466402 
L 147.465877 -85.93495 
L 147.720866 -86.403497 
L 147.933985 -86.872044 
L 148.116327 -87.340591 
L 148.275996 -87.809138 
L 148.413063 -88.277686 
L 148.52074 -88.746233 
L 148.591893 -89.21478 
L 148.626219 -89.683327 
L 148.633 -90.151874 
L 148.627983 -90.620421 
L 148.627304 -91.088969 
L 148.642461 -91.557516 
L 148.678443 -92.026063 
L 148.735255 -92.49461 
L 148.811632 -92.963157 
L 148.908015 -93.431705 
L 149.026021 -93.900252 
L 149.165141 -94.368799 
L 149.320624 -94.837346 
L 149.484836 -95.305893 
L 149.650115 -95.774441 
L 149.810032 -96.242988 
L 149.95899 -96.711535 
L 150.09231 -97.180082 
L 150.207466 -97.648629 
L 150.3045 -98.117176 
L 150.384396 -98.585724 
L 150.447789 -99.054271 
L 150.497072 -99.522818 
L 150.540558 -99.991365 
L 150.593665 -100.459912 
L 150.674509 -100.92846 
L 150.797 -101.397007 
L 150.966574 -101.865554 
L 151.180388 -102.334101 
L 151.429558 -102.802648 
L 151.70091 -103.271196 
L 151.978855 -103.739743 
L 152.248952 -104.20829 
L 152.501834 -104.676837 
L 152.734324 -105.145384 
L 152.947291 -105.613931 
L 153.143098 -106.082479 
L 153.324604 -106.551026 
L 153.494358 -107.019573 
L 153.652407 -107.48812 
L 153.794263 -107.956667 
L 153.912088 -108.425215 
L 153.99959 -108.893762 
L 154.057613 -109.362309 
L 154.096387 -109.830856 
L 154.132633 -110.299403 
L 154.183212 -110.767951 
L 154.259707 -111.236498 
L 154.367022 -111.705045 
L 154.504531 -112.173592 
L 154.665818 -112.642139 
L 154.836924 -113.110686 
L 155.806892 -113.110686 
L 155.806892 -113.110686 
L 155.977998 -112.642139 
L 156.139285 -112.173592 
L 156.276794 -111.705045 
L 156.38411 -111.236498 
L 156.460604 -110.767951 
L 156.511184 -110.299403 
L 156.547429 -109.830856 
L 156.586204 -109.362309 
L 156.644226 -108.893762 
L 156.731729 -108.425215 
L 156.849553 -107.956667 
L 156.99141 -107.48812 
L 157.149459 -107.019573 
L 157.319212 -106.551026 
L 157.500719 -106.082479 
L 157.696526 -105.613931 
L 157.909492 -105.145384 
L 158.141983 -104.676837 
L 158.394865 -104.20829 
L 158.664962 -103.739743 
L 158.942906 -103.271196 
L 159.214259 -102.802648 
L 159.463429 -102.334101 
L 159.677243 -101.865554 
L 159.846816 -101.397007 
L 159.969307 -100.92846 
L 160.050151 -100.459912 
L 160.103258 -99.991365 
L 160.146745 -99.522818 
L 160.196027 -99.054271 
L 160.259421 -98.585724 
L 160.339317 -98.117176 
L 160.43635 -97.648629 
L 160.551506 -97.180082 
L 160.684826 -96.711535 
L 160.833785 -96.242988 
L 160.993702 -95.774441 
L 161.15898 -95.305893 
L 161.323193 -94.837346 
L 161.478676 -94.368799 
L 161.617796 -93.900252 
L 161.735801 -93.431705 
L 161.832185 -92.963157 
L 161.908562 -92.49461 
L 161.965373 -92.026063 
L 162.001355 -91.557516 
L 162.016513 -91.088969 
L 162.015834 -90.620421 
L 162.010816 -90.151874 
L 162.017597 -89.683327 
L 162.051923 -89.21478 
L 162.123077 -88.746233 
L 162.230754 -88.277686 
L 162.367821 -87.809138 
L 162.52749 -87.340591 
L 162.709832 -86.872044 
L 162.922951 -86.403497 
L 163.177939 -85.93495 
L 163.481564 -85.466402 
L 163.832984 -84.997855 
L 164.22761 -84.529308 
L 164.664207 -84.060761 
L 165.148067 -83.592214 
L 165.688115 -83.123666 
L 166.293001 -82.655119 
L 166.970761 -82.186572 
L 167.729384 -81.718025 
L 168.573099 -81.249478 
L 169.496019 -80.780931 
L 170.480994 -80.312383 
L 171.507469 -79.843836 
L 172.562878 -79.375289 
L 173.648462 -78.906742 
L 174.774796 -78.438195 
L 175.948588 -77.969647 
L 177.157274 -77.5011 
L 178.361164 -77.032553 
L 179.500779 -76.564006 
L 180.51602 -76.095459 
L 181.362548 -75.626911 
L 182.013051 -75.158364 
L 182.445976 -74.689817 
L 182.634553 -74.22127 
L 182.54539 -73.752723 
L 182.147224 -73.284176 
L 181.426167 -72.815628 
L 180.400368 -72.347081 
L 179.122126 -71.878534 
L 177.659342 -71.409987 
L 176.065539 -70.94144 
L 174.361839 -70.472892 
L 172.545529 -70.004345 
L 170.615443 -69.535798 
L 168.591234 -69.067251 
L 166.514294 -68.598704 
L 164.438133 -68.130156 
L 162.42411 -67.661609 
L 160.547036 -67.193062 
L 158.896887 -66.724515 
z
" style="stroke: #bb5566; stroke-width: 1.05"/>
    </defs>
    <g clip-path="url(#p0812e41095)">
     <use xlink:href="#m36b3efa743" x="0" y="283.464567" style="fill: #e8bcc4; stroke: #bb5566; stroke-width: 1.05"/>
    </g>
   </g>
   <g id="FillBetweenPolyCollection_3">
    <defs>
     <path id="macf0e91004" d="M 228.254013 -68.978426 
L 222.454648 -68.978426 
L 221.14876 -69.445504 
L 219.680194 -69.912582 
L 218.11001 -70.37966 
L 216.467345 -70.846738 
L 214.753718 -71.313816 
L 212.959413 -71.780894 
L 211.076834 -72.247972 
L 209.108741 -72.71505 
L 207.077371 -73.182128 
L 205.035501 -73.649207 
L 203.072107 -74.116285 
L 201.304075 -74.583363 
L 199.851854 -75.050441 
L 198.807052 -75.517519 
L 198.20858 -75.984597 
L 198.041686 -76.451675 
L 198.257407 -76.918753 
L 198.794191 -77.385831 
L 199.587831 -77.852909 
L 200.573644 -78.319987 
L 201.691256 -78.787065 
L 202.892335 -79.254143 
L 204.143757 -79.721221 
L 205.423351 -80.1883 
L 206.712081 -80.655378 
L 207.986514 -81.122456 
L 209.214224 -81.589534 
L 210.356183 -82.056612 
L 211.377871 -82.52369 
L 212.262299 -82.990768 
L 213.014016 -83.457846 
L 213.65121 -83.924924 
L 214.194627 -84.392002 
L 214.662779 -84.85908 
L 215.072864 -85.326158 
L 215.439918 -85.793236 
L 215.771791 -86.260315 
L 216.066632 -86.727393 
L 216.319503 -87.194471 
L 216.534576 -87.661549 
L 216.73118 -88.128627 
L 216.936109 -88.595705 
L 217.166852 -89.062783 
L 217.418516 -89.529861 
L 217.664197 -89.996939 
L 217.868993 -90.464017 
L 218.009338 -90.931095 
L 218.085621 -91.398173 
L 218.118878 -91.865251 
L 218.132707 -92.332329 
L 218.134284 -92.799408 
L 218.1111 -93.266486 
L 218.046825 -93.733564 
L 217.941913 -94.200642 
L 217.820201 -94.66772 
L 217.715883 -95.134798 
L 217.652707 -95.601876 
L 217.632912 -96.068954 
L 217.643599 -96.536032 
L 217.673165 -97.00311 
L 217.723477 -97.470188 
L 217.809368 -97.937266 
L 217.94861 -98.404344 
L 218.151691 -98.871423 
L 218.417385 -99.338501 
L 218.733689 -99.805579 
L 219.081622 -100.272657 
L 219.440567 -100.739735 
L 219.793856 -101.206813 
L 220.132482 -101.673891 
L 220.455648 -102.140969 
L 220.768232 -102.608047 
L 221.07573 -103.075125 
L 221.378517 -103.542203 
L 221.669353 -104.009281 
L 221.936824 -104.476359 
L 222.172182 -104.943437 
L 222.373761 -105.410516 
L 222.545786 -105.877594 
L 222.693765 -106.344672 
L 222.821244 -106.81175 
L 222.930755 -107.278828 
L 223.027299 -107.745906 
L 223.119659 -108.212984 
L 223.216766 -108.680062 
L 223.321802 -109.14714 
L 223.429679 -109.614218 
L 223.530249 -110.081296 
L 223.614192 -110.548374 
L 223.677033 -111.015452 
L 223.719773 -111.48253 
L 223.747831 -111.949609 
L 223.770606 -112.416687 
L 223.802256 -112.883765 
L 223.861841 -113.350843 
L 223.969573 -113.817921 
L 224.137868 -114.284999 
L 224.361295 -114.752077 
L 224.613572 -115.219155 
L 226.095089 -115.219155 
L 226.095089 -115.219155 
L 226.347367 -114.752077 
L 226.570793 -114.284999 
L 226.739088 -113.817921 
L 226.846821 -113.350843 
L 226.906405 -112.883765 
L 226.938055 -112.416687 
L 226.96083 -111.949609 
L 226.988888 -111.48253 
L 227.031628 -111.015452 
L 227.09447 -110.548374 
L 227.178413 -110.081296 
L 227.278983 -109.614218 
L 227.386859 -109.14714 
L 227.491896 -108.680062 
L 227.589003 -108.212984 
L 227.681363 -107.745906 
L 227.777906 -107.278828 
L 227.887418 -106.81175 
L 228.014896 -106.344672 
L 228.162875 -105.877594 
L 228.3349 -105.410516 
L 228.536479 -104.943437 
L 228.771838 -104.476359 
L 229.039308 -104.009281 
L 229.330144 -103.542203 
L 229.632931 -103.075125 
L 229.940429 -102.608047 
L 230.253013 -102.140969 
L 230.576179 -101.673891 
L 230.914806 -101.206813 
L 231.268094 -100.739735 
L 231.627039 -100.272657 
L 231.974972 -99.805579 
L 232.291276 -99.338501 
L 232.55697 -98.871423 
L 232.760052 -98.404344 
L 232.899293 -97.937266 
L 232.985184 -97.470188 
L 233.035497 -97.00311 
L 233.065063 -96.536032 
L 233.07575 -96.068954 
L 233.055955 -95.601876 
L 232.992779 -95.134798 
L 232.888461 -94.66772 
L 232.766749 -94.200642 
L 232.661837 -93.733564 
L 232.597561 -93.266486 
L 232.574378 -92.799408 
L 232.575954 -92.332329 
L 232.589784 -91.865251 
L 232.623041 -91.398173 
L 232.699323 -90.931095 
L 232.839669 -90.464017 
L 233.044465 -89.996939 
L 233.290145 -89.529861 
L 233.541809 -89.062783 
L 233.772553 -88.595705 
L 233.977482 -88.128627 
L 234.174086 -87.661549 
L 234.389158 -87.194471 
L 234.64203 -86.727393 
L 234.93687 -86.260315 
L 235.268743 -85.793236 
L 235.635797 -85.326158 
L 236.045882 -84.85908 
L 236.514034 -84.392002 
L 237.057451 -83.924924 
L 237.694646 -83.457846 
L 238.446362 -82.990768 
L 239.33079 -82.52369 
L 240.352478 -82.056612 
L 241.494438 -81.589534 
L 242.722147 -81.122456 
L 243.99658 -80.655378 
L 245.28531 -80.1883 
L 246.564905 -79.721221 
L 247.816327 -79.254143 
L 249.017406 -78.787065 
L 250.135018 -78.319987 
L 251.120831 -77.852909 
L 251.914471 -77.385831 
L 252.451254 -76.918753 
L 252.666975 -76.451675 
L 252.500081 -75.984597 
L 251.901609 -75.517519 
L 250.856807 -75.050441 
L 249.404586 -74.583363 
L 247.636554 -74.116285 
L 245.673161 -73.649207 
L 243.631291 -73.182128 
L 241.599921 -72.71505 
L 239.631827 -72.247972 
L 237.749249 -71.780894 
L 235.954944 -71.313816 
L 234.241317 -70.846738 
L 232.598652 -70.37966 
L 231.028467 -69.912582 
L 229.559902 -69.445504 
L 228.254013 -68.978426 
z
" style="stroke: #bb5566; stroke-width: 1.05"/>
    </defs>
    <g clip-path="url(#p0812e41095)">
     <use xlink:href="#macf0e91004" x="0" y="283.464567" style="fill: #e8bcc4; stroke: #bb5566; stroke-width: 1.05"/>
    </g>
   </g>
   <g id="FillBetweenPolyCollection_4">
    <defs>
     <path id="m4c3780da78" d="M 301.552498 -64.688795 
L 289.221008 -64.688795 
L 286.535446 -65.008259 
L 283.625739 -65.327723 
L 280.748659 -65.647187 
L 278.133305 -65.966651 
L 275.946566 -66.286115 
L 274.278213 -66.605579 
L 273.130883 -66.925043 
L 272.414939 -67.244507 
L 271.962324 -67.563971 
L 271.569557 -67.883435 
L 271.062256 -68.202899 
L 270.358684 -68.522363 
L 269.507475 -68.841827 
L 268.682039 -69.161291 
L 268.127247 -69.480755 
L 268.074108 -69.800219 
L 268.658427 -70.119683 
L 269.880692 -70.439147 
L 271.619621 -70.75861 
L 273.681432 -71.078074 
L 275.855995 -71.397538 
L 277.960153 -71.717002 
L 279.861635 -72.036466 
L 281.485009 -72.35593 
L 282.80546 -72.675394 
L 283.837748 -72.994858 
L 284.625036 -73.314322 
L 285.227595 -73.633786 
L 285.709718 -73.95325 
L 286.126131 -74.272714 
L 286.512394 -74.592178 
L 286.882562 -74.911642 
L 287.233096 -75.231106 
L 287.549669 -75.55057 
L 287.814703 -75.870034 
L 288.014979 -76.189498 
L 288.148078 -76.508962 
L 288.225432 -76.828426 
L 288.270529 -77.14789 
L 288.313054 -77.467354 
L 288.380832 -77.786818 
L 288.491221 -78.106282 
L 288.644322 -78.425746 
L 288.821828 -78.74521 
L 288.993484 -79.064674 
L 289.126703 -79.384138 
L 289.19136 -79.703602 
L 289.156725 -80.023065 
L 288.986174 -80.342529 
L 288.638844 -80.661993 
L 288.083518 -80.981457 
L 287.321957 -81.300921 
L 286.410024 -81.620385 
L 285.460548 -81.939849 
L 284.618993 -82.259313 
L 284.019815 -82.578777 
L 283.744804 -82.898241 
L 283.803187 -83.217705 
L 284.139452 -83.537169 
L 284.660654 -83.856633 
L 285.268877 -84.176097 
L 285.885926 -84.495561 
L 286.463271 -84.815025 
L 286.978359 -85.134489 
L 287.425491 -85.453953 
L 287.810584 -85.773417 
L 288.152411 -86.092881 
L 288.483849 -86.412345 
L 288.844287 -86.731809 
L 289.262196 -87.051273 
L 289.737926 -87.370737 
L 290.239673 -87.690201 
L 290.716837 -88.009665 
L 291.123004 -88.329129 
L 291.43563 -88.648593 
L 291.663609 -88.968057 
L 291.841589 -89.28752 
L 292.015447 -89.606984 
L 292.225251 -89.926448 
L 292.491788 -90.245912 
L 292.811246 -90.565376 
L 293.159305 -90.88484 
L 293.501795 -91.204304 
L 293.806883 -91.523768 
L 294.054455 -91.843232 
L 294.240185 -92.162696 
L 294.373513 -92.48216 
L 294.471085 -92.801624 
L 294.549275 -93.121088 
L 294.619486 -93.440552 
L 294.687471 -93.760016 
L 294.755277 -94.07948 
L 294.823475 -94.398944 
L 294.892247 -94.718408 
L 294.961419 -95.037872 
L 295.030357 -95.357336 
L 295.098116 -95.6768 
L 295.163401 -95.996264 
L 295.224114 -96.315728 
L 295.549393 -96.315728 
L 295.549393 -96.315728 
L 295.610105 -95.996264 
L 295.675391 -95.6768 
L 295.743149 -95.357336 
L 295.812087 -95.037872 
L 295.881259 -94.718408 
L 295.950031 -94.398944 
L 296.018229 -94.07948 
L 296.086035 -93.760016 
L 296.15402 -93.440552 
L 296.224231 -93.121088 
L 296.302421 -92.801624 
L 296.399993 -92.48216 
L 296.533321 -92.162696 
L 296.719051 -91.843232 
L 296.966624 -91.523768 
L 297.271711 -91.204304 
L 297.614201 -90.88484 
L 297.96226 -90.565376 
L 298.281718 -90.245912 
L 298.548256 -89.926448 
L 298.75806 -89.606984 
L 298.931918 -89.28752 
L 299.109897 -88.968057 
L 299.337876 -88.648593 
L 299.650502 -88.329129 
L 300.056669 -88.009665 
L 300.533833 -87.690201 
L 301.03558 -87.370737 
L 301.511311 -87.051273 
L 301.929219 -86.731809 
L 302.289657 -86.412345 
L 302.621096 -86.092881 
L 302.962923 -85.773417 
L 303.348015 -85.453953 
L 303.795147 -85.134489 
L 304.310235 -84.815025 
L 304.887581 -84.495561 
L 305.504629 -84.176097 
L 306.112852 -83.856633 
L 306.634055 -83.537169 
L 306.970319 -83.217705 
L 307.028703 -82.898241 
L 306.753691 -82.578777 
L 306.154514 -82.259313 
L 305.312959 -81.939849 
L 304.363482 -81.620385 
L 303.451549 -81.300921 
L 302.689989 -80.981457 
L 302.134662 -80.661993 
L 301.787332 -80.342529 
L 301.616781 -80.023065 
L 301.582146 -79.703602 
L 301.646804 -79.384138 
L 301.780022 -79.064674 
L 301.951678 -78.74521 
L 302.129184 -78.425746 
L 302.282285 -78.106282 
L 302.392675 -77.786818 
L 302.460452 -77.467354 
L 302.502978 -77.14789 
L 302.548075 -76.828426 
L 302.625428 -76.508962 
L 302.758528 -76.189498 
L 302.958803 -75.870034 
L 303.223837 -75.55057 
L 303.54041 -75.231106 
L 303.890945 -74.911642 
L 304.261113 -74.592178 
L 304.647375 -74.272714 
L 305.063788 -73.95325 
L 305.545911 -73.633786 
L 306.14847 -73.314322 
L 306.935758 -72.994858 
L 307.968046 -72.675394 
L 309.288497 -72.35593 
L 310.911871 -72.036466 
L 312.813353 -71.717002 
L 314.917511 -71.397538 
L 317.092074 -71.078074 
L 319.153885 -70.75861 
L 320.892814 -70.439147 
L 322.115079 -70.119683 
L 322.699398 -69.800219 
L 322.646259 -69.480755 
L 322.091467 -69.161291 
L 321.266031 -68.841827 
L 320.414822 -68.522363 
L 319.71125 -68.202899 
L 319.20395 -67.883435 
L 318.811182 -67.563971 
L 318.358568 -67.244507 
L 317.642623 -66.925043 
L 316.495293 -66.605579 
L 314.82694 -66.286115 
L 312.640201 -65.966651 
L 310.024847 -65.647187 
L 307.147767 -65.327723 
L 304.23806 -65.008259 
L 301.552498 -64.688795 
z
" style="stroke: #bb5566; stroke-width: 1.05"/>
    </defs>
    <g clip-path="url(#p0812e41095)">
     <use xlink:href="#m4c3780da78" x="0" y="283.464567" style="fill: #e8bcc4; stroke: #bb5566; stroke-width: 1.05"/>
    </g>
   </g>
   <g id="FillBetweenPolyCollection_5">
    <defs>
     <path id="m05883d3280" d="M 368.220165 -63.016542 
L 362.618186 -63.016542 
L 361.193296 -63.403571 
L 359.557103 -63.7906 
L 357.777826 -64.177629 
L 355.889412 -64.564657 
L 353.910676 -64.951686 
L 351.873823 -65.338715 
L 349.833126 -65.725744 
L 347.854153 -66.112772 
L 345.999555 -66.499801 
L 344.317565 -66.88683 
L 342.831542 -67.273859 
L 341.537642 -67.660887 
L 340.420331 -68.047916 
L 339.478167 -68.434945 
L 338.739674 -68.821974 
L 338.260208 -69.209002 
L 338.106531 -69.596031 
L 338.337435 -69.98306 
L 338.984776 -70.370089 
L 340.037803 -70.757117 
L 341.432471 -71.144146 
L 343.050361 -71.531175 
L 344.737045 -71.918204 
L 346.341674 -72.305232 
L 347.759625 -72.692261 
L 348.952601 -73.07929 
L 349.937734 -73.466319 
L 350.760279 -73.853347 
L 351.469188 -74.240376 
L 352.10217 -74.627405 
L 352.677748 -75.014434 
L 353.194702 -75.401463 
L 353.641752 -75.788491 
L 354.012584 -76.17552 
L 354.31475 -76.562549 
L 354.567632 -76.949578 
L 354.795499 -77.336606 
L 355.021968 -77.723635 
L 355.26629 -78.110664 
L 355.541321 -78.497693 
L 355.854187 -78.884721 
L 356.206593 -79.27175 
L 356.590107 -79.658779 
L 356.980895 -80.045808 
L 357.345415 -80.432836 
L 357.659094 -80.819865 
L 357.92438 -81.206894 
L 358.171845 -81.593923 
L 358.439863 -81.980951 
L 358.745989 -82.36798 
L 359.074065 -82.755009 
L 359.389937 -83.142038 
L 359.670578 -83.529066 
L 359.918423 -83.916095 
L 360.151405 -84.303124 
L 360.384998 -84.690153 
L 360.624616 -85.077181 
L 360.868311 -85.46421 
L 361.108789 -85.851239 
L 361.332559 -86.238268 
L 361.524226 -86.625296 
L 361.677068 -87.012325 
L 361.798614 -87.399354 
L 361.90405 -87.786383 
L 362.005699 -88.173412 
L 362.109656 -88.56044 
L 362.218512 -88.947469 
L 362.332732 -89.334498 
L 362.449673 -89.721527 
L 362.564493 -90.108555 
L 362.673247 -90.495584 
L 362.774196 -90.882613 
L 362.866398 -91.269642 
L 362.949077 -91.65667 
L 363.023528 -92.043699 
L 363.094769 -92.430728 
L 363.170153 -92.817757 
L 363.255863 -93.204785 
L 363.353891 -93.591814 
L 363.461145 -93.978843 
L 363.571285 -94.365872 
L 363.677926 -94.7529 
L 363.776091 -95.139929 
L 363.861227 -95.526958 
L 363.929629 -95.913987 
L 363.982514 -96.301015 
L 364.029073 -96.688044 
L 364.082416 -97.075073 
L 364.15026 -97.462102 
L 364.229387 -97.84913 
L 364.309349 -98.236159 
L 364.381151 -98.623188 
L 364.442849 -99.010217 
L 364.499302 -99.397246 
L 364.559377 -99.784274 
L 364.633757 -100.171303 
L 364.732303 -100.558332 
L 364.858507 -100.945361 
L 365.003345 -101.332389 
L 365.835006 -101.332389 
L 365.835006 -101.332389 
L 365.979844 -100.945361 
L 366.106048 -100.558332 
L 366.204594 -100.171303 
L 366.278974 -99.784274 
L 366.339049 -99.397246 
L 366.395502 -99.010217 
L 366.4572 -98.623188 
L 366.529002 -98.236159 
L 366.608965 -97.84913 
L 366.688091 -97.462102 
L 366.755935 -97.075073 
L 366.809278 -96.688044 
L 366.855837 -96.301015 
L 366.908722 -95.913987 
L 366.977124 -95.526958 
L 367.06226 -95.139929 
L 367.160425 -94.7529 
L 367.267067 -94.365872 
L 367.377206 -93.978843 
L 367.48446 -93.591814 
L 367.582488 -93.204785 
L 367.668198 -92.817757 
L 367.743582 -92.430728 
L 367.814823 -92.043699 
L 367.889274 -91.65667 
L 367.971953 -91.269642 
L 368.064155 -90.882613 
L 368.165104 -90.495584 
L 368.273859 -90.108555 
L 368.388678 -89.721527 
L 368.505619 -89.334498 
L 368.619839 -88.947469 
L 368.728695 -88.56044 
L 368.832652 -88.173412 
L 368.934301 -87.786383 
L 369.039737 -87.399354 
L 369.161283 -87.012325 
L 369.314126 -86.625296 
L 369.505792 -86.238268 
L 369.729562 -85.851239 
L 369.97004 -85.46421 
L 370.213735 -85.077181 
L 370.453353 -84.690153 
L 370.686946 -84.303124 
L 370.919928 -83.916095 
L 371.167774 -83.529066 
L 371.448414 -83.142038 
L 371.764287 -82.755009 
L 372.092362 -82.36798 
L 372.398488 -81.980951 
L 372.666506 -81.593923 
L 372.913972 -81.206894 
L 373.179257 -80.819865 
L 373.492936 -80.432836 
L 373.857456 -80.045808 
L 374.248244 -79.658779 
L 374.631758 -79.27175 
L 374.984164 -78.884721 
L 375.29703 -78.497693 
L 375.572061 -78.110664 
L 375.816383 -77.723635 
L 376.042852 -77.336606 
L 376.270719 -76.949578 
L 376.523601 -76.562549 
L 376.825768 -76.17552 
L 377.196599 -75.788491 
L 377.643649 -75.401463 
L 378.160603 -75.014434 
L 378.736181 -74.627405 
L 379.369163 -74.240376 
L 380.078072 -73.853347 
L 380.900617 -73.466319 
L 381.88575 -73.07929 
L 383.078726 -72.692261 
L 384.496677 -72.305232 
L 386.101306 -71.918204 
L 387.78799 -71.531175 
L 389.40588 -71.144146 
L 390.800548 -70.757117 
L 391.853576 -70.370089 
L 392.500916 -69.98306 
L 392.73182 -69.596031 
L 392.578143 -69.209002 
L 392.098678 -68.821974 
L 391.360184 -68.434945 
L 390.41802 -68.047916 
L 389.300709 -67.660887 
L 388.006809 -67.273859 
L 386.520786 -66.88683 
L 384.838797 -66.499801 
L 382.984198 -66.112772 
L 381.005225 -65.725744 
L 378.964528 -65.338715 
L 376.927675 -64.951686 
L 374.948939 -64.564657 
L 373.060525 -64.177629 
L 371.281249 -63.7906 
L 369.645056 -63.403571 
L 368.220165 -63.016542 
z
" style="stroke: #bb5566; stroke-width: 1.05"/>
    </defs>
    <g clip-path="url(#p0812e41095)">
     <use xlink:href="#m05883d3280" x="0" y="283.464567" style="fill: #e8bcc4; stroke: #bb5566; stroke-width: 1.05"/>
    </g>
   </g>
   <g id="FillBetweenPolyCollection_6">
    <defs>
     <path id="m3b9fa242a0" d="M 86.406109 -175.637493 
L 84.172863 -175.637493 
L 83.711936 -176.251452 
L 83.263874 -176.86541 
L 82.853833 -177.479369 
L 82.472126 -178.093327 
L 82.095913 -178.707286 
L 81.710438 -179.321245 
L 81.310438 -179.935203 
L 80.887741 -180.549162 
L 80.426164 -181.16312 
L 79.912037 -181.777079 
L 79.345357 -182.391038 
L 78.736491 -183.004996 
L 78.095108 -183.618955 
L 77.425592 -184.232913 
L 76.729267 -184.846872 
L 76.007751 -185.460831 
L 75.268672 -186.074789 
L 74.531387 -186.688748 
L 73.822736 -187.302707 
L 73.163113 -187.916665 
L 72.557129 -188.530624 
L 71.996118 -189.144582 
L 71.465634 -189.758541 
L 70.951073 -190.3725 
L 70.440377 -190.986458 
L 69.923882 -191.600417 
L 69.393714 -192.214375 
L 68.848807 -192.828334 
L 68.30583 -193.442293 
L 67.80273 -194.056251 
L 67.380641 -194.67021 
L 67.053514 -195.284168 
L 66.797095 -195.898127 
L 66.572317 -196.512086 
L 66.357361 -197.126044 
L 66.154733 -197.740003 
L 65.975579 -198.353961 
L 65.828897 -198.96792 
L 65.725467 -199.581879 
L 65.680408 -200.195837 
L 65.704265 -200.809796 
L 65.794424 -201.423754 
L 65.940217 -202.037713 
L 66.136633 -202.651672 
L 66.389868 -203.26563 
L 66.709288 -203.879589 
L 67.100368 -204.493547 
L 67.570125 -205.107506 
L 68.132794 -205.721465 
L 68.79904 -206.335423 
L 69.556509 -206.949382 
L 70.364708 -207.56334 
L 71.172172 -208.177299 
L 71.942406 -208.791258 
L 72.670583 -209.405216 
L 73.381135 -210.019175 
L 74.107323 -210.633134 
L 74.864879 -211.247092 
L 75.637149 -211.861051 
L 76.383078 -212.475009 
L 77.064279 -213.088968 
L 77.670601 -213.702927 
L 78.22089 -214.316885 
L 78.737887 -214.930844 
L 79.223069 -215.544802 
L 79.655719 -216.158761 
L 80.013756 -216.77272 
L 80.294111 -217.386678 
L 80.515001 -218.000637 
L 80.702033 -218.614595 
L 80.873494 -219.228554 
L 81.035678 -219.842513 
L 81.186565 -220.456471 
L 81.321833 -221.07043 
L 81.440469 -221.684388 
L 81.548313 -222.298347 
L 81.656979 -222.912306 
L 81.777646 -223.526264 
L 81.913394 -224.140223 
L 82.055773 -224.754181 
L 82.189141 -225.36814 
L 82.300516 -225.982099 
L 82.387543 -226.596057 
L 82.458754 -227.210016 
L 82.5278 -227.823974 
L 82.607969 -228.437933 
L 82.709693 -229.051892 
L 82.838448 -229.66585 
L 82.992125 -230.279809 
L 83.161874 -230.893767 
L 83.337443 -231.507726 
L 83.510733 -232.121685 
L 83.674489 -232.735643 
L 83.822858 -233.349602 
L 83.958501 -233.963561 
L 84.098324 -234.577519 
L 84.266181 -235.191478 
L 84.473544 -235.805436 
L 84.704675 -236.419395 
L 85.874296 -236.419395 
L 85.874296 -236.419395 
L 86.105427 -235.805436 
L 86.312791 -235.191478 
L 86.480648 -234.577519 
L 86.620471 -233.963561 
L 86.756114 -233.349602 
L 86.904483 -232.735643 
L 87.068239 -232.121685 
L 87.241529 -231.507726 
L 87.417098 -230.893767 
L 87.586846 -230.279809 
L 87.740524 -229.66585 
L 87.869279 -229.051892 
L 87.971002 -228.437933 
L 88.051172 -227.823974 
L 88.120218 -227.210016 
L 88.191429 -226.596057 
L 88.278456 -225.982099 
L 88.38983 -225.36814 
L 88.523199 -224.754181 
L 88.665578 -224.140223 
L 88.801326 -223.526264 
L 88.921993 -222.912306 
L 89.030658 -222.298347 
L 89.138503 -221.684388 
L 89.257139 -221.07043 
L 89.392407 -220.456471 
L 89.543293 -219.842513 
L 89.705478 -219.228554 
L 89.876938 -218.614595 
L 90.063971 -218.000637 
L 90.28486 -217.386678 
L 90.565215 -216.77272 
L 90.923253 -216.158761 
L 91.355903 -215.544802 
L 91.841085 -214.930844 
L 92.358082 -214.316885 
L 92.908371 -213.702927 
L 93.514693 -213.088968 
L 94.195894 -212.475009 
L 94.941823 -211.861051 
L 95.714092 -211.247092 
L 96.471649 -210.633134 
L 97.197837 -210.019175 
L 97.908389 -209.405216 
L 98.636566 -208.791258 
L 99.4068 -208.177299 
L 100.214264 -207.56334 
L 101.022463 -206.949382 
L 101.779932 -206.335423 
L 102.446177 -205.721465 
L 103.008847 -205.107506 
L 103.478604 -204.493547 
L 103.869684 -203.879589 
L 104.189104 -203.26563 
L 104.442338 -202.651672 
L 104.638755 -202.037713 
L 104.784548 -201.423754 
L 104.874707 -200.809796 
L 104.898564 -200.195837 
L 104.853504 -199.581879 
L 104.750074 -198.96792 
L 104.603393 -198.353961 
L 104.424239 -197.740003 
L 104.221611 -197.126044 
L 104.006655 -196.512086 
L 103.781877 -195.898127 
L 103.525458 -195.284168 
L 103.19833 -194.67021 
L 102.776242 -194.056251 
L 102.273142 -193.442293 
L 101.730165 -192.828334 
L 101.185258 -192.214375 
L 100.65509 -191.600417 
L 100.138594 -190.986458 
L 99.627898 -190.3725 
L 99.113338 -189.758541 
L 98.582854 -189.144582 
L 98.021842 -188.530624 
L 97.415858 -187.916665 
L 96.756236 -187.302707 
L 96.047585 -186.688748 
L 95.3103 -186.074789 
L 94.57122 -185.460831 
L 93.849705 -184.846872 
L 93.153379 -184.232913 
L 92.483864 -183.618955 
L 91.84248 -183.004996 
L 91.233615 -182.391038 
L 90.666935 -181.777079 
L 90.152807 -181.16312 
L 89.691231 -180.549162 
L 89.268534 -179.935203 
L 88.868534 -179.321245 
L 88.483059 -178.707286 
L 88.106846 -178.093327 
L 87.725139 -177.479369 
L 87.315098 -176.86541 
L 86.867036 -176.251452 
L 86.406109 -175.637493 
z
" style="stroke: #004488; stroke-width: 1.1"/>
    </defs>
    <g clip-path="url(#p0812e41095)">
     <use xlink:href="#m3b9fa242a0" x="0" y="283.464567" style="fill: #bbccee; stroke: #004488; stroke-width: 1.1"/>
    </g>
   </g>
   <g id="FillBetweenPolyCollection_7">
    <defs>
     <path id="m84fb778b09" d="M 156.580735 -174.474205 
L 154.063081 -174.474205 
L 153.51254 -175.061725 
L 152.962297 -175.649245 
L 152.458075 -176.236765 
L 152.004551 -176.824285 
L 151.576468 -177.411806 
L 151.145846 -177.999326 
L 150.701154 -178.586846 
L 150.244775 -179.174366 
L 149.776843 -179.761886 
L 149.284308 -180.349406 
L 148.745385 -180.936927 
L 148.144038 -181.524447 
L 147.480898 -182.111967 
L 146.770799 -182.699487 
L 146.030149 -183.287007 
L 145.266858 -183.874527 
L 144.481716 -184.462048 
L 143.678462 -185.049568 
L 142.870873 -185.637088 
L 142.07707 -186.224608 
L 141.305555 -186.812128 
L 140.549459 -187.399648 
L 139.797499 -187.987169 
L 139.05163 -188.574689 
L 138.334648 -189.162209 
L 137.681205 -189.749729 
L 137.121087 -190.337249 
L 136.667895 -190.924769 
L 136.316911 -191.51229 
L 136.051104 -192.09981 
L 135.856552 -192.68733 
L 135.737834 -193.27485 
L 135.71283 -193.86237 
L 135.788126 -194.44989 
L 135.946929 -195.037411 
L 136.16868 -195.624931 
L 136.455806 -196.212451 
L 136.830591 -196.799971 
L 137.303116 -197.387491 
L 137.848152 -197.975011 
L 138.416269 -198.562532 
L 138.965393 -199.150052 
L 139.483456 -199.737572 
L 139.985662 -200.325092 
L 140.491357 -200.912612 
L 141.003771 -201.500132 
L 141.513796 -202.087653 
L 142.019752 -202.675173 
L 142.533817 -203.262693 
L 143.064955 -203.850213 
L 143.601031 -204.437733 
L 144.113653 -205.025253 
L 144.581142 -205.612774 
L 145.006475 -206.200294 
L 145.415029 -206.787814 
L 145.835847 -207.375334 
L 146.281358 -207.962854 
L 146.739732 -208.550374 
L 147.1849 -209.137895 
L 147.596621 -209.725415 
L 147.974105 -210.312935 
L 148.331047 -210.900455 
L 148.677952 -211.487975 
L 149.011964 -212.075495 
L 149.325628 -212.663016 
L 149.622096 -213.250536 
L 149.916302 -213.838056 
L 150.221428 -214.425576 
L 150.538516 -215.013096 
L 150.858747 -215.600616 
L 151.170527 -216.188137 
L 151.463208 -216.775657 
L 151.72853 -217.363177 
L 151.961845 -217.950697 
L 152.161725 -218.538217 
L 152.328452 -219.125737 
L 152.464768 -219.713258 
L 152.577957 -220.300778 
L 152.677831 -220.888298 
L 152.77047 -221.475818 
L 152.854747 -222.063338 
L 152.925776 -222.650858 
L 152.981442 -223.238379 
L 153.026171 -223.825899 
L 153.069403 -224.413419 
L 153.119903 -225.000939 
L 153.180328 -225.588459 
L 153.247407 -226.175979 
L 153.317895 -226.763499 
L 153.393184 -227.35102 
L 153.477168 -227.93854 
L 153.571438 -228.52606 
L 153.674766 -229.11358 
L 153.786974 -229.7011 
L 153.912947 -230.28862 
L 154.063637 -230.876141 
L 154.250885 -231.463661 
L 154.475537 -232.051181 
L 154.717689 -232.638701 
L 155.926128 -232.638701 
L 155.926128 -232.638701 
L 156.168279 -232.051181 
L 156.392931 -231.463661 
L 156.58018 -230.876141 
L 156.730869 -230.28862 
L 156.856843 -229.7011 
L 156.969051 -229.11358 
L 157.072379 -228.52606 
L 157.166648 -227.93854 
L 157.250633 -227.35102 
L 157.325922 -226.763499 
L 157.396409 -226.175979 
L 157.463489 -225.588459 
L 157.523914 -225.000939 
L 157.574414 -224.413419 
L 157.617646 -223.825899 
L 157.662375 -223.238379 
L 157.71804 -222.650858 
L 157.789069 -222.063338 
L 157.873347 -221.475818 
L 157.965986 -220.888298 
L 158.06586 -220.300778 
L 158.179048 -219.713258 
L 158.315365 -219.125737 
L 158.482091 -218.538217 
L 158.681971 -217.950697 
L 158.915287 -217.363177 
L 159.180608 -216.775657 
L 159.47329 -216.188137 
L 159.78507 -215.600616 
L 160.105301 -215.013096 
L 160.422389 -214.425576 
L 160.727514 -213.838056 
L 161.02172 -213.250536 
L 161.318189 -212.663016 
L 161.631853 -212.075495 
L 161.965864 -211.487975 
L 162.31277 -210.900455 
L 162.669711 -210.312935 
L 163.047196 -209.725415 
L 163.458916 -209.137895 
L 163.904085 -208.550374 
L 164.362459 -207.962854 
L 164.80797 -207.375334 
L 165.228787 -206.787814 
L 165.637342 -206.200294 
L 166.062675 -205.612774 
L 166.530164 -205.025253 
L 167.042785 -204.437733 
L 167.578861 -203.850213 
L 168.109999 -203.262693 
L 168.624064 -202.675173 
L 169.130021 -202.087653 
L 169.640046 -201.500132 
L 170.152459 -200.912612 
L 170.658154 -200.325092 
L 171.160361 -199.737572 
L 171.678424 -199.150052 
L 172.227548 -198.562532 
L 172.795664 -197.975011 
L 173.340701 -197.387491 
L 173.813226 -196.799971 
L 174.188011 -196.212451 
L 174.475136 -195.624931 
L 174.696887 -195.037411 
L 174.855691 -194.44989 
L 174.930987 -193.86237 
L 174.905983 -193.27485 
L 174.787265 -192.68733 
L 174.592712 -192.09981 
L 174.326906 -191.51229 
L 173.975922 -190.924769 
L 173.522729 -190.337249 
L 172.962612 -189.749729 
L 172.309169 -189.162209 
L 171.592187 -188.574689 
L 170.846318 -187.987169 
L 170.094358 -187.399648 
L 169.338261 -186.812128 
L 168.566746 -186.224608 
L 167.772943 -185.637088 
L 166.965354 -185.049568 
L 166.1621 -184.462048 
L 165.376959 -183.874527 
L 164.613667 -183.287007 
L 163.873018 -182.699487 
L 163.162918 -182.111967 
L 162.499778 -181.524447 
L 161.898432 -180.936927 
L 161.359508 -180.349406 
L 160.866974 -179.761886 
L 160.399042 -179.174366 
L 159.942663 -178.586846 
L 159.49797 -177.999326 
L 159.067349 -177.411806 
L 158.639266 -176.824285 
L 158.185741 -176.236765 
L 157.68152 -175.649245 
L 157.131276 -175.061725 
L 156.580735 -174.474205 
z
" style="stroke: #004488; stroke-width: 1.1"/>
    </defs>
    <g clip-path="url(#p0812e41095)">
     <use xlink:href="#m84fb778b09" x="0" y="283.464567" style="fill: #bbccee; stroke: #004488; stroke-width: 1.1"/>
    </g>
   </g>
   <g id="FillBetweenPolyCollection_8">
    <defs>
     <path id="ma44b3b771a" d="M 227.857211 -169.821066 
L 222.85145 -169.821066 
L 221.818156 -170.415929 
L 220.747586 -171.010793 
L 219.711802 -171.605657 
L 218.730418 -172.200521 
L 217.778809 -172.795385 
L 216.818306 -173.390249 
L 215.827473 -173.985113 
L 214.819906 -174.579977 
L 213.840672 -175.174841 
L 212.941714 -175.769705 
L 212.151182 -176.364569 
L 211.459957 -176.959433 
L 210.835489 -177.554296 
L 210.248892 -178.14916 
L 209.691721 -178.744024 
L 209.171756 -179.338888 
L 208.695968 -179.933752 
L 208.256851 -180.528616 
L 207.83351 -181.12348 
L 207.407439 -181.718344 
L 206.981631 -182.313208 
L 206.586958 -182.908072 
L 206.26684 -183.502936 
L 206.048438 -184.097799 
L 205.923025 -184.692663 
L 205.853425 -185.287527 
L 205.803092 -185.882391 
L 205.761554 -186.477255 
L 205.745252 -187.072119 
L 205.776247 -187.666983 
L 205.859569 -188.261847 
L 205.977901 -188.856711 
L 206.106063 -189.451575 
L 206.232377 -190.046439 
L 206.369891 -190.641302 
L 206.549887 -191.236166 
L 206.804749 -191.83103 
L 207.153107 -192.425894 
L 207.593546 -193.020758 
L 208.105524 -193.615622 
L 208.655574 -194.210486 
L 209.207568 -194.80535 
L 209.732734 -195.400214 
L 210.213686 -195.995078 
L 210.641676 -196.589942 
L 211.012219 -197.184806 
L 211.324082 -197.779669 
L 211.580776 -198.374533 
L 211.789448 -198.969397 
L 211.955598 -199.564261 
L 212.078486 -200.159125 
L 212.152207 -200.753989 
L 212.171089 -201.348853 
L 212.13523 -201.943717 
L 212.055222 -202.538581 
L 211.955946 -203.133445 
L 211.874901 -203.728309 
L 211.850644 -204.323172 
L 211.906555 -204.918036 
L 212.042292 -205.5129 
L 212.238937 -206.107764 
L 212.472598 -206.702628 
L 212.728403 -207.297492 
L 213.009402 -207.892356 
L 213.335439 -208.48722 
L 213.73047 -209.082084 
L 214.20629 -209.676948 
L 214.754923 -210.271812 
L 215.353386 -210.866676 
L 215.973459 -211.461539 
L 216.588206 -212.056403 
L 217.174486 -212.651267 
L 217.715568 -213.246131 
L 218.205077 -213.840995 
L 218.648751 -214.435859 
L 219.060709 -215.030723 
L 219.455806 -215.625587 
L 219.843176 -216.220451 
L 220.224791 -216.815315 
L 220.598245 -217.410179 
L 220.960068 -218.005042 
L 221.307204 -218.599906 
L 221.637107 -219.19477 
L 221.947352 -219.789634 
L 222.234844 -220.384498 
L 222.495292 -220.979362 
L 222.724141 -221.574226 
L 222.918719 -222.16909 
L 223.079695 -222.763954 
L 223.210924 -223.358818 
L 223.318868 -223.953682 
L 223.412799 -224.548545 
L 223.505191 -225.143409 
L 223.61085 -225.738273 
L 223.744442 -226.333137 
L 223.916948 -226.928001 
L 224.13141 -227.522865 
L 224.378795 -228.117729 
L 224.636898 -228.712593 
L 226.071764 -228.712593 
L 226.071764 -228.712593 
L 226.329866 -228.117729 
L 226.577252 -227.522865 
L 226.791714 -226.928001 
L 226.96422 -226.333137 
L 227.097811 -225.738273 
L 227.203471 -225.143409 
L 227.295862 -224.548545 
L 227.389794 -223.953682 
L 227.497737 -223.358818 
L 227.628967 -222.763954 
L 227.789942 -222.16909 
L 227.98452 -221.574226 
L 228.21337 -220.979362 
L 228.473817 -220.384498 
L 228.76131 -219.789634 
L 229.071554 -219.19477 
L 229.401458 -218.599906 
L 229.748594 -218.005042 
L 230.110417 -217.410179 
L 230.483871 -216.815315 
L 230.865485 -216.220451 
L 231.252855 -215.625587 
L 231.647952 -215.030723 
L 232.059911 -214.435859 
L 232.503584 -213.840995 
L 232.993093 -213.246131 
L 233.534175 -212.651267 
L 234.120456 -212.056403 
L 234.735202 -211.461539 
L 235.355276 -210.866676 
L 235.953738 -210.271812 
L 236.502371 -209.676948 
L 236.978191 -209.082084 
L 237.373222 -208.48722 
L 237.69926 -207.892356 
L 237.980259 -207.297492 
L 238.236063 -206.702628 
L 238.469724 -206.107764 
L 238.66637 -205.5129 
L 238.802106 -204.918036 
L 238.858017 -204.323172 
L 238.833761 -203.728309 
L 238.752716 -203.133445 
L 238.653439 -202.538581 
L 238.573431 -201.943717 
L 238.537573 -201.348853 
L 238.556455 -200.753989 
L 238.630176 -200.159125 
L 238.753063 -199.564261 
L 238.919213 -198.969397 
L 239.127886 -198.374533 
L 239.384579 -197.779669 
L 239.696443 -197.184806 
L 240.066985 -196.589942 
L 240.494976 -195.995078 
L 240.975928 -195.400214 
L 241.501094 -194.80535 
L 242.053088 -194.210486 
L 242.603137 -193.615622 
L 243.115115 -193.020758 
L 243.555554 -192.425894 
L 243.903912 -191.83103 
L 244.158774 -191.236166 
L 244.33877 -190.641302 
L 244.476284 -190.046439 
L 244.602598 -189.451575 
L 244.730761 -188.856711 
L 244.849093 -188.261847 
L 244.932414 -187.666983 
L 244.963409 -187.072119 
L 244.947107 -186.477255 
L 244.90557 -185.882391 
L 244.855237 -185.287527 
L 244.785636 -184.692663 
L 244.660224 -184.097799 
L 244.441822 -183.502936 
L 244.121703 -182.908072 
L 243.727031 -182.313208 
L 243.301222 -181.718344 
L 242.875151 -181.12348 
L 242.45181 -180.528616 
L 242.012694 -179.933752 
L 241.536906 -179.338888 
L 241.016941 -178.744024 
L 240.459769 -178.14916 
L 239.873173 -177.554296 
L 239.248704 -176.959433 
L 238.557479 -176.364569 
L 237.766947 -175.769705 
L 236.867989 -175.174841 
L 235.888756 -174.579977 
L 234.881189 -173.985113 
L 233.890355 -173.390249 
L 232.929852 -172.795385 
L 231.978243 -172.200521 
L 230.996859 -171.605657 
L 229.961075 -171.010793 
L 228.890505 -170.415929 
L 227.857211 -169.821066 
z
" style="stroke: #004488; stroke-width: 1.1"/>
    </defs>
    <g clip-path="url(#p0812e41095)">
     <use xlink:href="#ma44b3b771a" x="0" y="283.464567" style="fill: #bbccee; stroke: #004488; stroke-width: 1.1"/>
    </g>
   </g>
   <g id="FillBetweenPolyCollection_9">
    <defs>
     <path id="m616153f1e7" d="M 296.593157 -171.347848 
L 294.180349 -171.347848 
L 293.688634 -171.845772 
L 293.207801 -172.343695 
L 292.783265 -172.841618 
L 292.427442 -173.339542 
L 292.124315 -173.837465 
L 291.845707 -174.335388 
L 291.564989 -174.833312 
L 291.259574 -175.331235 
L 290.904612 -175.829158 
L 290.468199 -176.327081 
L 289.917015 -176.825005 
L 289.231756 -177.322928 
L 288.420851 -177.820851 
L 287.518653 -178.318775 
L 286.568465 -178.816698 
L 285.60796 -179.314621 
L 284.669532 -179.812544 
L 283.785806 -180.310468 
L 282.985308 -180.808391 
L 282.281775 -181.306314 
L 281.670781 -181.804238 
L 281.134358 -182.302161 
L 280.642726 -182.800084 
L 280.152086 -183.298008 
L 279.612054 -183.795931 
L 278.989006 -184.293854 
L 278.289232 -184.791777 
L 277.560749 -185.289701 
L 276.874427 -185.787624 
L 276.304667 -186.285547 
L 275.920909 -186.783471 
L 275.777675 -187.281394 
L 275.890137 -187.779317 
L 276.210015 -188.27724 
L 276.632225 -188.775164 
L 277.037178 -189.273087 
L 277.337757 -189.77101 
L 277.499867 -190.268934 
L 277.535629 -190.766857 
L 277.486601 -191.26478 
L 277.406912 -191.762704 
L 277.347568 -192.260627 
L 277.34678 -192.75855 
L 277.429547 -193.256473 
L 277.607143 -193.754397 
L 277.868273 -194.25232 
L 278.173883 -194.750243 
L 278.47403 -195.248167 
L 278.741158 -195.74609 
L 278.991893 -196.244013 
L 279.281105 -196.741936 
L 279.678796 -197.23986 
L 280.24528 -197.737783 
L 281.006805 -198.235706 
L 281.934293 -198.73363 
L 282.940494 -199.231553 
L 283.904944 -199.729476 
L 284.711988 -200.227399 
L 285.278767 -200.725323 
L 285.565956 -201.223246 
L 285.577977 -201.721169 
L 285.357458 -202.219093 
L 284.974256 -202.717016 
L 284.510339 -203.214939 
L 284.042563 -203.712863 
L 283.626895 -204.210786 
L 283.293442 -204.708709 
L 283.059595 -205.206632 
L 282.951735 -205.704556 
L 283.015883 -206.202479 
L 283.309057 -206.700402 
L 283.875815 -207.198326 
L 284.716406 -207.696249 
L 285.761436 -208.194172 
L 286.879003 -208.692095 
L 287.922724 -209.190019 
L 288.790604 -209.687942 
L 289.453648 -210.185865 
L 289.943012 -210.683789 
L 290.316174 -211.181712 
L 290.627027 -211.679635 
L 290.911481 -212.177559 
L 291.187848 -212.675482 
L 291.464813 -213.173405 
L 291.747856 -213.671328 
L 292.039084 -214.169252 
L 292.333917 -214.667175 
L 292.621815 -215.165098 
L 292.89224 -215.663022 
L 293.13999 -216.160945 
L 293.365215 -216.658868 
L 293.569745 -217.156791 
L 293.754598 -217.654715 
L 293.921644 -218.152638 
L 294.07788 -218.650561 
L 294.23701 -219.148485 
L 294.41391 -219.646408 
L 294.613805 -220.144331 
L 294.82469 -220.642255 
L 295.948816 -220.642255 
L 295.948816 -220.642255 
L 296.159701 -220.144331 
L 296.359596 -219.646408 
L 296.536496 -219.148485 
L 296.695626 -218.650561 
L 296.851862 -218.152638 
L 297.018908 -217.654715 
L 297.203761 -217.156791 
L 297.408291 -216.658868 
L 297.633516 -216.160945 
L 297.881266 -215.663022 
L 298.151692 -215.165098 
L 298.439589 -214.667175 
L 298.734422 -214.169252 
L 299.02565 -213.671328 
L 299.308693 -213.173405 
L 299.585658 -212.675482 
L 299.862025 -212.177559 
L 300.146479 -211.679635 
L 300.457332 -211.181712 
L 300.830495 -210.683789 
L 301.319859 -210.185865 
L 301.982903 -209.687942 
L 302.850782 -209.190019 
L 303.894504 -208.692095 
L 305.01207 -208.194172 
L 306.057101 -207.696249 
L 306.897691 -207.198326 
L 307.464449 -206.700402 
L 307.757623 -206.202479 
L 307.821771 -205.704556 
L 307.713911 -205.206632 
L 307.480065 -204.708709 
L 307.146611 -204.210786 
L 306.730943 -203.712863 
L 306.263167 -203.214939 
L 305.79925 -202.717016 
L 305.416048 -202.219093 
L 305.195529 -201.721169 
L 305.207551 -201.223246 
L 305.49474 -200.725323 
L 306.061518 -200.227399 
L 306.868562 -199.729476 
L 307.833012 -199.231553 
L 308.839214 -198.73363 
L 309.766701 -198.235706 
L 310.528226 -197.737783 
L 311.09471 -197.23986 
L 311.492401 -196.741936 
L 311.781613 -196.244013 
L 312.032349 -195.74609 
L 312.299476 -195.248167 
L 312.599624 -194.750243 
L 312.905233 -194.25232 
L 313.166363 -193.754397 
L 313.343959 -193.256473 
L 313.426726 -192.75855 
L 313.425938 -192.260627 
L 313.366594 -191.762704 
L 313.286906 -191.26478 
L 313.237877 -190.766857 
L 313.273639 -190.268934 
L 313.435749 -189.77101 
L 313.736328 -189.273087 
L 314.141282 -188.775164 
L 314.563492 -188.27724 
L 314.883369 -187.779317 
L 314.995831 -187.281394 
L 314.852598 -186.783471 
L 314.468839 -186.285547 
L 313.899079 -185.787624 
L 313.212757 -185.289701 
L 312.484274 -184.791777 
L 311.7845 -184.293854 
L 311.161453 -183.795931 
L 310.62142 -183.298008 
L 310.13078 -182.800084 
L 309.639148 -182.302161 
L 309.102725 -181.804238 
L 308.491731 -181.306314 
L 307.788198 -180.808391 
L 306.9877 -180.310468 
L 306.103974 -179.812544 
L 305.165546 -179.314621 
L 304.205041 -178.816698 
L 303.254853 -178.318775 
L 302.352655 -177.820851 
L 301.54175 -177.322928 
L 300.856491 -176.825005 
L 300.305307 -176.327081 
L 299.868895 -175.829158 
L 299.513932 -175.331235 
L 299.208518 -174.833312 
L 298.9278 -174.335388 
L 298.649191 -173.837465 
L 298.346065 -173.339542 
L 297.990242 -172.841618 
L 297.565705 -172.343695 
L 297.084872 -171.845772 
L 296.593157 -171.347848 
z
" style="stroke: #004488; stroke-width: 1.1"/>
    </defs>
    <g clip-path="url(#p0812e41095)">
     <use xlink:href="#m616153f1e7" x="0" y="283.464567" style="fill: #bbccee; stroke: #004488; stroke-width: 1.1"/>
    </g>
   </g>
   <g id="FillBetweenPolyCollection_10">
    <defs>
     <path id="m636333d529" d="M 366.140363 -170.111881 
L 364.697988 -170.111881 
L 364.375279 -170.736855 
L 364.047475 -171.36183 
L 363.728408 -171.986804 
L 363.407245 -172.611778 
L 363.066084 -173.236753 
L 362.699343 -173.861727 
L 362.317362 -174.486702 
L 361.932951 -175.111676 
L 361.546263 -175.736651 
L 361.144319 -176.361625 
L 360.713656 -176.986599 
L 360.249223 -177.611574 
L 359.750898 -178.236548 
L 359.218166 -178.861523 
L 358.653723 -179.486497 
L 358.068206 -180.111472 
L 357.472982 -180.736446 
L 356.867332 -181.361421 
L 356.2397 -181.986395 
L 355.584186 -182.611369 
L 354.908548 -183.236344 
L 354.22015 -183.861318 
L 353.511178 -184.486293 
L 352.771089 -185.111267 
L 352.016842 -185.736242 
L 351.301372 -186.361216 
L 350.682006 -186.98619 
L 350.176027 -187.611165 
L 349.746244 -188.236139 
L 349.329693 -188.861114 
L 348.881037 -189.486088 
L 348.395879 -190.111063 
L 347.907229 -190.736037 
L 347.46574 -191.361011 
L 347.111196 -191.985986 
L 346.84864 -192.61096 
L 346.65129 -193.235935 
L 346.489593 -193.860909 
L 346.351167 -194.485884 
L 346.230034 -195.110858 
L 346.112168 -195.735833 
L 345.987992 -196.360807 
L 345.874464 -196.985781 
L 345.810097 -197.610756 
L 345.822357 -198.23573 
L 345.899713 -198.860705 
L 345.994334 -199.485679 
L 346.057506 -200.110654 
L 346.085749 -200.735628 
L 346.137501 -201.360602 
L 346.294516 -201.985577 
L 346.596598 -202.610551 
L 347.015508 -203.235526 
L 347.4945 -203.8605 
L 348.002089 -204.485475 
L 348.53759 -205.110449 
L 349.098861 -205.735423 
L 349.670331 -206.360398 
L 350.245965 -206.985372 
L 350.844154 -207.610347 
L 351.486754 -208.235321 
L 352.17026 -208.860296 
L 352.867311 -209.48527 
L 353.553691 -210.110245 
L 354.226823 -210.735219 
L 354.898715 -211.360193 
L 355.576212 -211.985168 
L 356.249439 -212.610142 
L 356.896353 -213.235117 
L 357.496724 -213.860091 
L 358.044233 -214.485066 
L 358.547709 -215.11004 
L 359.020077 -215.735014 
L 359.466615 -216.359989 
L 359.885856 -216.984963 
L 360.277612 -217.609938 
L 360.64307 -218.234912 
L 360.979685 -218.859887 
L 361.283137 -219.484861 
L 361.552346 -220.109836 
L 361.788323 -220.73481 
L 361.993328 -221.359784 
L 362.176612 -221.984759 
L 362.356151 -222.609733 
L 362.547762 -223.234708 
L 362.752068 -223.859682 
L 362.954853 -224.484657 
L 363.141051 -225.109631 
L 363.307907 -225.734605 
L 363.464916 -226.35958 
L 363.622743 -226.984554 
L 363.783079 -227.609529 
L 363.938008 -228.234503 
L 364.07875 -228.859478 
L 364.206854 -229.484452 
L 364.338167 -230.109426 
L 364.494112 -230.734401 
L 364.684675 -231.359375 
L 364.89583 -231.98435 
L 365.942521 -231.98435 
L 365.942521 -231.98435 
L 366.153676 -231.359375 
L 366.344239 -230.734401 
L 366.500184 -230.109426 
L 366.631497 -229.484452 
L 366.759602 -228.859478 
L 366.900343 -228.234503 
L 367.055272 -227.609529 
L 367.215608 -226.984554 
L 367.373436 -226.35958 
L 367.530444 -225.734605 
L 367.6973 -225.109631 
L 367.883498 -224.484657 
L 368.086283 -223.859682 
L 368.29059 -223.234708 
L 368.4822 -222.609733 
L 368.66174 -221.984759 
L 368.845023 -221.359784 
L 369.050029 -220.73481 
L 369.286005 -220.109836 
L 369.555214 -219.484861 
L 369.858666 -218.859887 
L 370.195281 -218.234912 
L 370.56074 -217.609938 
L 370.952495 -216.984963 
L 371.371736 -216.359989 
L 371.818274 -215.735014 
L 372.290642 -215.11004 
L 372.794118 -214.485066 
L 373.341627 -213.860091 
L 373.941998 -213.235117 
L 374.588913 -212.610142 
L 375.262139 -211.985168 
L 375.939637 -211.360193 
L 376.611528 -210.735219 
L 377.28466 -210.110245 
L 377.97104 -209.48527 
L 378.668091 -208.860296 
L 379.351597 -208.235321 
L 379.994197 -207.610347 
L 380.592386 -206.985372 
L 381.168021 -206.360398 
L 381.73949 -205.735423 
L 382.300761 -205.110449 
L 382.836262 -204.485475 
L 383.343851 -203.8605 
L 383.822843 -203.235526 
L 384.241753 -202.610551 
L 384.543835 -201.985577 
L 384.70085 -201.360602 
L 384.752602 -200.735628 
L 384.780845 -200.110654 
L 384.844017 -199.485679 
L 384.938638 -198.860705 
L 385.015994 -198.23573 
L 385.028254 -197.610756 
L 384.963887 -196.985781 
L 384.850359 -196.360807 
L 384.726183 -195.735833 
L 384.608317 -195.110858 
L 384.487184 -194.485884 
L 384.348759 -193.860909 
L 384.187062 -193.235935 
L 383.989711 -192.61096 
L 383.727155 -191.985986 
L 383.372611 -191.361011 
L 382.931122 -190.736037 
L 382.442472 -190.111063 
L 381.957314 -189.486088 
L 381.508658 -188.861114 
L 381.092107 -188.236139 
L 380.662324 -187.611165 
L 380.156345 -186.98619 
L 379.536979 -186.361216 
L 378.821509 -185.736242 
L 378.067262 -185.111267 
L 377.327173 -184.486293 
L 376.618201 -183.861318 
L 375.929803 -183.236344 
L 375.254165 -182.611369 
L 374.598651 -181.986395 
L 373.971019 -181.361421 
L 373.365369 -180.736446 
L 372.770145 -180.111472 
L 372.184629 -179.486497 
L 371.620185 -178.861523 
L 371.087454 -178.236548 
L 370.589128 -177.611574 
L 370.124695 -176.986599 
L 369.694032 -176.361625 
L 369.292088 -175.736651 
L 368.9054 -175.111676 
L 368.520989 -174.486702 
L 368.139008 -173.861727 
L 367.772267 -173.236753 
L 367.431106 -172.611778 
L 367.109943 -171.986804 
L 366.790876 -171.36183 
L 366.463072 -170.736855 
L 366.140363 -170.111881 
z
" style="stroke: #004488; stroke-width: 1.1"/>
    </defs>
    <g clip-path="url(#p0812e41095)">
     <use xlink:href="#m636333d529" x="0" y="283.464567" style="fill: #bbccee; stroke: #004488; stroke-width: 1.1"/>
    </g>
   </g>
   <g id="line2d_22">
    <path d="M 85.289486 211.723363 
L 85.289486 197.763876 
" clip-path="url(#p0812e41095)" style="fill: none; stroke: #000000; stroke-width: 1.9; stroke-linecap: round"/>
   </g>
   <g id="line2d_23">
    <path d="M 155.321908 210.19651 
L 155.321908 196.455187 
" clip-path="url(#p0812e41095)" style="fill: none; stroke: #000000; stroke-width: 1.9; stroke-linecap: round"/>
   </g>
   <g id="line2d_24">
    <path d="M 225.354331 207.506439 
L 225.354331 192.383636 
" clip-path="url(#p0812e41095)" style="fill: none; stroke: #000000; stroke-width: 1.9; stroke-linecap: round"/>
   </g>
   <g id="line2d_25">
    <path d="M 295.386753 214.922371 
L 295.386753 202.489722 
" clip-path="url(#p0812e41095)" style="fill: none; stroke: #000000; stroke-width: 1.9; stroke-linecap: round"/>
   </g>
   <g id="line2d_26">
    <path d="M 365.419176 214.922399 
L 365.419176 204.889034 
" clip-path="url(#p0812e41095)" style="fill: none; stroke: #000000; stroke-width: 1.9; stroke-linecap: round"/>
   </g>
   <g id="line2d_27">
    <path d="M 85.289486 91.104753 
L 85.289486 75.473069 
" clip-path="url(#p0812e41095)" style="fill: none; stroke: #000000; stroke-width: 1.9; stroke-linecap: round"/>
   </g>
   <g id="line2d_28">
    <path d="M 155.321908 94.158402 
L 155.321908 78.962934 
" clip-path="url(#p0812e41095)" style="fill: none; stroke: #000000; stroke-width: 1.9; stroke-linecap: round"/>
   </g>
   <g id="line2d_29">
    <path d="M 225.354331 100.411073 
L 225.354331 79.9081 
" clip-path="url(#p0812e41095)" style="fill: none; stroke: #000000; stroke-width: 1.9; stroke-linecap: round"/>
   </g>
   <g id="line2d_30">
    <path d="M 295.386753 97.93911 
L 295.386753 82.452812 
" clip-path="url(#p0812e41095)" style="fill: none; stroke: #000000; stroke-width: 1.9; stroke-linecap: round"/>
   </g>
   <g id="line2d_31">
    <path d="M 365.419176 93.940294 
L 365.419176 77.072601 
" clip-path="url(#p0812e41095)" style="fill: none; stroke: #000000; stroke-width: 1.9; stroke-linecap: round"/>
   </g>
   <g id="text_12">
    <text style="font-weight: 700; font-size: 19px; font-family: 'Tahoma'; text-anchor: middle; fill: #004488" x="225.354331" y="40.564125" transform="rotate(-0 225.354331 40.564125)">from mean</text>
   </g>
   <g id="text_13">
    <text style="font-weight: 700; font-size: 19px; font-family: 'Tahoma'; text-anchor: middle; fill: #bb5566" x="225.354331" y="156.20592" transform="rotate(-0 225.354331 156.20592)">from p90</text>
   </g>
   <g id="line2d_32">
    <path d="M 76.885595 207.506425 
L 93.693377 207.506425 
" clip-path="url(#p0812e41095)" style="fill: none; stroke: #bb5566; stroke-width: 2.1; stroke-linecap: square"/>
   </g>
   <g id="line2d_33">
    <path d="M 146.918018 205.834186 
L 163.725799 205.834186 
" clip-path="url(#p0812e41095)" style="fill: none; stroke: #bb5566; stroke-width: 2.1; stroke-linecap: square"/>
   </g>
   <g id="line2d_34">
    <path d="M 216.95044 202.925966 
L 233.758221 202.925966 
" clip-path="url(#p0812e41095)" style="fill: none; stroke: #bb5566; stroke-width: 2.1; stroke-linecap: square"/>
   </g>
   <g id="line2d_35">
    <path d="M 286.982862 211.868749 
L 303.790644 211.868749 
" clip-path="url(#p0812e41095)" style="fill: none; stroke: #bb5566; stroke-width: 2.1; stroke-linecap: square"/>
   </g>
   <g id="line2d_36">
    <path d="M 357.015285 211.577934 
L 373.823066 211.577934 
" clip-path="url(#p0812e41095)" style="fill: none; stroke: #bb5566; stroke-width: 2.1; stroke-linecap: square"/>
   </g>
   <g id="line2d_37">
    <path d="M 79.686892 83.397965 
L 90.89208 83.397965 
" clip-path="url(#p0812e41095)" style="fill: none; stroke: #004488; stroke-width: 2.1; stroke-linecap: square"/>
   </g>
   <g id="line2d_38">
    <path d="M 149.719314 87.324101 
L 160.924502 87.324101 
" clip-path="url(#p0812e41095)" style="fill: none; stroke: #004488; stroke-width: 2.1; stroke-linecap: square"/>
   </g>
   <g id="line2d_39">
    <path d="M 219.751737 91.613718 
L 230.956925 91.613718 
" clip-path="url(#p0812e41095)" style="fill: none; stroke: #004488; stroke-width: 2.1; stroke-linecap: square"/>
   </g>
   <g id="line2d_40">
    <path d="M 289.784159 91.032046 
L 300.989347 91.032046 
" clip-path="url(#p0812e41095)" style="fill: none; stroke: #004488; stroke-width: 2.1; stroke-linecap: square"/>
   </g>
   <g id="line2d_41">
    <path d="M 359.816582 85.506461 
L 371.021769 85.506461 
" clip-path="url(#p0812e41095)" style="fill: none; stroke: #004488; stroke-width: 2.1; stroke-linecap: square"/>
   </g>
   <g id="PathCollection_1">
    <defs>
     <path id="m47954beecb" d="M 0 2.345208 
C 0.621956 2.345208 1.218523 2.098102 1.658312 1.658312 
C 2.098102 1.218523 2.345208 0.621956 2.345208 0 
C 2.345208 -0.621956 2.098102 -1.218523 1.658312 -1.658312 
C 1.218523 -2.098102 0.621956 -2.345208 0 -2.345208 
C -0.621956 -2.345208 -1.218523 -2.098102 -1.658312 -1.658312 
C -2.098102 -1.218523 -2.345208 -0.621956 -2.345208 0 
C -2.345208 0.621956 -2.098102 1.218523 -1.658312 1.658312 
C -1.218523 2.098102 -0.621956 2.345208 0 2.345208 
z
" style="stroke: #bb5566"/>
    </defs>
    <g clip-path="url(#p0812e41095)">
     <use xlink:href="#m47954beecb" x="85.289486" y="203.642064" style="fill: #bb5566; stroke: #bb5566"/>
    </g>
   </g>
   <g id="PathCollection_2">
    <g clip-path="url(#p0812e41095)">
     <use xlink:href="#m47954beecb" x="155.321908" y="202.321102" style="fill: #bb5566; stroke: #bb5566"/>
    </g>
   </g>
   <g id="PathCollection_3">
    <g clip-path="url(#p0812e41095)">
     <use xlink:href="#m47954beecb" x="225.354331" y="199.269963" style="fill: #bb5566; stroke: #bb5566"/>
    </g>
   </g>
   <g id="PathCollection_4">
    <g clip-path="url(#p0812e41095)">
     <use xlink:href="#m47954beecb" x="295.386753" y="208.86774" style="fill: #bb5566; stroke: #bb5566"/>
    </g>
   </g>
   <g id="PathCollection_5">
    <g clip-path="url(#p0812e41095)">
     <use xlink:href="#m47954beecb" x="365.419176" y="209.020732" style="fill: #bb5566; stroke: #bb5566"/>
    </g>
   </g>
   <g id="PathCollection_6">
    <defs>
     <path id="m57f45956a1" d="M 0 2.345208 
C 0.621956 2.345208 1.218523 2.098102 1.658312 1.658312 
C 2.098102 1.218523 2.345208 0.621956 2.345208 0 
C 2.345208 -0.621956 2.098102 -1.218523 1.658312 -1.658312 
C 1.218523 -2.098102 0.621956 -2.345208 0 -2.345208 
C -0.621956 -2.345208 -1.218523 -2.098102 -1.658312 -1.658312 
C -2.098102 -1.218523 -2.345208 -0.621956 -2.345208 0 
C -2.345208 0.621956 -2.098102 1.218523 -1.658312 1.658312 
C -1.218523 2.098102 -0.621956 2.345208 0 2.345208 
z
" style="stroke: #004488"/>
    </defs>
    <g clip-path="url(#p0812e41095)">
     <use xlink:href="#m57f45956a1" x="85.289486" y="82.376242" style="fill: #004488; stroke: #004488"/>
    </g>
   </g>
   <g id="PathCollection_7">
    <g clip-path="url(#p0812e41095)">
     <use xlink:href="#m57f45956a1" x="155.321908" y="85.737407" style="fill: #004488; stroke: #004488"/>
    </g>
   </g>
   <g id="PathCollection_8">
    <g clip-path="url(#p0812e41095)">
     <use xlink:href="#m57f45956a1" x="225.354331" y="89.838233" style="fill: #004488; stroke: #004488"/>
    </g>
   </g>
   <g id="PathCollection_9">
    <g clip-path="url(#p0812e41095)">
     <use xlink:href="#m57f45956a1" x="295.386753" y="90.043353" style="fill: #004488; stroke: #004488"/>
    </g>
   </g>
   <g id="PathCollection_10">
    <g clip-path="url(#p0812e41095)">
     <use xlink:href="#m57f45956a1" x="365.419176" y="85.13242" style="fill: #004488; stroke: #004488"/>
    </g>
   </g>
  </g>
 </g>
 <defs>
  <clipPath id="p0812e41095">
   <rect x="46.771654" y="22.677165" width="357.165354" height="198.425197"/>
  </clipPath>
 </defs>
</svg>
