<?xml version="1.0" encoding="utf-8" standalone="no"?>
<!DOCTYPE svg PUBLIC "-//W3C//DTD SVG 1.1//EN"
  "http://www.w3.org/Graphics/SVG/1.1/DTD/svg11.dtd">
<svg xmlns:xlink="http://www.w3.org/1999/xlink" width="425.19685pt" height="283.464567pt" viewBox="0 0 425.19685 283.464567" xmlns="http://www.w3.org/2000/svg" version="1.1">
 <metadata>
  <rdf:RDF xmlns:dc="http://purl.org/dc/elements/1.1/" xmlns:cc="http://creativecommons.org/ns#" xmlns:rdf="http://www.w3.org/1999/02/22-rdf-syntax-ns#">
   <cc:Work>
    <dc:type rdf:resource="http://purl.org/dc/dcmitype/StillImage"/>
    <dc:date>2026-05-21T17:02:23.777820</dc:date>
    <dc:format>image/svg+xml</dc:format>
    <dc:creator>
     <cc:Agent>
      <dc:title>Matplotlib v3.10.0, https://matplotlib.org/</dc:title>
     </cc:Agent>
    </dc:creator>
   </cc:Work>
  </rdf:RDF>
 </metadata>
 <defs>
  <style type="text/css">*{stroke-linejoin: round; stroke-linecap: butt}</style>
 </defs>
 <g id="figure_1">
  <g id="patch_1">
   <path d="M 0 283.464567 
L 425.19685 283.464567 
L 425.19685 0 
L 0 0 
L 0 283.464567 
z
" style="fill: none; opacity: 0"/>
  </g>
  <g id="axes_1">
   <g id="patch_2">
    <path d="M 46.771654 221.102362 
L 403.937008 221.102362 
L 403.937008 22.677165 
L 46.771654 22.677165 
L 46.771654 221.102362 
z
" style="fill: none; opacity: 0"/>
   </g>
   <g id="matplotlib.axis_1">
    <g id="xtick_1">
     <g id="line2d_1">
      <path d="M 85.289486 221.102362 
L 85.289486 22.677165 
" clip-path="url(#p51255a6105)" style="fill: none; stroke: #d0d0d0; stroke-opacity: 0.65; stroke-width: 1.2; stroke-linecap: square"/>
     </g>
     <g id="line2d_2">
      <defs>
       <path id="m1fe1bc06cf" d="M 0 0 
L 0 6 
" style="stroke: #000000; stroke-width: 1.5"/>
      </defs>
      <g>
       <use xlink:href="#m1fe1bc06cf" x="85.289486" y="221.102362" style="stroke: #000000; stroke-width: 1.5"/>
      </g>
     </g>
     <g id="text_1">
      <text style="font-size: 15px; font-family: 'Tahoma'" transform="translate(0.788153 274.853949) rotate(-22)">Trees 2–10 m</text>
     </g>
    </g>
    <g id="xtick_2">
     <g id="line2d_3">
      <path d="M 155.321908 221.102362 
L 155.321908 22.677165 
" clip-path="url(#p51255a6105)" style="fill: none; stroke: #d0d0d0; stroke-opacity: 0.65; stroke-width: 1.2; stroke-linecap: square"/>
     </g>
     <g id="line2d_4">
      <g>
       <use xlink:href="#m1fe1bc06cf" x="155.321908" y="221.102362" style="stroke: #000000; stroke-width: 1.5"/>
      </g>
     </g>
     <g id="text_2">
      <text style="font-size: 15px; font-family: 'Tahoma'" transform="translate(63.227809 277.921626) rotate(-22)">Trees 10–15 m</text>
     </g>
    </g>
    <g id="xtick_3">
     <g id="line2d_5">
      <path d="M 225.354331 221.102362 
L 225.354331 22.677165 
" clip-path="url(#p51255a6105)" style="fill: none; stroke: #d0d0d0; stroke-opacity: 0.65; stroke-width: 1.2; stroke-linecap: square"/>
     </g>
     <g id="line2d_6">
      <g>
       <use xlink:href="#m1fe1bc06cf" x="225.354331" y="221.102362" style="stroke: #000000; stroke-width: 1.5"/>
      </g>
     </g>
     <g id="text_3">
      <text style="font-size: 15px; font-family: 'Tahoma'" transform="translate(145.920637 272.80649) rotate(-22)">Trees &gt;15 m</text>
     </g>
    </g>
    <g id="xtick_4">
     <g id="line2d_7">
      <path d="M 295.386753 221.102362 
L 295.386753 22.677165 
" clip-path="url(#p51255a6105)" style="fill: none; stroke: #d0d0d0; stroke-opacity: 0.65; stroke-width: 1.2; stroke-linecap: square"/>
     </g>
     <g id="line2d_8">
      <g>
       <use xlink:href="#m1fe1bc06cf" x="295.386753" y="221.102362" style="stroke: #000000; stroke-width: 1.5"/>
      </g>
     </g>
     <g id="text_4">
      <text style="font-size: 15px; font-family: 'Tahoma'" transform="translate(259.427842 255.241538) rotate(-22)">Fields</text>
     </g>
    </g>
    <g id="xtick_5">
     <g id="line2d_9">
      <path d="M 365.419176 221.102362 
L 365.419176 22.677165 
" clip-path="url(#p51255a6105)" style="fill: none; stroke: #d0d0d0; stroke-opacity: 0.65; stroke-width: 1.2; stroke-linecap: square"/>
     </g>
     <g id="line2d_10">
      <g>
       <use xlink:href="#m1fe1bc06cf" x="365.419176" y="221.102362" style="stroke: #000000; stroke-width: 1.5"/>
      </g>
     </g>
     <g id="text_5">
      <text style="font-size: 15px; font-family: 'Tahoma'" transform="translate(299.287521 267.420057) rotate(-22)">Other veg.</text>
     </g>
    </g>
   </g>
   <g id="matplotlib.axis_2">
    <g id="ytick_1">
     <g id="line2d_11">
      <path d="M 46.771654 221.102362 
L 403.937008 221.102362 
" clip-path="url(#p51255a6105)" style="fill: none; stroke: #d0d0d0; stroke-opacity: 0.65; stroke-width: 1.2; stroke-linecap: square"/>
     </g>
     <g id="line2d_12">
      <defs>
       <path id="m5746d6fbee" d="M 0 0 
L -6 0 
" style="stroke: #000000; stroke-width: 1.5"/>
      </defs>
      <g>
       <use xlink:href="#m5746d6fbee" x="46.771654" y="221.102362" style="stroke: #000000; stroke-width: 1.5"/>
      </g>
     </g>
     <g id="text_6">
      <text style="font-size: 15px; font-family: 'Tahoma'; text-anchor: end" x="37.271654" y="226.80119" transform="rotate(-0 37.271654 226.80119)">+0</text>
     </g>
    </g>
    <g id="ytick_2">
     <g id="line2d_13">
      <path d="M 46.771654 178.701096 
L 403.937008 178.701096 
" clip-path="url(#p51255a6105)" style="fill: none; stroke: #d0d0d0; stroke-opacity: 0.65; stroke-width: 1.2; stroke-linecap: square"/>
     </g>
     <g id="line2d_14">
      <g>
       <use xlink:href="#m5746d6fbee" x="46.771654" y="178.701096" style="stroke: #000000; stroke-width: 1.5"/>
      </g>
     </g>
     <g id="text_7">
      <text style="font-size: 15px; font-family: 'Tahoma'; text-anchor: end" x="37.271654" y="184.399925" transform="rotate(-0 37.271654 184.399925)">+2</text>
     </g>
    </g>
    <g id="ytick_3">
     <g id="line2d_15">
      <path d="M 46.771654 136.299831 
L 403.937008 136.299831 
" clip-path="url(#p51255a6105)" style="fill: none; stroke: #d0d0d0; stroke-opacity: 0.65; stroke-width: 1.2; stroke-linecap: square"/>
     </g>
     <g id="line2d_16">
      <g>
       <use xlink:href="#m5746d6fbee" x="46.771654" y="136.299831" style="stroke: #000000; stroke-width: 1.5"/>
      </g>
     </g>
     <g id="text_8">
      <text style="font-size: 15px; font-family: 'Tahoma'; text-anchor: end" x="37.271654" y="141.998659" transform="rotate(-0 37.271654 141.998659)">+4</text>
     </g>
    </g>
    <g id="ytick_4">
     <g id="line2d_17">
      <path d="M 46.771654 93.898565 
L 403.937008 93.898565 
" clip-path="url(#p51255a6105)" style="fill: none; stroke: #d0d0d0; stroke-opacity: 0.65; stroke-width: 1.2; stroke-linecap: square"/>
     </g>
     <g id="line2d_18">
      <g>
       <use xlink:href="#m5746d6fbee" x="46.771654" y="93.898565" style="stroke: #000000; stroke-width: 1.5"/>
      </g>
     </g>
     <g id="text_9">
      <text style="font-size: 15px; font-family: 'Tahoma'; text-anchor: end" x="37.271654" y="99.597393" transform="rotate(-0 37.271654 99.597393)">+6</text>
     </g>
    </g>
    <g id="ytick_5">
     <g id="line2d_19">
      <path d="M 46.771654 51.497299 
L 403.937008 51.497299 
" clip-path="url(#p51255a6105)" style="fill: none; stroke: #d0d0d0; stroke-opacity: 0.65; stroke-width: 1.2; stroke-linecap: square"/>
     </g>
     <g id="line2d_20">
      <g>
       <use xlink:href="#m5746d6fbee" x="46.771654" y="51.497299" style="stroke: #000000; stroke-width: 1.5"/>
      </g>
     </g>
     <g id="text_10">
      <text style="font-size: 15px; font-family: 'Tahoma'; text-anchor: end" x="37.271654" y="57.196127" transform="rotate(-0 37.271654 57.196127)">+8</text>
     </g>
    </g>
    <g id="text_11">
     <text style="font-size: 18px; font-family: 'Tahoma'; text-anchor: middle" x="10.547591" y="121.889764" transform="rotate(-90 10.547591 121.889764)">Heatwave Δ T (°C)</text>
    </g>
   </g>
   <g id="patch_3">
    <path d="M 53.774896 215.872861 
L 396.933766 215.872861 
L 396.933766 163.436615 
L 53.774896 163.436615 
z
" clip-path="url(#p51255a6105)" style="fill: #e8bcc4; opacity: 0.26; stroke: #bb5566; stroke-width: 0.8; stroke-linejoin: miter"/>
   </g>
   <g id="line2d_21">
    <path d="M 46.771654 221.102362 
L 403.937008 221.102362 
" clip-path="url(#p51255a6105)" style="fill: none; stroke: #000000; stroke-opacity: 0.45; stroke-width: 0.9; stroke-linecap: square"/>
   </g>
   <g id="patch_4">
    <path d="M 53.774896 135.52247 
L 396.933766 135.52247 
L 396.933766 47.045172 
L 53.774896 47.045172 
z
" clip-path="url(#p51255a6105)" style="fill: #bbccee; opacity: 0.28; stroke: #004488; stroke-width: 0.8; stroke-linejoin: miter"/>
   </g>
   <g id="patch_5">
    <path d="M 46.771654 221.102362 
L 46.771654 22.677165 
" style="fill: none; stroke: #000000; stroke-width: 1.5; stroke-linejoin: miter; stroke-linecap: square"/>
   </g>
   <g id="patch_6">
    <path d="M 46.771654 221.102362 
L 403.937008 221.102362 
" style="fill: none; stroke: #000000; stroke-width: 1.5; stroke-linejoin: miter; stroke-linecap: square"/>
   </g>
   <g id="FillBetweenPolyCollection_1">
    <defs>
     <path id="mb1460d61f6" d="M 86.367758 -78.404007 
L 84.211214 -78.404007 
L 83.752922 -78.819454 
L 83.338337 -79.2349 
L 83.010252 -79.650347 
L 82.760513 -80.065794 
L 82.554764 -80.481241 
L 82.361517 -80.896688 
L 82.158645 -81.312135 
L 81.925245 -81.727582 
L 81.640042 -82.143028 
L 81.289345 -82.558475 
L 80.874301 -82.973922 
L 80.413407 -83.389369 
L 79.939245 -83.804816 
L 79.485581 -84.220263 
L 79.069516 -84.63571 
L 78.682845 -85.051156 
L 78.298827 -85.466603 
L 77.885594 -85.88205 
L 77.414658 -86.297497 
L 76.86509 -86.712944 
L 76.233982 -87.128391 
L 75.549836 -87.543838 
L 74.86487 -87.959284 
L 74.21929 -88.374731 
L 73.6109 -88.790178 
L 73.002422 -89.205625 
L 72.353029 -89.621072 
L 71.636742 -90.036519 
L 70.839885 -90.451966 
L 69.96045 -90.867413 
L 69.01663 -91.282859 
L 68.044525 -91.698306 
L 67.076434 -92.113753 
L 66.121316 -92.5292 
L 65.170275 -92.944647 
L 64.219392 -93.360094 
L 63.281618 -93.775541 
L 62.378462 -94.190987 
L 61.530781 -94.606434 
L 60.761554 -95.021881 
L 60.097705 -95.437328 
L 59.556069 -95.852775 
L 59.122915 -96.268222 
L 58.756351 -96.683669 
L 58.42453 -97.099115 
L 58.145421 -97.514562 
L 57.979069 -97.930009 
L 57.976841 -98.345456 
L 58.144818 -98.760903 
L 58.453765 -99.17635 
L 58.867893 -99.591797 
L 59.35843 -100.007243 
L 59.907025 -100.42269 
L 60.512877 -100.838137 
L 61.192315 -101.253584 
L 61.959631 -101.669031 
L 62.8067 -102.084478 
L 63.703692 -102.499925 
L 64.617791 -102.915371 
L 65.531282 -103.330818 
L 66.445363 -103.746265 
L 67.368174 -104.161712 
L 68.298663 -104.577159 
L 69.221002 -104.992606 
L 70.113966 -105.408053 
L 70.968593 -105.823499 
L 71.799072 -106.238946 
L 72.631363 -106.654393 
L 73.476077 -107.06984 
L 74.313511 -107.485287 
L 75.10429 -107.900734 
L 75.811882 -108.316181 
L 76.421486 -108.731628 
L 76.948724 -109.147074 
L 77.432554 -109.562521 
L 77.914058 -109.977968 
L 78.415258 -110.393415 
L 78.929996 -110.808862 
L 79.429628 -111.224309 
L 79.881918 -111.639756 
L 80.271439 -112.055202 
L 80.603192 -112.470649 
L 80.889769 -112.886096 
L 81.141629 -113.301543 
L 81.36803 -113.71699 
L 81.578661 -114.132437 
L 81.781795 -114.547884 
L 81.982774 -114.96333 
L 82.182194 -115.378777 
L 82.374438 -115.794224 
L 82.552663 -116.209671 
L 82.717521 -116.625118 
L 82.878127 -117.040565 
L 83.04549 -117.456012 
L 83.231166 -117.871458 
L 83.452629 -118.286905 
L 83.729975 -118.702352 
L 84.06642 -119.117799 
L 84.430302 -119.533246 
L 86.14867 -119.533246 
L 86.14867 -119.533246 
L 86.512552 -119.117799 
L 86.848996 -118.702352 
L 87.126343 -118.286905 
L 87.347805 -117.871458 
L 87.533482 -117.456012 
L 87.700845 -117.040565 
L 87.861451 -116.625118 
L 88.026309 -116.209671 
L 88.204534 -115.794224 
L 88.396778 -115.378777 
L 88.596197 -114.96333 
L 88.797177 -114.547884 
L 89.000311 -114.132437 
L 89.210942 -113.71699 
L 89.437342 -113.301543 
L 89.689203 -112.886096 
L 89.97578 -112.470649 
L 90.307533 -112.055202 
L 90.697053 -111.639756 
L 91.149344 -111.224309 
L 91.648976 -110.808862 
L 92.163714 -110.393415 
L 92.664913 -109.977968 
L 93.146417 -109.562521 
L 93.630248 -109.147074 
L 94.157486 -108.731628 
L 94.76709 -108.316181 
L 95.474682 -107.900734 
L 96.265461 -107.485287 
L 97.102895 -107.06984 
L 97.947608 -106.654393 
L 98.7799 -106.238946 
L 99.610378 -105.823499 
L 100.465006 -105.408053 
L 101.357969 -104.992606 
L 102.280308 -104.577159 
L 103.210797 -104.161712 
L 104.133609 -103.746265 
L 105.047689 -103.330818 
L 105.961181 -102.915371 
L 106.875279 -102.499925 
L 107.772272 -102.084478 
L 108.619341 -101.669031 
L 109.386657 -101.253584 
L 110.066095 -100.838137 
L 110.671947 -100.42269 
L 111.220542 -100.007243 
L 111.711079 -99.591797 
L 112.125207 -99.17635 
L 112.434154 -98.760903 
L 112.602131 -98.345456 
L 112.599902 -97.930009 
L 112.433551 -97.514562 
L 112.154442 -97.099115 
L 111.82262 -96.683669 
L 111.456057 -96.268222 
L 111.022903 -95.852775 
L 110.481266 -95.437328 
L 109.817418 -95.021881 
L 109.048191 -94.606434 
L 108.200509 -94.190987 
L 107.297353 -93.775541 
L 106.35958 -93.360094 
L 105.408697 -92.944647 
L 104.457656 -92.5292 
L 103.502538 -92.113753 
L 102.534447 -91.698306 
L 101.562342 -91.282859 
L 100.618522 -90.867413 
L 99.739086 -90.451966 
L 98.94223 -90.036519 
L 98.225943 -89.621072 
L 97.576549 -89.205625 
L 96.968072 -88.790178 
L 96.359682 -88.374731 
L 95.714102 -87.959284 
L 95.029135 -87.543838 
L 94.34499 -87.128391 
L 93.713882 -86.712944 
L 93.164314 -86.297497 
L 92.693378 -85.88205 
L 92.280145 -85.466603 
L 91.896127 -85.051156 
L 91.509456 -84.63571 
L 91.093391 -84.220263 
L 90.639727 -83.804816 
L 90.165565 -83.389369 
L 89.704671 -82.973922 
L 89.289626 -82.558475 
L 88.93893 -82.143028 
L 88.653727 -81.727582 
L 88.420326 -81.312135 
L 88.217454 -80.896688 
L 88.024208 -80.481241 
L 87.818459 -80.065794 
L 87.56872 -79.650347 
L 87.240635 -79.2349 
L 86.82605 -78.819454 
L 86.367758 -78.404007 
z
" style="stroke: #bb5566; stroke-width: 1.05"/>
    </defs>
    <g clip-path="url(#p51255a6105)">
     <use xlink:href="#mb1460d61f6" x="0" y="283.464567" style="fill: #e8bcc4; stroke: #bb5566; stroke-width: 1.05"/>
    </g>
   </g>
   <g id="FillBetweenPolyCollection_2">
    <defs>
     <path id="m2066efd9cd" d="M 156.323287 -81.372123 
L 154.32053 -81.372123 
L 153.867491 -81.760444 
L 153.40181 -82.148765 
L 152.959645 -82.537086 
L 152.551619 -82.925407 
L 152.168107 -83.313728 
L 151.791247 -83.70205 
L 151.40724 -84.090371 
L 151.01258 -84.478692 
L 150.607737 -84.867013 
L 150.185101 -85.255334 
L 149.72756 -85.643655 
L 149.219639 -86.031976 
L 148.656965 -86.420297 
L 148.046552 -86.808619 
L 147.402624 -87.19694 
L 146.740598 -87.585261 
L 146.068783 -87.973582 
L 145.38394 -88.361903 
L 144.677138 -88.750224 
L 143.943803 -89.138545 
L 143.186341 -89.526866 
L 142.40857 -89.915188 
L 141.60973 -90.303509 
L 140.781687 -90.69183 
L 139.91016 -91.080151 
L 138.984375 -91.468472 
L 138.013212 -91.856793 
L 137.03237 -92.245114 
L 136.091741 -92.633435 
L 135.231952 -93.021756 
L 134.464678 -93.410078 
L 133.764589 -93.798399 
L 133.081383 -94.18672 
L 132.373982 -94.575041 
L 131.64374 -94.963362 
L 130.933666 -95.351683 
L 130.291673 -95.740004 
L 129.734536 -96.128325 
L 129.248712 -96.516647 
L 128.822908 -96.904968 
L 128.470908 -97.293289 
L 128.216806 -97.68161 
L 128.066519 -98.069931 
L 128.009264 -98.458252 
L 128.045515 -98.846573 
L 128.193749 -99.234894 
L 128.460387 -99.623216 
L 128.81472 -100.011537 
L 129.203163 -100.399858 
L 129.585963 -100.788179 
L 129.960449 -101.1765 
L 130.355985 -101.564821 
L 130.810067 -101.953142 
L 131.346356 -102.341463 
L 131.969289 -102.729785 
L 132.670682 -103.118106 
L 133.435741 -103.506427 
L 134.247431 -103.894748 
L 135.093341 -104.283069 
L 135.968204 -104.67139 
L 136.864867 -105.059711 
L 137.763675 -105.448032 
L 138.635574 -105.836354 
L 139.45792 -106.224675 
L 140.228794 -106.612996 
L 140.968267 -107.001317 
L 141.703971 -107.389638 
L 142.449875 -107.777959 
L 143.196151 -108.16628 
L 143.918977 -108.554601 
L 144.597873 -108.942923 
L 145.222848 -109.331244 
L 145.78925 -109.719565 
L 146.292014 -110.107886 
L 146.728009 -110.496207 
L 147.102622 -110.884528 
L 147.431824 -111.272849 
L 147.738459 -111.66117 
L 148.046689 -112.049492 
L 148.37567 -112.437813 
L 148.733948 -112.826134 
L 149.118727 -113.214455 
L 149.519135 -113.602776 
L 149.918745 -113.991097 
L 150.297507 -114.379418 
L 150.635416 -114.767739 
L 150.917574 -115.15606 
L 151.140914 -115.544382 
L 151.320161 -115.932703 
L 151.48374 -116.321024 
L 151.657346 -116.709345 
L 151.850733 -117.097666 
L 152.062002 -117.485987 
L 152.292936 -117.874308 
L 152.559323 -118.262629 
L 152.887461 -118.650951 
L 153.295766 -119.039272 
L 153.770219 -119.427593 
L 154.255601 -119.815914 
L 156.388215 -119.815914 
L 156.388215 -119.815914 
L 156.873598 -119.427593 
L 157.348051 -119.039272 
L 157.756355 -118.650951 
L 158.084494 -118.262629 
L 158.350881 -117.874308 
L 158.581815 -117.485987 
L 158.793083 -117.097666 
L 158.98647 -116.709345 
L 159.160077 -116.321024 
L 159.323656 -115.932703 
L 159.502903 -115.544382 
L 159.726242 -115.15606 
L 160.0084 -114.767739 
L 160.346309 -114.379418 
L 160.725072 -113.991097 
L 161.124681 -113.602776 
L 161.525089 -113.214455 
L 161.909869 -112.826134 
L 162.268146 -112.437813 
L 162.597127 -112.049492 
L 162.905357 -111.66117 
L 163.211993 -111.272849 
L 163.541195 -110.884528 
L 163.915807 -110.496207 
L 164.351802 -110.107886 
L 164.854566 -109.719565 
L 165.420969 -109.331244 
L 166.045944 -108.942923 
L 166.724839 -108.554601 
L 167.447665 -108.16628 
L 168.193941 -107.777959 
L 168.939845 -107.389638 
L 169.67555 -107.001317 
L 170.415022 -106.612996 
L 171.185897 -106.224675 
L 172.008243 -105.836354 
L 172.880141 -105.448032 
L 173.77895 -105.059711 
L 174.675613 -104.67139 
L 175.550475 -104.283069 
L 176.396385 -103.894748 
L 177.208076 -103.506427 
L 177.973134 -103.118106 
L 178.674528 -102.729785 
L 179.29746 -102.341463 
L 179.833749 -101.953142 
L 180.287831 -101.564821 
L 180.683368 -101.1765 
L 181.057854 -100.788179 
L 181.440653 -100.399858 
L 181.829097 -100.011537 
L 182.183429 -99.623216 
L 182.450068 -99.234894 
L 182.598301 -98.846573 
L 182.634553 -98.458252 
L 182.577297 -98.069931 
L 182.42701 -97.68161 
L 182.172908 -97.293289 
L 181.820909 -96.904968 
L 181.395104 -96.516647 
L 180.909281 -96.128325 
L 180.352144 -95.740004 
L 179.71015 -95.351683 
L 179.000077 -94.963362 
L 178.269835 -94.575041 
L 177.562433 -94.18672 
L 176.879227 -93.798399 
L 176.179138 -93.410078 
L 175.411865 -93.021756 
L 174.552076 -92.633435 
L 173.611447 -92.245114 
L 172.630605 -91.856793 
L 171.659441 -91.468472 
L 170.733657 -91.080151 
L 169.86213 -90.69183 
L 169.034086 -90.303509 
L 168.235247 -89.915188 
L 167.457475 -89.526866 
L 166.700014 -89.138545 
L 165.966679 -88.750224 
L 165.259877 -88.361903 
L 164.575033 -87.973582 
L 163.903219 -87.585261 
L 163.241193 -87.19694 
L 162.597264 -86.808619 
L 161.986851 -86.420297 
L 161.424178 -86.031976 
L 160.916256 -85.643655 
L 160.458715 -85.255334 
L 160.036079 -84.867013 
L 159.631236 -84.478692 
L 159.236577 -84.090371 
L 158.852569 -83.70205 
L 158.47571 -83.313728 
L 158.092198 -82.925407 
L 157.684172 -82.537086 
L 157.242006 -82.148765 
L 156.776326 -81.760444 
L 156.323287 -81.372123 
z
" style="stroke: #bb5566; stroke-width: 1.05"/>
    </defs>
    <g clip-path="url(#p51255a6105)">
     <use xlink:href="#m2066efd9cd" x="0" y="283.464567" style="fill: #e8bcc4; stroke: #bb5566; stroke-width: 1.05"/>
    </g>
   </g>
   <g id="FillBetweenPolyCollection_3">
    <defs>
     <path id="m486c62e220" d="M 226.639409 -85.400227 
L 224.069253 -85.400227 
L 223.518218 -85.705031 
L 222.97093 -86.009835 
L 222.467532 -86.314639 
L 222.006999 -86.619443 
L 221.557261 -86.924247 
L 221.076707 -87.229051 
L 220.536121 -87.533855 
L 219.93155 -87.838658 
L 219.280064 -88.143462 
L 218.602985 -88.448266 
L 217.912068 -88.75307 
L 217.20668 -89.057874 
L 216.477155 -89.362678 
L 215.710337 -89.667482 
L 214.898293 -89.972286 
L 214.045535 -90.27709 
L 213.167129 -90.581893 
L 212.281286 -90.886697 
L 211.405177 -91.191501 
L 210.551592 -91.496305 
L 209.721268 -91.801109 
L 208.899915 -92.105913 
L 208.070712 -92.410717 
L 207.232703 -92.715521 
L 206.403968 -93.020324 
L 205.604668 -93.325128 
L 204.839046 -93.629932 
L 204.097485 -93.934736 
L 203.37615 -94.23954 
L 202.690109 -94.544344 
L 202.061224 -94.849148 
L 201.489357 -95.153952 
L 200.938884 -95.458756 
L 200.364084 -95.763559 
L 199.754395 -96.068363 
L 199.152433 -96.373167 
L 198.628911 -96.677971 
L 198.247633 -96.982775 
L 198.04876 -97.287579 
L 198.041686 -97.592383 
L 198.200301 -97.897187 
L 198.47491 -98.20199 
L 198.818682 -98.506794 
L 199.201533 -98.811598 
L 199.60332 -99.116402 
L 200.008184 -99.421206 
L 200.411791 -99.72601 
L 200.826072 -100.030814 
L 201.268775 -100.335618 
L 201.751152 -100.640421 
L 202.281137 -100.945225 
L 202.872264 -101.250029 
L 203.537296 -101.554833 
L 204.272036 -101.859637 
L 205.051408 -102.164441 
L 205.838654 -102.469245 
L 206.593879 -102.774049 
L 207.283506 -103.078853 
L 207.896862 -103.383656 
L 208.455673 -103.68846 
L 208.999833 -103.993264 
L 209.560965 -104.298068 
L 210.149701 -104.602872 
L 210.761701 -104.907676 
L 211.386628 -105.21248 
L 212.011513 -105.517284 
L 212.625643 -105.822087 
L 213.230501 -106.126891 
L 213.841902 -106.431695 
L 214.473887 -106.736499 
L 215.119754 -107.041303 
L 215.754688 -107.346107 
L 216.356893 -107.650911 
L 216.922557 -107.955715 
L 217.463249 -108.260519 
L 217.992421 -108.565322 
L 218.510477 -108.870126 
L 218.999328 -109.17493 
L 219.434364 -109.479734 
L 219.805447 -109.784538 
L 220.127543 -110.089342 
L 220.430993 -110.394146 
L 220.739741 -110.69895 
L 221.056015 -111.003753 
L 221.363185 -111.308557 
L 221.641602 -111.613361 
L 221.882975 -111.918165 
L 222.093271 -112.222969 
L 222.284472 -112.527773 
L 222.464951 -112.832577 
L 222.638821 -113.137381 
L 222.812424 -113.442184 
L 222.996448 -113.746988 
L 223.200358 -114.051792 
L 223.428726 -114.356596 
L 223.684629 -114.6614 
L 223.971222 -114.966204 
L 224.28352 -115.271008 
L 224.598683 -115.575812 
L 226.109979 -115.575812 
L 226.109979 -115.575812 
L 226.425141 -115.271008 
L 226.737439 -114.966204 
L 227.024032 -114.6614 
L 227.279936 -114.356596 
L 227.508303 -114.051792 
L 227.712214 -113.746988 
L 227.896238 -113.442184 
L 228.06984 -113.137381 
L 228.24371 -112.832577 
L 228.42419 -112.527773 
L 228.61539 -112.222969 
L 228.825687 -111.918165 
L 229.067059 -111.613361 
L 229.345476 -111.308557 
L 229.652647 -111.003753 
L 229.96892 -110.69895 
L 230.277668 -110.394146 
L 230.581118 -110.089342 
L 230.903214 -109.784538 
L 231.274297 -109.479734 
L 231.709333 -109.17493 
L 232.198184 -108.870126 
L 232.716241 -108.565322 
L 233.245412 -108.260519 
L 233.786104 -107.955715 
L 234.351769 -107.650911 
L 234.953974 -107.346107 
L 235.588907 -107.041303 
L 236.234775 -106.736499 
L 236.86676 -106.431695 
L 237.478161 -106.126891 
L 238.083018 -105.822087 
L 238.697149 -105.517284 
L 239.322033 -105.21248 
L 239.946961 -104.907676 
L 240.55896 -104.602872 
L 241.147696 -104.298068 
L 241.708828 -103.993264 
L 242.252988 -103.68846 
L 242.811799 -103.383656 
L 243.425155 -103.078853 
L 244.114783 -102.774049 
L 244.870007 -102.469245 
L 245.657254 -102.164441 
L 246.436626 -101.859637 
L 247.171365 -101.554833 
L 247.836397 -101.250029 
L 248.427525 -100.945225 
L 248.957509 -100.640421 
L 249.439886 -100.335618 
L 249.882589 -100.030814 
L 250.29687 -99.72601 
L 250.700478 -99.421206 
L 251.105342 -99.116402 
L 251.507129 -98.811598 
L 251.889979 -98.506794 
L 252.233752 -98.20199 
L 252.50836 -97.897187 
L 252.666975 -97.592383 
L 252.659901 -97.287579 
L 252.461028 -96.982775 
L 252.079751 -96.677971 
L 251.556228 -96.373167 
L 250.954266 -96.068363 
L 250.344577 -95.763559 
L 249.769777 -95.458756 
L 249.219305 -95.153952 
L 248.647438 -94.849148 
L 248.018552 -94.544344 
L 247.332512 -94.23954 
L 246.611177 -93.934736 
L 245.869616 -93.629932 
L 245.103993 -93.325128 
L 244.304693 -93.020324 
L 243.475959 -92.715521 
L 242.63795 -92.410717 
L 241.808747 -92.105913 
L 240.987393 -91.801109 
L 240.157069 -91.496305 
L 239.303485 -91.191501 
L 238.427376 -90.886697 
L 237.541532 -90.581893 
L 236.663127 -90.27709 
L 235.810368 -89.972286 
L 234.998325 -89.667482 
L 234.231506 -89.362678 
L 233.501982 -89.057874 
L 232.796594 -88.75307 
L 232.105676 -88.448266 
L 231.428598 -88.143462 
L 230.777111 -87.838658 
L 230.17254 -87.533855 
L 229.631955 -87.229051 
L 229.1514 -86.924247 
L 228.701662 -86.619443 
L 228.241129 -86.314639 
L 227.737731 -86.009835 
L 227.190444 -85.705031 
L 226.639409 -85.400227 
z
" style="stroke: #bb5566; stroke-width: 1.05"/>
    </defs>
    <g clip-path="url(#p51255a6105)">
     <use xlink:href="#m486c62e220" x="0" y="283.464567" style="fill: #e8bcc4; stroke: #bb5566; stroke-width: 1.05"/>
    </g>
   </g>
   <g id="FillBetweenPolyCollection_4">
    <defs>
     <path id="mab95f741dc" d="M 298.407955 -73.739869 
L 292.365551 -73.739869 
L 290.917121 -74.044672 
L 289.376649 -74.349476 
L 287.837232 -74.65428 
L 286.321456 -74.959084 
L 284.817558 -75.263887 
L 283.324843 -75.568691 
L 281.868389 -75.873495 
L 280.474945 -76.178299 
L 279.13437 -76.483102 
L 277.791747 -76.787906 
L 276.390796 -77.09271 
L 274.928806 -77.397513 
L 273.464879 -77.702317 
L 272.079938 -78.007121 
L 270.840752 -78.311925 
L 269.79766 -78.616728 
L 268.992977 -78.921532 
L 268.452981 -79.226336 
L 268.167044 -79.53114 
L 268.074108 -79.835943 
L 268.077598 -80.140747 
L 268.095051 -80.445551 
L 268.113129 -80.750355 
L 268.198352 -81.055158 
L 268.442273 -81.359962 
L 268.87804 -81.664766 
L 269.44245 -81.96957 
L 270.022887 -82.274373 
L 270.541033 -82.579177 
L 270.990787 -82.883981 
L 271.40667 -83.188785 
L 271.804571 -83.493588 
L 272.149614 -83.798392 
L 272.383514 -84.103196 
L 272.49356 -84.408 
L 272.552254 -84.712803 
L 272.675194 -85.017607 
L 272.936369 -85.322411 
L 273.328464 -85.627215 
L 273.799417 -85.932018 
L 274.317486 -86.236822 
L 274.900846 -86.541626 
L 275.589518 -86.84643 
L 276.396297 -87.151233 
L 277.295321 -87.456037 
L 278.256444 -87.760841 
L 279.271929 -88.065645 
L 280.338368 -88.370448 
L 281.421529 -88.675252 
L 282.450026 -88.980056 
L 283.346529 -89.28486 
L 284.072064 -89.589663 
L 284.652757 -89.894467 
L 285.166925 -90.199271 
L 285.696804 -90.504075 
L 286.282232 -90.808878 
L 286.909954 -91.113682 
L 287.533487 -91.418486 
L 288.100942 -91.723289 
L 288.581146 -92.028093 
L 288.980586 -92.332897 
L 289.337746 -92.637701 
L 289.696816 -92.942504 
L 290.081743 -93.247308 
L 290.485957 -93.552112 
L 290.877879 -93.856916 
L 291.217009 -94.161719 
L 291.473759 -94.466523 
L 291.643893 -94.771327 
L 291.750875 -95.076131 
L 291.835194 -95.380934 
L 291.934962 -95.685738 
L 292.067925 -95.990542 
L 292.226684 -96.295346 
L 292.389169 -96.600149 
L 292.534153 -96.904953 
L 292.652386 -97.209757 
L 292.751895 -97.514561 
L 292.854938 -97.819364 
L 292.981885 -98.124168 
L 293.131284 -98.428972 
L 293.278823 -98.733776 
L 293.400427 -99.038579 
L 293.493878 -99.343383 
L 293.575109 -99.648187 
L 293.658151 -99.952991 
L 293.744767 -100.257794 
L 293.831833 -100.562598 
L 293.921399 -100.867402 
L 294.019562 -101.172206 
L 294.127373 -101.477009 
L 294.235369 -101.781813 
L 294.327822 -102.086617 
L 294.394451 -102.391421 
L 294.44189 -102.696224 
L 294.495354 -103.001028 
L 294.585478 -103.305832 
L 294.72686 -103.610636 
L 294.904654 -103.915439 
L 295.868853 -103.915439 
L 295.868853 -103.915439 
L 296.046646 -103.610636 
L 296.188028 -103.305832 
L 296.278153 -103.001028 
L 296.331617 -102.696224 
L 296.379056 -102.391421 
L 296.445684 -102.086617 
L 296.538137 -101.781813 
L 296.646133 -101.477009 
L 296.753944 -101.172206 
L 296.852107 -100.867402 
L 296.941674 -100.562598 
L 297.028739 -100.257794 
L 297.115355 -99.952991 
L 297.198397 -99.648187 
L 297.279628 -99.343383 
L 297.373079 -99.038579 
L 297.494683 -98.733776 
L 297.642222 -98.428972 
L 297.791622 -98.124168 
L 297.918569 -97.819364 
L 298.021611 -97.514561 
L 298.12112 -97.209757 
L 298.239354 -96.904953 
L 298.384337 -96.600149 
L 298.546822 -96.295346 
L 298.705582 -95.990542 
L 298.838544 -95.685738 
L 298.938312 -95.380934 
L 299.022631 -95.076131 
L 299.129613 -94.771327 
L 299.299747 -94.466523 
L 299.556497 -94.161719 
L 299.895627 -93.856916 
L 300.287549 -93.552112 
L 300.691763 -93.247308 
L 301.07669 -92.942504 
L 301.43576 -92.637701 
L 301.79292 -92.332897 
L 302.19236 -92.028093 
L 302.672564 -91.723289 
L 303.24002 -91.418486 
L 303.863553 -91.113682 
L 304.491274 -90.808878 
L 305.076702 -90.504075 
L 305.606581 -90.199271 
L 306.120749 -89.894467 
L 306.701443 -89.589663 
L 307.426977 -89.28486 
L 308.32348 -88.980056 
L 309.351978 -88.675252 
L 310.435139 -88.370448 
L 311.501577 -88.065645 
L 312.517062 -87.760841 
L 313.478186 -87.456037 
L 314.377209 -87.151233 
L 315.183988 -86.84643 
L 315.87266 -86.541626 
L 316.45602 -86.236822 
L 316.974089 -85.932018 
L 317.445042 -85.627215 
L 317.837137 -85.322411 
L 318.098312 -85.017607 
L 318.221252 -84.712803 
L 318.279946 -84.408 
L 318.389992 -84.103196 
L 318.623892 -83.798392 
L 318.968935 -83.493588 
L 319.366836 -83.188785 
L 319.782719 -82.883981 
L 320.232473 -82.579177 
L 320.750619 -82.274373 
L 321.331056 -81.96957 
L 321.895466 -81.664766 
L 322.331233 -81.359962 
L 322.575155 -81.055158 
L 322.660378 -80.750355 
L 322.678455 -80.445551 
L 322.695908 -80.140747 
L 322.699398 -79.835943 
L 322.606463 -79.53114 
L 322.320525 -79.226336 
L 321.780529 -78.921532 
L 320.975847 -78.616728 
L 319.932754 -78.311925 
L 318.693568 -78.007121 
L 317.308628 -77.702317 
L 315.844701 -77.397513 
L 314.382711 -77.09271 
L 312.981759 -76.787906 
L 311.639136 -76.483102 
L 310.298561 -76.178299 
L 308.905117 -75.873495 
L 307.448663 -75.568691 
L 305.955948 -75.263887 
L 304.45205 -74.959084 
L 302.936275 -74.65428 
L 301.396858 -74.349476 
L 299.856385 -74.044672 
L 298.407955 -73.739869 
z
" style="stroke: #bb5566; stroke-width: 1.05"/>
    </defs>
    <g clip-path="url(#p51255a6105)">
     <use xlink:href="#mab95f741dc" x="0" y="283.464567" style="fill: #e8bcc4; stroke: #bb5566; stroke-width: 1.05"/>
    </g>
   </g>
   <g id="FillBetweenPolyCollection_5">
    <defs>
     <path id="mf59661f5ef" d="M 367.986112 -75.294577 
L 362.852239 -75.294577 
L 361.787376 -75.667908 
L 360.663954 -76.041239 
L 359.560984 -76.414571 
L 358.520236 -76.787902 
L 357.545989 -77.161233 
L 356.621314 -77.534564 
L 355.727716 -77.907896 
L 354.858219 -78.281227 
L 354.0192 -78.654558 
L 353.2233 -79.027889 
L 352.481343 -79.401221 
L 351.798932 -79.774552 
L 351.175917 -80.147883 
L 350.605775 -80.521214 
L 350.077414 -80.894546 
L 349.582104 -81.267877 
L 349.119805 -81.641208 
L 348.695752 -82.014539 
L 348.308259 -82.387871 
L 347.940638 -82.761202 
L 347.567679 -83.134533 
L 347.171993 -83.507864 
L 346.753924 -83.881196 
L 346.322983 -84.254527 
L 345.877202 -84.627858 
L 345.392796 -85.001189 
L 344.839734 -85.374521 
L 344.211169 -85.747852 
L 343.537267 -86.121183 
L 342.869972 -86.494514 
L 342.255637 -86.867846 
L 341.720689 -87.241177 
L 341.275531 -87.614508 
L 340.922346 -87.987839 
L 340.655797 -88.361171 
L 340.461193 -88.734502 
L 340.318401 -89.107833 
L 340.209152 -89.481164 
L 340.118812 -89.854496 
L 340.030786 -90.227827 
L 339.921545 -90.601158 
L 339.764235 -90.974489 
L 339.54012 -91.347821 
L 339.250475 -91.721152 
L 338.921915 -92.094483 
L 338.601605 -92.467814 
L 338.341661 -92.841146 
L 338.17716 -93.214477 
L 338.109261 -93.587808 
L 338.106531 -93.961139 
L 338.126882 -94.334471 
L 338.145204 -94.707802 
L 338.164644 -95.081133 
L 338.204145 -95.454464 
L 338.27858 -95.827796 
L 338.393432 -96.201127 
L 338.555811 -96.574458 
L 338.782672 -96.947789 
L 339.092127 -97.321121 
L 339.487233 -97.694452 
L 339.951579 -98.067783 
L 340.46023 -98.441114 
L 340.992049 -98.814446 
L 341.533376 -99.187777 
L 342.078096 -99.561108 
L 342.631259 -99.934439 
L 343.211961 -100.307771 
L 343.84589 -100.681102 
L 344.54819 -101.054433 
L 345.309934 -101.427764 
L 346.100326 -101.801096 
L 346.883297 -102.174427 
L 347.636211 -102.547758 
L 348.359153 -102.921089 
L 349.071665 -103.294421 
L 349.801216 -103.667752 
L 350.57002 -104.041083 
L 351.385471 -104.414414 
L 352.237135 -104.787746 
L 353.100932 -105.161077 
L 353.948055 -105.534408 
L 354.753548 -105.907739 
L 355.500639 -106.281071 
L 356.181658 -106.654402 
L 356.799271 -107.027733 
L 357.368387 -107.401064 
L 357.913668 -107.774396 
L 358.459273 -108.147727 
L 359.016419 -108.521058 
L 359.578778 -108.894389 
L 360.128898 -109.267721 
L 360.649353 -109.641052 
L 361.131056 -110.014383 
L 361.577105 -110.387714 
L 362.004095 -110.761046 
L 362.439527 -111.134377 
L 362.910325 -111.507708 
L 363.423371 -111.881039 
L 363.951519 -112.254371 
L 366.886832 -112.254371 
L 366.886832 -112.254371 
L 367.41498 -111.881039 
L 367.928026 -111.507708 
L 368.398824 -111.134377 
L 368.834256 -110.761046 
L 369.261246 -110.387714 
L 369.707295 -110.014383 
L 370.188998 -109.641052 
L 370.709453 -109.267721 
L 371.259573 -108.894389 
L 371.821932 -108.521058 
L 372.379078 -108.147727 
L 372.924683 -107.774396 
L 373.469964 -107.401064 
L 374.03908 -107.027733 
L 374.656693 -106.654402 
L 375.337712 -106.281071 
L 376.084803 -105.907739 
L 376.890296 -105.534408 
L 377.737419 -105.161077 
L 378.601216 -104.787746 
L 379.45288 -104.414414 
L 380.268332 -104.041083 
L 381.037135 -103.667752 
L 381.766686 -103.294421 
L 382.479199 -102.921089 
L 383.20214 -102.547758 
L 383.955054 -102.174427 
L 384.738025 -101.801096 
L 385.528417 -101.427764 
L 386.290161 -101.054433 
L 386.992461 -100.681102 
L 387.62639 -100.307771 
L 388.207092 -99.934439 
L 388.760255 -99.561108 
L 389.304975 -99.187777 
L 389.846303 -98.814446 
L 390.378121 -98.441114 
L 390.886772 -98.067783 
L 391.351118 -97.694452 
L 391.746224 -97.321121 
L 392.055679 -96.947789 
L 392.28254 -96.574458 
L 392.444919 -96.201127 
L 392.559771 -95.827796 
L 392.634206 -95.454464 
L 392.673707 -95.081133 
L 392.693147 -94.707802 
L 392.711469 -94.334471 
L 392.73182 -93.961139 
L 392.72909 -93.587808 
L 392.661191 -93.214477 
L 392.49669 -92.841146 
L 392.236746 -92.467814 
L 391.916436 -92.094483 
L 391.587876 -91.721152 
L 391.298231 -91.347821 
L 391.074116 -90.974489 
L 390.916806 -90.601158 
L 390.807566 -90.227827 
L 390.719539 -89.854496 
L 390.629199 -89.481164 
L 390.51995 -89.107833 
L 390.377158 -88.734502 
L 390.182554 -88.361171 
L 389.916005 -87.987839 
L 389.56282 -87.614508 
L 389.117662 -87.241177 
L 388.582714 -86.867846 
L 387.968379 -86.494514 
L 387.301084 -86.121183 
L 386.627182 -85.747852 
L 385.998617 -85.374521 
L 385.445555 -85.001189 
L 384.96115 -84.627858 
L 384.515369 -84.254527 
L 384.084427 -83.881196 
L 383.666358 -83.507864 
L 383.270672 -83.134533 
L 382.897713 -82.761202 
L 382.530093 -82.387871 
L 382.142599 -82.014539 
L 381.718546 -81.641208 
L 381.256247 -81.267877 
L 380.760937 -80.894546 
L 380.232576 -80.521214 
L 379.662434 -80.147883 
L 379.039419 -79.774552 
L 378.357008 -79.401221 
L 377.615052 -79.027889 
L 376.819151 -78.654558 
L 375.980133 -78.281227 
L 375.110635 -77.907896 
L 374.217037 -77.534564 
L 373.292362 -77.161233 
L 372.318115 -76.787902 
L 371.277367 -76.414571 
L 370.174397 -76.041239 
L 369.050975 -75.667908 
L 367.986112 -75.294577 
z
" style="stroke: #bb5566; stroke-width: 1.05"/>
    </defs>
    <g clip-path="url(#p51255a6105)">
     <use xlink:href="#mf59661f5ef" x="0" y="283.464567" style="fill: #e8bcc4; stroke: #bb5566; stroke-width: 1.05"/>
    </g>
   </g>
   <g id="FillBetweenPolyCollection_6">
    <defs>
     <path id="meaf4d1b940" d="M 85.99306 -172.322817 
L 84.585912 -172.322817 
L 84.293618 -172.918148 
L 84.025087 -173.513479 
L 83.795356 -174.10881 
L 83.592917 -174.704141 
L 83.399431 -175.299472 
L 83.20139 -175.894802 
L 82.989639 -176.490133 
L 82.756449 -177.085464 
L 82.493587 -177.680795 
L 82.193048 -178.276126 
L 81.852462 -178.871457 
L 81.478517 -179.466788 
L 81.081494 -180.062119 
L 80.668211 -180.65745 
L 80.243606 -181.252781 
L 79.81668 -181.848112 
L 79.397788 -182.443443 
L 78.983713 -183.038773 
L 78.544632 -183.634104 
L 78.034173 -184.229435 
L 77.42554 -184.824766 
L 76.74323 -185.420097 
L 76.052432 -186.015428 
L 75.40911 -186.610759 
L 74.818878 -187.20609 
L 74.241613 -187.801421 
L 73.628698 -188.396752 
L 72.956457 -188.992083 
L 72.236835 -189.587413 
L 71.509269 -190.182744 
L 70.823298 -190.778075 
L 70.215848 -191.373406 
L 69.689327 -191.968737 
L 69.205389 -192.564068 
L 68.704263 -193.159399 
L 68.142158 -193.75473 
L 67.524668 -194.350061 
L 66.910592 -194.945392 
L 66.380115 -195.540723 
L 65.992759 -196.136054 
L 65.765798 -196.731384 
L 65.680408 -197.326715 
L 65.703343 -197.922046 
L 65.8058 -198.517377 
L 65.966137 -199.112708 
L 66.163375 -199.708039 
L 66.381987 -200.30337 
L 66.629734 -200.898701 
L 66.944185 -201.494032 
L 67.370979 -202.089363 
L 67.927968 -202.684694 
L 68.586727 -203.280025 
L 69.290491 -203.875355 
L 69.994351 -204.470686 
L 70.688814 -205.066017 
L 71.385665 -205.661348 
L 72.091773 -206.256679 
L 72.806425 -206.85201 
L 73.534995 -207.447341 
L 74.287119 -208.042672 
L 75.058097 -208.638003 
L 75.821171 -209.233334 
L 76.542236 -209.828665 
L 77.200362 -210.423995 
L 77.796383 -211.019326 
L 78.346923 -211.614657 
L 78.870866 -212.209988 
L 79.378666 -212.805319 
L 79.871162 -213.40065 
L 80.342769 -213.995981 
L 80.78122 -214.591312 
L 81.167846 -215.186643 
L 81.486023 -215.781974 
L 81.733935 -216.377305 
L 81.930012 -216.972636 
L 82.103852 -217.567966 
L 82.277147 -218.163297 
L 82.450703 -218.758628 
L 82.610649 -219.353959 
L 82.74623 -219.94929 
L 82.859228 -220.544621 
L 82.958564 -221.139952 
L 83.051337 -221.735283 
L 83.139246 -222.330614 
L 83.21846 -222.925945 
L 83.281065 -223.521276 
L 83.320703 -224.116607 
L 83.340324 -224.711937 
L 83.353398 -225.307268 
L 83.375741 -225.902599 
L 83.41639 -226.49793 
L 83.47605 -227.093261 
L 83.551768 -227.688592 
L 83.641827 -228.283923 
L 83.749332 -228.879254 
L 83.885535 -229.474585 
L 84.068019 -230.069916 
L 84.30631 -230.665247 
L 84.582339 -231.260578 
L 85.996633 -231.260578 
L 85.996633 -231.260578 
L 86.272662 -230.665247 
L 86.510953 -230.069916 
L 86.693437 -229.474585 
L 86.829639 -228.879254 
L 86.937144 -228.283923 
L 87.027204 -227.688592 
L 87.102922 -227.093261 
L 87.162582 -226.49793 
L 87.203231 -225.902599 
L 87.225573 -225.307268 
L 87.238648 -224.711937 
L 87.258268 -224.116607 
L 87.297907 -223.521276 
L 87.360512 -222.925945 
L 87.439726 -222.330614 
L 87.527635 -221.735283 
L 87.620407 -221.139952 
L 87.719743 -220.544621 
L 87.832742 -219.94929 
L 87.968323 -219.353959 
L 88.128268 -218.758628 
L 88.301825 -218.163297 
L 88.47512 -217.567966 
L 88.64896 -216.972636 
L 88.845036 -216.377305 
L 89.092949 -215.781974 
L 89.411126 -215.186643 
L 89.797752 -214.591312 
L 90.236203 -213.995981 
L 90.707809 -213.40065 
L 91.200306 -212.805319 
L 91.708105 -212.209988 
L 92.232048 -211.614657 
L 92.782589 -211.019326 
L 93.37861 -210.423995 
L 94.036736 -209.828665 
L 94.7578 -209.233334 
L 95.520874 -208.638003 
L 96.291853 -208.042672 
L 97.043977 -207.447341 
L 97.772546 -206.85201 
L 98.487199 -206.256679 
L 99.193306 -205.661348 
L 99.890158 -205.066017 
L 100.584621 -204.470686 
L 101.28848 -203.875355 
L 101.992244 -203.280025 
L 102.651004 -202.684694 
L 103.207993 -202.089363 
L 103.634787 -201.494032 
L 103.949238 -200.898701 
L 104.196985 -200.30337 
L 104.415597 -199.708039 
L 104.612835 -199.112708 
L 104.773172 -198.517377 
L 104.875628 -197.922046 
L 104.898564 -197.326715 
L 104.813173 -196.731384 
L 104.586213 -196.136054 
L 104.198857 -195.540723 
L 103.668379 -194.945392 
L 103.054304 -194.350061 
L 102.436814 -193.75473 
L 101.874709 -193.159399 
L 101.373582 -192.564068 
L 100.889645 -191.968737 
L 100.363124 -191.373406 
L 99.755674 -190.778075 
L 99.069703 -190.182744 
L 98.342137 -189.587413 
L 97.622514 -188.992083 
L 96.950274 -188.396752 
L 96.337358 -187.801421 
L 95.760094 -187.20609 
L 95.169861 -186.610759 
L 94.52654 -186.015428 
L 93.835742 -185.420097 
L 93.153432 -184.824766 
L 92.544799 -184.229435 
L 92.03434 -183.634104 
L 91.595258 -183.038773 
L 91.181184 -182.443443 
L 90.762291 -181.848112 
L 90.335366 -181.252781 
L 89.910761 -180.65745 
L 89.497477 -180.062119 
L 89.100455 -179.466788 
L 88.726509 -178.871457 
L 88.385923 -178.276126 
L 88.085385 -177.680795 
L 87.822523 -177.085464 
L 87.589333 -176.490133 
L 87.377582 -175.894802 
L 87.17954 -175.299472 
L 86.986055 -174.704141 
L 86.783616 -174.10881 
L 86.553885 -173.513479 
L 86.285353 -172.918148 
L 85.99306 -172.322817 
z
" style="stroke: #004488; stroke-width: 1.1"/>
    </defs>
    <g clip-path="url(#p51255a6105)">
     <use xlink:href="#meaf4d1b940" x="0" y="283.464567" style="fill: #bbccee; stroke: #004488; stroke-width: 1.1"/>
    </g>
   </g>
   <g id="FillBetweenPolyCollection_7">
    <defs>
     <path id="m9d3f021fb3" d="M 156.126358 -174.372218 
L 154.517459 -174.372218 
L 154.151115 -174.931144 
L 153.793308 -175.490069 
L 153.478955 -176.048995 
L 153.210131 -176.607921 
L 152.963348 -177.166847 
L 152.707926 -177.725773 
L 152.422276 -178.284698 
L 152.099817 -178.843624 
L 151.74463 -179.40255 
L 151.363586 -179.961476 
L 150.960012 -180.520401 
L 150.530285 -181.079327 
L 150.066011 -181.638253 
L 149.563122 -182.197179 
L 149.030434 -182.756105 
L 148.486681 -183.31503 
L 147.945 -183.873956 
L 147.398251 -184.432882 
L 146.821594 -184.991808 
L 146.193583 -185.550733 
L 145.516224 -186.109659 
L 144.813946 -186.668585 
L 144.114081 -187.227511 
L 143.42879 -187.786436 
L 142.752222 -188.345362 
L 142.071637 -188.904288 
L 141.383434 -189.463214 
L 140.702413 -190.02214 
L 140.05486 -190.581065 
L 139.460609 -191.139991 
L 138.922848 -191.698917 
L 138.433668 -192.257843 
L 137.983477 -192.816768 
L 137.564938 -193.375694 
L 137.17535 -193.93462 
L 136.819103 -194.493546 
L 136.504184 -195.052471 
L 136.233178 -195.611397 
L 136.001922 -196.170323 
L 135.8165 -196.729249 
L 135.71283 -197.288175 
L 135.743819 -197.8471 
L 135.933425 -198.406026 
L 136.249977 -198.964952 
L 136.634393 -199.523878 
L 137.050999 -200.082803 
L 137.508171 -200.641729 
L 138.034461 -201.200655 
L 138.637125 -201.759581 
L 139.286237 -202.318506 
L 139.943172 -202.877432 
L 140.598138 -203.436358 
L 141.268645 -203.995284 
L 141.965935 -204.55421 
L 142.677842 -205.113135 
L 143.385968 -205.672061 
L 144.088096 -206.230987 
L 144.798102 -206.789913 
L 145.528114 -207.348838 
L 146.274432 -207.907764 
L 147.018987 -208.46669 
L 147.741302 -209.025616 
L 148.428202 -209.584542 
L 149.072278 -210.143467 
L 149.662252 -210.702393 
L 150.180118 -211.261319 
L 150.613954 -211.820245 
L 150.972687 -212.37917 
L 151.281375 -212.938096 
L 151.559254 -213.497022 
L 151.806168 -214.055948 
L 152.011602 -214.614873 
L 152.171926 -215.173799 
L 152.295621 -215.732725 
L 152.394863 -216.291651 
L 152.476535 -216.850577 
L 152.542172 -217.409502 
L 152.593202 -217.968428 
L 152.631823 -218.527354 
L 152.657526 -219.08628 
L 152.669351 -219.645205 
L 152.675149 -220.204131 
L 152.693661 -220.763057 
L 152.740215 -221.321983 
L 152.810792 -221.880908 
L 152.887255 -222.439834 
L 152.959719 -222.99876 
L 153.035694 -223.557686 
L 153.12438 -224.116612 
L 153.222298 -224.675537 
L 153.321379 -225.234463 
L 153.423058 -225.793389 
L 153.536093 -226.352315 
L 153.665612 -226.91124 
L 153.812408 -227.470166 
L 153.981688 -228.029092 
L 154.184979 -228.588018 
L 154.426943 -229.146944 
L 154.689123 -229.705869 
L 155.954694 -229.705869 
L 155.954694 -229.705869 
L 156.216873 -229.146944 
L 156.458838 -228.588018 
L 156.662128 -228.029092 
L 156.831409 -227.470166 
L 156.978205 -226.91124 
L 157.107724 -226.352315 
L 157.220758 -225.793389 
L 157.322437 -225.234463 
L 157.421518 -224.675537 
L 157.519437 -224.116612 
L 157.608123 -223.557686 
L 157.684097 -222.99876 
L 157.756561 -222.439834 
L 157.833025 -221.880908 
L 157.903602 -221.321983 
L 157.950156 -220.763057 
L 157.968667 -220.204131 
L 157.974466 -219.645205 
L 157.98629 -219.08628 
L 158.011994 -218.527354 
L 158.050614 -217.968428 
L 158.101645 -217.409502 
L 158.167282 -216.850577 
L 158.248953 -216.291651 
L 158.348196 -215.732725 
L 158.47189 -215.173799 
L 158.632215 -214.614873 
L 158.837649 -214.055948 
L 159.084563 -213.497022 
L 159.362441 -212.938096 
L 159.67113 -212.37917 
L 160.029863 -211.820245 
L 160.463698 -211.261319 
L 160.981565 -210.702393 
L 161.571538 -210.143467 
L 162.215614 -209.584542 
L 162.902515 -209.025616 
L 163.624829 -208.46669 
L 164.369384 -207.907764 
L 165.115703 -207.348838 
L 165.845715 -206.789913 
L 166.55572 -206.230987 
L 167.257849 -205.672061 
L 167.965975 -205.113135 
L 168.677882 -204.55421 
L 169.375172 -203.995284 
L 170.045678 -203.436358 
L 170.700645 -202.877432 
L 171.35758 -202.318506 
L 172.006692 -201.759581 
L 172.609355 -201.200655 
L 173.135646 -200.641729 
L 173.592818 -200.082803 
L 174.009424 -199.523878 
L 174.393839 -198.964952 
L 174.710391 -198.406026 
L 174.899997 -197.8471 
L 174.930987 -197.288175 
L 174.827316 -196.729249 
L 174.641895 -196.170323 
L 174.410639 -195.611397 
L 174.139633 -195.052471 
L 173.824713 -194.493546 
L 173.468466 -193.93462 
L 173.078879 -193.375694 
L 172.660339 -192.816768 
L 172.210148 -192.257843 
L 171.720969 -191.698917 
L 171.183208 -191.139991 
L 170.588956 -190.581065 
L 169.941404 -190.02214 
L 169.260383 -189.463214 
L 168.572179 -188.904288 
L 167.891594 -188.345362 
L 167.215026 -187.786436 
L 166.529735 -187.227511 
L 165.829871 -186.668585 
L 165.127593 -186.109659 
L 164.450234 -185.550733 
L 163.822222 -184.991808 
L 163.245566 -184.432882 
L 162.698816 -183.873956 
L 162.157136 -183.31503 
L 161.613382 -182.756105 
L 161.080695 -182.197179 
L 160.577805 -181.638253 
L 160.113532 -181.079327 
L 159.683804 -180.520401 
L 159.280231 -179.961476 
L 158.899186 -179.40255 
L 158.543999 -178.843624 
L 158.22154 -178.284698 
L 157.935891 -177.725773 
L 157.680469 -177.166847 
L 157.433686 -176.607921 
L 157.164862 -176.048995 
L 156.850509 -175.490069 
L 156.492702 -174.931144 
L 156.126358 -174.372218 
z
" style="stroke: #004488; stroke-width: 1.1"/>
    </defs>
    <g clip-path="url(#p51255a6105)">
     <use xlink:href="#m9d3f021fb3" x="0" y="283.464567" style="fill: #bbccee; stroke: #004488; stroke-width: 1.1"/>
    </g>
   </g>
   <g id="FillBetweenPolyCollection_8">
    <defs>
     <path id="m255fa3de06" d="M 226.625211 -172.25216 
L 224.08345 -172.25216 
L 223.569526 -172.71472 
L 223.086018 -173.177279 
L 222.676964 -173.639839 
L 222.33671 -174.102398 
L 222.021604 -174.564958 
L 221.679034 -175.027517 
L 221.275625 -175.490077 
L 220.811459 -175.952636 
L 220.313689 -176.415196 
L 219.814639 -176.877755 
L 219.331074 -177.340315 
L 218.85892 -177.802874 
L 218.383023 -178.265434 
L 217.891887 -178.727993 
L 217.388229 -179.190553 
L 216.889941 -179.653112 
L 216.421053 -180.115672 
L 215.999391 -180.578231 
L 215.628664 -181.040791 
L 215.295844 -181.50335 
L 214.971618 -181.96591 
L 214.616405 -182.428469 
L 214.195461 -182.891029 
L 213.696683 -183.353588 
L 213.135593 -183.816148 
L 212.541182 -184.278707 
L 211.937816 -184.741267 
L 211.341806 -185.203826 
L 210.768792 -185.666386 
L 210.23425 -186.128945 
L 209.744223 -186.591505 
L 209.290045 -187.054064 
L 208.85441 -187.516624 
L 208.421286 -187.979183 
L 207.98086 -188.441743 
L 207.530763 -188.904302 
L 207.080004 -189.366862 
L 206.654369 -189.829421 
L 206.292167 -190.291981 
L 206.025277 -190.75454 
L 205.85968 -191.2171 
L 205.775238 -191.679659 
L 205.745252 -192.142219 
L 205.757062 -192.604778 
L 205.818683 -193.067338 
L 205.951361 -193.529897 
L 206.175147 -193.992457 
L 206.494877 -194.455016 
L 206.89278 -194.917576 
L 207.330484 -195.380135 
L 207.759404 -195.842695 
L 208.135772 -196.305254 
L 208.43372 -196.767814 
L 208.650276 -197.230373 
L 208.801919 -197.692933 
L 208.917504 -198.155492 
L 209.031981 -198.618052 
L 209.182653 -199.080611 
L 209.406953 -199.543171 
L 209.736872 -200.00573 
L 210.186008 -200.46829 
L 210.736249 -200.930849 
L 211.3398 -201.393409 
L 211.942011 -201.855968 
L 212.509706 -202.318528 
L 213.04298 -202.781087 
L 213.5641 -203.243647 
L 214.09676 -203.706206 
L 214.651708 -204.168766 
L 215.22332 -204.631325 
L 215.794006 -205.093885 
L 216.343382 -205.556444 
L 216.857376 -206.019004 
L 217.331276 -206.481563 
L 217.768204 -206.944123 
L 218.179809 -207.406682 
L 218.587434 -207.869242 
L 219.014605 -208.331801 
L 219.472217 -208.794361 
L 219.951043 -209.25692 
L 220.429856 -209.71948 
L 220.889423 -210.182039 
L 221.318146 -210.644599 
L 221.707982 -211.107158 
L 222.050385 -211.569718 
L 222.338803 -212.032277 
L 222.574283 -212.494837 
L 222.76722 -212.957396 
L 222.933528 -213.419956 
L 223.089471 -213.882515 
L 223.248461 -214.345075 
L 223.418657 -214.807634 
L 223.600489 -215.270194 
L 223.787538 -215.732753 
L 223.973201 -216.195313 
L 224.15839 -216.657872 
L 224.351831 -217.120432 
L 224.560359 -217.582991 
L 224.777011 -218.045551 
L 225.931651 -218.045551 
L 225.931651 -218.045551 
L 226.148302 -217.582991 
L 226.35683 -217.120432 
L 226.550271 -216.657872 
L 226.73546 -216.195313 
L 226.921123 -215.732753 
L 227.108172 -215.270194 
L 227.290004 -214.807634 
L 227.460201 -214.345075 
L 227.619191 -213.882515 
L 227.775133 -213.419956 
L 227.941441 -212.957396 
L 228.134378 -212.494837 
L 228.369858 -212.032277 
L 228.658276 -211.569718 
L 229.000679 -211.107158 
L 229.390515 -210.644599 
L 229.819239 -210.182039 
L 230.278805 -209.71948 
L 230.757618 -209.25692 
L 231.236444 -208.794361 
L 231.694056 -208.331801 
L 232.121227 -207.869242 
L 232.528852 -207.406682 
L 232.940458 -206.944123 
L 233.377385 -206.481563 
L 233.851286 -206.019004 
L 234.36528 -205.556444 
L 234.914656 -205.093885 
L 235.485342 -204.631325 
L 236.056953 -204.168766 
L 236.611901 -203.706206 
L 237.144561 -203.243647 
L 237.665681 -202.781087 
L 238.198955 -202.318528 
L 238.76665 -201.855968 
L 239.368862 -201.393409 
L 239.972412 -200.930849 
L 240.522653 -200.46829 
L 240.971789 -200.00573 
L 241.301708 -199.543171 
L 241.526008 -199.080611 
L 241.67668 -198.618052 
L 241.791158 -198.155492 
L 241.906743 -197.692933 
L 242.058386 -197.230373 
L 242.274941 -196.767814 
L 242.57289 -196.305254 
L 242.949257 -195.842695 
L 243.378178 -195.380135 
L 243.815881 -194.917576 
L 244.213785 -194.455016 
L 244.533515 -193.992457 
L 244.7573 -193.529897 
L 244.889979 -193.067338 
L 244.951599 -192.604778 
L 244.963409 -192.142219 
L 244.933424 -191.679659 
L 244.848982 -191.2171 
L 244.683384 -190.75454 
L 244.416495 -190.291981 
L 244.054292 -189.829421 
L 243.628657 -189.366862 
L 243.177899 -188.904302 
L 242.727802 -188.441743 
L 242.287376 -187.979183 
L 241.854251 -187.516624 
L 241.418616 -187.054064 
L 240.964438 -186.591505 
L 240.474411 -186.128945 
L 239.939869 -185.666386 
L 239.366855 -185.203826 
L 238.770845 -184.741267 
L 238.16748 -184.278707 
L 237.573068 -183.816148 
L 237.011979 -183.353588 
L 236.5132 -182.891029 
L 236.092256 -182.428469 
L 235.737043 -181.96591 
L 235.412817 -181.50335 
L 235.079998 -181.040791 
L 234.70927 -180.578231 
L 234.287608 -180.115672 
L 233.818721 -179.653112 
L 233.320433 -179.190553 
L 232.816775 -178.727993 
L 232.325638 -178.265434 
L 231.849741 -177.802874 
L 231.377587 -177.340315 
L 230.894023 -176.877755 
L 230.394972 -176.415196 
L 229.897203 -175.952636 
L 229.433037 -175.490077 
L 229.029627 -175.027517 
L 228.687057 -174.564958 
L 228.371952 -174.102398 
L 228.031698 -173.639839 
L 227.622643 -173.177279 
L 227.139136 -172.71472 
L 226.625211 -172.25216 
z
" style="stroke: #004488; stroke-width: 1.1"/>
    </defs>
    <g clip-path="url(#p51255a6105)">
     <use xlink:href="#m255fa3de06" x="0" y="283.464567" style="fill: #bbccee; stroke: #004488; stroke-width: 1.1"/>
    </g>
   </g>
   <g id="FillBetweenPolyCollection_9">
    <defs>
     <path id="ma5661173f2" d="M 296.662622 -159.107777 
L 294.110885 -159.107777 
L 293.543621 -159.643146 
L 292.918897 -160.178515 
L 292.266388 -160.713885 
L 291.591671 -161.249254 
L 290.870686 -161.784623 
L 290.054592 -162.319992 
L 289.085125 -162.855362 
L 287.919694 -163.390731 
L 286.559494 -163.9261 
L 285.066983 -164.461469 
L 283.55899 -164.996839 
L 282.172827 -165.532208 
L 281.019657 -166.067577 
L 280.148889 -166.602946 
L 279.541428 -167.138315 
L 279.132489 -167.673685 
L 278.848161 -168.209054 
L 278.633897 -168.744423 
L 278.461725 -169.279792 
L 278.319069 -169.815162 
L 278.192156 -170.350531 
L 278.055982 -170.8859 
L 277.876469 -171.421269 
L 277.623771 -171.956639 
L 277.289223 -172.492008 
L 276.895378 -173.027377 
L 276.492161 -173.562746 
L 276.140463 -174.098116 
L 275.892346 -174.633485 
L 275.777675 -175.168854 
L 275.799742 -175.704223 
L 275.937545 -176.239593 
L 276.156865 -176.774962 
L 276.433027 -177.310331 
L 276.774167 -177.8457 
L 277.222273 -178.38107 
L 277.823392 -178.916439 
L 278.587127 -179.451808 
L 279.466482 -179.987177 
L 280.372852 -180.522547 
L 281.216752 -181.057916 
L 281.950383 -181.593285 
L 282.587063 -182.128654 
L 283.185273 -182.664024 
L 283.807655 -183.199393 
L 284.482269 -183.734762 
L 285.189514 -184.270131 
L 285.877705 -184.805501 
L 286.492613 -185.34087 
L 287.003055 -185.876239 
L 287.411668 -186.411608 
L 287.748428 -186.946978 
L 288.051739 -187.482347 
L 288.34815 -188.017716 
L 288.642857 -188.553085 
L 288.925194 -189.088455 
L 289.181847 -189.623824 
L 289.406566 -190.159193 
L 289.601059 -190.694562 
L 289.76979 -191.229932 
L 289.914997 -191.765301 
L 290.036563 -192.30067 
L 290.135897 -192.836039 
L 290.218449 -193.371409 
L 290.291289 -193.906778 
L 290.358356 -194.442147 
L 290.418292 -194.977516 
L 290.466139 -195.512885 
L 290.497055 -196.048255 
L 290.510518 -196.583624 
L 290.514038 -197.118993 
L 290.523985 -197.654362 
L 290.560941 -198.189732 
L 290.6407 -198.725101 
L 290.766567 -199.26047 
L 290.928361 -199.795839 
L 291.107784 -200.331209 
L 291.285408 -200.866578 
L 291.446064 -201.401947 
L 291.582621 -201.937316 
L 291.697732 -202.472686 
L 291.801505 -203.008055 
L 291.905369 -203.543424 
L 292.016226 -204.078793 
L 292.134445 -204.614163 
L 292.25548 -205.149532 
L 292.373425 -205.684901 
L 292.485238 -206.22027 
L 292.593082 -206.75564 
L 292.702 -207.291009 
L 292.814972 -207.826378 
L 292.93171 -208.361747 
L 293.05371 -208.897117 
L 293.190129 -209.432486 
L 293.357689 -209.967855 
L 293.573637 -210.503224 
L 293.845611 -211.038594 
L 294.163079 -211.573963 
L 294.495496 -212.109332 
L 296.278011 -212.109332 
L 296.278011 -212.109332 
L 296.610427 -211.573963 
L 296.927895 -211.038594 
L 297.199869 -210.503224 
L 297.415818 -209.967855 
L 297.583377 -209.432486 
L 297.719797 -208.897117 
L 297.841797 -208.361747 
L 297.958535 -207.826378 
L 298.071506 -207.291009 
L 298.180424 -206.75564 
L 298.288268 -206.22027 
L 298.400082 -205.684901 
L 298.518026 -205.149532 
L 298.639061 -204.614163 
L 298.757281 -204.078793 
L 298.868138 -203.543424 
L 298.972001 -203.008055 
L 299.075775 -202.472686 
L 299.190886 -201.937316 
L 299.327443 -201.401947 
L 299.488099 -200.866578 
L 299.665722 -200.331209 
L 299.845145 -199.795839 
L 300.006939 -199.26047 
L 300.132806 -198.725101 
L 300.212565 -198.189732 
L 300.249521 -197.654362 
L 300.259468 -197.118993 
L 300.262989 -196.583624 
L 300.276451 -196.048255 
L 300.307367 -195.512885 
L 300.355215 -194.977516 
L 300.41515 -194.442147 
L 300.482217 -193.906778 
L 300.555057 -193.371409 
L 300.637609 -192.836039 
L 300.736943 -192.30067 
L 300.858509 -191.765301 
L 301.003717 -191.229932 
L 301.172447 -190.694562 
L 301.366941 -190.159193 
L 301.591659 -189.623824 
L 301.848312 -189.088455 
L 302.13065 -188.553085 
L 302.425357 -188.017716 
L 302.721767 -187.482347 
L 303.025078 -186.946978 
L 303.361838 -186.411608 
L 303.770452 -185.876239 
L 304.280893 -185.34087 
L 304.895801 -184.805501 
L 305.583992 -184.270131 
L 306.291237 -183.734762 
L 306.965851 -183.199393 
L 307.588233 -182.664024 
L 308.186443 -182.128654 
L 308.823123 -181.593285 
L 309.556754 -181.057916 
L 310.400655 -180.522547 
L 311.307024 -179.987177 
L 312.186379 -179.451808 
L 312.950114 -178.916439 
L 313.551233 -178.38107 
L 313.999339 -177.8457 
L 314.340479 -177.310331 
L 314.616641 -176.774962 
L 314.835961 -176.239593 
L 314.973764 -175.704223 
L 314.995831 -175.168854 
L 314.88116 -174.633485 
L 314.633043 -174.098116 
L 314.281346 -173.562746 
L 313.878128 -173.027377 
L 313.484283 -172.492008 
L 313.149735 -171.956639 
L 312.897037 -171.421269 
L 312.717524 -170.8859 
L 312.58135 -170.350531 
L 312.454438 -169.815162 
L 312.311781 -169.279792 
L 312.13961 -168.744423 
L 311.925345 -168.209054 
L 311.641018 -167.673685 
L 311.232079 -167.138315 
L 310.624617 -166.602946 
L 309.75385 -166.067577 
L 308.600679 -165.532208 
L 307.214517 -164.996839 
L 305.706523 -164.461469 
L 304.214012 -163.9261 
L 302.853812 -163.390731 
L 301.688381 -162.855362 
L 300.718915 -162.319992 
L 299.90282 -161.784623 
L 299.181835 -161.249254 
L 298.507118 -160.713885 
L 297.854609 -160.178515 
L 297.229886 -159.643146 
L 296.662622 -159.107777 
z
" style="stroke: #004488; stroke-width: 1.1"/>
    </defs>
    <g clip-path="url(#p51255a6105)">
     <use xlink:href="#ma5661173f2" x="0" y="283.464567" style="fill: #bbccee; stroke: #004488; stroke-width: 1.1"/>
    </g>
   </g>
   <g id="FillBetweenPolyCollection_10">
    <defs>
     <path id="m9d01414b8c" d="M 366.50355 -161.863855 
L 364.334801 -161.863855 
L 363.9226 -162.478459 
L 363.502997 -163.093063 
L 363.098583 -163.707667 
L 362.714577 -164.322271 
L 362.344628 -164.936875 
L 361.977615 -165.551479 
L 361.601071 -166.166083 
L 361.20411 -166.780687 
L 360.782082 -167.395291 
L 360.339851 -168.009895 
L 359.889854 -168.624499 
L 359.445955 -169.239102 
L 359.017403 -169.853706 
L 358.605155 -170.46831 
L 358.200242 -171.082914 
L 357.784981 -171.697518 
L 357.339301 -172.312122 
L 356.851365 -172.926726 
L 356.326714 -173.54133 
L 355.789531 -174.155934 
L 355.274499 -174.770538 
L 354.813361 -175.385142 
L 354.423446 -175.999746 
L 354.104713 -176.61435 
L 353.846557 -177.228954 
L 353.638349 -177.843558 
L 353.475221 -178.458162 
L 353.356077 -179.072766 
L 353.278375 -179.68737 
L 353.235295 -180.301974 
L 353.216026 -180.916578 
L 353.20673 -181.531182 
L 353.191726 -182.145786 
L 353.15594 -182.76039 
L 353.087745 -183.374994 
L 352.980648 -183.989598 
L 352.834802 -184.604202 
L 352.658879 -185.218806 
L 352.468113 -185.83341 
L 352.275097 -186.448014 
L 352.079452 -187.062618 
L 351.867827 -187.677222 
L 351.626438 -188.291826 
L 351.35487 -188.90643 
L 351.06901 -189.521034 
L 350.791928 -190.135638 
L 350.5406 -190.750242 
L 350.316876 -191.364846 
L 350.106878 -191.97945 
L 349.88774 -192.594054 
L 349.636759 -193.208658 
L 349.338122 -193.823262 
L 348.986035 -194.437866 
L 348.585458 -195.05247 
L 348.150951 -195.667074 
L 347.703079 -196.281678 
L 347.263307 -196.896281 
L 346.850656 -197.510885 
L 346.482853 -198.125489 
L 346.179645 -198.740093 
L 345.961425 -199.354697 
L 345.840153 -199.969301 
L 345.810097 -200.583905 
L 345.849773 -201.198509 
L 345.936307 -201.813113 
L 346.060739 -202.427717 
L 346.232496 -203.042321 
L 346.471667 -203.656925 
L 346.796188 -204.271529 
L 347.211733 -204.886133 
L 347.708719 -205.500737 
L 348.267114 -206.115341 
L 348.866501 -206.729945 
L 349.496125 -207.344549 
L 350.15841 -207.959153 
L 350.862513 -208.573757 
L 351.611963 -209.188361 
L 352.396188 -209.802965 
L 353.192819 -210.417569 
L 353.978397 -211.032173 
L 354.738913 -211.646777 
L 355.472993 -212.261381 
L 356.186699 -212.875985 
L 356.884794 -213.490589 
L 357.565472 -214.105193 
L 358.222092 -214.719797 
L 358.848925 -215.334401 
L 359.444575 -215.949005 
L 360.009997 -216.563609 
L 360.54427 -217.178213 
L 361.043378 -217.792817 
L 361.503548 -218.407421 
L 361.926138 -219.022025 
L 362.320616 -219.636629 
L 362.704162 -220.251233 
L 363.096911 -220.865837 
L 363.512105 -221.480441 
L 363.944574 -222.095045 
L 364.366528 -222.709649 
L 366.471823 -222.709649 
L 366.471823 -222.709649 
L 366.893778 -222.095045 
L 367.326246 -221.480441 
L 367.74144 -220.865837 
L 368.134189 -220.251233 
L 368.517735 -219.636629 
L 368.912213 -219.022025 
L 369.334804 -218.407421 
L 369.794974 -217.792817 
L 370.294081 -217.178213 
L 370.828354 -216.563609 
L 371.393776 -215.949005 
L 371.989426 -215.334401 
L 372.616259 -214.719797 
L 373.272879 -214.105193 
L 373.953557 -213.490589 
L 374.651652 -212.875985 
L 375.365358 -212.261381 
L 376.099439 -211.646777 
L 376.859955 -211.032173 
L 377.645532 -210.417569 
L 378.442163 -209.802965 
L 379.226388 -209.188361 
L 379.975838 -208.573757 
L 380.679942 -207.959153 
L 381.342226 -207.344549 
L 381.97185 -206.729945 
L 382.571237 -206.115341 
L 383.129632 -205.500737 
L 383.626618 -204.886133 
L 384.042163 -204.271529 
L 384.366684 -203.656925 
L 384.605855 -203.042321 
L 384.777612 -202.427717 
L 384.902045 -201.813113 
L 384.988578 -201.198509 
L 385.028254 -200.583905 
L 384.998198 -199.969301 
L 384.876926 -199.354697 
L 384.658706 -198.740093 
L 384.355498 -198.125489 
L 383.987696 -197.510885 
L 383.575045 -196.896281 
L 383.135272 -196.281678 
L 382.6874 -195.667074 
L 382.252893 -195.05247 
L 381.852316 -194.437866 
L 381.500229 -193.823262 
L 381.201593 -193.208658 
L 380.950611 -192.594054 
L 380.731473 -191.97945 
L 380.521475 -191.364846 
L 380.297751 -190.750242 
L 380.046423 -190.135638 
L 379.769341 -189.521034 
L 379.483481 -188.90643 
L 379.211914 -188.291826 
L 378.970524 -187.677222 
L 378.758899 -187.062618 
L 378.563254 -186.448014 
L 378.370239 -185.83341 
L 378.179472 -185.218806 
L 378.003549 -184.604202 
L 377.857703 -183.989598 
L 377.750606 -183.374994 
L 377.682411 -182.76039 
L 377.646626 -182.145786 
L 377.631621 -181.531182 
L 377.622325 -180.916578 
L 377.603056 -180.301974 
L 377.559976 -179.68737 
L 377.482274 -179.072766 
L 377.36313 -178.458162 
L 377.200002 -177.843558 
L 376.991794 -177.228954 
L 376.733638 -176.61435 
L 376.414905 -175.999746 
L 376.02499 -175.385142 
L 375.563852 -174.770538 
L 375.04882 -174.155934 
L 374.511637 -173.54133 
L 373.986986 -172.926726 
L 373.49905 -172.312122 
L 373.05337 -171.697518 
L 372.63811 -171.082914 
L 372.233196 -170.46831 
L 371.820948 -169.853706 
L 371.392396 -169.239102 
L 370.948497 -168.624499 
L 370.4985 -168.009895 
L 370.056269 -167.395291 
L 369.634241 -166.780687 
L 369.23728 -166.166083 
L 368.860736 -165.551479 
L 368.493723 -164.936875 
L 368.123774 -164.322271 
L 367.739768 -163.707667 
L 367.335354 -163.093063 
L 366.915751 -162.478459 
L 366.50355 -161.863855 
z
" style="stroke: #004488; stroke-width: 1.1"/>
    </defs>
    <g clip-path="url(#p51255a6105)">
     <use xlink:href="#m9d01414b8c" x="0" y="283.464567" style="fill: #bbccee; stroke: #004488; stroke-width: 1.1"/>
    </g>
   </g>
   <g id="line2d_22">
    <path d="M 85.289486 190.573453 
L 85.289486 180.255818 
" clip-path="url(#p51255a6105)" style="fill: none; stroke: #000000; stroke-width: 1.9; stroke-linecap: round"/>
   </g>
   <g id="line2d_23">
    <path d="M 155.321908 189.372097 
L 155.321908 178.983764 
" clip-path="url(#p51255a6105)" style="fill: none; stroke: #000000; stroke-width: 1.9; stroke-linecap: round"/>
   </g>
   <g id="line2d_24">
    <path d="M 225.354331 189.089415 
L 225.354331 180.60917 
" clip-path="url(#p51255a6105)" style="fill: none; stroke: #000000; stroke-width: 1.9; stroke-linecap: round"/>
   </g>
   <g id="line2d_25">
    <path d="M 295.386753 204.141859 
L 295.386753 196.297647 
" clip-path="url(#p51255a6105)" style="fill: none; stroke: #000000; stroke-width: 1.9; stroke-linecap: round"/>
   </g>
   <g id="line2d_26">
    <path d="M 365.419176 197.004311 
L 365.419176 184.425264 
" clip-path="url(#p51255a6105)" style="fill: none; stroke: #000000; stroke-width: 1.9; stroke-linecap: round"/>
   </g>
   <g id="line2d_27">
    <path d="M 85.289486 92.131845 
L 85.289486 78.068774 
" clip-path="url(#p51255a6105)" style="fill: none; stroke: #000000; stroke-width: 1.9; stroke-linecap: round"/>
   </g>
   <g id="line2d_28">
    <path d="M 155.321908 92.697182 
L 155.321908 79.411471 
" clip-path="url(#p51255a6105)" style="fill: none; stroke: #000000; stroke-width: 1.9; stroke-linecap: round"/>
   </g>
   <g id="line2d_29">
    <path d="M 225.354331 97.007981 
L 225.354331 83.439576 
" clip-path="url(#p51255a6105)" style="fill: none; stroke: #000000; stroke-width: 1.9; stroke-linecap: round"/>
   </g>
   <g id="line2d_30">
    <path d="M 295.386753 113.04981 
L 295.386753 97.99734 
" clip-path="url(#p51255a6105)" style="fill: none; stroke: #000000; stroke-width: 1.9; stroke-linecap: round"/>
   </g>
   <g id="line2d_31">
    <path d="M 365.419176 100.400106 
L 365.419176 79.058133 
" clip-path="url(#p51255a6105)" style="fill: none; stroke: #000000; stroke-width: 1.9; stroke-linecap: round"/>
   </g>
   <g id="text_12">
    <text style="font-weight: 700; font-size: 19px; font-family: 'Tahoma'; text-anchor: middle; fill: #004488" x="225.354331" y="38.835181" transform="rotate(-0 225.354331 38.835181)">from mean</text>
   </g>
   <g id="text_13">
    <text style="font-weight: 700; font-size: 19px; font-family: 'Tahoma'; text-anchor: middle; fill: #bb5566" x="225.354331" y="157.91684" transform="rotate(-0 225.354331 157.91684)">from p90</text>
   </g>
   <g id="line2d_32">
    <path d="M 76.885595 185.414622 
L 93.693377 185.414622 
" clip-path="url(#p51255a6105)" style="fill: none; stroke: #bb5566; stroke-width: 2.1; stroke-linecap: square"/>
   </g>
   <g id="line2d_33">
    <path d="M 146.918018 184.354593 
L 163.725799 184.354593 
" clip-path="url(#p51255a6105)" style="fill: none; stroke: #bb5566; stroke-width: 2.1; stroke-linecap: square"/>
   </g>
   <g id="line2d_34">
    <path d="M 216.95044 185.061284 
L 233.758221 185.061284 
" clip-path="url(#p51255a6105)" style="fill: none; stroke: #bb5566; stroke-width: 2.1; stroke-linecap: square"/>
   </g>
   <g id="line2d_35">
    <path d="M 286.982862 200.608406 
L 303.790644 200.608406 
" clip-path="url(#p51255a6105)" style="fill: none; stroke: #bb5566; stroke-width: 2.1; stroke-linecap: square"/>
   </g>
   <g id="line2d_36">
    <path d="M 357.015285 190.502769 
L 373.823066 190.502769 
" clip-path="url(#p51255a6105)" style="fill: none; stroke: #bb5566; stroke-width: 2.1; stroke-linecap: square"/>
   </g>
   <g id="line2d_37">
    <path d="M 79.686892 85.206295 
L 90.89208 85.206295 
" clip-path="url(#p51255a6105)" style="fill: none; stroke: #004488; stroke-width: 2.1; stroke-linecap: square"/>
   </g>
   <g id="line2d_38">
    <path d="M 149.719314 86.124997 
L 160.924502 86.124997 
" clip-path="url(#p51255a6105)" style="fill: none; stroke: #004488; stroke-width: 2.1; stroke-linecap: square"/>
   </g>
   <g id="line2d_39">
    <path d="M 219.751737 90.435783 
L 230.956925 90.435783 
" clip-path="url(#p51255a6105)" style="fill: none; stroke: #004488; stroke-width: 2.1; stroke-linecap: square"/>
   </g>
   <g id="line2d_40">
    <path d="M 289.784159 106.548269 
L 300.989347 106.548269 
" clip-path="url(#p51255a6105)" style="fill: none; stroke: #004488; stroke-width: 2.1; stroke-linecap: square"/>
   </g>
   <g id="line2d_41">
    <path d="M 359.816582 88.315725 
L 371.021769 88.315725 
" clip-path="url(#p51255a6105)" style="fill: none; stroke: #004488; stroke-width: 2.1; stroke-linecap: square"/>
   </g>
   <g id="PathCollection_1">
    <defs>
     <path id="md46adff2e0" d="M 0 2.345208 
C 0.621956 2.345208 1.218523 2.098102 1.658312 1.658312 
C 2.098102 1.218523 2.345208 0.621956 2.345208 0 
C 2.345208 -0.621956 2.098102 -1.218523 1.658312 -1.658312 
C 1.218523 -2.098102 0.621956 -2.345208 0 -2.345208 
C -0.621956 -2.345208 -1.218523 -2.098102 -1.658312 -1.658312 
C -2.098102 -1.218523 -2.345208 -0.621956 -2.345208 0 
C -2.345208 0.621956 -2.098102 1.218523 -1.658312 1.658312 
C -1.218523 2.098102 -0.621956 2.345208 0 2.345208 
z
" style="stroke: #bb5566"/>
    </defs>
    <g clip-path="url(#p51255a6105)">
     <use xlink:href="#md46adff2e0" x="85.289486" y="185.328203" style="fill: #bb5566; stroke: #bb5566"/>
    </g>
   </g>
   <g id="PathCollection_2">
    <g clip-path="url(#p51255a6105)">
     <use xlink:href="#md46adff2e0" x="155.321908" y="184.000244" style="fill: #bb5566; stroke: #bb5566"/>
    </g>
   </g>
   <g id="PathCollection_3">
    <g clip-path="url(#p51255a6105)">
     <use xlink:href="#md46adff2e0" x="225.354331" y="184.656371" style="fill: #bb5566; stroke: #bb5566"/>
    </g>
   </g>
   <g id="PathCollection_4">
    <g clip-path="url(#p51255a6105)">
     <use xlink:href="#md46adff2e0" x="295.386753" y="199.634389" style="fill: #bb5566; stroke: #bb5566"/>
    </g>
   </g>
   <g id="PathCollection_5">
    <g clip-path="url(#p51255a6105)">
     <use xlink:href="#md46adff2e0" x="365.419176" y="190.614769" style="fill: #bb5566; stroke: #bb5566"/>
    </g>
   </g>
   <g id="PathCollection_6">
    <defs>
     <path id="mdce12d95da" d="M 0 2.345208 
C 0.621956 2.345208 1.218523 2.098102 1.658312 1.658312 
C 2.098102 1.218523 2.345208 0.621956 2.345208 0 
C 2.345208 -0.621956 2.098102 -1.218523 1.658312 -1.658312 
C 1.218523 -2.098102 0.621956 -2.345208 0 -2.345208 
C -0.621956 -2.345208 -1.218523 -2.098102 -1.658312 -1.658312 
C -2.098102 -1.218523 -2.345208 -0.621956 -2.345208 0 
C -2.345208 0.621956 -2.098102 1.218523 -1.658312 1.658312 
C -1.218523 2.098102 -0.621956 2.345208 0 2.345208 
z
" style="stroke: #004488"/>
    </defs>
    <g clip-path="url(#p51255a6105)">
     <use xlink:href="#mdce12d95da" x="85.289486" y="84.660077" style="fill: #004488; stroke: #004488"/>
    </g>
   </g>
   <g id="PathCollection_7">
    <g clip-path="url(#p51255a6105)">
     <use xlink:href="#mdce12d95da" x="155.321908" y="85.377651" style="fill: #004488; stroke: #004488"/>
    </g>
   </g>
   <g id="PathCollection_8">
    <g clip-path="url(#p51255a6105)">
     <use xlink:href="#mdce12d95da" x="225.354331" y="90.116387" style="fill: #004488; stroke: #004488"/>
    </g>
   </g>
   <g id="PathCollection_9">
    <g clip-path="url(#p51255a6105)">
     <use xlink:href="#mdce12d95da" x="295.386753" y="104.158069" style="fill: #004488; stroke: #004488"/>
    </g>
   </g>
   <g id="PathCollection_10">
    <g clip-path="url(#p51255a6105)">
     <use xlink:href="#mdce12d95da" x="365.419176" y="89.728258" style="fill: #004488; stroke: #004488"/>
    </g>
   </g>
  </g>
 </g>
 <defs>
  <clipPath id="p51255a6105">
   <rect x="46.771654" y="22.677165" width="357.165354" height="198.425197"/>
  </clipPath>
 </defs>
</svg>
