<?xml version="1.0" encoding="utf-8" standalone="no"?>
<!DOCTYPE svg PUBLIC "-//W3C//DTD SVG 1.1//EN"
  "http://www.w3.org/Graphics/SVG/1.1/DTD/svg11.dtd">
<svg xmlns:xlink="http://www.w3.org/1999/xlink" width="115.445156pt" height="123.543203pt" viewBox="0 0 115.445156 123.543203" xmlns="http://www.w3.org/2000/svg" version="1.1">
 <metadata>
  <rdf:RDF xmlns:dc="http://purl.org/dc/elements/1.1/" xmlns:cc="http://creativecommons.org/ns#" xmlns:rdf="http://www.w3.org/1999/02/22-rdf-syntax-ns#">
   <cc:Work>
    <dc:type rdf:resource="http://purl.org/dc/dcmitype/StillImage"/>
    <dc:date>2026-07-14T15:15:06.932082</dc:date>
    <dc:format>image/svg+xml</dc:format>
    <dc:creator>
     <cc:Agent>
      <dc:title>Matplotlib v3.10.0, https://matplotlib.org/</dc:title>
     </cc:Agent>
    </dc:creator>
   </cc:Work>
  </rdf:RDF>
 </metadata>
 <defs>
  <style type="text/css">*{stroke-linejoin: round; stroke-linecap: butt}</style>
 </defs>
 <g id="figure_1">
  <g id="patch_1">
   <path d="M 0 123.543203 
L 115.445156 123.543203 
L 115.445156 0 
L 0 0 
L 0 123.543203 
z
" style="fill: none"/>
  </g>
  <g id="legend_1">
   <g id="text_1">
    <text style="font-size: 11.5px; font-family: 'Tahoma'; text-anchor: start" x="30.003086" y="16.738203" transform="rotate(-0 30.003086 16.738203)">Land cover</text>
   </g>
   <g id="patch_2">
    <path d="M 8 32.910859 
L 30 32.910859 
L 30 25.210859 
L 8 25.210859 
z
" style="fill: #1966d2; stroke: #000000; stroke-width: 0.3; stroke-linejoin: miter"/>
   </g>
   <g id="text_2">
    <text style="font-size: 11px; font-family: 'Tahoma'; text-anchor: start" x="35.5" y="32.910859" transform="rotate(-0 35.5 32.910859)">Trees 2–10 m</text>
   </g>
   <g id="patch_3">
    <path d="M 8 48.982891 
L 30 48.982891 
L 30 41.282891 
L 8 41.282891 
z
" style="fill: #1b5e20; stroke: #000000; stroke-width: 0.3; stroke-linejoin: miter"/>
   </g>
   <g id="text_3">
    <text style="font-size: 11px; font-family: 'Tahoma'; text-anchor: start" x="35.5" y="48.982891" transform="rotate(-0 35.5 48.982891)">Trees 10–15 m</text>
   </g>
   <g id="patch_4">
    <path d="M 8 65.054922 
L 30 65.054922 
L 30 57.354922 
L 8 57.354922 
z
" style="fill: #f5b041; stroke: #000000; stroke-width: 0.3; stroke-linejoin: miter"/>
   </g>
   <g id="text_4">
    <text style="font-size: 11px; font-family: 'Tahoma'; text-anchor: start" x="35.5" y="65.054922" transform="rotate(-0 35.5 65.054922)">Trees 15–20 m</text>
   </g>
   <g id="patch_5">
    <path d="M 8 81.126953 
L 30 81.126953 
L 30 73.426953 
L 8 73.426953 
z
" style="fill: #8b4513; stroke: #000000; stroke-width: 0.3; stroke-linejoin: miter"/>
   </g>
   <g id="text_5">
    <text style="font-size: 11px; font-family: 'Tahoma'; text-anchor: start" x="35.5" y="81.126953" transform="rotate(-0 35.5 81.126953)">Trees &gt;20 m</text>
   </g>
   <g id="patch_6">
    <path d="M 8 97.198984 
L 30 97.198984 
L 30 89.498984 
L 8 89.498984 
z
" style="fill: #c62828; stroke: #000000; stroke-width: 0.3; stroke-linejoin: miter"/>
   </g>
   <g id="text_6">
    <text style="font-size: 11px; font-family: 'Tahoma'; text-anchor: start" x="35.5" y="97.198984" transform="rotate(-0 35.5 97.198984)">Fields</text>
   </g>
   <g id="patch_7">
    <path d="M 8 113.271016 
L 30 113.271016 
L 30 105.571016 
L 8 105.571016 
z
" style="fill: #6a1b9a; stroke: #000000; stroke-width: 0.3; stroke-linejoin: miter"/>
   </g>
   <g id="text_7">
    <text style="font-size: 11px; font-family: 'Tahoma'; text-anchor: start" x="35.5" y="113.271016" transform="rotate(-0 35.5 113.271016)">Other veg.</text>
   </g>
  </g>
 </g>
</svg>
