<?xml version="1.0" encoding="utf-8" standalone="no"?>
<!DOCTYPE svg PUBLIC "-//W3C//DTD SVG 1.1//EN"
  "http://www.w3.org/Graphics/SVG/1.1/DTD/svg11.dtd">
<svg xmlns:xlink="http://www.w3.org/1999/xlink" width="425.19685pt" height="283.464567pt" viewBox="0 0 425.19685 283.464567" xmlns="http://www.w3.org/2000/svg" version="1.1">
 <metadata>
  <rdf:RDF xmlns:dc="http://purl.org/dc/elements/1.1/" xmlns:cc="http://creativecommons.org/ns#" xmlns:rdf="http://www.w3.org/1999/02/22-rdf-syntax-ns#">
   <cc:Work>
    <dc:type rdf:resource="http://purl.org/dc/dcmitype/StillImage"/>
    <dc:date>2026-05-21T17:46:00.017126</dc:date>
    <dc:format>image/svg+xml</dc:format>
    <dc:creator>
     <cc:Agent>
      <dc:title>Matplotlib v3.10.0, https://matplotlib.org/</dc:title>
     </cc:Agent>
    </dc:creator>
   </cc:Work>
  </rdf:RDF>
 </metadata>
 <defs>
  <style type="text/css">*{stroke-linejoin: round; stroke-linecap: butt}</style>
 </defs>
 <g id="figure_1">
  <g id="patch_1">
   <path d="M 0 283.464567 
L 425.19685 283.464567 
L 425.19685 0 
L 0 0 
L 0 283.464567 
z
" style="fill: none; opacity: 0"/>
  </g>
  <g id="axes_1">
   <g id="patch_2">
    <path d="M 46.771654 221.102362 
L 403.937008 221.102362 
L 403.937008 22.677165 
L 46.771654 22.677165 
L 46.771654 221.102362 
z
" style="fill: none; opacity: 0"/>
   </g>
   <g id="matplotlib.axis_1">
    <g id="xtick_1">
     <g id="line2d_1">
      <path d="M 85.289486 221.102362 
L 85.289486 22.677165 
" clip-path="url(#p1ddb7ca9bf)" style="fill: none; stroke: #d0d0d0; stroke-opacity: 0.65; stroke-width: 1.2; stroke-linecap: square"/>
     </g>
     <g id="line2d_2">
      <defs>
       <path id="m223e8fec23" d="M 0 0 
L 0 6 
" style="stroke: #000000; stroke-width: 1.5"/>
      </defs>
      <g>
       <use xlink:href="#m223e8fec23" x="85.289486" y="221.102362" style="stroke: #000000; stroke-width: 1.5"/>
      </g>
     </g>
     <g id="text_1">
      <text style="font-size: 15px; font-family: 'Tahoma'" transform="translate(0.788153 274.853949) rotate(-22)">Trees 2–10 m</text>
     </g>
    </g>
    <g id="xtick_2">
     <g id="line2d_3">
      <path d="M 155.321908 221.102362 
L 155.321908 22.677165 
" clip-path="url(#p1ddb7ca9bf)" style="fill: none; stroke: #d0d0d0; stroke-opacity: 0.65; stroke-width: 1.2; stroke-linecap: square"/>
     </g>
     <g id="line2d_4">
      <g>
       <use xlink:href="#m223e8fec23" x="155.321908" y="221.102362" style="stroke: #000000; stroke-width: 1.5"/>
      </g>
     </g>
     <g id="text_2">
      <text style="font-size: 15px; font-family: 'Tahoma'" transform="translate(63.227809 277.921626) rotate(-22)">Trees 10–15 m</text>
     </g>
    </g>
    <g id="xtick_3">
     <g id="line2d_5">
      <path d="M 225.354331 221.102362 
L 225.354331 22.677165 
" clip-path="url(#p1ddb7ca9bf)" style="fill: none; stroke: #d0d0d0; stroke-opacity: 0.65; stroke-width: 1.2; stroke-linecap: square"/>
     </g>
     <g id="line2d_6">
      <g>
       <use xlink:href="#m223e8fec23" x="225.354331" y="221.102362" style="stroke: #000000; stroke-width: 1.5"/>
      </g>
     </g>
     <g id="text_3">
      <text style="font-size: 15px; font-family: 'Tahoma'" transform="translate(145.920637 272.80649) rotate(-22)">Trees &gt;15 m</text>
     </g>
    </g>
    <g id="xtick_4">
     <g id="line2d_7">
      <path d="M 295.386753 221.102362 
L 295.386753 22.677165 
" clip-path="url(#p1ddb7ca9bf)" style="fill: none; stroke: #d0d0d0; stroke-opacity: 0.65; stroke-width: 1.2; stroke-linecap: square"/>
     </g>
     <g id="line2d_8">
      <g>
       <use xlink:href="#m223e8fec23" x="295.386753" y="221.102362" style="stroke: #000000; stroke-width: 1.5"/>
      </g>
     </g>
     <g id="text_4">
      <text style="font-size: 15px; font-family: 'Tahoma'" transform="translate(259.427842 255.241538) rotate(-22)">Fields</text>
     </g>
    </g>
    <g id="xtick_5">
     <g id="line2d_9">
      <path d="M 365.419176 221.102362 
L 365.419176 22.677165 
" clip-path="url(#p1ddb7ca9bf)" style="fill: none; stroke: #d0d0d0; stroke-opacity: 0.65; stroke-width: 1.2; stroke-linecap: square"/>
     </g>
     <g id="line2d_10">
      <g>
       <use xlink:href="#m223e8fec23" x="365.419176" y="221.102362" style="stroke: #000000; stroke-width: 1.5"/>
      </g>
     </g>
     <g id="text_5">
      <text style="font-size: 15px; font-family: 'Tahoma'" transform="translate(299.287521 267.420057) rotate(-22)">Other veg.</text>
     </g>
    </g>
   </g>
   <g id="matplotlib.axis_2">
    <g id="ytick_1">
     <g id="line2d_11">
      <path d="M 46.771654 221.102362 
L 403.937008 221.102362 
" clip-path="url(#p1ddb7ca9bf)" style="fill: none; stroke: #d0d0d0; stroke-opacity: 0.65; stroke-width: 1.2; stroke-linecap: square"/>
     </g>
     <g id="line2d_12">
      <defs>
       <path id="mf0dc47c886" d="M 0 0 
L -6 0 
" style="stroke: #000000; stroke-width: 1.5"/>
      </defs>
      <g>
       <use xlink:href="#mf0dc47c886" x="46.771654" y="221.102362" style="stroke: #000000; stroke-width: 1.5"/>
      </g>
     </g>
     <g id="text_6">
      <text style="font-size: 15px; font-family: 'Tahoma'; text-anchor: end" x="37.271654" y="226.80119" transform="rotate(-0 37.271654 226.80119)">+0</text>
     </g>
    </g>
    <g id="ytick_2">
     <g id="line2d_13">
      <path d="M 46.771654 179.561269 
L 403.937008 179.561269 
" clip-path="url(#p1ddb7ca9bf)" style="fill: none; stroke: #d0d0d0; stroke-opacity: 0.65; stroke-width: 1.2; stroke-linecap: square"/>
     </g>
     <g id="line2d_14">
      <g>
       <use xlink:href="#mf0dc47c886" x="46.771654" y="179.561269" style="stroke: #000000; stroke-width: 1.5"/>
      </g>
     </g>
     <g id="text_7">
      <text style="font-size: 15px; font-family: 'Tahoma'; text-anchor: end" x="37.271654" y="185.260097" transform="rotate(-0 37.271654 185.260097)">+2</text>
     </g>
    </g>
    <g id="ytick_3">
     <g id="line2d_15">
      <path d="M 46.771654 138.020175 
L 403.937008 138.020175 
" clip-path="url(#p1ddb7ca9bf)" style="fill: none; stroke: #d0d0d0; stroke-opacity: 0.65; stroke-width: 1.2; stroke-linecap: square"/>
     </g>
     <g id="line2d_16">
      <g>
       <use xlink:href="#mf0dc47c886" x="46.771654" y="138.020175" style="stroke: #000000; stroke-width: 1.5"/>
      </g>
     </g>
     <g id="text_8">
      <text style="font-size: 15px; font-family: 'Tahoma'; text-anchor: end" x="37.271654" y="143.719004" transform="rotate(-0 37.271654 143.719004)">+4</text>
     </g>
    </g>
    <g id="ytick_4">
     <g id="line2d_17">
      <path d="M 46.771654 96.479082 
L 403.937008 96.479082 
" clip-path="url(#p1ddb7ca9bf)" style="fill: none; stroke: #d0d0d0; stroke-opacity: 0.65; stroke-width: 1.2; stroke-linecap: square"/>
     </g>
     <g id="line2d_18">
      <g>
       <use xlink:href="#mf0dc47c886" x="46.771654" y="96.479082" style="stroke: #000000; stroke-width: 1.5"/>
      </g>
     </g>
     <g id="text_9">
      <text style="font-size: 15px; font-family: 'Tahoma'; text-anchor: end" x="37.271654" y="102.17791" transform="rotate(-0 37.271654 102.17791)">+6</text>
     </g>
    </g>
    <g id="ytick_5">
     <g id="line2d_19">
      <path d="M 46.771654 54.937989 
L 403.937008 54.937989 
" clip-path="url(#p1ddb7ca9bf)" style="fill: none; stroke: #d0d0d0; stroke-opacity: 0.65; stroke-width: 1.2; stroke-linecap: square"/>
     </g>
     <g id="line2d_20">
      <g>
       <use xlink:href="#mf0dc47c886" x="46.771654" y="54.937989" style="stroke: #000000; stroke-width: 1.5"/>
      </g>
     </g>
     <g id="text_10">
      <text style="font-size: 15px; font-family: 'Tahoma'; text-anchor: end" x="37.271654" y="60.636817" transform="rotate(-0 37.271654 60.636817)">+8</text>
     </g>
    </g>
    <g id="text_11">
     <text style="font-size: 18px; font-family: 'Tahoma'; text-anchor: middle" x="10.547591" y="121.889764" transform="rotate(-90 10.547591 121.889764)">Heatwave Δ T (°C)</text>
    </g>
   </g>
   <g id="patch_3">
    <path d="M 53.774896 231.349149 
L 396.933766 231.349149 
L 396.933766 172.153083 
L 53.774896 172.153083 
z
" clip-path="url(#p1ddb7ca9bf)" style="fill: #e8bcc4; opacity: 0.26; stroke: #bb5566; stroke-width: 0.8; stroke-linejoin: miter"/>
   </g>
   <g id="line2d_21">
    <path d="M 46.771654 221.102362 
L 403.937008 221.102362 
" clip-path="url(#p1ddb7ca9bf)" style="fill: none; stroke: #000000; stroke-opacity: 0.45; stroke-width: 0.9; stroke-linecap: square"/>
   </g>
   <g id="patch_4">
    <path d="M 53.774896 127.357955 
L 396.933766 127.357955 
L 396.933766 57.361209 
L 53.774896 57.361209 
z
" clip-path="url(#p1ddb7ca9bf)" style="fill: #bbccee; opacity: 0.28; stroke: #004488; stroke-width: 0.8; stroke-linejoin: miter"/>
   </g>
   <g id="patch_5">
    <path d="M 46.771654 221.102362 
L 46.771654 22.677165 
" style="fill: none; stroke: #000000; stroke-width: 1.5; stroke-linejoin: miter; stroke-linecap: square"/>
   </g>
   <g id="patch_6">
    <path d="M 46.771654 221.102362 
L 403.937008 221.102362 
" style="fill: none; stroke: #000000; stroke-width: 1.5; stroke-linejoin: miter; stroke-linecap: square"/>
   </g>
   <g id="FillBetweenPolyCollection_1">
    <defs>
     <path id="m9f8a95b80a" d="M 88.239364 -65.270082 
L 82.339608 -65.270082 
L 80.913952 -65.726055 
L 79.230943 -66.182028 
L 77.321866 -66.638001 
L 75.199272 -67.093974 
L 72.877963 -67.549947 
L 70.406173 -68.00592 
L 67.881837 -68.461893 
L 65.442097 -68.917866 
L 63.231089 -69.373839 
L 61.362878 -69.829812 
L 59.899827 -70.285785 
L 58.856908 -70.741758 
L 58.222814 -71.19773 
L 57.976841 -71.653703 
L 58.09013 -72.109676 
L 58.520232 -72.565649 
L 59.214293 -73.021622 
L 60.121524 -73.477595 
L 61.200684 -73.933568 
L 62.413674 -74.389541 
L 63.714862 -74.845514 
L 65.051723 -75.301487 
L 66.377402 -75.75746 
L 67.660618 -76.213433 
L 68.883152 -76.669406 
L 70.031163 -77.125379 
L 71.091567 -77.581352 
L 72.055573 -78.037325 
L 72.923145 -78.493298 
L 73.703211 -78.949271 
L 74.409374 -79.405244 
L 75.053619 -79.861217 
L 75.641203 -80.31719 
L 76.16967 -80.773163 
L 76.632588 -81.229136 
L 77.025135 -81.685109 
L 77.348254 -82.141082 
L 77.610788 -82.597055 
L 77.829768 -83.053028 
L 78.027405 -83.509001 
L 78.224432 -83.964974 
L 78.433136 -84.420947 
L 78.653816 -84.87692 
L 78.875613 -85.332893 
L 79.081183 -85.788866 
L 79.254272 -86.244839 
L 79.386785 -86.700812 
L 79.480636 -87.156785 
L 79.543598 -87.612758 
L 79.583875 -88.068731 
L 79.60792 -88.524704 
L 79.620728 -88.980677 
L 79.625508 -89.43665 
L 79.623108 -89.892622 
L 79.614246 -90.348595 
L 79.604368 -90.804568 
L 79.606251 -91.260541 
L 79.636174 -91.716514 
L 79.70522 -92.172487 
L 79.811845 -92.62846 
L 79.941224 -93.084433 
L 80.07231 -93.540406 
L 80.188617 -93.996379 
L 80.28637 -94.452352 
L 80.374968 -94.908325 
L 80.469267 -95.364298 
L 80.578451 -95.820271 
L 80.6991 -96.276244 
L 80.817774 -96.732217 
L 80.921472 -97.18819 
L 81.007978 -97.644163 
L 81.088438 -98.100136 
L 81.181144 -98.556109 
L 81.301728 -99.012082 
L 81.456126 -99.468055 
L 81.639917 -99.924028 
L 81.84343 -100.380001 
L 82.058142 -100.835974 
L 82.279049 -101.291947 
L 82.502031 -101.74792 
L 82.720575 -102.203893 
L 82.9264 -102.659866 
L 83.113308 -103.115839 
L 83.279858 -103.571812 
L 83.428281 -104.027785 
L 83.56139 -104.483758 
L 83.68082 -104.939731 
L 83.787806 -105.395704 
L 83.88498 -105.851677 
L 83.976889 -106.30765 
L 84.068207 -106.763623 
L 84.160976 -107.219596 
L 84.25386 -107.675569 
L 84.344943 -108.131542 
L 84.435837 -108.587515 
L 84.532841 -109.043487 
L 84.643205 -109.49946 
L 84.768841 -109.955433 
L 84.902313 -110.411406 
L 85.676659 -110.411406 
L 85.676659 -110.411406 
L 85.810131 -109.955433 
L 85.935767 -109.49946 
L 86.046131 -109.043487 
L 86.143135 -108.587515 
L 86.234029 -108.131542 
L 86.325111 -107.675569 
L 86.417995 -107.219596 
L 86.510765 -106.763623 
L 86.602083 -106.30765 
L 86.693992 -105.851677 
L 86.791166 -105.395704 
L 86.898151 -104.939731 
L 87.017582 -104.483758 
L 87.150691 -104.027785 
L 87.299114 -103.571812 
L 87.465664 -103.115839 
L 87.652572 -102.659866 
L 87.858397 -102.203893 
L 88.076941 -101.74792 
L 88.299922 -101.291947 
L 88.52083 -100.835974 
L 88.735541 -100.380001 
L 88.939055 -99.924028 
L 89.122846 -99.468055 
L 89.277244 -99.012082 
L 89.397828 -98.556109 
L 89.490534 -98.100136 
L 89.570994 -97.644163 
L 89.657499 -97.18819 
L 89.761198 -96.732217 
L 89.879872 -96.276244 
L 90.000521 -95.820271 
L 90.109705 -95.364298 
L 90.204004 -94.908325 
L 90.292602 -94.452352 
L 90.390355 -93.996379 
L 90.506662 -93.540406 
L 90.637747 -93.084433 
L 90.767127 -92.62846 
L 90.873752 -92.172487 
L 90.942798 -91.716514 
L 90.972721 -91.260541 
L 90.974603 -90.804568 
L 90.964726 -90.348595 
L 90.955864 -89.892622 
L 90.953464 -89.43665 
L 90.958243 -88.980677 
L 90.971052 -88.524704 
L 90.995097 -88.068731 
L 91.035374 -87.612758 
L 91.098336 -87.156785 
L 91.192187 -86.700812 
L 91.3247 -86.244839 
L 91.497789 -85.788866 
L 91.703359 -85.332893 
L 91.925155 -84.87692 
L 92.145836 -84.420947 
L 92.354539 -83.964974 
L 92.551567 -83.509001 
L 92.749204 -83.053028 
L 92.968184 -82.597055 
L 93.230717 -82.141082 
L 93.553837 -81.685109 
L 93.946384 -81.229136 
L 94.409302 -80.773163 
L 94.937769 -80.31719 
L 95.525353 -79.861217 
L 96.169598 -79.405244 
L 96.875761 -78.949271 
L 97.655827 -78.493298 
L 98.523399 -78.037325 
L 99.487405 -77.581352 
L 100.547809 -77.125379 
L 101.695819 -76.669406 
L 102.918354 -76.213433 
L 104.20157 -75.75746 
L 105.527249 -75.301487 
L 106.86411 -74.845514 
L 108.165297 -74.389541 
L 109.378288 -73.933568 
L 110.457448 -73.477595 
L 111.364679 -73.021622 
L 112.05874 -72.565649 
L 112.488842 -72.109676 
L 112.602131 -71.653703 
L 112.356158 -71.19773 
L 111.722064 -70.741758 
L 110.679145 -70.285785 
L 109.216094 -69.829812 
L 107.347883 -69.373839 
L 105.136875 -68.917866 
L 102.697135 -68.461893 
L 100.172798 -68.00592 
L 97.701008 -67.549947 
L 95.3797 -67.093974 
L 93.257106 -66.638001 
L 91.348029 -66.182028 
L 89.66502 -65.726055 
L 88.239364 -65.270082 
z
" style="stroke: #bb5566; stroke-width: 1.05"/>
    </defs>
    <g clip-path="url(#p1ddb7ca9bf)">
     <use xlink:href="#m9f8a95b80a" x="0" y="283.464567" style="fill: #e8bcc4; stroke: #bb5566; stroke-width: 1.05"/>
    </g>
   </g>
   <g id="FillBetweenPolyCollection_2">
    <defs>
     <path id="m53f0113921" d="M 158.896887 -66.51629 
L 151.74693 -66.51629 
L 150.09678 -66.962472 
L 148.219707 -67.408655 
L 146.205684 -67.854837 
L 144.129523 -68.301019 
L 142.052582 -68.747201 
L 140.028374 -69.193383 
L 138.098287 -69.639566 
L 136.281978 -70.085748 
L 134.578278 -70.53193 
L 132.984475 -70.978112 
L 131.521691 -71.424294 
L 130.243449 -71.870477 
L 129.217649 -72.316659 
L 128.496593 -72.762841 
L 128.098427 -73.209023 
L 128.009264 -73.655205 
L 128.197841 -74.101388 
L 128.630765 -74.54757 
L 129.281269 -74.993752 
L 130.127796 -75.439934 
L 131.143038 -75.886116 
L 132.282652 -76.332298 
L 133.486542 -76.778481 
L 134.695229 -77.224663 
L 135.869021 -77.670845 
L 136.995354 -78.117027 
L 138.080939 -78.563209 
L 139.136347 -79.009392 
L 140.162823 -79.455574 
L 141.147798 -79.901756 
L 142.070718 -80.347938 
L 142.914432 -80.79412 
L 143.673056 -81.240303 
L 144.350816 -81.686485 
L 144.955701 -82.132667 
L 145.49575 -82.578849 
L 145.97961 -83.025031 
L 146.416207 -83.471213 
L 146.810833 -83.917396 
L 147.162253 -84.363578 
L 147.465877 -84.80976 
L 147.720866 -85.255942 
L 147.933985 -85.702124 
L 148.116327 -86.148307 
L 148.275996 -86.594489 
L 148.413063 -87.040671 
L 148.52074 -87.486853 
L 148.591893 -87.933035 
L 148.626219 -88.379218 
L 148.633 -88.8254 
L 148.627983 -89.271582 
L 148.627304 -89.717764 
L 148.642461 -90.163946 
L 148.678443 -90.610128 
L 148.735255 -91.056311 
L 148.811632 -91.502493 
L 148.908015 -91.948675 
L 149.026021 -92.394857 
L 149.165141 -92.841039 
L 149.320624 -93.287222 
L 149.484836 -93.733404 
L 149.650115 -94.179586 
L 149.810032 -94.625768 
L 149.95899 -95.07195 
L 150.09231 -95.518133 
L 150.207466 -95.964315 
L 150.3045 -96.410497 
L 150.384396 -96.856679 
L 150.447789 -97.302861 
L 150.497072 -97.749044 
L 150.540558 -98.195226 
L 150.593665 -98.641408 
L 150.674509 -99.08759 
L 150.797 -99.533772 
L 150.966574 -99.979954 
L 151.180388 -100.426137 
L 151.429558 -100.872319 
L 151.70091 -101.318501 
L 151.978855 -101.764683 
L 152.248952 -102.210865 
L 152.501834 -102.657048 
L 152.734324 -103.10323 
L 152.947291 -103.549412 
L 153.143098 -103.995594 
L 153.324604 -104.441776 
L 153.494358 -104.887959 
L 153.652407 -105.334141 
L 153.794263 -105.780323 
L 153.912088 -106.226505 
L 153.99959 -106.672687 
L 154.057613 -107.118869 
L 154.096387 -107.565052 
L 154.132633 -108.011234 
L 154.183212 -108.457416 
L 154.259707 -108.903598 
L 154.367022 -109.34978 
L 154.504531 -109.795963 
L 154.665818 -110.242145 
L 154.836924 -110.688327 
L 155.806892 -110.688327 
L 155.806892 -110.688327 
L 155.977998 -110.242145 
L 156.139285 -109.795963 
L 156.276794 -109.34978 
L 156.38411 -108.903598 
L 156.460604 -108.457416 
L 156.511184 -108.011234 
L 156.547429 -107.565052 
L 156.586204 -107.118869 
L 156.644226 -106.672687 
L 156.731729 -106.226505 
L 156.849553 -105.780323 
L 156.99141 -105.334141 
L 157.149459 -104.887959 
L 157.319212 -104.441776 
L 157.500719 -103.995594 
L 157.696526 -103.549412 
L 157.909492 -103.10323 
L 158.141983 -102.657048 
L 158.394865 -102.210865 
L 158.664962 -101.764683 
L 158.942906 -101.318501 
L 159.214259 -100.872319 
L 159.463429 -100.426137 
L 159.677243 -99.979954 
L 159.846816 -99.533772 
L 159.969307 -99.08759 
L 160.050151 -98.641408 
L 160.103258 -98.195226 
L 160.146745 -97.749044 
L 160.196027 -97.302861 
L 160.259421 -96.856679 
L 160.339317 -96.410497 
L 160.43635 -95.964315 
L 160.551506 -95.518133 
L 160.684826 -95.07195 
L 160.833785 -94.625768 
L 160.993702 -94.179586 
L 161.15898 -93.733404 
L 161.323193 -93.287222 
L 161.478676 -92.841039 
L 161.617796 -92.394857 
L 161.735801 -91.948675 
L 161.832185 -91.502493 
L 161.908562 -91.056311 
L 161.965373 -90.610128 
L 162.001355 -90.163946 
L 162.016513 -89.717764 
L 162.015834 -89.271582 
L 162.010816 -88.8254 
L 162.017597 -88.379218 
L 162.051923 -87.933035 
L 162.123077 -87.486853 
L 162.230754 -87.040671 
L 162.367821 -86.594489 
L 162.52749 -86.148307 
L 162.709832 -85.702124 
L 162.922951 -85.255942 
L 163.177939 -84.80976 
L 163.481564 -84.363578 
L 163.832984 -83.917396 
L 164.22761 -83.471213 
L 164.664207 -83.025031 
L 165.148067 -82.578849 
L 165.688115 -82.132667 
L 166.293001 -81.686485 
L 166.970761 -81.240303 
L 167.729384 -80.79412 
L 168.573099 -80.347938 
L 169.496019 -79.901756 
L 170.480994 -79.455574 
L 171.507469 -79.009392 
L 172.562878 -78.563209 
L 173.648462 -78.117027 
L 174.774796 -77.670845 
L 175.948588 -77.224663 
L 177.157274 -76.778481 
L 178.361164 -76.332298 
L 179.500779 -75.886116 
L 180.51602 -75.439934 
L 181.362548 -74.993752 
L 182.013051 -74.54757 
L 182.445976 -74.101388 
L 182.634553 -73.655205 
L 182.54539 -73.209023 
L 182.147224 -72.762841 
L 181.426167 -72.316659 
L 180.400368 -71.870477 
L 179.122126 -71.424294 
L 177.659342 -70.978112 
L 176.065539 -70.53193 
L 174.361839 -70.085748 
L 172.545529 -69.639566 
L 170.615443 -69.193383 
L 168.591234 -68.747201 
L 166.514294 -68.301019 
L 164.438133 -67.854837 
L 162.42411 -67.408655 
L 160.547036 -66.962472 
L 158.896887 -66.51629 
z
" style="stroke: #bb5566; stroke-width: 1.05"/>
    </defs>
    <g clip-path="url(#p1ddb7ca9bf)">
     <use xlink:href="#m53f0113921" x="0" y="283.464567" style="fill: #e8bcc4; stroke: #bb5566; stroke-width: 1.05"/>
    </g>
   </g>
   <g id="FillBetweenPolyCollection_3">
    <defs>
     <path id="me9eddd8141" d="M 228.254013 -68.662616 
L 222.454648 -68.662616 
L 221.14876 -69.107399 
L 219.680194 -69.552182 
L 218.11001 -69.996966 
L 216.467345 -70.441749 
L 214.753718 -70.886532 
L 212.959413 -71.331315 
L 211.076834 -71.776098 
L 209.108741 -72.220882 
L 207.077371 -72.665665 
L 205.035501 -73.110448 
L 203.072107 -73.555231 
L 201.304075 -74.000014 
L 199.851854 -74.444798 
L 198.807052 -74.889581 
L 198.20858 -75.334364 
L 198.041686 -75.779147 
L 198.257407 -76.22393 
L 198.794191 -76.668714 
L 199.587831 -77.113497 
L 200.573644 -77.55828 
L 201.691256 -78.003063 
L 202.892335 -78.447846 
L 204.143757 -78.89263 
L 205.423351 -79.337413 
L 206.712081 -79.782196 
L 207.986514 -80.226979 
L 209.214224 -80.671762 
L 210.356183 -81.116546 
L 211.377871 -81.561329 
L 212.262299 -82.006112 
L 213.014016 -82.450895 
L 213.65121 -82.895678 
L 214.194627 -83.340462 
L 214.662779 -83.785245 
L 215.072864 -84.230028 
L 215.439918 -84.674811 
L 215.771791 -85.119594 
L 216.066632 -85.564378 
L 216.319503 -86.009161 
L 216.534576 -86.453944 
L 216.73118 -86.898727 
L 216.936109 -87.34351 
L 217.166852 -87.788294 
L 217.418516 -88.233077 
L 217.664197 -88.67786 
L 217.868993 -89.122643 
L 218.009338 -89.567426 
L 218.085621 -90.01221 
L 218.118878 -90.456993 
L 218.132707 -90.901776 
L 218.134284 -91.346559 
L 218.1111 -91.791342 
L 218.046825 -92.236126 
L 217.941913 -92.680909 
L 217.820201 -93.125692 
L 217.715883 -93.570475 
L 217.652707 -94.015258 
L 217.632912 -94.460042 
L 217.643599 -94.904825 
L 217.673165 -95.349608 
L 217.723477 -95.794391 
L 217.809368 -96.239174 
L 217.94861 -96.683958 
L 218.151691 -97.128741 
L 218.417385 -97.573524 
L 218.733689 -98.018307 
L 219.081622 -98.46309 
L 219.440567 -98.907874 
L 219.793856 -99.352657 
L 220.132482 -99.79744 
L 220.455648 -100.242223 
L 220.768232 -100.687006 
L 221.07573 -101.13179 
L 221.378517 -101.576573 
L 221.669353 -102.021356 
L 221.936824 -102.466139 
L 222.172182 -102.910922 
L 222.373761 -103.355706 
L 222.545786 -103.800489 
L 222.693765 -104.245272 
L 222.821244 -104.690055 
L 222.930755 -105.134838 
L 223.027299 -105.579622 
L 223.119659 -106.024405 
L 223.216766 -106.469188 
L 223.321802 -106.913971 
L 223.429679 -107.358754 
L 223.530249 -107.803538 
L 223.614192 -108.248321 
L 223.677033 -108.693104 
L 223.719773 -109.137887 
L 223.747831 -109.58267 
L 223.770606 -110.027454 
L 223.802256 -110.472237 
L 223.861841 -110.91702 
L 223.969573 -111.361803 
L 224.137868 -111.806586 
L 224.361295 -112.25137 
L 224.613572 -112.696153 
L 226.095089 -112.696153 
L 226.095089 -112.696153 
L 226.347367 -112.25137 
L 226.570793 -111.806586 
L 226.739088 -111.361803 
L 226.846821 -110.91702 
L 226.906405 -110.472237 
L 226.938055 -110.027454 
L 226.96083 -109.58267 
L 226.988888 -109.137887 
L 227.031628 -108.693104 
L 227.09447 -108.248321 
L 227.178413 -107.803538 
L 227.278983 -107.358754 
L 227.386859 -106.913971 
L 227.491896 -106.469188 
L 227.589003 -106.024405 
L 227.681363 -105.579622 
L 227.777906 -105.134838 
L 227.887418 -104.690055 
L 228.014896 -104.245272 
L 228.162875 -103.800489 
L 228.3349 -103.355706 
L 228.536479 -102.910922 
L 228.771838 -102.466139 
L 229.039308 -102.021356 
L 229.330144 -101.576573 
L 229.632931 -101.13179 
L 229.940429 -100.687006 
L 230.253013 -100.242223 
L 230.576179 -99.79744 
L 230.914806 -99.352657 
L 231.268094 -98.907874 
L 231.627039 -98.46309 
L 231.974972 -98.018307 
L 232.291276 -97.573524 
L 232.55697 -97.128741 
L 232.760052 -96.683958 
L 232.899293 -96.239174 
L 232.985184 -95.794391 
L 233.035497 -95.349608 
L 233.065063 -94.904825 
L 233.07575 -94.460042 
L 233.055955 -94.015258 
L 232.992779 -93.570475 
L 232.888461 -93.125692 
L 232.766749 -92.680909 
L 232.661837 -92.236126 
L 232.597561 -91.791342 
L 232.574378 -91.346559 
L 232.575954 -90.901776 
L 232.589784 -90.456993 
L 232.623041 -90.01221 
L 232.699323 -89.567426 
L 232.839669 -89.122643 
L 233.044465 -88.67786 
L 233.290145 -88.233077 
L 233.541809 -87.788294 
L 233.772553 -87.34351 
L 233.977482 -86.898727 
L 234.174086 -86.453944 
L 234.389158 -86.009161 
L 234.64203 -85.564378 
L 234.93687 -85.119594 
L 235.268743 -84.674811 
L 235.635797 -84.230028 
L 236.045882 -83.785245 
L 236.514034 -83.340462 
L 237.057451 -82.895678 
L 237.694646 -82.450895 
L 238.446362 -82.006112 
L 239.33079 -81.561329 
L 240.352478 -81.116546 
L 241.494438 -80.671762 
L 242.722147 -80.226979 
L 243.99658 -79.782196 
L 245.28531 -79.337413 
L 246.564905 -78.89263 
L 247.816327 -78.447846 
L 249.017406 -78.003063 
L 250.135018 -77.55828 
L 251.120831 -77.113497 
L 251.914471 -76.668714 
L 252.451254 -76.22393 
L 252.666975 -75.779147 
L 252.500081 -75.334364 
L 251.901609 -74.889581 
L 250.856807 -74.444798 
L 249.404586 -74.000014 
L 247.636554 -73.555231 
L 245.673161 -73.110448 
L 243.631291 -72.665665 
L 241.599921 -72.220882 
L 239.631827 -71.776098 
L 237.749249 -71.331315 
L 235.954944 -70.886532 
L 234.241317 -70.441749 
L 232.598652 -69.996966 
L 231.028467 -69.552182 
L 229.559902 -69.107399 
L 228.254013 -68.662616 
z
" style="stroke: #bb5566; stroke-width: 1.05"/>
    </defs>
    <g clip-path="url(#p1ddb7ca9bf)">
     <use xlink:href="#me9eddd8141" x="0" y="283.464567" style="fill: #e8bcc4; stroke: #bb5566; stroke-width: 1.05"/>
    </g>
   </g>
   <g id="FillBetweenPolyCollection_4">
    <defs>
     <path id="mb7deb01b87" d="M 301.552498 -64.577741 
L 289.221008 -64.577741 
L 286.535446 -64.881956 
L 283.625739 -65.186171 
L 280.748659 -65.490386 
L 278.133305 -65.794601 
L 275.946566 -66.098816 
L 274.278213 -66.403031 
L 273.130883 -66.707247 
L 272.414939 -67.011462 
L 271.962324 -67.315677 
L 271.569557 -67.619892 
L 271.062256 -67.924107 
L 270.358684 -68.228322 
L 269.507475 -68.532537 
L 268.682039 -68.836752 
L 268.127247 -69.140967 
L 268.074108 -69.445182 
L 268.658427 -69.749398 
L 269.880692 -70.053613 
L 271.619621 -70.357828 
L 273.681432 -70.662043 
L 275.855995 -70.966258 
L 277.960153 -71.270473 
L 279.861635 -71.574688 
L 281.485009 -71.878903 
L 282.80546 -72.183118 
L 283.837748 -72.487334 
L 284.625036 -72.791549 
L 285.227595 -73.095764 
L 285.709718 -73.399979 
L 286.126131 -73.704194 
L 286.512394 -74.008409 
L 286.882562 -74.312624 
L 287.233096 -74.616839 
L 287.549669 -74.921054 
L 287.814703 -75.225269 
L 288.014979 -75.529485 
L 288.148078 -75.8337 
L 288.225432 -76.137915 
L 288.270529 -76.44213 
L 288.313054 -76.746345 
L 288.380832 -77.05056 
L 288.491221 -77.354775 
L 288.644322 -77.65899 
L 288.821828 -77.963205 
L 288.993484 -78.26742 
L 289.126703 -78.571636 
L 289.19136 -78.875851 
L 289.156725 -79.180066 
L 288.986174 -79.484281 
L 288.638844 -79.788496 
L 288.083518 -80.092711 
L 287.321957 -80.396926 
L 286.410024 -80.701141 
L 285.460548 -81.005356 
L 284.618993 -81.309572 
L 284.019815 -81.613787 
L 283.744804 -81.918002 
L 283.803187 -82.222217 
L 284.139452 -82.526432 
L 284.660654 -82.830647 
L 285.268877 -83.134862 
L 285.885926 -83.439077 
L 286.463271 -83.743292 
L 286.978359 -84.047507 
L 287.425491 -84.351723 
L 287.810584 -84.655938 
L 288.152411 -84.960153 
L 288.483849 -85.264368 
L 288.844287 -85.568583 
L 289.262196 -85.872798 
L 289.737926 -86.177013 
L 290.239673 -86.481228 
L 290.716837 -86.785443 
L 291.123004 -87.089659 
L 291.43563 -87.393874 
L 291.663609 -87.698089 
L 291.841589 -88.002304 
L 292.015447 -88.306519 
L 292.225251 -88.610734 
L 292.491788 -88.914949 
L 292.811246 -89.219164 
L 293.159305 -89.523379 
L 293.501795 -89.827594 
L 293.806883 -90.13181 
L 294.054455 -90.436025 
L 294.240185 -90.74024 
L 294.373513 -91.044455 
L 294.471085 -91.34867 
L 294.549275 -91.652885 
L 294.619486 -91.9571 
L 294.687471 -92.261315 
L 294.755277 -92.56553 
L 294.823475 -92.869746 
L 294.892247 -93.173961 
L 294.961419 -93.478176 
L 295.030357 -93.782391 
L 295.098116 -94.086606 
L 295.163401 -94.390821 
L 295.224114 -94.695036 
L 295.549393 -94.695036 
L 295.549393 -94.695036 
L 295.610105 -94.390821 
L 295.675391 -94.086606 
L 295.743149 -93.782391 
L 295.812087 -93.478176 
L 295.881259 -93.173961 
L 295.950031 -92.869746 
L 296.018229 -92.56553 
L 296.086035 -92.261315 
L 296.15402 -91.9571 
L 296.224231 -91.652885 
L 296.302421 -91.34867 
L 296.399993 -91.044455 
L 296.533321 -90.74024 
L 296.719051 -90.436025 
L 296.966624 -90.13181 
L 297.271711 -89.827594 
L 297.614201 -89.523379 
L 297.96226 -89.219164 
L 298.281718 -88.914949 
L 298.548256 -88.610734 
L 298.75806 -88.306519 
L 298.931918 -88.002304 
L 299.109897 -87.698089 
L 299.337876 -87.393874 
L 299.650502 -87.089659 
L 300.056669 -86.785443 
L 300.533833 -86.481228 
L 301.03558 -86.177013 
L 301.511311 -85.872798 
L 301.929219 -85.568583 
L 302.289657 -85.264368 
L 302.621096 -84.960153 
L 302.962923 -84.655938 
L 303.348015 -84.351723 
L 303.795147 -84.047507 
L 304.310235 -83.743292 
L 304.887581 -83.439077 
L 305.504629 -83.134862 
L 306.112852 -82.830647 
L 306.634055 -82.526432 
L 306.970319 -82.222217 
L 307.028703 -81.918002 
L 306.753691 -81.613787 
L 306.154514 -81.309572 
L 305.312959 -81.005356 
L 304.363482 -80.701141 
L 303.451549 -80.396926 
L 302.689989 -80.092711 
L 302.134662 -79.788496 
L 301.787332 -79.484281 
L 301.616781 -79.180066 
L 301.582146 -78.875851 
L 301.646804 -78.571636 
L 301.780022 -78.26742 
L 301.951678 -77.963205 
L 302.129184 -77.65899 
L 302.282285 -77.354775 
L 302.392675 -77.05056 
L 302.460452 -76.746345 
L 302.502978 -76.44213 
L 302.548075 -76.137915 
L 302.625428 -75.8337 
L 302.758528 -75.529485 
L 302.958803 -75.225269 
L 303.223837 -74.921054 
L 303.54041 -74.616839 
L 303.890945 -74.312624 
L 304.261113 -74.008409 
L 304.647375 -73.704194 
L 305.063788 -73.399979 
L 305.545911 -73.095764 
L 306.14847 -72.791549 
L 306.935758 -72.487334 
L 307.968046 -72.183118 
L 309.288497 -71.878903 
L 310.911871 -71.574688 
L 312.813353 -71.270473 
L 314.917511 -70.966258 
L 317.092074 -70.662043 
L 319.153885 -70.357828 
L 320.892814 -70.053613 
L 322.115079 -69.749398 
L 322.699398 -69.445182 
L 322.646259 -69.140967 
L 322.091467 -68.836752 
L 321.266031 -68.532537 
L 320.414822 -68.228322 
L 319.71125 -67.924107 
L 319.20395 -67.619892 
L 318.811182 -67.315677 
L 318.358568 -67.011462 
L 317.642623 -66.707247 
L 316.495293 -66.403031 
L 314.82694 -66.098816 
L 312.640201 -65.794601 
L 310.024847 -65.490386 
L 307.147767 -65.186171 
L 304.23806 -64.881956 
L 301.552498 -64.577741 
z
" style="stroke: #bb5566; stroke-width: 1.05"/>
    </defs>
    <g clip-path="url(#p1ddb7ca9bf)">
     <use xlink:href="#mb7deb01b87" x="0" y="283.464567" style="fill: #e8bcc4; stroke: #bb5566; stroke-width: 1.05"/>
    </g>
   </g>
   <g id="FillBetweenPolyCollection_5">
    <defs>
     <path id="m1e9ff9687b" d="M 368.220165 -62.985309 
L 362.618186 -62.985309 
L 361.193296 -63.353864 
L 359.557103 -63.722419 
L 357.777826 -64.090974 
L 355.889412 -64.459528 
L 353.910676 -64.828083 
L 351.873823 -65.196638 
L 349.833126 -65.565193 
L 347.854153 -65.933748 
L 345.999555 -66.302303 
L 344.317565 -66.670857 
L 342.831542 -67.039412 
L 341.537642 -67.407967 
L 340.420331 -67.776522 
L 339.478167 -68.145077 
L 338.739674 -68.513632 
L 338.260208 -68.882187 
L 338.106531 -69.250741 
L 338.337435 -69.619296 
L 338.984776 -69.987851 
L 340.037803 -70.356406 
L 341.432471 -70.724961 
L 343.050361 -71.093516 
L 344.737045 -71.462071 
L 346.341674 -71.830625 
L 347.759625 -72.19918 
L 348.952601 -72.567735 
L 349.937734 -72.93629 
L 350.760279 -73.304845 
L 351.469188 -73.6734 
L 352.10217 -74.041954 
L 352.677748 -74.410509 
L 353.194702 -74.779064 
L 353.641752 -75.147619 
L 354.012584 -75.516174 
L 354.31475 -75.884729 
L 354.567632 -76.253284 
L 354.795499 -76.621838 
L 355.021968 -76.990393 
L 355.26629 -77.358948 
L 355.541321 -77.727503 
L 355.854187 -78.096058 
L 356.206593 -78.464613 
L 356.590107 -78.833168 
L 356.980895 -79.201722 
L 357.345415 -79.570277 
L 357.659094 -79.938832 
L 357.92438 -80.307387 
L 358.171845 -80.675942 
L 358.439863 -81.044497 
L 358.745989 -81.413051 
L 359.074065 -81.781606 
L 359.389937 -82.150161 
L 359.670578 -82.518716 
L 359.918423 -82.887271 
L 360.151405 -83.255826 
L 360.384998 -83.624381 
L 360.624616 -83.992935 
L 360.868311 -84.36149 
L 361.108789 -84.730045 
L 361.332559 -85.0986 
L 361.524226 -85.467155 
L 361.677068 -85.83571 
L 361.798614 -86.204265 
L 361.90405 -86.572819 
L 362.005699 -86.941374 
L 362.109656 -87.309929 
L 362.218512 -87.678484 
L 362.332732 -88.047039 
L 362.449673 -88.415594 
L 362.564493 -88.784148 
L 362.673247 -89.152703 
L 362.774196 -89.521258 
L 362.866398 -89.889813 
L 362.949077 -90.258368 
L 363.023528 -90.626923 
L 363.094769 -90.995478 
L 363.170153 -91.364032 
L 363.255863 -91.732587 
L 363.353891 -92.101142 
L 363.461145 -92.469697 
L 363.571285 -92.838252 
L 363.677926 -93.206807 
L 363.776091 -93.575362 
L 363.861227 -93.943916 
L 363.929629 -94.312471 
L 363.982514 -94.681026 
L 364.029073 -95.049581 
L 364.082416 -95.418136 
L 364.15026 -95.786691 
L 364.229387 -96.155246 
L 364.309349 -96.5238 
L 364.381151 -96.892355 
L 364.442849 -97.26091 
L 364.499302 -97.629465 
L 364.559377 -97.99802 
L 364.633757 -98.366575 
L 364.732303 -98.735129 
L 364.858507 -99.103684 
L 365.003345 -99.472239 
L 365.835006 -99.472239 
L 365.835006 -99.472239 
L 365.979844 -99.103684 
L 366.106048 -98.735129 
L 366.204594 -98.366575 
L 366.278974 -97.99802 
L 366.339049 -97.629465 
L 366.395502 -97.26091 
L 366.4572 -96.892355 
L 366.529002 -96.5238 
L 366.608965 -96.155246 
L 366.688091 -95.786691 
L 366.755935 -95.418136 
L 366.809278 -95.049581 
L 366.855837 -94.681026 
L 366.908722 -94.312471 
L 366.977124 -93.943916 
L 367.06226 -93.575362 
L 367.160425 -93.206807 
L 367.267067 -92.838252 
L 367.377206 -92.469697 
L 367.48446 -92.101142 
L 367.582488 -91.732587 
L 367.668198 -91.364032 
L 367.743582 -90.995478 
L 367.814823 -90.626923 
L 367.889274 -90.258368 
L 367.971953 -89.889813 
L 368.064155 -89.521258 
L 368.165104 -89.152703 
L 368.273859 -88.784148 
L 368.388678 -88.415594 
L 368.505619 -88.047039 
L 368.619839 -87.678484 
L 368.728695 -87.309929 
L 368.832652 -86.941374 
L 368.934301 -86.572819 
L 369.039737 -86.204265 
L 369.161283 -85.83571 
L 369.314126 -85.467155 
L 369.505792 -85.0986 
L 369.729562 -84.730045 
L 369.97004 -84.36149 
L 370.213735 -83.992935 
L 370.453353 -83.624381 
L 370.686946 -83.255826 
L 370.919928 -82.887271 
L 371.167774 -82.518716 
L 371.448414 -82.150161 
L 371.764287 -81.781606 
L 372.092362 -81.413051 
L 372.398488 -81.044497 
L 372.666506 -80.675942 
L 372.913972 -80.307387 
L 373.179257 -79.938832 
L 373.492936 -79.570277 
L 373.857456 -79.201722 
L 374.248244 -78.833168 
L 374.631758 -78.464613 
L 374.984164 -78.096058 
L 375.29703 -77.727503 
L 375.572061 -77.358948 
L 375.816383 -76.990393 
L 376.042852 -76.621838 
L 376.270719 -76.253284 
L 376.523601 -75.884729 
L 376.825768 -75.516174 
L 377.196599 -75.147619 
L 377.643649 -74.779064 
L 378.160603 -74.410509 
L 378.736181 -74.041954 
L 379.369163 -73.6734 
L 380.078072 -73.304845 
L 380.900617 -72.93629 
L 381.88575 -72.567735 
L 383.078726 -72.19918 
L 384.496677 -71.830625 
L 386.101306 -71.462071 
L 387.78799 -71.093516 
L 389.40588 -70.724961 
L 390.800548 -70.356406 
L 391.853576 -69.987851 
L 392.500916 -69.619296 
L 392.73182 -69.250741 
L 392.578143 -68.882187 
L 392.098678 -68.513632 
L 391.360184 -68.145077 
L 390.41802 -67.776522 
L 389.300709 -67.407967 
L 388.006809 -67.039412 
L 386.520786 -66.670857 
L 384.838797 -66.302303 
L 382.984198 -65.933748 
L 381.005225 -65.565193 
L 378.964528 -65.196638 
L 376.927675 -64.828083 
L 374.948939 -64.459528 
L 373.060525 -64.090974 
L 371.281249 -63.722419 
L 369.645056 -63.353864 
L 368.220165 -62.985309 
z
" style="stroke: #bb5566; stroke-width: 1.05"/>
    </defs>
    <g clip-path="url(#p1ddb7ca9bf)">
     <use xlink:href="#m1e9ff9687b" x="0" y="283.464567" style="fill: #e8bcc4; stroke: #bb5566; stroke-width: 1.05"/>
    </g>
   </g>
   <g id="FillBetweenPolyCollection_6">
    <defs>
     <path id="m6e0663858a" d="M 86.406109 -170.230563 
L 84.172863 -170.230563 
L 83.711936 -170.815216 
L 83.263874 -171.399869 
L 82.853833 -171.984522 
L 82.472126 -172.569174 
L 82.095913 -173.153827 
L 81.710438 -173.73848 
L 81.310438 -174.323133 
L 80.887741 -174.907785 
L 80.426164 -175.492438 
L 79.912037 -176.077091 
L 79.345357 -176.661744 
L 78.736491 -177.246396 
L 78.095108 -177.831049 
L 77.425592 -178.415702 
L 76.729267 -179.000354 
L 76.007751 -179.585007 
L 75.268672 -180.16966 
L 74.531387 -180.754313 
L 73.822736 -181.338965 
L 73.163113 -181.923618 
L 72.557129 -182.508271 
L 71.996118 -183.092924 
L 71.465634 -183.677576 
L 70.951073 -184.262229 
L 70.440377 -184.846882 
L 69.923882 -185.431535 
L 69.393714 -186.016187 
L 68.848807 -186.60084 
L 68.30583 -187.185493 
L 67.80273 -187.770145 
L 67.380641 -188.354798 
L 67.053514 -188.939451 
L 66.797095 -189.524104 
L 66.572317 -190.108756 
L 66.357361 -190.693409 
L 66.154733 -191.278062 
L 65.975579 -191.862715 
L 65.828897 -192.447367 
L 65.725467 -193.03202 
L 65.680408 -193.616673 
L 65.704265 -194.201326 
L 65.794424 -194.785978 
L 65.940217 -195.370631 
L 66.136633 -195.955284 
L 66.389868 -196.539937 
L 66.709288 -197.124589 
L 67.100368 -197.709242 
L 67.570125 -198.293895 
L 68.132794 -198.878547 
L 68.79904 -199.4632 
L 69.556509 -200.047853 
L 70.364708 -200.632506 
L 71.172172 -201.217158 
L 71.942406 -201.801811 
L 72.670583 -202.386464 
L 73.381135 -202.971117 
L 74.107323 -203.555769 
L 74.864879 -204.140422 
L 75.637149 -204.725075 
L 76.383078 -205.309728 
L 77.064279 -205.89438 
L 77.670601 -206.479033 
L 78.22089 -207.063686 
L 78.737887 -207.648338 
L 79.223069 -208.232991 
L 79.655719 -208.817644 
L 80.013756 -209.402297 
L 80.294111 -209.986949 
L 80.515001 -210.571602 
L 80.702033 -211.156255 
L 80.873494 -211.740908 
L 81.035678 -212.32556 
L 81.186565 -212.910213 
L 81.321833 -213.494866 
L 81.440469 -214.079519 
L 81.548313 -214.664171 
L 81.656979 -215.248824 
L 81.777646 -215.833477 
L 81.913394 -216.418129 
L 82.055773 -217.002782 
L 82.189141 -217.587435 
L 82.300516 -218.172088 
L 82.387543 -218.75674 
L 82.458754 -219.341393 
L 82.5278 -219.926046 
L 82.607969 -220.510699 
L 82.709693 -221.095351 
L 82.838448 -221.680004 
L 82.992125 -222.264657 
L 83.161874 -222.84931 
L 83.337443 -223.433962 
L 83.510733 -224.018615 
L 83.674489 -224.603268 
L 83.822858 -225.187921 
L 83.958501 -225.772573 
L 84.098324 -226.357226 
L 84.266181 -226.941879 
L 84.473544 -227.526531 
L 84.704675 -228.111184 
L 85.874296 -228.111184 
L 85.874296 -228.111184 
L 86.105427 -227.526531 
L 86.312791 -226.941879 
L 86.480648 -226.357226 
L 86.620471 -225.772573 
L 86.756114 -225.187921 
L 86.904483 -224.603268 
L 87.068239 -224.018615 
L 87.241529 -223.433962 
L 87.417098 -222.84931 
L 87.586846 -222.264657 
L 87.740524 -221.680004 
L 87.869279 -221.095351 
L 87.971002 -220.510699 
L 88.051172 -219.926046 
L 88.120218 -219.341393 
L 88.191429 -218.75674 
L 88.278456 -218.172088 
L 88.38983 -217.587435 
L 88.523199 -217.002782 
L 88.665578 -216.418129 
L 88.801326 -215.833477 
L 88.921993 -215.248824 
L 89.030658 -214.664171 
L 89.138503 -214.079519 
L 89.257139 -213.494866 
L 89.392407 -212.910213 
L 89.543293 -212.32556 
L 89.705478 -211.740908 
L 89.876938 -211.156255 
L 90.063971 -210.571602 
L 90.28486 -209.986949 
L 90.565215 -209.402297 
L 90.923253 -208.817644 
L 91.355903 -208.232991 
L 91.841085 -207.648338 
L 92.358082 -207.063686 
L 92.908371 -206.479033 
L 93.514693 -205.89438 
L 94.195894 -205.309728 
L 94.941823 -204.725075 
L 95.714092 -204.140422 
L 96.471649 -203.555769 
L 97.197837 -202.971117 
L 97.908389 -202.386464 
L 98.636566 -201.801811 
L 99.4068 -201.217158 
L 100.214264 -200.632506 
L 101.022463 -200.047853 
L 101.779932 -199.4632 
L 102.446177 -198.878547 
L 103.008847 -198.293895 
L 103.478604 -197.709242 
L 103.869684 -197.124589 
L 104.189104 -196.539937 
L 104.442338 -195.955284 
L 104.638755 -195.370631 
L 104.784548 -194.785978 
L 104.874707 -194.201326 
L 104.898564 -193.616673 
L 104.853504 -193.03202 
L 104.750074 -192.447367 
L 104.603393 -191.862715 
L 104.424239 -191.278062 
L 104.221611 -190.693409 
L 104.006655 -190.108756 
L 103.781877 -189.524104 
L 103.525458 -188.939451 
L 103.19833 -188.354798 
L 102.776242 -187.770145 
L 102.273142 -187.185493 
L 101.730165 -186.60084 
L 101.185258 -186.016187 
L 100.65509 -185.431535 
L 100.138594 -184.846882 
L 99.627898 -184.262229 
L 99.113338 -183.677576 
L 98.582854 -183.092924 
L 98.021842 -182.508271 
L 97.415858 -181.923618 
L 96.756236 -181.338965 
L 96.047585 -180.754313 
L 95.3103 -180.16966 
L 94.57122 -179.585007 
L 93.849705 -179.000354 
L 93.153379 -178.415702 
L 92.483864 -177.831049 
L 91.84248 -177.246396 
L 91.233615 -176.661744 
L 90.666935 -176.077091 
L 90.152807 -175.492438 
L 89.691231 -174.907785 
L 89.268534 -174.323133 
L 88.868534 -173.73848 
L 88.483059 -173.153827 
L 88.106846 -172.569174 
L 87.725139 -171.984522 
L 87.315098 -171.399869 
L 86.867036 -170.815216 
L 86.406109 -170.230563 
z
" style="stroke: #004488; stroke-width: 1.1"/>
    </defs>
    <g clip-path="url(#p1ddb7ca9bf)">
     <use xlink:href="#m6e0663858a" x="0" y="283.464567" style="fill: #bbccee; stroke: #004488; stroke-width: 1.1"/>
    </g>
   </g>
   <g id="FillBetweenPolyCollection_7">
    <defs>
     <path id="mba9968b680" d="M 156.580735 -169.122802 
L 154.063081 -169.122802 
L 153.51254 -169.682278 
L 152.962297 -170.241755 
L 152.458075 -170.801231 
L 152.004551 -171.360707 
L 151.576468 -171.920183 
L 151.145846 -172.47966 
L 150.701154 -173.039136 
L 150.244775 -173.598612 
L 149.776843 -174.158088 
L 149.284308 -174.717565 
L 148.745385 -175.277041 
L 148.144038 -175.836517 
L 147.480898 -176.395994 
L 146.770799 -176.95547 
L 146.030149 -177.514946 
L 145.266858 -178.074422 
L 144.481716 -178.633899 
L 143.678462 -179.193375 
L 142.870873 -179.752851 
L 142.07707 -180.312327 
L 141.305555 -180.871804 
L 140.549459 -181.43128 
L 139.797499 -181.990756 
L 139.05163 -182.550233 
L 138.334648 -183.109709 
L 137.681205 -183.669185 
L 137.121087 -184.228661 
L 136.667895 -184.788138 
L 136.316911 -185.347614 
L 136.051104 -185.90709 
L 135.856552 -186.466566 
L 135.737834 -187.026043 
L 135.71283 -187.585519 
L 135.788126 -188.144995 
L 135.946929 -188.704472 
L 136.16868 -189.263948 
L 136.455806 -189.823424 
L 136.830591 -190.3829 
L 137.303116 -190.942377 
L 137.848152 -191.501853 
L 138.416269 -192.061329 
L 138.965393 -192.620805 
L 139.483456 -193.180282 
L 139.985662 -193.739758 
L 140.491357 -194.299234 
L 141.003771 -194.858711 
L 141.513796 -195.418187 
L 142.019752 -195.977663 
L 142.533817 -196.537139 
L 143.064955 -197.096616 
L 143.601031 -197.656092 
L 144.113653 -198.215568 
L 144.581142 -198.775044 
L 145.006475 -199.334521 
L 145.415029 -199.893997 
L 145.835847 -200.453473 
L 146.281358 -201.01295 
L 146.739732 -201.572426 
L 147.1849 -202.131902 
L 147.596621 -202.691378 
L 147.974105 -203.250855 
L 148.331047 -203.810331 
L 148.677952 -204.369807 
L 149.011964 -204.929283 
L 149.325628 -205.48876 
L 149.622096 -206.048236 
L 149.916302 -206.607712 
L 150.221428 -207.167189 
L 150.538516 -207.726665 
L 150.858747 -208.286141 
L 151.170527 -208.845617 
L 151.463208 -209.405094 
L 151.72853 -209.96457 
L 151.961845 -210.524046 
L 152.161725 -211.083522 
L 152.328452 -211.642999 
L 152.464768 -212.202475 
L 152.577957 -212.761951 
L 152.677831 -213.321427 
L 152.77047 -213.880904 
L 152.854747 -214.44038 
L 152.925776 -214.999856 
L 152.981442 -215.559333 
L 153.026171 -216.118809 
L 153.069403 -216.678285 
L 153.119903 -217.237761 
L 153.180328 -217.797238 
L 153.247407 -218.356714 
L 153.317895 -218.91619 
L 153.393184 -219.475666 
L 153.477168 -220.035143 
L 153.571438 -220.594619 
L 153.674766 -221.154095 
L 153.786974 -221.713572 
L 153.912947 -222.273048 
L 154.063637 -222.832524 
L 154.250885 -223.392 
L 154.475537 -223.951477 
L 154.717689 -224.510953 
L 155.926128 -224.510953 
L 155.926128 -224.510953 
L 156.168279 -223.951477 
L 156.392931 -223.392 
L 156.58018 -222.832524 
L 156.730869 -222.273048 
L 156.856843 -221.713572 
L 156.969051 -221.154095 
L 157.072379 -220.594619 
L 157.166648 -220.035143 
L 157.250633 -219.475666 
L 157.325922 -218.91619 
L 157.396409 -218.356714 
L 157.463489 -217.797238 
L 157.523914 -217.237761 
L 157.574414 -216.678285 
L 157.617646 -216.118809 
L 157.662375 -215.559333 
L 157.71804 -214.999856 
L 157.789069 -214.44038 
L 157.873347 -213.880904 
L 157.965986 -213.321427 
L 158.06586 -212.761951 
L 158.179048 -212.202475 
L 158.315365 -211.642999 
L 158.482091 -211.083522 
L 158.681971 -210.524046 
L 158.915287 -209.96457 
L 159.180608 -209.405094 
L 159.47329 -208.845617 
L 159.78507 -208.286141 
L 160.105301 -207.726665 
L 160.422389 -207.167189 
L 160.727514 -206.607712 
L 161.02172 -206.048236 
L 161.318189 -205.48876 
L 161.631853 -204.929283 
L 161.965864 -204.369807 
L 162.31277 -203.810331 
L 162.669711 -203.250855 
L 163.047196 -202.691378 
L 163.458916 -202.131902 
L 163.904085 -201.572426 
L 164.362459 -201.01295 
L 164.80797 -200.453473 
L 165.228787 -199.893997 
L 165.637342 -199.334521 
L 166.062675 -198.775044 
L 166.530164 -198.215568 
L 167.042785 -197.656092 
L 167.578861 -197.096616 
L 168.109999 -196.537139 
L 168.624064 -195.977663 
L 169.130021 -195.418187 
L 169.640046 -194.858711 
L 170.152459 -194.299234 
L 170.658154 -193.739758 
L 171.160361 -193.180282 
L 171.678424 -192.620805 
L 172.227548 -192.061329 
L 172.795664 -191.501853 
L 173.340701 -190.942377 
L 173.813226 -190.3829 
L 174.188011 -189.823424 
L 174.475136 -189.263948 
L 174.696887 -188.704472 
L 174.855691 -188.144995 
L 174.930987 -187.585519 
L 174.905983 -187.026043 
L 174.787265 -186.466566 
L 174.592712 -185.90709 
L 174.326906 -185.347614 
L 173.975922 -184.788138 
L 173.522729 -184.228661 
L 172.962612 -183.669185 
L 172.309169 -183.109709 
L 171.592187 -182.550233 
L 170.846318 -181.990756 
L 170.094358 -181.43128 
L 169.338261 -180.871804 
L 168.566746 -180.312327 
L 167.772943 -179.752851 
L 166.965354 -179.193375 
L 166.1621 -178.633899 
L 165.376959 -178.074422 
L 164.613667 -177.514946 
L 163.873018 -176.95547 
L 163.162918 -176.395994 
L 162.499778 -175.836517 
L 161.898432 -175.277041 
L 161.359508 -174.717565 
L 160.866974 -174.158088 
L 160.399042 -173.598612 
L 159.942663 -173.039136 
L 159.49797 -172.47966 
L 159.067349 -171.920183 
L 158.639266 -171.360707 
L 158.185741 -170.801231 
L 157.68152 -170.241755 
L 157.131276 -169.682278 
L 156.580735 -169.122802 
z
" style="stroke: #004488; stroke-width: 1.1"/>
    </defs>
    <g clip-path="url(#p1ddb7ca9bf)">
     <use xlink:href="#mba9968b680" x="0" y="283.464567" style="fill: #bbccee; stroke: #004488; stroke-width: 1.1"/>
    </g>
   </g>
   <g id="FillBetweenPolyCollection_8">
    <defs>
     <path id="md02c02a729" d="M 227.857211 -164.691769 
L 222.85145 -164.691769 
L 221.818156 -165.258239 
L 220.747586 -165.824708 
L 219.711802 -166.391178 
L 218.730418 -166.957647 
L 217.778809 -167.524117 
L 216.818306 -168.090586 
L 215.827473 -168.657056 
L 214.819906 -169.223525 
L 213.840672 -169.789995 
L 212.941714 -170.356464 
L 212.151182 -170.922934 
L 211.459957 -171.489403 
L 210.835489 -172.055873 
L 210.248892 -172.622342 
L 209.691721 -173.188812 
L 209.171756 -173.755281 
L 208.695968 -174.321751 
L 208.256851 -174.88822 
L 207.83351 -175.45469 
L 207.407439 -176.021159 
L 206.981631 -176.587629 
L 206.586958 -177.154098 
L 206.26684 -177.720568 
L 206.048438 -178.287037 
L 205.923025 -178.853507 
L 205.853425 -179.419976 
L 205.803092 -179.986445 
L 205.761554 -180.552915 
L 205.745252 -181.119384 
L 205.776247 -181.685854 
L 205.859569 -182.252323 
L 205.977901 -182.818793 
L 206.106063 -183.385262 
L 206.232377 -183.951732 
L 206.369891 -184.518201 
L 206.549887 -185.084671 
L 206.804749 -185.65114 
L 207.153107 -186.21761 
L 207.593546 -186.784079 
L 208.105524 -187.350549 
L 208.655574 -187.917018 
L 209.207568 -188.483488 
L 209.732734 -189.049957 
L 210.213686 -189.616427 
L 210.641676 -190.182896 
L 211.012219 -190.749366 
L 211.324082 -191.315835 
L 211.580776 -191.882305 
L 211.789448 -192.448774 
L 211.955598 -193.015244 
L 212.078486 -193.581713 
L 212.152207 -194.148183 
L 212.171089 -194.714652 
L 212.13523 -195.281122 
L 212.055222 -195.847591 
L 211.955946 -196.41406 
L 211.874901 -196.98053 
L 211.850644 -197.546999 
L 211.906555 -198.113469 
L 212.042292 -198.679938 
L 212.238937 -199.246408 
L 212.472598 -199.812877 
L 212.728403 -200.379347 
L 213.009402 -200.945816 
L 213.335439 -201.512286 
L 213.73047 -202.078755 
L 214.20629 -202.645225 
L 214.754923 -203.211694 
L 215.353386 -203.778164 
L 215.973459 -204.344633 
L 216.588206 -204.911103 
L 217.174486 -205.477572 
L 217.715568 -206.044042 
L 218.205077 -206.610511 
L 218.648751 -207.176981 
L 219.060709 -207.74345 
L 219.455806 -208.30992 
L 219.843176 -208.876389 
L 220.224791 -209.442859 
L 220.598245 -210.009328 
L 220.960068 -210.575798 
L 221.307204 -211.142267 
L 221.637107 -211.708736 
L 221.947352 -212.275206 
L 222.234844 -212.841675 
L 222.495292 -213.408145 
L 222.724141 -213.974614 
L 222.918719 -214.541084 
L 223.079695 -215.107553 
L 223.210924 -215.674023 
L 223.318868 -216.240492 
L 223.412799 -216.806962 
L 223.505191 -217.373431 
L 223.61085 -217.939901 
L 223.744442 -218.50637 
L 223.916948 -219.07284 
L 224.13141 -219.639309 
L 224.378795 -220.205779 
L 224.636898 -220.772248 
L 226.071764 -220.772248 
L 226.071764 -220.772248 
L 226.329866 -220.205779 
L 226.577252 -219.639309 
L 226.791714 -219.07284 
L 226.96422 -218.50637 
L 227.097811 -217.939901 
L 227.203471 -217.373431 
L 227.295862 -216.806962 
L 227.389794 -216.240492 
L 227.497737 -215.674023 
L 227.628967 -215.107553 
L 227.789942 -214.541084 
L 227.98452 -213.974614 
L 228.21337 -213.408145 
L 228.473817 -212.841675 
L 228.76131 -212.275206 
L 229.071554 -211.708736 
L 229.401458 -211.142267 
L 229.748594 -210.575798 
L 230.110417 -210.009328 
L 230.483871 -209.442859 
L 230.865485 -208.876389 
L 231.252855 -208.30992 
L 231.647952 -207.74345 
L 232.059911 -207.176981 
L 232.503584 -206.610511 
L 232.993093 -206.044042 
L 233.534175 -205.477572 
L 234.120456 -204.911103 
L 234.735202 -204.344633 
L 235.355276 -203.778164 
L 235.953738 -203.211694 
L 236.502371 -202.645225 
L 236.978191 -202.078755 
L 237.373222 -201.512286 
L 237.69926 -200.945816 
L 237.980259 -200.379347 
L 238.236063 -199.812877 
L 238.469724 -199.246408 
L 238.66637 -198.679938 
L 238.802106 -198.113469 
L 238.858017 -197.546999 
L 238.833761 -196.98053 
L 238.752716 -196.41406 
L 238.653439 -195.847591 
L 238.573431 -195.281122 
L 238.537573 -194.714652 
L 238.556455 -194.148183 
L 238.630176 -193.581713 
L 238.753063 -193.015244 
L 238.919213 -192.448774 
L 239.127886 -191.882305 
L 239.384579 -191.315835 
L 239.696443 -190.749366 
L 240.066985 -190.182896 
L 240.494976 -189.616427 
L 240.975928 -189.049957 
L 241.501094 -188.483488 
L 242.053088 -187.917018 
L 242.603137 -187.350549 
L 243.115115 -186.784079 
L 243.555554 -186.21761 
L 243.903912 -185.65114 
L 244.158774 -185.084671 
L 244.33877 -184.518201 
L 244.476284 -183.951732 
L 244.602598 -183.385262 
L 244.730761 -182.818793 
L 244.849093 -182.252323 
L 244.932414 -181.685854 
L 244.963409 -181.119384 
L 244.947107 -180.552915 
L 244.90557 -179.986445 
L 244.855237 -179.419976 
L 244.785636 -178.853507 
L 244.660224 -178.287037 
L 244.441822 -177.720568 
L 244.121703 -177.154098 
L 243.727031 -176.587629 
L 243.301222 -176.021159 
L 242.875151 -175.45469 
L 242.45181 -174.88822 
L 242.012694 -174.321751 
L 241.536906 -173.755281 
L 241.016941 -173.188812 
L 240.459769 -172.622342 
L 239.873173 -172.055873 
L 239.248704 -171.489403 
L 238.557479 -170.922934 
L 237.766947 -170.356464 
L 236.867989 -169.789995 
L 235.888756 -169.223525 
L 234.881189 -168.657056 
L 233.890355 -168.090586 
L 232.929852 -167.524117 
L 231.978243 -166.957647 
L 230.996859 -166.391178 
L 229.961075 -165.824708 
L 228.890505 -165.258239 
L 227.857211 -164.691769 
z
" style="stroke: #004488; stroke-width: 1.1"/>
    </defs>
    <g clip-path="url(#p1ddb7ca9bf)">
     <use xlink:href="#md02c02a729" x="0" y="283.464567" style="fill: #bbccee; stroke: #004488; stroke-width: 1.1"/>
    </g>
   </g>
   <g id="FillBetweenPolyCollection_9">
    <defs>
     <path id="m031e120acc" d="M 296.593157 -166.145675 
L 294.180349 -166.145675 
L 293.688634 -166.619831 
L 293.207801 -167.093987 
L 292.783265 -167.568143 
L 292.427442 -168.042299 
L 292.124315 -168.516455 
L 291.845707 -168.990612 
L 291.564989 -169.464768 
L 291.259574 -169.938924 
L 290.904612 -170.41308 
L 290.468199 -170.887236 
L 289.917015 -171.361392 
L 289.231756 -171.835548 
L 288.420851 -172.309704 
L 287.518653 -172.78386 
L 286.568465 -173.258016 
L 285.60796 -173.732173 
L 284.669532 -174.206329 
L 283.785806 -174.680485 
L 282.985308 -175.154641 
L 282.281775 -175.628797 
L 281.670781 -176.102953 
L 281.134358 -176.577109 
L 280.642726 -177.051265 
L 280.152086 -177.525421 
L 279.612054 -177.999577 
L 278.989006 -178.473733 
L 278.289232 -178.94789 
L 277.560749 -179.422046 
L 276.874427 -179.896202 
L 276.304667 -180.370358 
L 275.920909 -180.844514 
L 275.777675 -181.31867 
L 275.890137 -181.792826 
L 276.210015 -182.266982 
L 276.632225 -182.741138 
L 277.037178 -183.215294 
L 277.337757 -183.689451 
L 277.499867 -184.163607 
L 277.535629 -184.637763 
L 277.486601 -185.111919 
L 277.406912 -185.586075 
L 277.347568 -186.060231 
L 277.34678 -186.534387 
L 277.429547 -187.008543 
L 277.607143 -187.482699 
L 277.868273 -187.956855 
L 278.173883 -188.431012 
L 278.47403 -188.905168 
L 278.741158 -189.379324 
L 278.991893 -189.85348 
L 279.281105 -190.327636 
L 279.678796 -190.801792 
L 280.24528 -191.275948 
L 281.006805 -191.750104 
L 281.934293 -192.22426 
L 282.940494 -192.698416 
L 283.904944 -193.172572 
L 284.711988 -193.646729 
L 285.278767 -194.120885 
L 285.565956 -194.595041 
L 285.577977 -195.069197 
L 285.357458 -195.543353 
L 284.974256 -196.017509 
L 284.510339 -196.491665 
L 284.042563 -196.965821 
L 283.626895 -197.439977 
L 283.293442 -197.914133 
L 283.059595 -198.38829 
L 282.951735 -198.862446 
L 283.015883 -199.336602 
L 283.309057 -199.810758 
L 283.875815 -200.284914 
L 284.716406 -200.75907 
L 285.761436 -201.233226 
L 286.879003 -201.707382 
L 287.922724 -202.181538 
L 288.790604 -202.655694 
L 289.453648 -203.12985 
L 289.943012 -203.604007 
L 290.316174 -204.078163 
L 290.627027 -204.552319 
L 290.911481 -205.026475 
L 291.187848 -205.500631 
L 291.464813 -205.974787 
L 291.747856 -206.448943 
L 292.039084 -206.923099 
L 292.333917 -207.397255 
L 292.621815 -207.871411 
L 292.89224 -208.345568 
L 293.13999 -208.819724 
L 293.365215 -209.29388 
L 293.569745 -209.768036 
L 293.754598 -210.242192 
L 293.921644 -210.716348 
L 294.07788 -211.190504 
L 294.23701 -211.66466 
L 294.41391 -212.138816 
L 294.613805 -212.612972 
L 294.82469 -213.087128 
L 295.948816 -213.087128 
L 295.948816 -213.087128 
L 296.159701 -212.612972 
L 296.359596 -212.138816 
L 296.536496 -211.66466 
L 296.695626 -211.190504 
L 296.851862 -210.716348 
L 297.018908 -210.242192 
L 297.203761 -209.768036 
L 297.408291 -209.29388 
L 297.633516 -208.819724 
L 297.881266 -208.345568 
L 298.151692 -207.871411 
L 298.439589 -207.397255 
L 298.734422 -206.923099 
L 299.02565 -206.448943 
L 299.308693 -205.974787 
L 299.585658 -205.500631 
L 299.862025 -205.026475 
L 300.146479 -204.552319 
L 300.457332 -204.078163 
L 300.830495 -203.604007 
L 301.319859 -203.12985 
L 301.982903 -202.655694 
L 302.850782 -202.181538 
L 303.894504 -201.707382 
L 305.01207 -201.233226 
L 306.057101 -200.75907 
L 306.897691 -200.284914 
L 307.464449 -199.810758 
L 307.757623 -199.336602 
L 307.821771 -198.862446 
L 307.713911 -198.38829 
L 307.480065 -197.914133 
L 307.146611 -197.439977 
L 306.730943 -196.965821 
L 306.263167 -196.491665 
L 305.79925 -196.017509 
L 305.416048 -195.543353 
L 305.195529 -195.069197 
L 305.207551 -194.595041 
L 305.49474 -194.120885 
L 306.061518 -193.646729 
L 306.868562 -193.172572 
L 307.833012 -192.698416 
L 308.839214 -192.22426 
L 309.766701 -191.750104 
L 310.528226 -191.275948 
L 311.09471 -190.801792 
L 311.492401 -190.327636 
L 311.781613 -189.85348 
L 312.032349 -189.379324 
L 312.299476 -188.905168 
L 312.599624 -188.431012 
L 312.905233 -187.956855 
L 313.166363 -187.482699 
L 313.343959 -187.008543 
L 313.426726 -186.534387 
L 313.425938 -186.060231 
L 313.366594 -185.586075 
L 313.286906 -185.111919 
L 313.237877 -184.637763 
L 313.273639 -184.163607 
L 313.435749 -183.689451 
L 313.736328 -183.215294 
L 314.141282 -182.741138 
L 314.563492 -182.266982 
L 314.883369 -181.792826 
L 314.995831 -181.31867 
L 314.852598 -180.844514 
L 314.468839 -180.370358 
L 313.899079 -179.896202 
L 313.212757 -179.422046 
L 312.484274 -178.94789 
L 311.7845 -178.473733 
L 311.161453 -177.999577 
L 310.62142 -177.525421 
L 310.13078 -177.051265 
L 309.639148 -176.577109 
L 309.102725 -176.102953 
L 308.491731 -175.628797 
L 307.788198 -175.154641 
L 306.9877 -174.680485 
L 306.103974 -174.206329 
L 305.165546 -173.732173 
L 304.205041 -173.258016 
L 303.254853 -172.78386 
L 302.352655 -172.309704 
L 301.54175 -171.835548 
L 300.856491 -171.361392 
L 300.305307 -170.887236 
L 299.868895 -170.41308 
L 299.513932 -169.938924 
L 299.208518 -169.464768 
L 298.9278 -168.990612 
L 298.649191 -168.516455 
L 298.346065 -168.042299 
L 297.990242 -167.568143 
L 297.565705 -167.093987 
L 297.084872 -166.619831 
L 296.593157 -166.145675 
z
" style="stroke: #004488; stroke-width: 1.1"/>
    </defs>
    <g clip-path="url(#p1ddb7ca9bf)">
     <use xlink:href="#m031e120acc" x="0" y="283.464567" style="fill: #bbccee; stroke: #004488; stroke-width: 1.1"/>
    </g>
   </g>
   <g id="FillBetweenPolyCollection_10">
    <defs>
     <path id="m1584a7a44c" d="M 366.140363 -164.968703 
L 364.697988 -164.968703 
L 364.375279 -165.563846 
L 364.047475 -166.158989 
L 363.728408 -166.754131 
L 363.407245 -167.349274 
L 363.066084 -167.944417 
L 362.699343 -168.53956 
L 362.317362 -169.134702 
L 361.932951 -169.729845 
L 361.546263 -170.324988 
L 361.144319 -170.920131 
L 360.713656 -171.515273 
L 360.249223 -172.110416 
L 359.750898 -172.705559 
L 359.218166 -173.300702 
L 358.653723 -173.895844 
L 358.068206 -174.490987 
L 357.472982 -175.08613 
L 356.867332 -175.681273 
L 356.2397 -176.276415 
L 355.584186 -176.871558 
L 354.908548 -177.466701 
L 354.22015 -178.061844 
L 353.511178 -178.656986 
L 352.771089 -179.252129 
L 352.016842 -179.847272 
L 351.301372 -180.442415 
L 350.682006 -181.037557 
L 350.176027 -181.6327 
L 349.746244 -182.227843 
L 349.329693 -182.822986 
L 348.881037 -183.418128 
L 348.395879 -184.013271 
L 347.907229 -184.608414 
L 347.46574 -185.203557 
L 347.111196 -185.798699 
L 346.84864 -186.393842 
L 346.65129 -186.988985 
L 346.489593 -187.584128 
L 346.351167 -188.17927 
L 346.230034 -188.774413 
L 346.112168 -189.369556 
L 345.987992 -189.964699 
L 345.874464 -190.559841 
L 345.810097 -191.154984 
L 345.822357 -191.750127 
L 345.899713 -192.34527 
L 345.994334 -192.940412 
L 346.057506 -193.535555 
L 346.085749 -194.130698 
L 346.137501 -194.725841 
L 346.294516 -195.320983 
L 346.596598 -195.916126 
L 347.015508 -196.511269 
L 347.4945 -197.106412 
L 348.002089 -197.701554 
L 348.53759 -198.296697 
L 349.098861 -198.89184 
L 349.670331 -199.486983 
L 350.245965 -200.082125 
L 350.844154 -200.677268 
L 351.486754 -201.272411 
L 352.17026 -201.867554 
L 352.867311 -202.462696 
L 353.553691 -203.057839 
L 354.226823 -203.652982 
L 354.898715 -204.248125 
L 355.576212 -204.843267 
L 356.249439 -205.43841 
L 356.896353 -206.033553 
L 357.496724 -206.628696 
L 358.044233 -207.223838 
L 358.547709 -207.818981 
L 359.020077 -208.414124 
L 359.466615 -209.009267 
L 359.885856 -209.604409 
L 360.277612 -210.199552 
L 360.64307 -210.794695 
L 360.979685 -211.389838 
L 361.283137 -211.98498 
L 361.552346 -212.580123 
L 361.788323 -213.175266 
L 361.993328 -213.770409 
L 362.176612 -214.365551 
L 362.356151 -214.960694 
L 362.547762 -215.555837 
L 362.752068 -216.15098 
L 362.954853 -216.746122 
L 363.141051 -217.341265 
L 363.307907 -217.936408 
L 363.464916 -218.531551 
L 363.622743 -219.126693 
L 363.783079 -219.721836 
L 363.938008 -220.316979 
L 364.07875 -220.912122 
L 364.206854 -221.507264 
L 364.338167 -222.102407 
L 364.494112 -222.69755 
L 364.684675 -223.292693 
L 364.89583 -223.887835 
L 365.942521 -223.887835 
L 365.942521 -223.887835 
L 366.153676 -223.292693 
L 366.344239 -222.69755 
L 366.500184 -222.102407 
L 366.631497 -221.507264 
L 366.759602 -220.912122 
L 366.900343 -220.316979 
L 367.055272 -219.721836 
L 367.215608 -219.126693 
L 367.373436 -218.531551 
L 367.530444 -217.936408 
L 367.6973 -217.341265 
L 367.883498 -216.746122 
L 368.086283 -216.15098 
L 368.29059 -215.555837 
L 368.4822 -214.960694 
L 368.66174 -214.365551 
L 368.845023 -213.770409 
L 369.050029 -213.175266 
L 369.286005 -212.580123 
L 369.555214 -211.98498 
L 369.858666 -211.389838 
L 370.195281 -210.794695 
L 370.56074 -210.199552 
L 370.952495 -209.604409 
L 371.371736 -209.009267 
L 371.818274 -208.414124 
L 372.290642 -207.818981 
L 372.794118 -207.223838 
L 373.341627 -206.628696 
L 373.941998 -206.033553 
L 374.588913 -205.43841 
L 375.262139 -204.843267 
L 375.939637 -204.248125 
L 376.611528 -203.652982 
L 377.28466 -203.057839 
L 377.97104 -202.462696 
L 378.668091 -201.867554 
L 379.351597 -201.272411 
L 379.994197 -200.677268 
L 380.592386 -200.082125 
L 381.168021 -199.486983 
L 381.73949 -198.89184 
L 382.300761 -198.296697 
L 382.836262 -197.701554 
L 383.343851 -197.106412 
L 383.822843 -196.511269 
L 384.241753 -195.916126 
L 384.543835 -195.320983 
L 384.70085 -194.725841 
L 384.752602 -194.130698 
L 384.780845 -193.535555 
L 384.844017 -192.940412 
L 384.938638 -192.34527 
L 385.015994 -191.750127 
L 385.028254 -191.154984 
L 384.963887 -190.559841 
L 384.850359 -189.964699 
L 384.726183 -189.369556 
L 384.608317 -188.774413 
L 384.487184 -188.17927 
L 384.348759 -187.584128 
L 384.187062 -186.988985 
L 383.989711 -186.393842 
L 383.727155 -185.798699 
L 383.372611 -185.203557 
L 382.931122 -184.608414 
L 382.442472 -184.013271 
L 381.957314 -183.418128 
L 381.508658 -182.822986 
L 381.092107 -182.227843 
L 380.662324 -181.6327 
L 380.156345 -181.037557 
L 379.536979 -180.442415 
L 378.821509 -179.847272 
L 378.067262 -179.252129 
L 377.327173 -178.656986 
L 376.618201 -178.061844 
L 375.929803 -177.466701 
L 375.254165 -176.871558 
L 374.598651 -176.276415 
L 373.971019 -175.681273 
L 373.365369 -175.08613 
L 372.770145 -174.490987 
L 372.184629 -173.895844 
L 371.620185 -173.300702 
L 371.087454 -172.705559 
L 370.589128 -172.110416 
L 370.124695 -171.515273 
L 369.694032 -170.920131 
L 369.292088 -170.324988 
L 368.9054 -169.729845 
L 368.520989 -169.134702 
L 368.139008 -168.53956 
L 367.772267 -167.944417 
L 367.431106 -167.349274 
L 367.109943 -166.754131 
L 366.790876 -166.158989 
L 366.463072 -165.563846 
L 366.140363 -164.968703 
z
" style="stroke: #004488; stroke-width: 1.1"/>
    </defs>
    <g clip-path="url(#p1ddb7ca9bf)">
     <use xlink:href="#m1584a7a44c" x="0" y="283.464567" style="fill: #bbccee; stroke: #004488; stroke-width: 1.1"/>
    </g>
   </g>
   <g id="line2d_22">
    <path d="M 85.289486 212.171047 
L 85.289486 198.877884 
" clip-path="url(#p1ddb7ca9bf)" style="fill: none; stroke: #000000; stroke-width: 1.9; stroke-linecap: round"/>
   </g>
   <g id="line2d_23">
    <path d="M 155.321908 210.717076 
L 155.321908 197.631662 
" clip-path="url(#p1ddb7ca9bf)" style="fill: none; stroke: #000000; stroke-width: 1.9; stroke-linecap: round"/>
   </g>
   <g id="line2d_24">
    <path d="M 225.354331 208.155409 
L 225.354331 193.754457 
" clip-path="url(#p1ddb7ca9bf)" style="fill: none; stroke: #000000; stroke-width: 1.9; stroke-linecap: round"/>
   </g>
   <g id="line2d_25">
    <path d="M 295.386753 215.217358 
L 295.386753 203.378153 
" clip-path="url(#p1ddb7ca9bf)" style="fill: none; stroke: #000000; stroke-width: 1.9; stroke-linecap: round"/>
   </g>
   <g id="line2d_26">
    <path d="M 365.419176 215.217385 
L 365.419176 205.662939 
" clip-path="url(#p1ddb7ca9bf)" style="fill: none; stroke: #000000; stroke-width: 1.9; stroke-linecap: round"/>
   </g>
   <g id="line2d_27">
    <path d="M 85.289486 97.309883 
L 85.289486 82.424341 
" clip-path="url(#p1ddb7ca9bf)" style="fill: none; stroke: #000000; stroke-width: 1.9; stroke-linecap: round"/>
   </g>
   <g id="line2d_28">
    <path d="M 155.321908 100.217774 
L 155.321908 85.747625 
" clip-path="url(#p1ddb7ca9bf)" style="fill: none; stroke: #000000; stroke-width: 1.9; stroke-linecap: round"/>
   </g>
   <g id="line2d_29">
    <path d="M 225.354331 106.171988 
L 225.354331 86.647676 
" clip-path="url(#p1ddb7ca9bf)" style="fill: none; stroke: #000000; stroke-width: 1.9; stroke-linecap: round"/>
   </g>
   <g id="line2d_30">
    <path d="M 295.386753 103.818018 
L 295.386753 89.070923 
" clip-path="url(#p1ddb7ca9bf)" style="fill: none; stroke: #000000; stroke-width: 1.9; stroke-linecap: round"/>
   </g>
   <g id="line2d_31">
    <path d="M 365.419176 100.010077 
L 365.419176 83.947523 
" clip-path="url(#p1ddb7ca9bf)" style="fill: none; stroke: #000000; stroke-width: 1.9; stroke-linecap: round"/>
   </g>
   <g id="text_12">
    <text style="font-weight: 700; font-size: 19px; font-family: 'Tahoma'; text-anchor: middle; fill: #004488" x="225.354331" y="47.294331" transform="rotate(-0 225.354331 47.294331)">from mean</text>
   </g>
   <g id="text_13">
    <text style="font-weight: 700; font-size: 19px; font-family: 'Tahoma'; text-anchor: middle; fill: #bb5566" x="225.354331" y="159.121081" transform="rotate(-0 225.354331 159.121081)">from p90</text>
   </g>
   <g id="line2d_32">
    <path d="M 76.885595 208.155395 
L 93.693377 208.155395 
" clip-path="url(#p1ddb7ca9bf)" style="fill: none; stroke: #bb5566; stroke-width: 2.1; stroke-linecap: square"/>
   </g>
   <g id="line2d_33">
    <path d="M 146.918018 206.562977 
L 163.725799 206.562977 
" clip-path="url(#p1ddb7ca9bf)" style="fill: none; stroke: #bb5566; stroke-width: 2.1; stroke-linecap: square"/>
   </g>
   <g id="line2d_34">
    <path d="M 216.95044 203.793573 
L 233.758221 203.793573 
" clip-path="url(#p1ddb7ca9bf)" style="fill: none; stroke: #bb5566; stroke-width: 2.1; stroke-linecap: square"/>
   </g>
   <g id="line2d_35">
    <path d="M 286.982862 212.309494 
L 303.790644 212.309494 
" clip-path="url(#p1ddb7ca9bf)" style="fill: none; stroke: #bb5566; stroke-width: 2.1; stroke-linecap: square"/>
   </g>
   <g id="line2d_36">
    <path d="M 357.015285 212.032561 
L 373.823066 212.032561 
" clip-path="url(#p1ddb7ca9bf)" style="fill: none; stroke: #bb5566; stroke-width: 2.1; stroke-linecap: square"/>
   </g>
   <g id="line2d_37">
    <path d="M 79.686892 89.970961 
L 90.89208 89.970961 
" clip-path="url(#p1ddb7ca9bf)" style="fill: none; stroke: #004488; stroke-width: 2.1; stroke-linecap: square"/>
   </g>
   <g id="line2d_38">
    <path d="M 149.719314 93.709692 
L 160.924502 93.709692 
" clip-path="url(#p1ddb7ca9bf)" style="fill: none; stroke: #004488; stroke-width: 2.1; stroke-linecap: square"/>
   </g>
   <g id="line2d_39">
    <path d="M 219.751737 97.794554 
L 230.956925 97.794554 
" clip-path="url(#p1ddb7ca9bf)" style="fill: none; stroke: #004488; stroke-width: 2.1; stroke-linecap: square"/>
   </g>
   <g id="line2d_40">
    <path d="M 289.784159 97.240647 
L 300.989347 97.240647 
" clip-path="url(#p1ddb7ca9bf)" style="fill: none; stroke: #004488; stroke-width: 2.1; stroke-linecap: square"/>
   </g>
   <g id="line2d_41">
    <path d="M 359.816582 91.978813 
L 371.021769 91.978813 
" clip-path="url(#p1ddb7ca9bf)" style="fill: none; stroke: #004488; stroke-width: 2.1; stroke-linecap: square"/>
   </g>
   <g id="PathCollection_1">
    <defs>
     <path id="me8bfbc3edd" d="M 0 2.345208 
C 0.621956 2.345208 1.218523 2.098102 1.658312 1.658312 
C 2.098102 1.218523 2.345208 0.621956 2.345208 0 
C 2.345208 -0.621956 2.098102 -1.218523 1.658312 -1.658312 
C 1.218523 -2.098102 0.621956 -2.345208 0 -2.345208 
C -0.621956 -2.345208 -1.218523 -2.098102 -1.658312 -1.658312 
C -2.098102 -1.218523 -2.345208 -0.621956 -2.345208 0 
C -2.345208 0.621956 -2.098102 1.218523 -1.658312 1.658312 
C -1.218523 2.098102 -0.621956 2.345208 0 2.345208 
z
" style="stroke: #bb5566"/>
    </defs>
    <g clip-path="url(#p1ddb7ca9bf)">
     <use xlink:href="#me8bfbc3edd" x="85.289486" y="204.47549" style="fill: #bb5566; stroke: #bb5566"/>
    </g>
   </g>
   <g id="PathCollection_2">
    <g clip-path="url(#p1ddb7ca9bf)">
     <use xlink:href="#me8bfbc3edd" x="155.321908" y="203.217581" style="fill: #bb5566; stroke: #bb5566"/>
    </g>
   </g>
   <g id="PathCollection_3">
    <g clip-path="url(#p1ddb7ca9bf)">
     <use xlink:href="#me8bfbc3edd" x="225.354331" y="200.312081" style="fill: #bb5566; stroke: #bb5566"/>
    </g>
   </g>
   <g id="PathCollection_4">
    <g clip-path="url(#p1ddb7ca9bf)">
     <use xlink:href="#me8bfbc3edd" x="295.386753" y="209.451731" style="fill: #bb5566; stroke: #bb5566"/>
    </g>
   </g>
   <g id="PathCollection_5">
    <g clip-path="url(#p1ddb7ca9bf)">
     <use xlink:href="#me8bfbc3edd" x="365.419176" y="209.59742" style="fill: #bb5566; stroke: #bb5566"/>
    </g>
   </g>
   <g id="PathCollection_6">
    <defs>
     <path id="mfaee406f4f" d="M 0 2.345208 
C 0.621956 2.345208 1.218523 2.098102 1.658312 1.658312 
C 2.098102 1.218523 2.345208 0.621956 2.345208 0 
C 2.345208 -0.621956 2.098102 -1.218523 1.658312 -1.658312 
C 1.218523 -2.098102 0.621956 -2.345208 0 -2.345208 
C -0.621956 -2.345208 -1.218523 -2.098102 -1.658312 -1.658312 
C -2.098102 -1.218523 -2.345208 -0.621956 -2.345208 0 
C -2.345208 0.621956 -2.098102 1.218523 -1.658312 1.658312 
C -1.218523 2.098102 -0.621956 2.345208 0 2.345208 
z
" style="stroke: #004488"/>
    </defs>
    <g clip-path="url(#p1ddb7ca9bf)">
     <use xlink:href="#mfaee406f4f" x="85.289486" y="88.998007" style="fill: #004488; stroke: #004488"/>
    </g>
   </g>
   <g id="PathCollection_7">
    <g clip-path="url(#p1ddb7ca9bf)">
     <use xlink:href="#mfaee406f4f" x="155.321908" y="92.198735" style="fill: #004488; stroke: #004488"/>
    </g>
   </g>
   <g id="PathCollection_8">
    <g clip-path="url(#p1ddb7ca9bf)">
     <use xlink:href="#mfaee406f4f" x="225.354331" y="96.103818" style="fill: #004488; stroke: #004488"/>
    </g>
   </g>
   <g id="PathCollection_9">
    <g clip-path="url(#p1ddb7ca9bf)">
     <use xlink:href="#mfaee406f4f" x="295.386753" y="96.299146" style="fill: #004488; stroke: #004488"/>
    </g>
   </g>
   <g id="PathCollection_10">
    <g clip-path="url(#p1ddb7ca9bf)">
     <use xlink:href="#mfaee406f4f" x="365.419176" y="91.622626" style="fill: #004488; stroke: #004488"/>
    </g>
   </g>
  </g>
 </g>
 <defs>
  <clipPath id="p1ddb7ca9bf">
   <rect x="46.771654" y="22.677165" width="357.165354" height="198.425197"/>
  </clipPath>
 </defs>
</svg>
